<?xml version="1.0" encoding="iso-8859-1"?>
<!-- Generator: Adobe Illustrator 16.0.0, SVG Export Plug-In . SVG Version: 6.00 Build 0)  -->
<!DOCTYPE svg PUBLIC "-//W3C//DTD SVG 1.1//EN" "http://www.w3.org/Graphics/SVG/1.1/DTD/svg11.dtd">
<svg version="1.1" id="Layer_1" xmlns="http://www.w3.org/2000/svg" xmlns:xlink="http://www.w3.org/1999/xlink" x="0px" y="0px"
	 width="126px" height="126px" viewBox="0 0 126 126" enable-background="new 0 0 126 126" xml:space="preserve">
<g>
	<path opacity="0.1" fill="#848383" enable-background="new    " d="M29.576,18.718c-10.884,0-13.699,2.83-13.699,13.767v56.392
		c0,10.936,2.815,13.766,13.699,13.766h19.715l15.664,21.066l15.777-21.066h19.613c10.896,0,13.713-2.83,13.713-13.766V32.484
		c0-10.937-2.815-13.767-13.713-13.767L29.576,18.718L29.576,18.718z"/>
	<path fill="#628DCE" d="M27.576,16.718c-10.883,0-13.7,2.831-13.7,13.767v56.393c0,10.935,2.816,13.765,13.7,13.765h19.717
		l15.663,21.065l15.776-21.065h19.615c10.896,0,13.713-2.83,13.713-13.765V30.484c0-10.936-2.817-13.767-13.713-13.767
		L27.576,16.718L27.576,16.718z"/>
	<path fill="#E5EDFD" d="M48.094,100.045c-0.188-0.254-0.486-0.404-0.802-0.404H27.576c-5.43,0-8.487-0.742-10.222-2.481
		c-1.737-1.745-2.478-4.817-2.478-10.276V30.484c0-5.459,0.741-8.534,2.478-10.279c1.735-1.742,4.792-2.486,10.222-2.486h70.771
		c5.437,0,8.49,0.744,10.229,2.486c1.734,1.745,2.479,4.818,2.479,10.279v56.393c0,5.459-0.742,8.533-2.479,10.275
		c-1.737,1.742-4.801,2.488-10.234,2.488H78.732c-0.314,0-0.612,0.146-0.801,0.396c0,0-13.527,18.062-14.979,19.995
		C61.52,118.1,48.094,100.045,48.094,100.045"/>
	<path fill="#FFFFFF" d="M34.432,43.334h-2.988l-1.485-9.615h-0.037l-1.485,9.615h-2.988L23.036,30.08h2.562l1.466,9.801h0.037
		l1.559-9.801h2.562l1.559,9.801h0.039l1.466-9.801h2.562L34.432,43.334L34.432,43.334z M42.821,43.334
		c-0.086-0.161-0.151-0.332-0.195-0.512c-0.043-0.178-0.083-0.355-0.121-0.527h-0.037c-0.297,0.519-0.641,0.855-1.03,1.01
		c-0.39,0.155-0.894,0.232-1.512,0.232c-0.446,0-0.824-0.077-1.132-0.232c-0.31-0.154-0.557-0.367-0.743-0.64
		c-0.185-0.271-0.322-0.578-0.409-0.919c-0.086-0.34-0.129-0.677-0.129-1.01c0-0.472,0.049-0.877,0.148-1.218
		c0.099-0.34,0.251-0.63,0.455-0.872c0.205-0.24,0.463-0.441,0.779-0.604c0.315-0.16,0.696-0.302,1.142-0.426l1.447-0.391
		c0.383-0.099,0.65-0.234,0.798-0.408c0.148-0.172,0.222-0.426,0.222-0.76c0-0.384-0.089-0.684-0.269-0.9
		c-0.18-0.217-0.485-0.324-0.919-0.324c-0.396,0-0.693,0.115-0.89,0.352c-0.198,0.235-0.297,0.55-0.297,0.946v0.279h-2.301v-0.243
		c0-0.581,0.092-1.066,0.278-1.456c0.185-0.39,0.436-0.704,0.752-0.946c0.314-0.242,0.687-0.414,1.113-0.52
		c0.426-0.105,0.881-0.158,1.364-0.158c0.767,0,1.386,0.075,1.855,0.224c0.471,0.148,0.835,0.359,1.096,0.631
		c0.261,0.272,0.436,0.597,0.528,0.974c0.093,0.377,0.139,0.789,0.139,1.234v5.253c0,0.47,0.022,0.835,0.065,1.096
		c0.043,0.259,0.126,0.538,0.251,0.835H42.821L42.821,43.334z M42.505,38.34c-0.172,0.138-0.359,0.244-0.556,0.326
		c-0.198,0.08-0.378,0.139-0.538,0.176c-0.521,0.111-0.891,0.297-1.115,0.557c-0.222,0.26-0.334,0.612-0.334,1.058
		c0,0.384,0.075,0.712,0.224,0.983c0.148,0.273,0.395,0.409,0.741,0.409c0.174,0,0.353-0.028,0.538-0.083
		c0.187-0.056,0.356-0.145,0.511-0.27c0.155-0.123,0.281-0.285,0.38-0.482c0.099-0.198,0.148-0.434,0.148-0.706L42.505,38.34
		L42.505,38.34z M46.866,43.334V30.08h2.562v13.254H46.866L46.866,43.334z M59.748,43.334h-2.822l-2.133-4.103l-0.91,1.188v2.914
		H51.32V30.08h2.562v6.998h0.038l2.579-3.73h2.822l-2.877,3.936L59.748,43.334L59.748,43.334z M68.747,35.131l2.062,0.891
		c0.508,0.222,0.924,0.453,1.243,0.695c0.322,0.24,0.578,0.501,0.771,0.779c0.19,0.279,0.325,0.586,0.399,0.92
		c0.069,0.333,0.106,0.703,0.106,1.112c0,1.399-0.401,2.416-1.215,3.054c-0.812,0.637-1.938,0.955-3.394,0.955
		c-1.511,0-2.588-0.328-3.234-0.984c-0.649-0.654-0.979-1.596-0.979-2.82v-0.537h2.672v0.389c0,0.311,0.024,0.592,0.076,0.846
		c0.049,0.254,0.145,0.466,0.276,0.64c0.138,0.173,0.317,0.309,0.549,0.407c0.228,0.1,0.517,0.148,0.86,0.148
		c0.408,0,0.773-0.133,1.104-0.398c0.324-0.266,0.49-0.678,0.49-1.233c0-0.297-0.041-0.554-0.121-0.771
		c-0.079-0.216-0.213-0.41-0.396-0.585c-0.188-0.172-0.433-0.33-0.73-0.473c-0.307-0.142-0.68-0.287-1.123-0.436
		c-0.596-0.197-1.105-0.415-1.539-0.65c-0.438-0.234-0.795-0.511-1.086-0.825c-0.293-0.315-0.506-0.681-0.643-1.095
		s-0.205-0.895-0.205-1.439c0-1.311,0.365-2.289,1.098-2.932c0.729-0.645,1.73-0.965,3.006-0.965c0.596,0,1.145,0.063,1.645,0.194
		c0.502,0.13,0.938,0.341,1.303,0.631c0.361,0.291,0.646,0.663,0.854,1.113c0.201,0.452,0.309,0.993,0.309,1.624v0.372h-2.562
		c0-0.632-0.11-1.118-0.334-1.458c-0.225-0.34-0.596-0.51-1.114-0.51c-0.297,0-0.543,0.043-0.74,0.13
		c-0.196,0.086-0.354,0.201-0.475,0.343c-0.117,0.143-0.197,0.307-0.24,0.492s-0.063,0.377-0.063,0.575
		c0,0.409,0.088,0.752,0.261,1.03C67.811,34.639,68.18,34.896,68.747,35.131L68.747,35.131z M79.354,36.225
		c-0.023-0.235-0.086-0.447-0.166-0.641c-0.082-0.191-0.189-0.346-0.344-0.463c-0.148-0.119-0.346-0.178-0.594-0.178
		c-0.309,0-0.562,0.072-0.762,0.215c-0.197,0.142-0.346,0.352-0.445,0.63c-0.1,0.28-0.166,0.631-0.203,1.06
		c-0.037,0.426-0.055,0.931-0.055,1.512c0,0.618,0.018,1.148,0.055,1.588c0.037,0.438,0.104,0.8,0.203,1.084
		c0.1,0.285,0.24,0.492,0.418,0.623c0.18,0.129,0.41,0.194,0.697,0.194c0.432,0,0.746-0.185,0.945-0.558
		c0.191-0.37,0.297-0.965,0.297-1.781h2.451c0,1.312-0.295,2.311-0.889,2.997c-0.588,0.686-1.562,1.03-2.922,1.03
		c-0.646,0-1.205-0.077-1.688-0.232c-0.475-0.154-0.867-0.432-1.188-0.834c-0.314-0.403-0.553-0.941-0.713-1.615
		c-0.162-0.674-0.242-1.512-0.242-2.516c0-1.026,0.1-1.876,0.297-2.552c0.199-0.674,0.479-1.212,0.836-1.614
		c0.357-0.402,0.785-0.684,1.281-0.845c0.494-0.159,1.039-0.241,1.631-0.241c1.189,0,2.082,0.347,2.686,1.039
		c0.604,0.693,0.898,1.635,0.898,2.822h-2.451C79.4,36.701,79.389,36.461,79.354,36.225L79.354,36.225z M90.52,40.605
		c-0.136,0.656-0.354,1.203-0.666,1.643c-0.312,0.439-0.717,0.764-1.217,0.975s-1.117,0.314-1.849,0.314
		c-0.769,0.013-1.404-0.084-1.91-0.287c-0.508-0.205-0.91-0.525-1.209-0.965c-0.297-0.439-0.506-0.99-0.629-1.652
		c-0.123-0.662-0.187-1.426-0.187-2.293c0-0.853,0.063-1.607,0.203-2.264c0.137-0.655,0.354-1.203,0.668-1.643
		c0.312-0.438,0.715-0.772,1.217-1.002c0.5-0.229,1.117-0.344,1.847-0.344c0.769-0.012,1.403,0.091,1.912,0.307
		c0.508,0.217,0.907,0.548,1.204,0.993c0.298,0.446,0.509,0.997,0.634,1.651c0.123,0.656,0.187,1.423,0.187,2.301
		C90.725,39.195,90.654,39.95,90.52,40.605L90.52,40.605z M87.863,35.649c-0.196-0.544-0.557-0.815-1.075-0.815
		c-0.31,0-0.558,0.086-0.742,0.258c-0.187,0.174-0.323,0.416-0.416,0.725c-0.096,0.309-0.151,0.682-0.178,1.113
		c-0.022,0.434-0.037,0.904-0.037,1.41c0,0.508,0.015,0.978,0.037,1.412c0.024,0.433,0.082,0.803,0.178,1.113
		c0.093,0.31,0.229,0.551,0.416,0.723c0.187,0.175,0.435,0.261,0.742,0.261c0.521,0,0.879-0.272,1.075-0.817
		c0.199-0.543,0.3-1.44,0.3-2.691C88.163,37.092,88.062,36.193,87.863,35.649L87.863,35.649z M96.95,35.547
		c-0.13-0.006-0.265-0.01-0.398-0.01c-0.223,0-0.444,0.032-0.668,0.094c-0.225,0.062-0.428,0.164-0.612,0.307
		c-0.187,0.142-0.334,0.328-0.44,0.557c-0.11,0.229-0.166,0.51-0.166,0.845v5.995H92.1v-9.986h2.448v1.337h0.037
		c0.263-0.481,0.576-0.87,0.947-1.161c0.37-0.291,0.821-0.436,1.354-0.436c0.069,0,0.146,0.003,0.229,0.01
		c0.078,0.006,0.152,0.016,0.229,0.027v2.451C97.212,35.562,97.079,35.554,96.95,35.547L96.95,35.547z M100.468,38.73v0.798
		c0,0.297,0.021,0.585,0.064,0.864c0.043,0.277,0.112,0.525,0.215,0.74c0.096,0.218,0.229,0.391,0.39,0.521
		c0.159,0.129,0.356,0.194,0.592,0.194c0.438,0,0.75-0.155,0.946-0.464c0.199-0.309,0.334-0.779,0.41-1.41h2.302
		c-0.05,1.162-0.359,2.047-0.929,2.653s-1.467,0.909-2.69,0.909c-0.929,0-1.647-0.155-2.172-0.463
		c-0.521-0.312-0.904-0.718-1.15-1.226c-0.243-0.508-0.396-1.076-0.45-1.707c-0.06-0.632-0.084-1.263-0.084-1.894
		c0-0.668,0.047-1.312,0.142-1.932c0.096-0.617,0.276-1.168,0.559-1.65c0.279-0.482,0.678-0.866,1.197-1.15
		c0.52-0.285,1.213-0.428,2.073-0.428c0.744,0,1.354,0.121,1.83,0.362c0.479,0.241,0.854,0.581,1.123,1.021
		c0.271,0.44,0.457,0.971,0.562,1.598c0.1,0.624,0.146,1.32,0.146,2.086v0.576h-5.065L100.468,38.73L100.468,38.73z M103.009,36.197
		c-0.036-0.291-0.102-0.538-0.194-0.742c-0.092-0.205-0.222-0.359-0.39-0.465c-0.166-0.104-0.381-0.156-0.641-0.156
		c-0.259,0-0.474,0.059-0.642,0.175c-0.166,0.118-0.306,0.273-0.396,0.465c-0.104,0.192-0.172,0.405-0.215,0.641
		c-0.045,0.234-0.064,0.47-0.064,0.704v0.39h2.617C103.07,36.824,103.048,36.488,103.009,36.197L103.009,36.197z"/>
	<path fill="#6C96D5" d="M33.878,43.94H30.89l-1.485-9.615h-0.037l-1.485,9.615h-2.988l-2.413-13.253h2.562l1.466,9.801h0.037
		l1.559-9.801h2.562l1.559,9.801h0.039l1.466-9.801h2.562L33.878,43.94L33.878,43.94z M42.267,43.94
		c-0.086-0.161-0.151-0.332-0.195-0.511c-0.043-0.18-0.083-0.356-0.121-0.529h-0.037c-0.297,0.52-0.641,0.856-1.03,1.012
		c-0.39,0.154-0.894,0.23-1.512,0.23c-0.446,0-0.824-0.076-1.132-0.23c-0.31-0.155-0.557-0.367-0.743-0.641
		c-0.185-0.271-0.322-0.578-0.409-0.918c-0.086-0.341-0.129-0.678-0.129-1.012c0-0.471,0.049-0.877,0.148-1.217
		s0.251-0.631,0.455-0.871c0.205-0.242,0.463-0.443,0.779-0.604c0.315-0.159,0.696-0.302,1.142-0.427l1.447-0.389
		c0.383-0.1,0.65-0.235,0.798-0.409c0.148-0.173,0.222-0.427,0.222-0.761c0-0.383-0.089-0.684-0.269-0.9
		c-0.18-0.215-0.485-0.324-0.919-0.324c-0.396,0-0.693,0.117-0.89,0.354c-0.198,0.234-0.297,0.549-0.297,0.945v0.279h-2.301v-0.242
		c0-0.582,0.092-1.067,0.278-1.457c0.185-0.39,0.436-0.704,0.752-0.947c0.314-0.24,0.687-0.413,1.113-0.519
		c0.426-0.105,0.881-0.158,1.364-0.158c0.767,0,1.386,0.075,1.855,0.224c0.471,0.148,0.835,0.359,1.096,0.631
		c0.261,0.272,0.436,0.598,0.528,0.975c0.093,0.377,0.139,0.788,0.139,1.234v5.252c0,0.469,0.022,0.835,0.065,1.096
		c0.043,0.258,0.126,0.538,0.251,0.835L42.267,43.94L42.267,43.94z M41.951,38.947c-0.172,0.137-0.359,0.244-0.556,0.325
		c-0.198,0.08-0.378,0.14-0.538,0.176c-0.521,0.112-0.891,0.297-1.115,0.558c-0.222,0.258-0.334,0.611-0.334,1.057
		c0,0.383,0.075,0.713,0.224,0.984c0.148,0.272,0.395,0.408,0.741,0.408c0.174,0,0.353-0.029,0.538-0.083
		c0.187-0.056,0.356-0.146,0.511-0.27c0.155-0.123,0.281-0.284,0.38-0.482c0.099-0.198,0.148-0.433,0.148-0.706L41.951,38.947
		L41.951,38.947z M46.312,43.94V30.688h2.562V43.94H46.312L46.312,43.94z M59.193,43.94h-2.822l-2.133-4.103l-0.91,1.188v2.915
		h-2.562V30.688h2.562v6.998h0.038l2.579-3.73h2.822l-2.877,3.935L59.193,43.94L59.193,43.94z M68.193,35.736l2.061,0.892
		c0.508,0.222,0.923,0.454,1.244,0.694c0.322,0.241,0.578,0.502,0.77,0.779c0.191,0.279,0.326,0.586,0.399,0.92
		c0.075,0.334,0.11,0.705,0.11,1.113c0,1.398-0.404,2.416-1.215,3.054c-0.812,0.637-1.939,0.954-3.393,0.954
		c-1.511,0-2.588-0.326-3.232-0.982c-0.65-0.655-0.979-1.596-0.979-2.82v-0.539h2.671v0.391c0,0.309,0.023,0.59,0.075,0.844
		c0.05,0.254,0.146,0.467,0.272,0.641c0.142,0.173,0.318,0.309,0.553,0.407c0.229,0.099,0.517,0.148,0.857,0.148
		c0.408,0,0.775-0.132,1.104-0.399c0.327-0.265,0.491-0.677,0.491-1.232c0-0.297-0.039-0.555-0.121-0.771
		c-0.079-0.215-0.213-0.41-0.398-0.584c-0.186-0.173-0.43-0.331-0.732-0.473c-0.305-0.143-0.678-0.288-1.119-0.437
		c-0.598-0.198-1.105-0.415-1.539-0.649c-0.438-0.235-0.797-0.512-1.088-0.826c-0.293-0.316-0.508-0.68-0.643-1.096
		c-0.138-0.414-0.205-0.895-0.205-1.438c0-1.312,0.364-2.288,1.1-2.933c0.729-0.643,1.729-0.964,3.008-0.964
		c0.594,0,1.146,0.063,1.646,0.194c0.502,0.129,0.936,0.34,1.299,0.631c0.365,0.291,0.646,0.663,0.854,1.113
		c0.204,0.452,0.309,0.993,0.309,1.624v0.372H69.79c0-0.633-0.112-1.117-0.334-1.458c-0.224-0.34-0.595-0.509-1.115-0.509
		c-0.297,0-0.544,0.043-0.739,0.129c-0.201,0.086-0.354,0.201-0.476,0.344c-0.118,0.142-0.198,0.307-0.241,0.491
		c-0.043,0.186-0.064,0.377-0.064,0.575c0,0.408,0.093,0.752,0.265,1.029C67.255,35.245,67.625,35.502,68.193,35.736L68.193,35.736z
		 M78.801,36.83c-0.029-0.234-0.086-0.446-0.166-0.64c-0.082-0.192-0.195-0.345-0.344-0.464c-0.148-0.117-0.348-0.177-0.594-0.177
		c-0.311,0-0.563,0.071-0.762,0.214c-0.199,0.143-0.353,0.354-0.445,0.631c-0.1,0.279-0.166,0.631-0.203,1.059
		c-0.038,0.427-0.057,0.932-0.057,1.513c0,0.618,0.019,1.148,0.057,1.587c0.037,0.439,0.104,0.801,0.203,1.085
		c0.099,0.286,0.238,0.491,0.418,0.622c0.179,0.13,0.41,0.195,0.695,0.195c0.434,0,0.748-0.186,0.94-0.557
		c0.198-0.371,0.302-0.965,0.302-1.783h2.447c0,1.312-0.296,2.311-0.884,2.998c-0.589,0.687-1.562,1.029-2.925,1.029
		c-0.646,0-1.201-0.076-1.684-0.23c-0.476-0.155-0.871-0.434-1.188-0.836c-0.316-0.402-0.553-0.94-0.715-1.614
		c-0.16-0.674-0.24-1.513-0.24-2.515c0-1.027,0.1-1.877,0.297-2.553c0.197-0.674,0.477-1.212,0.835-1.614
		c0.356-0.402,0.786-0.684,1.28-0.845c0.496-0.16,1.039-0.241,1.633-0.241c1.188,0,2.082,0.347,2.684,1.04
		c0.604,0.692,0.9,1.633,0.9,2.821H78.84C78.848,37.309,78.833,37.066,78.801,36.83L78.801,36.83z M89.965,41.211
		c-0.136,0.656-0.359,1.205-0.667,1.644c-0.312,0.438-0.716,0.763-1.217,0.974c-0.5,0.211-1.116,0.314-1.847,0.314
		c-0.771,0.014-1.405-0.082-1.912-0.287c-0.508-0.204-0.909-0.525-1.207-0.965c-0.297-0.438-0.506-0.99-0.631-1.65
		c-0.123-0.663-0.188-1.426-0.188-2.293c0-0.854,0.067-1.609,0.204-2.266c0.139-0.654,0.355-1.202,0.668-1.641
		s0.719-0.773,1.221-1.004c0.5-0.229,1.112-0.343,1.846-0.343c0.769-0.011,1.404,0.091,1.912,0.307
		c0.508,0.218,0.908,0.548,1.205,0.993c0.297,0.445,0.508,0.996,0.633,1.651c0.123,0.656,0.188,1.423,0.188,2.302
		C90.17,39.801,90.102,40.557,89.965,41.211L89.965,41.211z M87.311,36.256c-0.197-0.545-0.557-0.816-1.076-0.816
		c-0.31,0-0.557,0.086-0.736,0.259c-0.188,0.175-0.324,0.415-0.417,0.726c-0.101,0.309-0.149,0.68-0.183,1.113
		c-0.021,0.432-0.037,0.903-0.037,1.41c0,0.508,0.019,0.977,0.037,1.411c0.025,0.433,0.082,0.804,0.183,1.113
		c0.093,0.31,0.229,0.551,0.417,0.724c0.188,0.174,0.436,0.26,0.736,0.26c0.521,0,0.879-0.273,1.076-0.817
		c0.198-0.543,0.299-1.44,0.299-2.69S87.509,36.801,87.311,36.256L87.311,36.256z M96.396,36.154c-0.131-0.007-0.27-0.01-0.399-0.01
		c-0.222,0-0.445,0.031-0.668,0.092c-0.224,0.062-0.429,0.165-0.613,0.307c-0.185,0.143-0.333,0.329-0.444,0.558
		c-0.106,0.229-0.166,0.509-0.166,0.845v5.995h-2.562v-9.985h2.449v1.336h0.036c0.262-0.482,0.574-0.87,0.947-1.16
		c0.369-0.291,0.817-0.437,1.354-0.437c0.072,0,0.148,0.003,0.23,0.01c0.08,0.007,0.153,0.016,0.229,0.026v2.451
		C96.658,36.17,96.525,36.16,96.396,36.154L96.396,36.154z M99.913,39.336v0.799c0,0.297,0.021,0.584,0.065,0.864
		c0.043,0.278,0.107,0.525,0.213,0.741c0.098,0.217,0.229,0.389,0.391,0.52c0.159,0.13,0.357,0.195,0.592,0.195
		c0.436,0,0.749-0.154,0.947-0.465c0.197-0.309,0.334-0.779,0.408-1.41h2.302c-0.049,1.163-0.358,2.048-0.929,2.654
		c-0.569,0.607-1.465,0.908-2.689,0.908c-0.928,0-1.652-0.154-2.172-0.463c-0.52-0.31-0.904-0.717-1.15-1.225
		c-0.248-0.508-0.396-1.076-0.455-1.707c-0.056-0.633-0.084-1.264-0.084-1.895c0-0.667,0.047-1.311,0.146-1.93
		c0.093-0.619,0.272-1.17,0.556-1.652c0.28-0.481,0.684-0.865,1.198-1.149c0.521-0.286,1.212-0.428,2.077-0.428
		c0.738,0,1.354,0.121,1.824,0.362c0.479,0.241,0.854,0.582,1.123,1.021c0.271,0.439,0.457,0.972,0.562,1.597
		s0.146,1.321,0.146,2.088v0.574L99.913,39.336L99.913,39.336z M102.455,36.804c-0.037-0.291-0.104-0.538-0.195-0.743
		c-0.092-0.204-0.222-0.359-0.39-0.465c-0.166-0.104-0.38-0.156-0.64-0.156s-0.479,0.06-0.646,0.176
		c-0.166,0.118-0.301,0.273-0.396,0.465c-0.104,0.191-0.17,0.406-0.213,0.641c-0.045,0.234-0.063,0.469-0.063,0.704v0.39h2.614
		C102.518,37.432,102.493,37.094,102.455,36.804L102.455,36.804z"/>
</g>
<g id="ws-text"><text transform="matrix(1 0 0 1 47 89)" style=" fill : #02456C; font-family : 'Verdana'; font-weight : bold; font-size : 52px; letter-spacing : -1; ">0</text>
</g>
</svg>