<?xml version="1.0" encoding="iso-8859-1"?>
<!-- Generator: Adobe Illustrator 15.0.0, SVG Export Plug-In . SVG Version: 6.00 Build 0)  -->
<!DOCTYPE svg PUBLIC "-//W3C//DTD SVG 1.1//EN" "http://www.w3.org/Graphics/SVG/1.1/DTD/svg11.dtd">
<svg version="1.1" xmlns="http://www.w3.org/2000/svg" xmlns:xlink="http://www.w3.org/1999/xlink" x="0px" y="0px" width="126px"
	 height="126px" viewBox="0 0 126 126" style="enable-background:new 0 0 126 126;" xml:space="preserve">
<g id="bs-badge">
  <path style="opacity:0.1;fill:#848383;" d="M69.94,117.72c-1.179-2.376-2.28-4.919-3.271-7.572
    c-0.225,0.003-1.319,0.015-1.319,0.015c-0.484-0.003-1.134-0.017-1.538-0.039c-0.979-0.021-1.952-0.111-2.897-0.203
    c-1.365,2.573-2.846,5.012-4.411,7.255c-0.189,0.271-0.498,0.428-0.822,0.428c-0.058,0-0.116-0.005-0.173-0.014
    c-1.437-0.255-2.981-0.612-4.719-1.092c-0.403-0.112-0.695-0.464-0.73-0.883c-0.184-2.224-0.277-4.447-0.277-6.607
    c0-0.538,0.005-1.073,0.016-1.6c-0.804-0.286-1.589-0.606-2.354-0.921l-0.282-0.115c-0.008-0.003-0.016-0.007-0.022-0.01
    c-1.024-0.448-1.858-0.838-2.618-1.223c-2.097,1.822-4.315,3.526-6.76,5.196c-0.17,0.117-0.367,0.175-0.564,0.175
    c-0.181,0-0.362-0.048-0.522-0.147c-1.237-0.756-2.541-1.633-3.988-2.678c-0.265-0.19-0.414-0.495-0.414-0.811
    c0-0.096,0.015-0.193,0.043-0.29c0.836-2.766,1.74-5.312,2.752-7.753c-0.708-0.609-1.408-1.249-2.088-1.91
    c-0.003-0.003-0.006-0.007-0.009-0.01l-0.192-0.193c-0.601-0.602-1.216-1.217-1.803-1.869c-2.647,0.964-5.337,1.765-8.205,2.44
    c-0.077,0.018-0.154,0.027-0.231,0.027c-0.309,0-0.605-0.145-0.796-0.397c-1.124-1.49-1.995-2.744-2.74-3.946
    c-0.101-0.162-0.15-0.345-0.15-0.527c0-0.216,0.07-0.433,0.21-0.611c1.621-2.095,3.441-4.195,5.411-6.251
    c-0.433-0.815-0.867-1.656-1.242-2.523c-0.417-0.888-0.785-1.817-1.101-2.641c-2.888-0.058-5.759-0.28-8.542-0.66
    c-0.391-0.053-0.714-0.332-0.825-0.71c-0.386-1.321-0.73-2.749-1.118-4.626c-0.015-0.066-0.021-0.136-0.021-0.203
    c0-0.346,0.181-0.675,0.489-0.857c2.419-1.44,4.884-2.752,7.337-3.906c-0.109-0.958-0.197-1.861-0.239-2.789
    c-0.046-0.649-0.067-1.354-0.067-2.219c0,0,0.003-0.318,0.005-0.634c-2.686-1.085-5.281-2.312-7.726-3.657
    c-0.321-0.177-0.518-0.517-0.518-0.879c0-0.028,0-0.056,0.003-0.084c0.135-1.541,0.359-3.138,0.667-4.748
    c0.079-0.408,0.401-0.727,0.81-0.798c2.733-0.481,5.512-0.823,8.269-1.019c0.225-0.854,0.49-1.691,0.75-2.505l0.058-0.183
    c0.001-0.005,0.003-0.008,0.005-0.014c0.299-0.9,0.629-1.795,0.985-2.672c-2.053-1.918-4.019-3.988-5.853-6.156
    c-0.156-0.184-0.236-0.413-0.236-0.646c0-0.152,0.036-0.306,0.106-0.448c0.643-1.275,1.386-2.602,2.341-4.168
    c0.185-0.301,0.511-0.479,0.855-0.479c0.064,0,0.128,0.006,0.192,0.019l1.444,0.282c2.027,0.391,3.807,0.735,5.896,1.348
    c0.101-0.17,0.198-0.342,0.299-0.518c0.316-0.553,0.643-1.123,1.115-1.705c0.005-0.006,0.011-0.014,0.018-0.021
    c0.293-0.341,0.529-0.69,0.78-1.062c0.234-0.346,0.473-0.697,0.765-1.053c-0.71-1.582-1.155-3.191-1.59-4.75
    c-0.279-1.008-0.567-2.049-0.928-3.088c-0.037-0.107-0.054-0.218-0.054-0.326c0-0.282,0.119-0.557,0.338-0.75
    c1.381-1.22,2.562-2.189,3.719-3.051c0.176-0.133,0.386-0.199,0.598-0.199c0.183,0,0.366,0.05,0.526,0.149
    c2.273,1.407,4.581,3.014,6.874,4.786c0.505-0.228,1.061-0.406,1.604-0.578c0.579-0.187,1.123-0.359,1.514-0.562
    c0.841-0.49,1.714-0.917,2.561-1.327c-0.127-1.774-0.191-3.53-0.191-5.231c0-1.068,0.026-2.148,0.079-3.213
    c0.019-0.394,0.266-0.738,0.633-0.883c1.57-0.617,3.197-1.116,4.581-1.523c0.093-0.027,0.188-0.04,0.282-0.04
    c0.311,0,0.611,0.146,0.803,0.403c1.755,2.362,3.266,4.61,4.608,6.852c0.865-0.181,1.793-0.344,2.815-0.495
    c0.005,0,0.008,0,0.011,0c0.923-0.125,1.894-0.251,2.872-0.33c0.82-2.673,1.817-5.337,2.969-7.925
    c0.16-0.36,0.518-0.593,0.914-0.593c0.001,0,0.003,0,0.004,0c1.883,0.009,3.423,0.077,4.844,0.216
    c0.41,0.041,0.753,0.329,0.865,0.725c0.73,2.6,1.333,5.297,1.796,8.027c0.897,0.145,1.822,0.326,2.806,0.549
    c0.852,0.186,1.74,0.414,2.809,0.725c1.793-2.248,3.705-4.373,5.686-6.326c0.19-0.189,0.443-0.289,0.701-0.289
    c0.119,0,0.239,0.021,0.354,0.064c1.357,0.516,2.804,1.143,4.424,1.92c0.35,0.168,0.569,0.521,0.569,0.902
    c0,0.036-0.004,0.071-0.007,0.106c-0.311,2.881-0.726,5.544-1.269,8.114c0.786,0.458,1.547,0.945,2.291,1.421l0.104,0.067
    c0.012,0.008,0.022,0.014,0.034,0.022l0.305,0.213c0.671,0.466,1.358,0.942,2.028,1.453c2.341-1.38,4.837-2.656,7.612-3.892
    c0.131-0.058,0.27-0.087,0.407-0.087c0.246,0,0.49,0.092,0.678,0.265c1.368,1.261,2.454,2.331,3.417,3.369
    c0.175,0.189,0.267,0.434,0.267,0.68c0,0.155-0.037,0.312-0.111,0.459c-0.553,1.071-0.914,2.078-1.266,3.052
    c-0.424,1.181-0.861,2.396-1.623,3.676c0.223,0.394,0.367,0.773,0.5,1.123c0.154,0.405,0.287,0.757,0.525,1.106
    c0.569,0.776,1.082,1.59,1.572,2.39c1.976-0.294,3.762-0.341,5.643-0.392c0.737-0.019,1.5-0.038,2.298-0.073
    c0.015,0,0.03-0.001,0.045-0.001c0.374,0,0.717,0.208,0.89,0.541c0.673,1.307,1.313,2.74,1.961,4.383
    c0.047,0.118,0.069,0.243,0.069,0.366c0,0.282-0.119,0.558-0.34,0.751c-2.095,1.844-4.271,3.574-6.479,5.148
    c0.195,0.627,0.365,1.255,0.53,1.869l0.218,0.805c0.005,0.017,0.011,0.044,0.015,0.061l0.184,0.838
    c0.138,0.627,0.28,1.27,0.397,1.924c2.708,0.541,5.422,1.258,8.271,2.18c0.383,0.125,0.655,0.466,0.688,0.867
    c0.106,1.265,0.228,2.935,0.228,4.627v0.144c0,0.417-0.258,0.79-0.648,0.937c-2.516,0.945-5.186,1.787-7.941,2.512
    c-0.065,0.923-0.144,1.865-0.29,2.803c-0.115,0.948-0.288,1.886-0.466,2.801c2.481,1.589,4.802,3.269,6.902,4.997
    c0.234,0.194,0.364,0.479,0.364,0.774c0,0.089-0.012,0.181-0.037,0.271c-0.396,1.396-0.897,2.881-1.535,4.532
    c-0.147,0.388-0.521,0.642-0.935,0.642c-0.003,0-0.008,0-0.011,0c-2.9-0.035-5.631-0.2-8.322-0.502
    c-0.358,0.755-0.75,1.488-1.13,2.205l-0.155,0.29c-0.005,0.011-0.011,0.022-0.018,0.033l-0.016,0.029
    c-0.46,0.791-0.933,1.605-1.444,2.401c1.598,2.157,3.112,4.488,4.615,7.104c0.09,0.155,0.133,0.325,0.133,0.497
    c0,0.216-0.07,0.433-0.208,0.612c-0.978,1.267-2.015,2.502-3.08,3.672c-0.192,0.213-0.465,0.327-0.74,0.327
    c-0.123,0-0.247-0.022-0.365-0.069c-2.616-1.031-5.167-2.182-7.593-3.426c-0.795,0.745-1.472,1.342-2.137,1.888
    c-0.771,0.643-1.517,1.225-2.261,1.765c0.728,2.701,1.297,5.481,1.694,8.273c0.006,0.047,0.01,0.095,0.01,0.142
    c0,0.348-0.18,0.673-0.482,0.855c-1.609,0.973-2.955,1.713-4.24,2.33c-0.138,0.065-0.285,0.098-0.431,0.098
    c-0.245,0-0.487-0.09-0.676-0.262c-2.008-1.836-3.958-3.819-5.809-5.904c-0.873,0.355-1.766,0.673-2.676,0.99
    c-0.003,0.002-0.008,0.003-0.013,0.005c-0.988,0.33-1.898,0.604-2.763,0.835c-0.293,2.654-0.766,5.387-1.438,8.325
    c-0.09,0.395-0.407,0.693-0.805,0.763c-1.86,0.322-3.377,0.532-4.779,0.66c-0.032,0.003-0.062,0.005-0.093,0.005
    C70.459,118.274,70.11,118.062,69.94,117.72"/>
  <path style="fill:#628DCE;" d="M67.94,115.72c-1.179-2.376-2.28-4.919-3.271-7.572c-0.225,0.003-1.319,0.015-1.319,0.015
    c-0.484-0.003-1.134-0.017-1.538-0.039c-0.979-0.021-1.952-0.111-2.897-0.203c-1.365,2.573-2.846,5.012-4.411,7.255
    c-0.189,0.271-0.498,0.428-0.822,0.428c-0.058,0-0.116-0.005-0.173-0.014c-1.437-0.255-2.981-0.612-4.719-1.092
    c-0.403-0.112-0.695-0.464-0.73-0.883c-0.184-2.224-0.277-4.447-0.277-6.607c0-0.538,0.005-1.073,0.016-1.6
    c-0.804-0.286-1.589-0.606-2.354-0.921l-0.282-0.115c-0.008-0.003-0.016-0.007-0.022-0.01c-1.024-0.448-1.858-0.838-2.618-1.223
    c-2.097,1.822-4.315,3.526-6.76,5.196c-0.17,0.117-0.367,0.175-0.564,0.175c-0.181,0-0.362-0.048-0.522-0.147
    c-1.237-0.756-2.541-1.633-3.988-2.678c-0.265-0.19-0.414-0.495-0.414-0.811c0-0.096,0.015-0.193,0.043-0.29
    c0.836-2.766,1.74-5.312,2.752-7.753c-0.708-0.609-1.408-1.249-2.088-1.91c-0.003-0.003-0.006-0.007-0.009-0.01l-0.192-0.193
    c-0.601-0.602-1.216-1.217-1.803-1.869c-2.647,0.964-5.337,1.765-8.205,2.44c-0.077,0.018-0.154,0.027-0.231,0.027
    c-0.309,0-0.605-0.145-0.796-0.397c-1.124-1.49-1.995-2.744-2.74-3.946c-0.101-0.162-0.15-0.345-0.15-0.527
    c0-0.216,0.07-0.433,0.21-0.611c1.621-2.095,3.441-4.195,5.411-6.251c-0.433-0.815-0.867-1.656-1.242-2.523
    c-0.417-0.888-0.785-1.817-1.101-2.641c-2.888-0.058-5.759-0.28-8.542-0.66c-0.391-0.053-0.714-0.332-0.825-0.71
    c-0.386-1.321-0.73-2.749-1.118-4.626c-0.015-0.066-0.021-0.136-0.021-0.203c0-0.346,0.181-0.675,0.489-0.857
    c2.419-1.44,4.884-2.752,7.337-3.906c-0.109-0.958-0.197-1.861-0.239-2.789c-0.046-0.649-0.067-1.354-0.067-2.219
    c0,0,0.003-0.318,0.005-0.634c-2.686-1.085-5.281-2.312-7.726-3.657c-0.321-0.177-0.518-0.517-0.518-0.879
    c0-0.028,0-0.056,0.003-0.084c0.135-1.541,0.359-3.138,0.667-4.748c0.079-0.408,0.401-0.727,0.81-0.798
    c2.733-0.481,5.512-0.823,8.269-1.019c0.225-0.854,0.49-1.691,0.75-2.505l0.058-0.183c0.001-0.005,0.003-0.008,0.005-0.014
    c0.299-0.9,0.629-1.795,0.985-2.672c-2.053-1.918-4.019-3.988-5.853-6.156c-0.156-0.184-0.236-0.413-0.236-0.646
    c0-0.152,0.036-0.306,0.106-0.448c0.643-1.275,1.386-2.602,2.341-4.168c0.185-0.301,0.511-0.479,0.855-0.479
    c0.064,0,0.128,0.006,0.192,0.019l1.444,0.282c2.027,0.391,3.807,0.735,5.896,1.348c0.101-0.17,0.198-0.342,0.299-0.518
    c0.316-0.553,0.643-1.123,1.115-1.705c0.005-0.006,0.011-0.014,0.018-0.021c0.293-0.341,0.529-0.69,0.78-1.062
    c0.234-0.346,0.473-0.697,0.765-1.053c-0.71-1.582-1.155-3.191-1.59-4.75c-0.279-1.008-0.567-2.049-0.928-3.088
    c-0.037-0.107-0.054-0.218-0.054-0.326c0-0.282,0.119-0.557,0.338-0.75c1.381-1.22,2.562-2.189,3.719-3.051
    c0.176-0.133,0.386-0.199,0.598-0.199c0.183,0,0.366,0.05,0.526,0.149c2.273,1.407,4.581,3.014,6.874,4.786
    c0.505-0.228,1.061-0.406,1.604-0.578c0.579-0.187,1.123-0.359,1.514-0.562c0.841-0.49,1.714-0.917,2.561-1.327
    c-0.127-1.774-0.191-3.53-0.191-5.231c0-1.068,0.026-2.148,0.079-3.213c0.019-0.394,0.266-0.738,0.633-0.883
    c1.57-0.617,3.197-1.116,4.581-1.523c0.093-0.027,0.188-0.04,0.282-0.04c0.311,0,0.611,0.146,0.803,0.403
    c1.755,2.362,3.266,4.61,4.608,6.852c0.865-0.181,1.793-0.344,2.815-0.495c0.005,0,0.008,0,0.011,0
    c0.923-0.125,1.894-0.251,2.872-0.33c0.82-2.673,1.817-5.337,2.969-7.925c0.16-0.36,0.518-0.593,0.914-0.593
    c0.001,0,0.003,0,0.004,0c1.883,0.009,3.423,0.077,4.844,0.216c0.41,0.041,0.753,0.329,0.865,0.725
    c0.73,2.6,1.333,5.297,1.796,8.027c0.897,0.145,1.822,0.326,2.806,0.549c0.852,0.186,1.74,0.414,2.809,0.725
    c1.793-2.248,3.705-4.373,5.686-6.326c0.19-0.189,0.443-0.289,0.701-0.289c0.119,0,0.239,0.021,0.354,0.064
    c1.357,0.516,2.804,1.143,4.424,1.92c0.35,0.168,0.569,0.521,0.569,0.902c0,0.036-0.004,0.071-0.007,0.106
    c-0.311,2.881-0.726,5.544-1.269,8.114c0.786,0.458,1.547,0.945,2.291,1.421l0.104,0.067c0.012,0.008,0.022,0.014,0.034,0.022
    l0.305,0.213c0.671,0.466,1.358,0.942,2.028,1.453c2.341-1.38,4.837-2.656,7.612-3.892c0.131-0.058,0.27-0.087,0.407-0.087
    c0.246,0,0.49,0.092,0.678,0.265c1.368,1.261,2.454,2.331,3.417,3.369c0.175,0.189,0.267,0.434,0.267,0.68
    c0,0.155-0.037,0.312-0.111,0.459c-0.553,1.071-0.914,2.078-1.266,3.052c-0.424,1.181-0.861,2.396-1.623,3.676
    c0.223,0.394,0.367,0.773,0.5,1.123c0.154,0.405,0.287,0.757,0.525,1.106c0.569,0.776,1.082,1.59,1.572,2.39
    c1.976-0.294,3.762-0.341,5.643-0.392c0.737-0.019,1.5-0.038,2.298-0.073c0.015,0,0.03-0.001,0.045-0.001
    c0.374,0,0.717,0.208,0.89,0.541c0.673,1.307,1.313,2.74,1.961,4.383c0.047,0.118,0.069,0.243,0.069,0.366
    c0,0.282-0.119,0.558-0.34,0.751c-2.095,1.844-4.271,3.574-6.479,5.148c0.195,0.627,0.365,1.255,0.53,1.869l0.218,0.805
    c0.005,0.017,0.011,0.044,0.015,0.061l0.184,0.838c0.138,0.627,0.28,1.27,0.397,1.924c2.708,0.541,5.422,1.258,8.271,2.18
    c0.383,0.125,0.655,0.466,0.688,0.867c0.106,1.265,0.228,2.935,0.228,4.627v0.144c0,0.417-0.258,0.79-0.648,0.937
    c-2.516,0.945-5.186,1.787-7.941,2.512c-0.065,0.923-0.144,1.865-0.29,2.803c-0.115,0.948-0.288,1.886-0.466,2.801
    c2.481,1.589,4.802,3.269,6.902,4.997c0.234,0.194,0.364,0.479,0.364,0.774c0,0.089-0.012,0.181-0.037,0.271
    c-0.396,1.396-0.897,2.881-1.535,4.532c-0.147,0.388-0.521,0.642-0.935,0.642c-0.003,0-0.008,0-0.011,0
    c-2.9-0.035-5.631-0.2-8.322-0.502c-0.358,0.755-0.75,1.488-1.13,2.205l-0.155,0.29c-0.005,0.011-0.011,0.022-0.018,0.033
    l-0.016,0.029c-0.46,0.791-0.933,1.605-1.444,2.401c1.598,2.157,3.112,4.488,4.615,7.104c0.09,0.155,0.133,0.325,0.133,0.497
    c0,0.216-0.07,0.433-0.208,0.612c-0.978,1.267-2.015,2.502-3.08,3.672c-0.192,0.213-0.465,0.327-0.74,0.327
    c-0.123,0-0.247-0.022-0.365-0.069c-2.616-1.031-5.167-2.182-7.593-3.426c-0.795,0.745-1.472,1.342-2.137,1.888
    c-0.771,0.643-1.517,1.225-2.261,1.765c0.728,2.701,1.297,5.481,1.694,8.273c0.006,0.047,0.01,0.095,0.01,0.142
    c0,0.348-0.18,0.673-0.482,0.855c-1.609,0.973-2.955,1.713-4.24,2.33c-0.138,0.065-0.285,0.098-0.431,0.098
    c-0.245,0-0.487-0.09-0.676-0.262c-2.008-1.836-3.958-3.819-5.809-5.904c-0.873,0.355-1.766,0.673-2.676,0.99
    c-0.003,0.002-0.008,0.003-0.013,0.005c-0.988,0.33-1.898,0.604-2.763,0.835c-0.293,2.654-0.766,5.387-1.438,8.325
    c-0.09,0.395-0.407,0.693-0.805,0.763c-1.86,0.322-3.377,0.532-4.779,0.66c-0.032,0.003-0.062,0.005-0.093,0.005
    C68.459,116.274,68.11,116.062,67.94,115.72"/>
  <path style="fill:#E5EDFD;" d="M108.782,68.176c0.178-1.143,0.254-2.3,0.334-3.451c2.849-0.723,5.74-1.61,8.536-2.66
    c0.007-1.567-0.093-3.129-0.224-4.687c-2.947-0.953-5.864-1.719-8.84-2.283c-0.164-1.146-0.442-2.271-0.683-3.402
    c-0.31-1.113-0.583-2.238-0.968-3.33c2.429-1.699,4.752-3.531,7.002-5.511c-0.574-1.456-1.202-2.896-1.92-4.29
    c-3.066,0.136-5.532,0.045-8.488,0.559c-0.606-0.988-1.208-1.984-1.896-2.92c-0.654-0.959-0.667-1.866-1.39-2.776
    c1.608-2.426,1.828-4.556,3.19-7.202c-1.07-1.153-2.203-2.246-3.361-3.313c-2.838,1.265-5.508,2.626-8.097,4.19
    c-0.907-0.732-1.871-1.391-2.828-2.058c-0.983-0.63-1.964-1.261-2.989-1.821c0.638-2.879,1.086-5.753,1.406-8.731
    c-1.423-0.683-2.866-1.325-4.346-1.886c-2.169,2.139-4.192,4.43-6.022,6.766c-1.12-0.336-2.248-0.65-3.394-0.9
    c-1.141-0.259-2.293-0.48-3.453-0.644c-0.461-2.882-1.09-5.784-1.891-8.636c-1.578-0.156-3.166-0.205-4.75-0.212
    c-1.239,2.783-2.28,5.609-3.125,8.47c-1.17,0.062-2.334,0.211-3.495,0.368c-1.159,0.17-2.312,0.374-3.453,0.638
    c-1.495-2.556-3.123-4.969-4.919-7.388c-1.514,0.445-3.025,0.917-4.498,1.495c-0.149,3.014-0.074,6.066,0.164,8.998
    c-1.049,0.513-2.11,1.006-3.12,1.596c-1.032,0.548-2.727,0.83-3.714,1.453c-2.294-1.799-4.759-3.551-7.294-5.119
    c-1.266,0.943-2.474,1.957-3.655,3c1.005,2.898,1.425,5.656,2.761,8.34c-0.825,0.821-1.217,1.709-1.976,2.59
    c-0.734,0.902-1.093,1.816-1.757,2.77c-2.844-0.891-4.983-1.235-7.967-1.826c-0.815,1.338-1.597,2.695-2.301,4.095
    c1.974,2.335,4.076,4.521,6.279,6.54c-0.454,1.067-0.862,2.15-1.228,3.25c-0.351,1.102-0.708,2.205-0.964,3.334
    c-2.964,0.184-5.932,0.533-8.893,1.055c-0.293,1.537-0.516,3.089-0.652,4.646c2.683,1.476,5.461,2.762,8.249,3.858
    c-0.011,1.153-0.027,2.313,0.056,3.466c0.05,1.156,0.181,2.306,0.317,3.454c-2.679,1.23-5.307,2.618-7.902,4.163
    c0.315,1.528,0.662,3.049,1.099,4.547c3.04,0.415,6.109,0.628,9.099,0.662c0.412,1.083,0.827,2.164,1.319,3.214
    c0.458,1.063,1.009,2.088,1.556,3.11c-2.04,2.092-4.028,4.345-5.845,6.69c0.829,1.335,1.742,2.615,2.689,3.871
    c3.007-0.709,5.907-1.583,8.735-2.644c0.75,0.89,1.58,1.708,2.402,2.532c0.833,0.812,1.698,1.592,2.596,2.336
    c-1.152,2.703-2.133,5.459-3.002,8.333c1.277,0.923,2.578,1.812,3.924,2.636c2.544-1.738,4.93-3.581,7.178-5.572
    c1.032,0.548,2.092,1.038,3.165,1.508c1.082,0.441,2.161,0.894,3.276,1.253c-0.091,2.935-0.006,5.867,0.239,8.835
    c1.525,0.421,3.068,0.794,4.627,1.07c1.737-2.49,3.297-5.12,4.658-7.741c1.167,0.11,2.333,0.237,3.504,0.262
    c1.171,0.068,2.344,0.028,3.516,0.013c0.993,2.721,2.156,5.482,3.475,8.138c1.578-0.146,3.144-0.381,4.701-0.65
    c0.686-2.996,1.195-5.917,1.492-8.897c1.138-0.28,2.258-0.618,3.368-0.988c1.104-0.385,2.208-0.775,3.278-1.248
    c1.931,2.216,4.009,4.356,6.208,6.367c1.427-0.685,2.805-1.467,4.155-2.283c-0.428-3.01-1.048-5.954-1.853-8.824
    c0.957-0.668,1.88-1.383,2.775-2.128c0.9-0.74,1.759-1.528,2.601-2.331c2.609,1.368,5.321,2.604,8.13,3.711
    c1.059-1.163,2.066-2.366,3.026-3.61c-1.533-2.667-3.151-5.167-4.97-7.565c0.653-0.961,1.235-1.966,1.816-2.969
    c0.543-1.024,1.096-2.045,1.562-3.105c2.959,0.36,5.914,0.543,8.94,0.58c0.562-1.46,1.078-2.938,1.505-4.446
    c-2.348-1.933-4.866-3.713-7.379-5.291C108.416,70.459,108.644,69.324,108.782,68.176L108.782,68.176z"/>
  <path style="fill:#FFFFFF;" d="M38.837,38.463v0.036c0.711,0.095,1.275,0.397,1.69,0.908c0.415,0.51,0.624,1.192,0.624,2.046
    c0,0.498-0.065,0.975-0.196,1.424c-0.132,0.452-0.354,0.846-0.668,1.183c-0.315,0.339-0.723,0.609-1.228,0.812
    c-0.506,0.202-1.131,0.303-1.878,0.303h-4.325V32.465h4.289c0.523,0,1.006,0.053,1.452,0.161c0.444,0.106,0.827,0.284,1.148,0.532
    c0.319,0.25,0.569,0.583,0.747,0.997c0.178,0.415,0.266,0.926,0.266,1.532c0,0.687-0.159,1.278-0.48,1.77
    C39.958,37.949,39.479,38.286,38.837,38.463L38.837,38.463z M37.751,34.726c-0.298-0.248-0.766-0.374-1.406-0.374h-0.926v3.328
    h0.73c0.711,0,1.231-0.128,1.557-0.384c0.326-0.254,0.49-0.683,0.49-1.289S38.047,34.975,37.751,34.726L37.751,34.726z
     M38.33,40.446c-0.102-0.241-0.239-0.438-0.41-0.587c-0.172-0.147-0.377-0.251-0.614-0.311c-0.237-0.06-0.498-0.089-0.782-0.089
    h-1.104v3.827h0.998c0.616,0,1.115-0.137,1.495-0.41c0.378-0.272,0.569-0.776,0.569-1.512C38.481,40.997,38.43,40.69,38.33,40.446
    L38.33,40.446z M41.881,45.174v-9.576h2.455v9.576H41.881L41.881,45.174z M41.881,32.322h2.455v2.101h-2.455V32.322L41.881,32.322z
     M53.342,45.174h-2.705l-2.047-3.935l-0.873,1.14v2.795h-2.456V32.465h2.456v6.71h0.036l2.475-3.577h2.705l-2.759,3.772
    L53.342,45.174L53.342,45.174z M55.283,40.759v0.767c0,0.284,0.021,0.559,0.062,0.826s0.11,0.504,0.205,0.714
    c0.096,0.205,0.22,0.373,0.374,0.497c0.154,0.124,0.344,0.187,0.569,0.187c0.415,0,0.717-0.148,0.908-0.444
    c0.189-0.298,0.32-0.747,0.391-1.354h2.207c-0.047,1.116-0.345,1.964-0.89,2.547c-0.545,0.579-1.406,0.87-2.58,0.87
    c-0.89,0-1.585-0.147-2.083-0.444c-0.498-0.296-0.867-0.688-1.104-1.175c-0.237-0.486-0.383-1.033-0.436-1.638
    c-0.054-0.604-0.08-1.21-0.08-1.815c0-0.641,0.044-1.257,0.132-1.852c0.089-0.593,0.267-1.121,0.534-1.583
    c0.267-0.463,0.65-0.831,1.148-1.104c0.5-0.271,1.163-0.409,1.994-0.409c0.711,0,1.296,0.116,1.752,0.348
    c0.457,0.232,0.816,0.558,1.077,0.979s0.439,0.932,0.534,1.529c0.096,0.601,0.142,1.268,0.142,2.003v0.552H55.283L55.283,40.759z
     M57.721,38.33c-0.035-0.28-0.097-0.517-0.187-0.712c-0.089-0.196-0.213-0.344-0.374-0.446c-0.16-0.1-0.366-0.151-0.614-0.151
    c-0.25,0-0.455,0.057-0.614,0.169c-0.161,0.113-0.288,0.263-0.383,0.446c-0.095,0.184-0.164,0.39-0.205,0.613
    c-0.042,0.226-0.062,0.451-0.062,0.678v0.374h2.509C57.781,38.932,57.757,38.608,57.721,38.33L57.721,38.33z M67.545,37.306
    l1.978,0.855c0.484,0.214,0.882,0.435,1.191,0.666c0.308,0.231,0.555,0.481,0.74,0.749c0.182,0.267,0.311,0.56,0.383,0.88
    c0.07,0.319,0.106,0.677,0.106,1.069c0,1.34-0.39,2.315-1.166,2.928c-0.777,0.61-1.86,0.915-3.249,0.915
    c-1.446,0-2.482-0.314-3.105-0.942c-0.623-0.63-0.935-1.531-0.935-2.705v-0.517h2.563v0.373c0,0.298,0.024,0.568,0.072,0.81
    c0.047,0.244,0.137,0.449,0.268,0.616c0.13,0.165,0.304,0.295,0.524,0.391c0.22,0.096,0.494,0.142,0.827,0.142
    c0.394,0,0.747-0.127,1.06-0.382c0.315-0.256,0.472-0.65,0.472-1.185c0-0.285-0.038-0.53-0.116-0.737
    c-0.076-0.209-0.205-0.396-0.381-0.562c-0.178-0.164-0.414-0.315-0.705-0.452c-0.291-0.137-0.649-0.277-1.077-0.419
    c-0.569-0.189-1.062-0.397-1.478-0.623s-0.762-0.49-1.04-0.792c-0.28-0.303-0.483-0.652-0.615-1.05
    c-0.13-0.397-0.196-0.856-0.196-1.38c0-1.257,0.35-2.194,1.051-2.812c0.7-0.617,1.66-0.926,2.883-0.926
    c0.57,0,1.094,0.062,1.575,0.188c0.482,0.124,0.896,0.325,1.247,0.604c0.35,0.279,0.621,0.634,0.819,1.068
    c0.196,0.433,0.293,0.951,0.293,1.557v0.356h-2.457c0-0.606-0.105-1.069-0.321-1.397c-0.213-0.326-0.569-0.49-1.067-0.49
    c-0.285,0-0.523,0.043-0.712,0.126c-0.189,0.082-0.34,0.191-0.453,0.329c-0.113,0.136-0.191,0.294-0.233,0.471
    c-0.042,0.178-0.062,0.362-0.062,0.551c0,0.394,0.083,0.724,0.25,0.99C66.644,36.834,67,37.08,67.545,37.306L67.545,37.306z
     M76.828,38.355c-0.03-0.224-0.083-0.43-0.16-0.613c-0.076-0.184-0.186-0.333-0.329-0.446c-0.142-0.11-0.333-0.168-0.569-0.168
    c-0.297,0-0.541,0.068-0.729,0.205c-0.19,0.137-0.333,0.337-0.429,0.604c-0.094,0.267-0.159,0.605-0.196,1.014
    c-0.035,0.411-0.052,0.895-0.052,1.45c0,0.596,0.018,1.104,0.052,1.523c0.037,0.421,0.102,0.77,0.196,1.042
    c0.096,0.272,0.229,0.472,0.401,0.596c0.171,0.124,0.395,0.187,0.668,0.187c0.415,0,0.717-0.178,0.908-0.533
    c0.189-0.356,0.284-0.926,0.284-1.709h2.35c0,1.257-0.282,2.216-0.845,2.875c-0.564,0.658-1.498,0.986-2.803,0.986
    c-0.617,0-1.154-0.073-1.611-0.222s-0.836-0.415-1.139-0.8c-0.304-0.387-0.531-0.901-0.686-1.549
    c-0.154-0.647-0.232-1.45-0.232-2.414c0-0.983,0.096-1.799,0.285-2.446c0.191-0.646,0.457-1.163,0.802-1.548
    c0.343-0.387,0.754-0.656,1.228-0.812c0.475-0.151,0.997-0.23,1.566-0.23c1.139,0,1.996,0.334,2.571,0.998s0.864,1.566,0.864,2.705
    h-2.35C76.872,38.814,76.857,38.581,76.828,38.355L76.828,38.355z M86.644,42.558c-0.131,0.628-0.343,1.153-0.641,1.574
    c-0.295,0.421-0.685,0.732-1.166,0.935c-0.479,0.203-1.07,0.302-1.77,0.302c-0.737,0.012-1.348-0.079-1.834-0.274
    c-0.486-0.196-0.874-0.504-1.157-0.926c-0.285-0.421-0.487-0.949-0.605-1.586c-0.119-0.634-0.178-1.365-0.178-2.198
    c0-0.817,0.066-1.542,0.196-2.17c0.131-0.629,0.344-1.154,0.642-1.576c0.295-0.419,0.685-0.741,1.165-0.96
    c0.481-0.22,1.07-0.33,1.772-0.33c0.734-0.011,1.345,0.087,1.832,0.295c0.487,0.207,0.874,0.525,1.159,0.951
    c0.284,0.427,0.486,0.955,0.604,1.584c0.119,0.63,0.179,1.365,0.179,2.206C86.839,41.204,86.773,41.928,86.644,42.558
    L86.644,42.558z M84.099,37.804c-0.191-0.521-0.534-0.783-1.032-0.783c-0.298,0-0.534,0.084-0.712,0.25
    c-0.179,0.166-0.312,0.397-0.401,0.694c-0.088,0.297-0.145,0.653-0.167,1.068c-0.024,0.415-0.037,0.864-0.037,1.351
    c0,0.487,0.013,0.938,0.037,1.354c0.023,0.415,0.079,0.771,0.167,1.067c0.089,0.296,0.223,0.527,0.401,0.694
    c0.178,0.166,0.415,0.249,0.712,0.249c0.498,0,0.841-0.26,1.032-0.782c0.189-0.521,0.284-1.383,0.284-2.583
    C84.383,39.188,84.288,38.327,84.099,37.804L84.099,37.804z M91.922,37.707c-0.126-0.007-0.253-0.01-0.384-0.01
    c-0.213,0-0.427,0.03-0.641,0.089c-0.213,0.061-0.409,0.157-0.586,0.294c-0.178,0.137-0.322,0.315-0.428,0.534
    c-0.107,0.22-0.161,0.488-0.161,0.811v5.749h-2.455v-9.576h2.349v1.28h0.037c0.248-0.462,0.553-0.833,0.906-1.111
    c0.357-0.278,0.791-0.419,1.302-0.419c0.07,0,0.145,0.004,0.221,0.01c0.078,0.005,0.152,0.015,0.222,0.025v2.352
    C92.173,37.721,92.046,37.713,91.922,37.707L91.922,37.707z M94.404,40.759v0.767c0,0.284,0.021,0.559,0.062,0.826
    c0.041,0.268,0.109,0.504,0.205,0.714c0.094,0.205,0.22,0.373,0.374,0.497s0.343,0.187,0.569,0.187
    c0.416,0,0.717-0.148,0.908-0.444c0.189-0.298,0.32-0.747,0.392-1.354h2.207c-0.047,1.116-0.345,1.964-0.891,2.547
    c-0.545,0.579-1.405,0.87-2.581,0.87c-0.889,0-1.584-0.147-2.081-0.444c-0.5-0.296-0.867-0.688-1.104-1.175
    c-0.237-0.486-0.383-1.033-0.436-1.638c-0.054-0.604-0.081-1.21-0.081-1.815c0-0.641,0.044-1.257,0.134-1.852
    c0.089-0.593,0.267-1.121,0.534-1.583c0.268-0.463,0.65-0.831,1.149-1.104c0.497-0.271,1.162-0.409,1.992-0.409
    c0.712,0,1.298,0.116,1.754,0.348c0.457,0.232,0.816,0.558,1.077,0.979s0.439,0.932,0.534,1.529
    c0.094,0.601,0.142,1.268,0.142,2.003v0.552H94.404L94.404,40.759z M96.842,38.33c-0.035-0.28-0.097-0.517-0.186-0.712
    c-0.089-0.196-0.215-0.344-0.374-0.446c-0.16-0.1-0.365-0.151-0.614-0.151c-0.249,0-0.455,0.057-0.615,0.169
    c-0.159,0.113-0.288,0.263-0.382,0.446c-0.095,0.184-0.164,0.39-0.205,0.613c-0.042,0.226-0.062,0.451-0.062,0.678v0.374h2.509
    C96.901,38.932,96.879,38.608,96.842,38.33L96.842,38.33z"/>
  <path style="fill:#6C96D5;" d="M38.369,37.783v0.036c0.711,0.095,1.275,0.397,1.69,0.908c0.415,0.51,0.624,1.191,0.624,2.046
    c0,0.498-0.065,0.974-0.196,1.424c-0.132,0.451-0.354,0.845-0.668,1.183c-0.315,0.339-0.723,0.609-1.228,0.811
    c-0.506,0.203-1.131,0.303-1.878,0.303h-4.325V31.785h4.289c0.523,0,1.006,0.053,1.452,0.161c0.444,0.106,0.827,0.284,1.148,0.532
    c0.319,0.25,0.569,0.582,0.747,0.997c0.178,0.415,0.266,0.926,0.266,1.531c0,0.688-0.159,1.278-0.48,1.771
    C39.49,37.27,39.01,37.605,38.369,37.783L38.369,37.783z M37.283,34.046c-0.298-0.248-0.766-0.374-1.406-0.374h-0.926V37h0.73
    c0.711,0,1.231-0.128,1.557-0.384c0.326-0.254,0.49-0.684,0.49-1.289C37.728,34.721,37.578,34.295,37.283,34.046L37.283,34.046z
     M37.861,39.767c-0.102-0.242-0.239-0.438-0.41-0.587c-0.172-0.148-0.377-0.251-0.614-0.311c-0.237-0.06-0.498-0.09-0.782-0.09
    h-1.104v3.828h0.998c0.616,0,1.115-0.137,1.495-0.41c0.378-0.272,0.569-0.776,0.569-1.512
    C38.012,40.316,37.961,40.011,37.861,39.767L37.861,39.767z M41.413,44.493v-9.575h2.455v9.575H41.413L41.413,44.493z
     M41.413,31.642h2.455v2.102h-2.455V31.642L41.413,31.642z M52.874,44.493h-2.705l-2.047-3.935l-0.873,1.141v2.794h-2.456V31.785
    h2.456v6.709h0.036l2.475-3.576h2.705l-2.759,3.772L52.874,44.493L52.874,44.493z M54.814,40.078v0.767
    c0,0.285,0.021,0.56,0.062,0.827s0.11,0.504,0.205,0.713c0.096,0.206,0.22,0.374,0.374,0.498c0.154,0.124,0.344,0.187,0.569,0.187
    c0.415,0,0.717-0.149,0.908-0.444c0.189-0.298,0.32-0.748,0.391-1.354h2.207c-0.047,1.115-0.345,1.964-0.89,2.546
    c-0.545,0.58-1.406,0.871-2.58,0.871c-0.89,0-1.585-0.147-2.083-0.444c-0.498-0.297-0.867-0.688-1.104-1.175
    s-0.383-1.033-0.436-1.638c-0.054-0.605-0.08-1.21-0.08-1.815c0-0.641,0.044-1.258,0.132-1.852
    c0.089-0.593,0.267-1.121,0.534-1.584c0.267-0.462,0.65-0.83,1.148-1.104c0.5-0.271,1.163-0.409,1.994-0.409
    c0.711,0,1.296,0.116,1.752,0.347c0.457,0.232,0.816,0.559,1.077,0.98c0.261,0.421,0.439,0.932,0.534,1.529
    c0.096,0.6,0.142,1.268,0.142,2.002v0.552H54.814L54.814,40.078z M57.252,37.65c-0.035-0.28-0.097-0.517-0.187-0.713
    c-0.089-0.195-0.213-0.343-0.374-0.445c-0.16-0.1-0.366-0.151-0.614-0.151c-0.25,0-0.455,0.057-0.614,0.169
    c-0.161,0.113-0.288,0.263-0.383,0.445c-0.095,0.185-0.164,0.39-0.205,0.614c-0.042,0.226-0.062,0.451-0.062,0.677v0.374h2.509
    C57.312,38.251,57.289,37.929,57.252,37.65L57.252,37.65z M67.076,36.626l1.978,0.854c0.484,0.215,0.882,0.436,1.191,0.667
    c0.308,0.23,0.555,0.48,0.74,0.748c0.182,0.267,0.311,0.561,0.383,0.881c0.07,0.319,0.106,0.676,0.106,1.068
    c0,1.341-0.39,2.315-1.166,2.929c-0.777,0.61-1.86,0.915-3.249,0.915c-1.446,0-2.482-0.314-3.105-0.942
    c-0.623-0.63-0.935-1.531-0.935-2.705v-0.517h2.563v0.373c0,0.298,0.024,0.568,0.072,0.81c0.047,0.244,0.137,0.448,0.268,0.616
    c0.13,0.165,0.304,0.295,0.524,0.391c0.22,0.096,0.494,0.142,0.827,0.142c0.394,0,0.747-0.127,1.06-0.382
    c0.315-0.256,0.472-0.65,0.472-1.185c0-0.285-0.038-0.53-0.116-0.737c-0.076-0.21-0.205-0.396-0.381-0.562
    c-0.178-0.165-0.414-0.316-0.705-0.453c-0.291-0.137-0.649-0.276-1.077-0.418c-0.569-0.189-1.062-0.397-1.478-0.624
    c-0.415-0.225-0.762-0.49-1.04-0.791c-0.28-0.303-0.483-0.652-0.615-1.05c-0.13-0.397-0.196-0.857-0.196-1.381
    c0-1.256,0.35-2.194,1.051-2.812c0.7-0.617,1.66-0.926,2.883-0.926c0.57,0,1.094,0.062,1.575,0.188
    c0.482,0.124,0.896,0.325,1.247,0.604c0.35,0.279,0.621,0.634,0.819,1.068c0.196,0.432,0.293,0.95,0.293,1.557v0.356h-2.457
    c0-0.606-0.105-1.07-0.321-1.397c-0.213-0.327-0.569-0.49-1.067-0.49c-0.285,0-0.523,0.042-0.712,0.126
    c-0.189,0.082-0.34,0.191-0.453,0.329c-0.113,0.136-0.191,0.294-0.233,0.47c-0.042,0.179-0.062,0.363-0.062,0.552
    c0,0.394,0.083,0.724,0.25,0.99C66.175,36.153,66.531,36.4,67.076,36.626L67.076,36.626z M76.359,37.676
    c-0.03-0.225-0.083-0.43-0.16-0.614c-0.076-0.183-0.186-0.332-0.329-0.445c-0.142-0.11-0.333-0.169-0.569-0.169
    c-0.297,0-0.541,0.069-0.729,0.206c-0.19,0.137-0.333,0.337-0.429,0.604c-0.094,0.267-0.159,0.604-0.196,1.014
    c-0.035,0.411-0.052,0.894-0.052,1.45c0,0.595,0.018,1.103,0.052,1.522c0.037,0.422,0.102,0.77,0.196,1.042
    c0.096,0.273,0.229,0.473,0.401,0.597c0.171,0.124,0.395,0.187,0.668,0.187c0.415,0,0.717-0.178,0.908-0.534
    c0.189-0.355,0.284-0.926,0.284-1.709h2.35c0,1.258-0.282,2.216-0.845,2.875c-0.564,0.658-1.498,0.987-2.803,0.987
    c-0.617,0-1.154-0.074-1.611-0.223c-0.457-0.147-0.836-0.414-1.139-0.799c-0.304-0.387-0.531-0.902-0.686-1.55
    c-0.154-0.647-0.232-1.449-0.232-2.413c0-0.983,0.096-1.799,0.285-2.446c0.191-0.646,0.457-1.163,0.802-1.548
    c0.343-0.387,0.754-0.656,1.228-0.812c0.475-0.152,0.997-0.23,1.566-0.23c1.139,0,1.996,0.333,2.571,0.997
    c0.576,0.665,0.864,1.567,0.864,2.705h-2.35C76.403,38.134,76.388,37.901,76.359,37.676L76.359,37.676z M86.175,41.877
    c-0.131,0.628-0.343,1.153-0.641,1.574c-0.295,0.422-0.685,0.733-1.166,0.936c-0.479,0.202-1.07,0.302-1.77,0.302
    c-0.737,0.012-1.348-0.08-1.834-0.274c-0.486-0.197-0.874-0.504-1.157-0.926c-0.285-0.422-0.487-0.95-0.605-1.586
    c-0.119-0.634-0.178-1.365-0.178-2.198c0-0.818,0.066-1.542,0.196-2.17c0.131-0.629,0.344-1.154,0.642-1.576
    c0.295-0.42,0.685-0.741,1.165-0.961c0.481-0.219,1.07-0.329,1.772-0.329c0.734-0.011,1.345,0.086,1.832,0.295
    c0.487,0.207,0.874,0.525,1.159,0.95c0.284,0.428,0.486,0.956,0.604,1.585c0.119,0.629,0.179,1.365,0.179,2.206
    C86.371,40.524,86.305,41.247,86.175,41.877L86.175,41.877z M83.63,37.124c-0.191-0.521-0.534-0.783-1.032-0.783
    c-0.298,0-0.534,0.083-0.712,0.25c-0.179,0.166-0.312,0.397-0.401,0.694c-0.088,0.296-0.145,0.653-0.167,1.068
    c-0.024,0.414-0.037,0.864-0.037,1.351s0.013,0.938,0.037,1.354c0.023,0.414,0.079,0.771,0.167,1.066
    c0.089,0.297,0.223,0.527,0.401,0.695c0.178,0.166,0.415,0.249,0.712,0.249c0.498,0,0.841-0.26,1.032-0.783
    c0.189-0.521,0.284-1.382,0.284-2.582C83.914,38.507,83.819,37.647,83.63,37.124L83.63,37.124z M91.453,37.027
    c-0.126-0.007-0.253-0.01-0.384-0.01c-0.213,0-0.427,0.03-0.641,0.089c-0.213,0.061-0.409,0.157-0.586,0.294
    c-0.178,0.137-0.322,0.314-0.428,0.534c-0.107,0.22-0.161,0.488-0.161,0.81v5.749h-2.455v-9.575h2.349v1.28h0.037
    c0.248-0.462,0.553-0.833,0.906-1.111c0.357-0.278,0.791-0.419,1.302-0.419c0.07,0,0.145,0.004,0.221,0.01
    c0.078,0.005,0.152,0.015,0.222,0.025v2.352C91.704,37.041,91.577,37.033,91.453,37.027L91.453,37.027z M93.936,40.078v0.767
    c0,0.285,0.021,0.56,0.062,0.827c0.041,0.268,0.109,0.504,0.205,0.713c0.094,0.206,0.22,0.374,0.374,0.498s0.343,0.187,0.569,0.187
    c0.416,0,0.717-0.149,0.908-0.444c0.189-0.298,0.32-0.748,0.392-1.354h2.207c-0.047,1.115-0.345,1.964-0.891,2.546
    c-0.545,0.58-1.405,0.871-2.581,0.871c-0.889,0-1.584-0.147-2.081-0.444c-0.5-0.297-0.867-0.688-1.104-1.175
    c-0.237-0.486-0.383-1.033-0.436-1.638c-0.054-0.605-0.081-1.21-0.081-1.815c0-0.641,0.044-1.258,0.134-1.852
    c0.089-0.593,0.267-1.121,0.534-1.584c0.268-0.462,0.65-0.83,1.149-1.104c0.497-0.271,1.162-0.409,1.992-0.409
    c0.712,0,1.298,0.116,1.754,0.347c0.457,0.232,0.816,0.559,1.077,0.98c0.261,0.421,0.439,0.932,0.534,1.529
    c0.094,0.6,0.142,1.268,0.142,2.002v0.552H93.936L93.936,40.078z M96.373,37.65c-0.035-0.28-0.097-0.517-0.186-0.713
    c-0.089-0.195-0.215-0.343-0.374-0.445c-0.16-0.1-0.365-0.151-0.614-0.151c-0.249,0-0.455,0.057-0.615,0.169
    c-0.159,0.113-0.288,0.263-0.382,0.445c-0.095,0.185-0.164,0.39-0.205,0.614c-0.042,0.226-0.062,0.451-0.062,0.677v0.374h2.509
    C96.432,38.251,96.41,37.929,96.373,37.65L96.373,37.65z"/>
</g>
<g id="bs-text"><text transform="matrix(1 0 0 1 28 89)" style=" fill : #02456C; font-family : 'Verdana'; font-weight : bold; font-size : 52px; letter-spacing : -1; ">25</text>
</g>
</svg>