<svg xmlns="http://www.w3.org/2000/svg" width="200" height="117" viewBox="0 0 200 117" fill="none"><g clip-path="url(#clip0)"><path fill-rule="evenodd" clip-rule="evenodd" d="M27.3771 67.8365V72.4048H23.5482V87.7586H18.9604V72.4048H15.16V67.8365H27.3771Z" fill="#00C194"></path><path fill-rule="evenodd" clip-rule="evenodd" d="M44.2873 72.4856H36.0877V75.4861H42.739V80.0544H36.0877V83.1903H44.2873V87.7586H31.4999V67.9435L44.2873 67.9173V72.4856Z" fill="#00C194"></path><path fill-rule="evenodd" clip-rule="evenodd" d="M57.7236 87.7324C56.4385 87.7324 55.1863 87.4944 53.9626 87.0162C52.7412 86.5379 51.6425 85.8129 50.6644 84.839C49.7236 83.8847 49.0044 82.8059 48.5065 81.6092C48.0087 80.4104 47.7609 79.1438 47.7609 77.8118C47.7609 76.4601 48.0087 75.1848 48.5065 73.9859C49.0044 72.787 49.7236 71.7192 50.6644 70.7824C51.6425 69.8084 52.7455 69.0791 53.9758 68.5921C55.2061 68.1051 56.4604 67.8627 57.7367 67.8627C59.0131 67.8627 60.2609 68.1051 61.4824 68.5921C62.7039 69.0791 63.8025 69.8084 64.7806 70.7824L61.5503 73.999C61.0263 73.477 60.4276 73.084 59.7587 72.8242C59.0898 72.5621 58.41 72.4311 57.7236 72.4311C57.0372 72.4311 56.3617 72.5621 55.7017 72.8242C55.0416 73.0862 54.4473 73.477 53.9231 73.999C53.4166 74.5209 53.0285 75.1084 52.7566 75.7569C52.4846 76.4054 52.3486 77.0912 52.3486 77.8118C52.3486 78.5324 52.4846 79.2138 52.7566 79.8536C53.0285 80.4934 53.4166 81.0743 53.9231 81.5962C54.4473 82.1181 55.0416 82.5112 55.7017 82.7732C56.3617 83.0353 57.0372 83.1662 57.7236 83.1662C58.4122 83.1662 59.0898 83.0353 59.7587 82.7732C60.4276 82.5112 61.0263 82.1203 61.5503 81.5962L64.7806 84.8412C63.8025 85.8151 62.7083 86.5401 61.4956 87.0184C60.285 87.4922 59.0262 87.7324 57.7236 87.7324Z" fill="#00C194"></path><path fill-rule="evenodd" clip-rule="evenodd" d="M78.4889 67.9173H83.0767V87.7586H78.4889V80.2706H72.7346V87.7586H68.1447V67.9173H72.7346V75.7023H78.4889V67.9173Z" fill="#00C194"></path><path fill-rule="evenodd" clip-rule="evenodd" d="M102.349 67.9173H106.938V87.7586H102.349V80.2706H96.5942V87.7586H92.0066V67.9173H96.5942V75.7023H102.349V67.9173Z" fill="#00C194"></path><path fill-rule="evenodd" clip-rule="evenodd" d="M120.304 67.8889C121.68 67.8889 122.969 68.151 124.182 68.6729C125.391 69.1948 126.45 69.9023 127.353 70.7955C128.258 71.6886 128.969 72.7368 129.493 73.9444C130.017 75.1519 130.28 76.4404 130.28 77.8096C130.28 79.1787 130.017 80.4672 129.493 81.6748C128.969 82.8824 128.258 83.9327 127.353 84.8237C126.447 85.7147 125.391 86.4222 124.182 86.9463C122.969 87.4682 121.68 87.7302 120.304 87.7302C118.929 87.7302 117.64 87.4682 116.428 86.9463C115.219 86.4244 114.164 85.7169 113.269 84.8237C112.375 83.9305 111.668 82.8824 111.143 81.6748C110.618 80.4672 110.356 79.1787 110.356 77.8096C110.356 76.4404 110.618 75.1519 111.143 73.9444C111.667 72.7368 112.372 71.6864 113.269 70.7955C114.167 69.9023 115.219 69.197 116.428 68.6729C117.64 68.151 118.929 67.8889 120.304 67.8889ZM120.32 83.1641C121.061 83.1641 121.759 83.0243 122.41 82.7448C123.061 82.4653 123.632 82.0832 124.121 81.5962C124.609 81.1092 124.993 80.5414 125.274 79.8929C125.554 79.2443 125.695 78.5498 125.695 77.8118C125.695 77.0736 125.554 76.3793 125.274 75.7307C124.993 75.0821 124.609 74.5143 124.121 74.0274C123.632 73.5404 123.061 73.1582 122.41 72.8787C121.759 72.5992 121.061 72.4595 120.32 72.4595C119.579 72.4595 118.882 72.5992 118.231 72.8787C117.579 73.1582 117.008 73.5404 116.519 74.0274C116.031 74.5143 115.647 75.0821 115.366 75.7307C115.086 76.3793 114.945 77.0736 114.945 77.8118C114.945 78.5498 115.086 79.2443 115.366 79.8929C115.647 80.5414 116.031 81.1092 116.519 81.5962C117.008 82.0832 117.579 82.4653 118.231 82.7448C118.879 83.0243 119.577 83.1641 120.32 83.1641Z" fill="#00C194"></path><path fill-rule="evenodd" clip-rule="evenodd" d="M141.709 87.7586C140.695 87.7586 139.735 87.573 138.832 87.2039C137.925 86.835 137.12 86.3065 136.415 85.623C135.691 84.9023 135.134 84.0921 134.746 83.1903C134.358 82.2884 134.154 81.3254 134.133 80.2968V67.8889H138.721V80.2706C138.721 81.0633 139.02 81.7578 139.616 82.3517C140.212 82.9108 140.919 83.1903 141.735 83.1903C142.134 83.1903 142.513 83.1095 142.875 82.9479C143.236 82.7863 143.552 82.5701 143.824 82.2993C144.097 82.0285 144.305 81.7141 144.449 81.3538C144.594 80.9934 144.667 80.6048 144.667 80.192V67.8911H149.254V80.1636C149.272 81.19 149.088 82.164 148.697 83.0833C148.309 84.0026 147.774 84.804 147.096 85.4897C146.419 86.1754 145.62 86.7191 144.708 87.1253C143.794 87.5315 142.822 87.7434 141.789 87.7608H141.709V87.7586Z" fill="#00C194"></path><path fill-rule="evenodd" clip-rule="evenodd" d="M160.383 88.1364C159.75 88.1364 159.121 88.0512 158.498 87.8787C157.873 87.7084 157.28 87.442 156.719 87.0816C155.742 86.4506 154.982 85.6361 154.439 84.6359C153.894 83.6358 153.625 82.5417 153.625 81.3516H158.213C158.213 81.8931 158.331 82.3102 158.566 82.6094C158.801 82.9064 159.009 83.1095 159.191 83.2186C159.517 83.4349 159.868 83.5528 160.25 83.5702C160.63 83.5877 161.002 83.5157 161.364 83.3541C161.618 83.2449 161.82 83.1117 161.976 82.9479C162.13 82.7863 162.248 82.6291 162.329 82.474C162.41 82.3212 162.461 82.1726 162.478 82.0285C162.496 81.8844 162.504 81.7665 162.504 81.677C162.504 81.5874 162.496 81.4695 162.478 81.3254C162.461 81.1812 162.41 81.0284 162.329 80.8668C162.248 80.7052 162.13 80.548 161.976 80.3929C161.822 80.2401 161.618 80.1003 161.364 79.9737C161.165 79.8841 160.952 79.8033 160.726 79.7313C160.5 79.6592 160.259 79.5784 160.006 79.4889C159.555 79.3447 159.083 79.1831 158.594 79.0019C158.105 78.8207 157.616 78.5783 157.129 78.2725C156.496 77.8751 155.962 77.3794 155.528 76.7855C155.094 76.1914 154.783 75.5517 154.592 74.866C154.401 74.1802 154.338 73.4727 154.401 72.7433C154.465 72.014 154.669 71.3152 155.013 70.6491C155.34 70.0355 155.746 69.5049 156.235 69.055C156.724 68.6052 157.265 68.2493 157.864 67.9872C158.461 67.7252 159.103 67.5679 159.792 67.5133C160.48 67.4587 161.176 67.5221 161.882 67.7033C162.57 67.8649 163.189 68.1226 163.746 68.4742C164.307 68.8257 164.788 69.2494 165.188 69.7451C165.596 70.2408 165.908 70.7955 166.121 71.4069C166.337 72.0205 166.447 72.6604 166.447 73.3264H161.882C161.882 72.9115 161.75 72.6232 161.487 72.4616C161.223 72.3 160.993 72.1909 160.794 72.1363C160.759 72.1363 160.671 72.1231 160.535 72.0948C160.399 72.0686 160.246 72.0686 160.074 72.0948C159.904 72.121 159.726 72.1843 159.546 72.2847C159.366 72.383 159.219 72.5424 159.112 72.7587C158.967 73.0469 158.941 73.3483 159.031 73.6649C159.121 73.9793 159.302 74.2283 159.574 74.4073C159.829 74.5515 160.107 74.6825 160.417 74.8004C160.724 74.9183 161.05 75.0297 161.395 75.1389C161.701 75.2285 162.016 75.3289 162.331 75.4358C162.647 75.5429 162.965 75.6696 163.29 75.8137C164.476 76.3552 165.408 77.1479 166.081 78.1917C166.755 79.2377 167.094 80.3995 167.094 81.6792C167.094 82.9413 166.755 84.0943 166.081 85.1403C165.408 86.1864 164.476 86.979 163.29 87.5184C162.824 87.7346 162.344 87.8918 161.855 87.9922C161.362 88.0884 160.873 88.1364 160.383 88.1364Z" fill="#00C194"></path><path fill-rule="evenodd" clip-rule="evenodd" d="M184 72.4856H175.802V75.4861H182.454V80.0544H175.802V83.1903H184V87.7586H171.215V67.9435L184 67.9173V72.4856Z" fill="#00C194"></path><path fill-rule="evenodd" clip-rule="evenodd" d="M35.6227 98.8933L36.2938 97.2537L34.3091 93.063H35.7872L36.9824 95.5763L38.0021 93.063H39.4517L37.0701 98.8933H35.6227Z" fill="#00C194"></path><path fill-rule="evenodd" clip-rule="evenodd" d="M46.8947 93.1043C47.296 93.1043 47.6709 93.1809 48.0241 93.3341C48.3771 93.4864 48.6841 93.6918 48.9473 93.9518C49.2105 94.2119 49.4188 94.5174 49.5701 94.8693C49.7236 95.2202 49.8003 95.5956 49.8003 95.9954C49.8003 96.3952 49.7236 96.7706 49.5701 97.1224C49.4166 97.4742 49.2105 97.7797 48.9473 98.0398C48.6841 98.2999 48.3749 98.5044 48.0241 98.6576C47.6709 98.8108 47.296 98.8865 46.8947 98.8865C46.4933 98.8865 46.1184 98.8108 45.7653 98.6576C45.4144 98.5044 45.1052 98.2999 44.8443 98.0398C44.5833 97.7797 44.3771 97.4742 44.2236 97.1224C44.0701 96.7706 43.9933 96.3952 43.9933 95.9954C43.9933 95.5956 44.0701 95.2202 44.2236 94.8693C44.3771 94.5174 44.5833 94.2119 44.8443 93.9518C45.1052 93.6918 45.4122 93.4864 45.7653 93.3341C46.1184 93.1783 46.4933 93.1043 46.8947 93.1043ZM46.8991 97.555C47.1161 97.555 47.3179 97.5129 47.5087 97.4321C47.6995 97.3513 47.864 97.2402 48.0065 97.0988C48.1491 96.9566 48.2609 96.7908 48.342 96.6031C48.4232 96.4129 48.4648 96.2117 48.4648 95.9954C48.4648 95.7791 48.4232 95.5788 48.342 95.3886C48.2609 95.1984 48.1491 95.0351 48.0065 94.8928C47.864 94.7506 47.6973 94.6395 47.5087 94.5587C47.3201 94.4779 47.1161 94.4366 46.8991 94.4366C46.6819 94.4366 46.4802 94.4779 46.2894 94.5587C46.0986 94.6395 45.9342 94.7506 45.7916 94.8928C45.6491 95.0351 45.5372 95.2009 45.456 95.3886C45.3749 95.5788 45.3332 95.7791 45.3332 95.9954C45.3332 96.2117 45.3749 96.4129 45.456 96.6031C45.5372 96.7925 45.6491 96.9566 45.7916 97.0988C45.9342 97.2402 46.1008 97.3513 46.2894 97.4321C46.4802 97.5129 46.6819 97.555 46.8991 97.555Z" fill="#00C194"></path><path fill-rule="evenodd" clip-rule="evenodd" d="M56.5613 98.8933C56.2653 98.8933 55.9868 98.8386 55.7236 98.7317C55.4604 98.6248 55.2258 98.4699 55.0197 98.2713C54.8092 98.0617 54.6469 97.8252 54.5328 97.5618C54.4188 97.2992 54.3596 97.018 54.3552 96.7184V93.1026H55.6929V96.71C55.6929 96.9414 55.7806 97.1418 55.9538 97.3168C56.1271 97.481 56.3333 97.5618 56.5702 97.5618C56.6863 97.5618 56.796 97.5373 56.9035 97.4919C57.0087 97.4431 57.1008 97.38 57.1797 97.3017C57.2587 97.2226 57.3201 97.1308 57.3618 97.0265C57.4034 96.9212 57.4254 96.8076 57.4254 96.6881V93.1043H58.7631V96.6814C58.7675 96.9802 58.7148 97.2646 58.6009 97.5331C58.4868 97.8016 58.331 98.0356 58.1337 98.2342C57.9363 98.4329 57.7039 98.592 57.4385 98.7098C57.1732 98.8276 56.8881 98.8891 56.5876 98.8958H56.5613V98.8933Z" fill="#00C194"></path><path fill-rule="evenodd" clip-rule="evenodd" d="M65.4648 97.3951C65.3969 97.406 65.3267 97.4128 65.2587 97.4195C65.1907 97.4237 65.1183 97.4305 65.046 97.4347V98.8916H63.7083V93.1329H65.046C65.3771 93.1371 65.6885 93.1986 65.9803 93.3139C66.2697 93.43 66.5241 93.5849 66.7434 93.7768C66.9626 93.9712 67.1337 94.1959 67.2565 94.4543C67.3815 94.7093 67.4429 94.9846 67.4429 95.2791C67.4429 95.5872 67.3772 95.8759 67.2455 96.1402C67.114 96.4036 66.9298 96.6334 66.6907 96.8278L67.9715 98.8891H66.3969L65.4648 97.3951ZM65.046 96.0964C65.1886 96.0914 65.3246 96.0653 65.4539 96.0215C65.5833 95.9786 65.6973 95.9188 65.7938 95.8448C65.8925 95.7707 65.9671 95.6857 66.0241 95.5897C66.0789 95.4913 66.1074 95.3886 66.1074 95.2791C66.1074 95.1706 66.0789 95.0679 66.0241 94.9711C65.9693 94.8777 65.8925 94.7927 65.7938 94.7203C65.6973 94.6462 65.5833 94.5873 65.4539 94.5435C65.3246 94.4998 65.1886 94.4737 65.046 94.4695V96.0964Z" fill="#00C194"></path><path fill-rule="evenodd" clip-rule="evenodd" d="M77.3838 93.0866V94.419H76.2675V98.8933H74.9298V94.419H73.8245V93.0866H77.3838Z" fill="#00C194"></path><path fill-rule="evenodd" clip-rule="evenodd" d="M85.4254 98.8933L85.1951 98.1922H83.3683L83.1315 98.8933H81.7149L83.6929 93.111H84.9583L86.8333 98.8933H85.4254ZM83.8267 96.8606H84.7675L84.3091 95.4584L83.8267 96.8606Z" fill="#00C194"></path><path fill-rule="evenodd" clip-rule="evenodd" d="M96.1008 95.6554V98.8932H94.7565V98.7518C94.6096 98.804 94.4583 98.8436 94.3026 98.8646C94.1469 98.889 93.9934 98.9 93.8399 98.9C93.4649 98.9 93.0986 98.8301 92.7412 98.6879C92.3815 98.5465 92.0613 98.3344 91.7762 98.0507C91.4912 97.7663 91.2784 97.4481 91.1403 97.0938C91 96.7403 90.9298 96.3758 90.9298 96.0021C90.9298 95.6284 91 95.264 91.1403 94.908C91.2806 94.5503 91.4934 94.2313 91.7762 93.9476C92.0613 93.6631 92.3837 93.4519 92.7412 93.3096C93.1008 93.1674 93.4671 93.0975 93.8399 93.0975C94.2148 93.0975 94.5811 93.1674 94.9386 93.3096C95.2982 93.4519 95.6184 93.6631 95.9035 93.9476L94.9539 94.8928C94.8004 94.7396 94.6272 94.6268 94.432 94.5502C94.2368 94.4737 94.0394 94.4366 93.8377 94.4366C93.6381 94.4366 93.4386 94.4737 93.2434 94.5502C93.0482 94.6268 92.875 94.7396 92.7215 94.8928C92.5679 95.046 92.4517 95.2185 92.3728 95.413C92.2938 95.6065 92.2544 95.8035 92.2544 96.0046C92.2544 96.2033 92.2938 96.4019 92.3728 96.5938C92.4517 96.7882 92.5679 96.9608 92.7215 97.114C92.8596 97.2512 93.0131 97.3564 93.1842 97.4321C93.3553 97.5087 93.5328 97.5525 93.7149 97.5659C93.8969 97.5786 94.0767 97.5617 94.2565 97.5154C94.4363 97.4675 94.6008 97.3892 94.7544 97.2798V96.9894H93.5921V95.657H96.1008V95.6554Z" fill="#00C194"></path><path fill-rule="evenodd" clip-rule="evenodd" d="M104.34 98.8933H100.881V93.1043H102.219V97.5618H104.34V98.8933Z" fill="#00C194"></path><path fill-rule="evenodd" clip-rule="evenodd" d="M110.371 98.8933H109.035V93.1043H110.371V98.8933Z" fill="#00C194"></path><path fill-rule="evenodd" clip-rule="evenodd" d="M118.658 93.111H119.995V98.8933H118.548L116.649 95.5216V98.8933H115.312V93.1262H116.767L118.658 96.4912V93.111Z" fill="#00C194"></path><path fill-rule="evenodd" clip-rule="evenodd" d="M128.52 94.4434H126.129V95.3162H128.068V96.6485H126.129V97.5618H128.52V98.8933H124.793V93.1194L128.52 93.111V94.4434Z" fill="#00C194"></path><path fill-rule="evenodd" clip-rule="evenodd" d="M137.581 93.111H138.916V98.8933H137.581V96.7117H135.903V98.8933H134.568V93.111H135.903V95.3802H137.581V93.111Z" fill="#00C194"></path><path fill-rule="evenodd" clip-rule="evenodd" d="M147.379 94.4434H144.989V95.3162H146.927V96.6485H144.989V97.5618H147.379V98.8933H143.653V93.1194L147.379 93.111V94.4434Z" fill="#00C194"></path><path fill-rule="evenodd" clip-rule="evenodd" d="M153.972 97.3951C153.904 97.406 153.833 97.4128 153.765 97.4195C153.697 97.4237 153.625 97.4305 153.553 97.4347V98.8916H152.215V93.1329H153.553C153.883 93.1371 154.195 93.1986 154.487 93.3139C154.776 93.43 155.031 93.5849 155.25 93.7768C155.469 93.9712 155.641 94.1959 155.763 94.4543C155.889 94.7093 155.95 94.9846 155.95 95.2791C155.95 95.5872 155.884 95.8759 155.752 96.1402C155.621 96.4036 155.437 96.6334 155.197 96.8278L156.478 98.8891H154.903L153.972 97.3951ZM153.553 96.0964C153.695 96.0914 153.831 96.0653 153.961 96.0215C154.09 95.9786 154.204 95.9188 154.3 95.8448C154.399 95.7707 154.474 95.6857 154.53 95.5897C154.586 95.4913 154.614 95.3886 154.614 95.2791C154.614 95.1706 154.586 95.0679 154.53 94.9711C154.476 94.8777 154.399 94.7927 154.3 94.7203C154.204 94.6462 154.09 94.5873 153.961 94.5435C153.831 94.4998 153.695 94.4737 153.553 94.4695V96.0964Z" fill="#00C194"></path><path fill-rule="evenodd" clip-rule="evenodd" d="M164.853 94.4434H162.465V95.3162H164.404V96.6485H162.465V97.5618H164.853V98.8933H161.127V93.1194L164.853 93.111V94.4434Z" fill="#00C194"></path><path fill-rule="evenodd" clip-rule="evenodd" d="M41.8442 56.2256H39.4561V57.1013H41.3924V58.4312H39.4561V59.3462H41.8442V60.676H38.1184V54.9023L41.8442 54.8957V56.2256Z" fill="#00C194"></path><path fill-rule="evenodd" clip-rule="evenodd" d="M48.4056 60.7875C48.2214 60.7875 48.0372 60.7634 47.8552 60.7132C47.6732 60.663 47.4999 60.5866 47.3376 60.4817C47.0525 60.2983 46.8311 60.0603 46.6732 59.7698C46.5153 59.4793 46.4363 59.1584 46.4363 58.8133H47.7741C47.7741 58.9706 47.8091 59.0929 47.8772 59.1802C47.9451 59.2676 48.0065 59.3265 48.0592 59.3571C48.1534 59.4204 48.2565 59.4532 48.3684 59.4597C48.478 59.4641 48.5876 59.4444 48.6929 59.3964C48.7675 59.3658 48.8267 59.3265 48.8705 59.2785C48.9144 59.2305 48.9495 59.1846 48.9736 59.1409C48.9977 59.0972 49.0109 59.0535 49.0175 59.0121C49.0218 58.9706 49.0263 58.9356 49.0263 58.9095C49.0263 58.8832 49.0241 58.8483 49.0175 58.8068C49.0131 58.7653 48.9977 58.7195 48.9736 58.6736C48.9495 58.6256 48.9166 58.5797 48.8705 58.536C48.8267 58.4923 48.7653 58.4508 48.6929 58.4137C48.6359 58.3875 48.5723 58.3635 48.5065 58.3439C48.4407 58.322 48.3706 58.3002 48.296 58.274C48.1644 58.2325 48.0263 58.1844 47.8837 58.132C47.7412 58.0797 47.5986 58.0075 47.4561 57.9202C47.2719 57.8045 47.1162 57.6603 46.9889 57.4878C46.8618 57.3153 46.7719 57.1275 46.717 56.9288C46.6622 56.73 46.6424 56.5227 46.6622 56.3108C46.6797 56.099 46.739 55.8937 46.8398 55.6993C46.9342 55.5203 47.0525 55.3653 47.1951 55.2342C47.3376 55.1032 47.4955 54.9984 47.6688 54.9242C47.842 54.8477 48.0306 54.8019 48.2302 54.7866C48.4298 54.7713 48.6337 54.7887 48.8399 54.8412C49.0394 54.8892 49.2214 54.9635 49.3837 55.0661C49.5482 55.1688 49.6864 55.291 49.8048 55.4373C49.9231 55.5814 50.0153 55.743 50.0767 55.9221C50.1403 56.1011 50.171 56.2868 50.171 56.4812H48.8399C48.8399 56.3611 48.8026 56.2759 48.7258 56.23C48.649 56.1819 48.5811 56.1514 48.524 56.1361C48.5131 56.1361 48.4889 56.1317 48.4495 56.1252C48.4101 56.1165 48.3639 56.1165 48.3157 56.1252C48.2653 56.1339 48.2148 56.1514 48.1623 56.1798C48.1096 56.2082 48.0679 56.254 48.035 56.3174C47.9933 56.4004 47.9846 56.4898 48.0109 56.5816C48.0372 56.6733 48.0898 56.7454 48.1688 56.7978C48.2434 56.8393 48.3245 56.8786 48.4144 56.9113C48.5043 56.9463 48.5986 56.979 48.6995 57.0096C48.7894 57.0358 48.8793 57.0642 48.9714 57.0969C49.0635 57.1275 49.1556 57.1647 49.25 57.2062C49.5964 57.3634 49.8662 57.5949 50.0635 57.8984C50.2609 58.2019 50.3596 58.5426 50.3596 58.9138C50.3596 59.2806 50.2609 59.617 50.0635 59.9227C49.8662 60.2262 49.5964 60.4577 49.25 60.6149C49.114 60.6782 48.9736 60.7241 48.8311 60.7525C48.6907 60.7721 48.5481 60.7875 48.4056 60.7875Z" fill="#00C194"></path><path fill-rule="evenodd" clip-rule="evenodd" d="M58.41 54.8717V56.2016H57.2938V60.676H55.9583V56.2016H54.8508V54.8717H58.41Z" fill="#00C194"></path><path fill-rule="evenodd" clip-rule="evenodd" d="M64.2829 54.8717C64.6688 54.8935 65.0306 54.9853 65.3706 55.1469C65.7104 55.3107 66.0065 55.5225 66.2565 55.7845C66.5065 56.0465 66.7039 56.3523 66.8508 56.6973C66.9956 57.0445 67.0679 57.4136 67.0679 57.8088C67.0679 58.1976 66.9977 58.56 66.8552 58.9007C66.7127 59.2391 66.5152 59.5384 66.2653 59.7938C66.0153 60.0515 65.7214 60.2568 65.3837 60.4118C65.046 60.5669 64.6798 60.6542 64.2851 60.676H62.9473V54.863H64.2851V54.8717H64.2829ZM64.2829 59.3374C64.489 59.3156 64.6798 59.2632 64.8552 59.1759C65.0328 59.0885 65.1841 58.9793 65.3135 58.8439C65.4429 58.7107 65.5438 58.5535 65.6184 58.3744C65.6929 58.1954 65.728 58.0075 65.728 57.8066C65.728 57.6013 65.6907 57.407 65.6184 57.2192C65.5438 57.0336 65.4407 56.8677 65.3092 56.7235C65.1776 56.5794 65.0241 56.4615 64.8508 56.3697C64.6776 56.2781 64.4868 56.2213 64.2806 56.1995V59.3374H64.2829Z" fill="#00C194"></path><path fill-rule="evenodd" clip-rule="evenodd" d="M131.891 59.3462V60.6782H128.006V59.2413C128.393 59.0099 128.741 58.7762 129.055 58.5382C129.368 58.3024 129.636 58.0731 129.858 57.8547C130.079 57.6364 130.25 57.4377 130.37 57.2586C130.491 57.0795 130.552 56.9353 130.552 56.8262C130.552 56.658 130.495 56.5161 130.379 56.4004C130.264 56.2847 130.121 56.2278 129.952 56.2278C129.783 56.2278 129.64 56.2868 129.524 56.4048C129.408 56.5205 129.351 56.6646 129.351 56.8349H128.006C128.006 56.5664 128.057 56.3174 128.16 56.0838C128.263 55.85 128.404 55.6448 128.579 55.4701C128.757 55.2932 128.961 55.1556 129.195 55.053C129.429 54.9504 129.682 54.9001 129.949 54.9001C130.219 54.9001 130.469 54.9504 130.704 55.053C130.936 55.1556 131.142 55.2954 131.318 55.4701C131.493 55.647 131.632 55.85 131.734 56.0838C131.835 56.3174 131.888 56.5685 131.888 56.8349C131.888 57.5971 131.318 58.4334 130.18 59.3484H131.891V59.3462Z" fill="#00C194"></path><path fill-rule="evenodd" clip-rule="evenodd" d="M139.342 54.8871C139.744 54.8871 140.118 54.9635 140.471 55.1163C140.825 55.2692 141.131 55.4745 141.394 55.7343C141.658 55.9942 141.866 56.2999 142.018 56.6514C142.171 57.0031 142.248 57.3786 142.248 57.7783C142.248 58.1779 142.171 58.5535 142.018 58.9051C141.864 59.2566 141.658 59.5623 141.394 59.8222C141.131 60.0821 140.822 60.2874 140.471 60.4402C140.118 60.593 139.744 60.6696 139.342 60.6696C138.941 60.6696 138.566 60.593 138.212 60.4402C137.862 60.2874 137.552 60.0821 137.292 59.8222C137.031 59.5623 136.825 59.2566 136.671 58.9051C136.517 58.5535 136.441 58.1779 136.441 57.7783C136.441 57.3786 136.517 57.0031 136.671 56.6514C136.825 56.2999 137.031 55.9942 137.292 55.7343C137.552 55.4745 137.86 55.2692 138.212 55.1163C138.566 54.9635 138.941 54.8871 139.342 54.8871ZM139.346 59.3374C139.563 59.3374 139.766 59.296 139.956 59.2152C140.147 59.1344 140.312 59.023 140.454 58.881C140.596 58.7391 140.708 58.5731 140.79 58.3854C140.87 58.1954 140.912 57.9945 140.912 57.7783C140.912 57.5621 140.87 57.3612 140.79 57.1712C140.708 56.9812 140.596 56.8174 140.454 56.6755C140.312 56.5335 140.144 56.4222 139.956 56.3414C139.767 56.2606 139.563 56.2191 139.346 56.2191C139.13 56.2191 138.927 56.2606 138.737 56.3414C138.546 56.4222 138.381 56.5335 138.239 56.6755C138.097 56.8174 137.985 56.9834 137.903 57.1712C137.823 57.3612 137.781 57.5621 137.781 57.7783C137.781 57.9945 137.823 58.1954 137.903 58.3854C137.985 58.5753 138.097 58.7391 138.239 58.881C138.381 59.023 138.548 59.1344 138.737 59.2152C138.927 59.296 139.13 59.3374 139.346 59.3374Z" fill="#00C194"></path><path fill-rule="evenodd" clip-rule="evenodd" d="M150.686 59.3462V60.6782H146.802V59.2413C147.189 59.0099 147.537 58.7762 147.851 58.5382C148.165 58.3024 148.432 58.0731 148.654 57.8547C148.875 57.6364 149.046 57.4377 149.167 57.2586C149.287 57.0795 149.348 56.9353 149.348 56.8262C149.348 56.658 149.292 56.5161 149.175 56.4004C149.059 56.2847 148.917 56.2278 148.748 56.2278C148.579 56.2278 148.436 56.2868 148.32 56.4048C148.204 56.5205 148.147 56.6646 148.147 56.8349H146.802C146.802 56.5664 146.853 56.3174 146.956 56.0838C147.059 55.85 147.2 55.6448 147.375 55.4701C147.552 55.2932 147.757 55.1556 147.991 55.053C148.226 54.9504 148.478 54.9001 148.745 54.9001C149.016 54.9001 149.265 54.9504 149.5 55.053C149.732 55.1556 149.939 55.2954 150.114 55.4701C150.289 55.647 150.428 55.85 150.531 56.0838C150.632 56.3174 150.684 56.5685 150.684 56.8349C150.684 57.5971 150.114 58.4334 148.976 59.3484H150.686V59.3462Z" fill="#00C194"></path><path fill-rule="evenodd" clip-rule="evenodd" d="M158.138 54.8871C158.54 54.8871 158.914 54.9635 159.268 55.1163C159.621 55.2692 159.927 55.4745 160.191 55.7343C160.454 55.9942 160.662 56.2999 160.813 56.6514C160.967 57.0031 161.044 57.3786 161.044 57.7783C161.044 58.1779 160.967 58.5535 160.813 58.9051C160.66 59.2566 160.454 59.5623 160.191 59.8222C159.927 60.0821 159.618 60.2874 159.268 60.4402C158.914 60.593 158.54 60.6696 158.138 60.6696C157.737 60.6696 157.362 60.593 157.009 60.4402C156.658 60.2874 156.349 60.0821 156.088 59.8222C155.826 59.5623 155.621 59.2566 155.467 58.9051C155.314 58.5535 155.237 58.1779 155.237 57.7783C155.237 57.3786 155.314 57.0031 155.467 56.6514C155.621 56.2999 155.826 55.9942 156.088 55.7343C156.349 55.4745 156.655 55.2692 157.009 55.1163C157.362 54.9635 157.737 54.8871 158.138 54.8871ZM158.142 59.3374C158.36 59.3374 158.561 59.296 158.752 59.2152C158.943 59.1344 159.107 59.023 159.25 58.881C159.392 58.7391 159.505 58.5731 159.585 58.3854C159.667 58.1954 159.708 57.9945 159.708 57.7783C159.708 57.5621 159.667 57.3612 159.585 57.1712C159.505 56.9812 159.392 56.8174 159.25 56.6755C159.107 56.5335 158.941 56.4222 158.752 56.3414C158.561 56.2606 158.36 56.2191 158.142 56.2191C157.926 56.2191 157.724 56.2606 157.533 56.3414C157.342 56.4222 157.178 56.5335 157.035 56.6755C156.892 56.8174 156.781 56.9834 156.699 57.1712C156.619 57.3612 156.577 57.5621 156.577 57.7783C156.577 57.9945 156.619 58.1954 156.699 58.3854C156.781 58.5753 156.892 58.7391 157.035 58.881C157.178 59.023 157.344 59.1344 157.533 59.2152C157.724 59.296 157.926 59.3374 158.142 59.3374Z" fill="#00C194"></path><path fill-rule="evenodd" clip-rule="evenodd" d="M117.364 60.7875H113.471C113.474 60.6564 113.474 60.5232 113.474 60.39C113.474 51.5175 109.862 43.4837 104.024 37.6705C99.2521 32.9187 92.9934 29.6497 86.0022 28.6124L99.1907 18.2354C99.4079 18.0585 99.739 18.0541 99.9649 18.231L117.715 32.196C117.859 32.2942 117.954 32.4514 117.954 32.6283V60.2546C117.954 60.5473 117.689 60.7875 117.364 60.7875ZM110.041 60.7875H106.842C106.844 60.6564 106.844 60.5232 106.844 60.39C106.844 53.3409 103.974 46.9579 99.3355 42.3393C94.6973 37.7208 88.2872 34.8623 81.2083 34.8623V32.6283C81.2083 32.4776 81.2762 32.3291 81.4122 32.2243L82.092 31.6893C89.7039 31.9186 96.5746 35.0828 101.599 40.0879C106.816 45.283 110.044 52.4631 110.044 60.3922C110.044 60.5232 110.044 60.6542 110.041 60.7875ZM103.41 60.7875H100.211C100.213 60.6564 100.215 60.5232 100.215 60.39C100.215 55.1644 98.0877 50.4322 94.6468 47.0059C91.2083 43.5819 86.4561 41.4615 81.2061 41.4615V38.2754C87.3377 38.2754 92.8903 40.7518 96.9079 44.7524C100.926 48.7529 103.412 54.2822 103.412 60.39C103.415 60.5232 103.412 60.6542 103.41 60.7875ZM96.7784 60.7875H93.5767C93.5811 60.6564 93.5833 60.5232 93.5833 60.39C93.5833 56.9856 92.1973 53.9043 89.9583 51.6748C87.7193 49.4452 84.6228 48.0651 81.2061 48.0651V44.8791C85.5066 44.8791 89.4013 46.6151 92.2214 49.4234C95.0395 52.2294 96.7851 56.1077 96.7851 60.3922C96.7851 60.5232 96.7829 60.6542 96.7784 60.7875ZM90.1469 60.7875H86.943C86.9517 60.6564 86.9561 60.5232 86.9561 60.39C86.9561 58.809 86.3114 57.3786 85.2719 56.3414C84.2324 55.3063 82.7938 54.6643 81.2061 54.6643V51.4782C83.6776 51.4782 85.9145 52.4762 87.5329 54.0878C89.1512 55.6994 90.1534 57.9289 90.1534 60.3879C90.1556 60.5232 90.1513 60.6542 90.1469 60.7875Z" fill="#00C194"></path></g><defs><clipPath><rect width="168" height="101" fill="white" transform="translate(16 8)"></rect></clipPath></defs></svg>