<svg xmlns="http://www.w3.org/2000/svg" width="200" height="117" viewBox="0 0 200 117" fill="none"><path fill-rule="evenodd" clip-rule="evenodd" d="M36.3139 104.989L37.0503 103.189L34.8757 98.5824H36.4957L37.8052 101.346L38.9236 98.5824H40.5092L37.8996 104.989H36.3139Z" fill="#00C194"></path><path fill-rule="evenodd" clip-rule="evenodd" d="M47.8226 98.6264C48.2622 98.6264 48.6741 98.7088 49.0607 98.8768C49.4474 99.0448 49.7833 99.2696 50.0733 99.5568C50.3632 99.8424 50.5887 100.18 50.7567 100.566C50.9247 100.952 51.0076 101.366 51.0076 101.805C51.0076 102.244 50.9247 102.655 50.7567 103.044C50.5887 103.43 50.3632 103.766 50.0733 104.053C49.7833 104.338 49.4474 104.566 49.0607 104.734C48.6741 104.901 48.2622 104.984 47.8226 104.984C47.3831 104.984 46.9711 104.901 46.5845 104.734C46.1979 104.566 45.8619 104.34 45.5766 104.053C45.2912 103.768 45.0657 103.43 44.8977 103.044C44.7297 102.658 44.6469 102.244 44.6469 101.805C44.6469 101.366 44.7297 100.954 44.8977 100.566C45.0657 100.18 45.2912 99.8448 45.5766 99.5568C45.8619 99.272 46.2002 99.0448 46.5845 98.8768C46.9734 98.7112 47.3831 98.6264 47.8226 98.6264ZM47.8272 103.518C48.0642 103.518 48.2875 103.474 48.4946 103.384C48.7017 103.294 48.8835 103.173 49.04 103.016C49.1965 102.86 49.3185 102.678 49.4082 102.472C49.498 102.265 49.5417 102.042 49.5417 101.805C49.5417 101.568 49.498 101.346 49.4082 101.138C49.3185 100.932 49.1965 100.75 49.04 100.594C48.8835 100.438 48.7017 100.316 48.4946 100.226C48.2875 100.136 48.0642 100.093 47.8272 100.093C47.5902 100.093 47.367 100.136 47.1599 100.226C46.9527 100.316 46.7709 100.438 46.6145 100.594C46.458 100.75 46.336 100.932 46.2462 101.138C46.1565 101.346 46.1128 101.568 46.1128 101.805C46.1128 102.042 46.1565 102.265 46.2462 102.472C46.336 102.678 46.458 102.86 46.6145 103.016C46.7709 103.173 46.9527 103.294 47.1599 103.384C47.3693 103.474 47.5902 103.518 47.8272 103.518Z" fill="#00C194"></path><path fill-rule="evenodd" clip-rule="evenodd" d="M57.5732 104.989C57.2486 104.989 56.9426 104.929 56.6549 104.811C56.365 104.694 56.1095 104.524 55.884 104.306C55.6538 104.076 55.4744 103.816 55.3501 103.526C55.2258 103.237 55.1614 102.929 55.1545 102.6V98.6264H56.6181V102.591C56.6181 102.844 56.7124 103.067 56.9035 103.258C57.0944 103.437 57.32 103.526 57.58 103.526C57.7066 103.526 57.8286 103.502 57.9437 103.449C58.0587 103.396 58.16 103.326 58.2474 103.242C58.3348 103.154 58.4016 103.053 58.4476 102.938C58.4936 102.823 58.5167 102.699 58.5167 102.566V98.6264H59.9803V102.557C59.9848 102.886 59.9274 103.198 59.803 103.492C59.6788 103.786 59.5085 104.044 59.2922 104.262C59.0759 104.481 58.8204 104.655 58.5305 104.786C58.2382 104.915 57.9275 104.984 57.5984 104.989H57.5732Z" fill="#00C194"></path><path fill-rule="evenodd" clip-rule="evenodd" d="M66.486 103.345C66.41 103.357 66.3364 103.366 66.2604 103.37C66.1845 103.378 66.1085 103.382 66.0257 103.389V104.991H64.5621V98.6632H66.0257C66.3893 98.668 66.7299 98.7344 67.0475 98.8632C67.365 98.9896 67.6435 99.1592 67.8829 99.3736C68.1222 99.5872 68.3109 99.8352 68.4467 100.118C68.5825 100.398 68.6492 100.702 68.6492 101.026C68.6492 101.364 68.5778 101.681 68.4329 101.973C68.2879 102.265 68.0854 102.515 67.8253 102.729L69.2291 104.993H67.5054L66.486 103.345ZM66.0257 101.915C66.1822 101.909 66.3295 101.883 66.4722 101.833C66.6149 101.784 66.7368 101.718 66.845 101.638C66.9508 101.557 67.036 101.462 67.0958 101.357C67.1557 101.251 67.1879 101.136 67.1879 101.014C67.1879 100.893 67.158 100.78 67.0958 100.677C67.036 100.573 66.9508 100.481 66.845 100.401C66.7391 100.32 66.6149 100.256 66.4722 100.206C66.3295 100.157 66.1822 100.13 66.0257 100.122V101.915Z" fill="#00C194"></path><path fill-rule="evenodd" clip-rule="evenodd" d="M78.7011 98.6104V100.072H77.4792V104.989H76.0133V100.072H74.8005V98.6104H78.7011Z" fill="#00C194"></path><path fill-rule="evenodd" clip-rule="evenodd" d="M86.6705 104.989L86.4197 104.218H84.4175L84.1575 104.989H82.6064L84.772 98.6352H86.1596L88.2146 104.989H86.6705ZM84.9192 102.757H85.9502L85.4485 101.217L84.9192 102.757Z" fill="#00C194"></path><path fill-rule="evenodd" clip-rule="evenodd" d="M97.5233 101.433V104.991H96.0505V104.834C95.8894 104.892 95.7214 104.934 95.5511 104.961C95.3809 104.986 95.2106 105 95.0449 105C94.6352 105 94.2325 104.922 93.8413 104.766C93.4478 104.61 93.0957 104.377 92.785 104.065C92.472 103.752 92.2396 103.402 92.0877 103.012C91.9358 102.621 91.8576 102.223 91.8576 101.812C91.8576 101.403 91.9336 101.001 92.0877 100.61C92.2419 100.217 92.4743 99.8648 92.785 99.5552C93.098 99.2424 93.4501 99.0104 93.8413 98.8536C94.2325 98.6976 94.6352 98.6192 95.0449 98.6192C95.4545 98.6192 95.8572 98.6976 96.2484 98.8536C96.642 99.0104 96.9941 99.2424 97.3047 99.5552L96.2645 100.594C96.0965 100.426 95.9055 100.302 95.6915 100.217C95.4775 100.134 95.2612 100.09 95.0426 100.09C94.8239 100.09 94.6053 100.132 94.3936 100.217C94.1795 100.299 93.9886 100.426 93.8206 100.594C93.6526 100.762 93.526 100.952 93.4385 101.166C93.3511 101.38 93.3097 101.596 93.3097 101.814C93.3097 102.033 93.3534 102.251 93.4385 102.462C93.526 102.676 93.6526 102.867 93.8206 103.034C93.9702 103.184 94.1405 103.302 94.3268 103.386C94.5155 103.469 94.7089 103.52 94.9068 103.534C95.1069 103.547 95.3049 103.529 95.5005 103.478C95.6961 103.426 95.8779 103.341 96.0459 103.218V102.899H94.771V101.438H97.5233V101.433Z" fill="#00C194"></path><path fill-rule="evenodd" clip-rule="evenodd" d="M105.709 104.989H101.921V98.6264H103.387V103.526H105.709V104.989Z" fill="#00C194"></path><path fill-rule="evenodd" clip-rule="evenodd" d="M111.476 104.989H110.012V98.6264H111.476V104.989Z" fill="#00C194"></path><path fill-rule="evenodd" clip-rule="evenodd" d="M119.712 98.6352H121.178V104.989H119.593L117.513 101.283V104.989H116.046V98.6536H117.641L119.712 102.35V98.6352Z" fill="#00C194"></path><path fill-rule="evenodd" clip-rule="evenodd" d="M129.674 100.099H127.058V101.06H129.18V102.522H127.058V103.526H129.674V104.989H125.592V98.6448L129.674 98.6352V100.099Z" fill="#00C194"></path><path fill-rule="evenodd" clip-rule="evenodd" d="M138.763 98.6352H140.226V104.989H138.763V102.591H136.923V104.989H135.46V98.6352H136.923V101.13H138.763V98.6352Z" fill="#00C194"></path><path fill-rule="evenodd" clip-rule="evenodd" d="M148.653 100.099H146.036V101.06H148.16V102.522H146.036V103.526H148.653V104.989H144.571V98.6448L148.653 98.6352V100.099Z" fill="#00C194"></path><path fill-rule="evenodd" clip-rule="evenodd" d="M155.037 103.345C154.961 103.357 154.887 103.366 154.812 103.37C154.735 103.378 154.657 103.382 154.577 103.389V104.991H153.113V98.6632H154.577C154.94 98.668 155.281 98.7344 155.598 98.8632C155.916 98.9896 156.194 99.1592 156.433 99.3736C156.673 99.5872 156.861 99.8352 156.998 100.118C157.133 100.398 157.203 100.702 157.203 101.026C157.203 101.364 157.131 101.681 156.986 101.973C156.841 102.265 156.638 102.515 156.378 102.729L157.782 104.993H156.059L155.037 103.345ZM154.577 101.915C154.733 101.909 154.88 101.883 155.023 101.833C155.165 101.784 155.287 101.718 155.396 101.638C155.502 101.557 155.587 101.462 155.647 101.357C155.707 101.251 155.738 101.136 155.738 101.014C155.738 100.893 155.709 100.78 155.647 100.677C155.587 100.573 155.502 100.481 155.396 100.401C155.29 100.32 155.165 100.256 155.023 100.206C154.883 100.157 154.733 100.13 154.577 100.122V101.915Z" fill="#00C194"></path><path fill-rule="evenodd" clip-rule="evenodd" d="M166.115 100.099H163.498V101.06H165.622V102.522H163.498V103.526H166.115V104.989H162.035V98.6448L166.115 98.6352V100.099Z" fill="#00C194"></path><path fill-rule="evenodd" clip-rule="evenodd" d="M35.0666 70.2283V75.1287H30.9727V91.602H26.0641V75.1287H22V70.2283H35.0666Z" fill="#00C194"></path><path fill-rule="evenodd" clip-rule="evenodd" d="M43.6021 86.0925C43.3513 86.1316 43.0981 86.1591 42.8473 86.1798C42.5964 86.1982 42.334 86.2189 42.0625 86.2373V91.602H37.1562V70.4029H42.0625C43.2822 70.4213 44.4237 70.6443 45.4891 71.0695C46.5546 71.4947 47.4889 72.0647 48.2921 72.775C49.0952 73.4898 49.7235 74.3218 50.1791 75.2688C50.6348 76.2112 50.8626 77.2271 50.8626 78.3098C50.8626 79.4452 50.6209 80.5048 50.1377 81.4817C49.6545 82.4586 48.9755 83.2998 48.1057 84.0146L52.8095 91.6043H47.031L43.6021 86.0925ZM42.0648 81.307C42.5872 81.2886 43.0866 81.1966 43.5606 81.0312C44.0347 80.868 44.4512 80.6496 44.8103 80.3784C45.1693 80.1072 45.45 79.7946 45.6525 79.436C45.8551 79.0774 45.9563 78.6959 45.9563 78.2914C45.9563 77.8846 45.8551 77.5076 45.6525 77.1605C45.45 76.8134 45.1693 76.5031 44.8103 76.2319C44.4512 75.9607 44.0371 75.7446 43.5606 75.5791C43.0866 75.4136 42.5872 75.324 42.0648 75.3033V81.307Z" fill="#00C194"></path><path fill-rule="evenodd" clip-rule="evenodd" d="M68.3132 75.2159H59.543V78.4361H66.6586V83.3365H59.543V86.7016H68.3132V91.602H54.6367V70.3454L68.3132 70.3155V75.2159Z" fill="#00C194"></path><path fill-rule="evenodd" clip-rule="evenodd" d="M84.1966 75.2159H75.4264V78.4361H82.542V83.3365H75.4264V86.7016H84.1966V91.602H70.5201V70.3454L84.1966 70.3155V75.2159Z" fill="#00C194"></path><path fill-rule="evenodd" clip-rule="evenodd" d="M102.227 70.3155H107.135V91.602H102.227V83.5687H96.0711V91.602H91.1649V70.3155H96.0711V78.6683H102.227V70.3155Z" fill="#00C194"></path><path fill-rule="evenodd" clip-rule="evenodd" d="M118.792 70.2857C120.262 70.2857 121.643 70.5661 122.938 71.1269C124.229 71.6878 125.364 72.4463 126.331 73.4025C127.299 74.3587 128.059 75.4849 128.621 76.7813C129.182 78.0776 129.463 79.4591 129.463 80.9278C129.463 82.3965 129.182 83.7802 128.621 85.0743C128.059 86.3707 127.299 87.4969 126.331 88.4531C125.362 89.4092 124.229 90.1701 122.938 90.7286C121.641 91.2895 120.262 91.5699 118.792 91.5699C117.321 91.5699 115.94 91.2895 114.645 90.7286C113.354 90.1678 112.226 89.4092 111.267 88.4531C110.309 87.4969 109.554 86.3707 108.993 85.0743C108.431 83.7779 108.151 82.3965 108.151 80.9278C108.151 79.4591 108.431 78.0753 108.993 76.7813C109.554 75.4849 110.309 74.3587 111.267 73.4025C112.224 72.4463 113.352 71.6855 114.645 71.1269C115.943 70.5661 117.321 70.2857 118.792 70.2857ZM118.808 86.6717C119.601 86.6717 120.347 86.5223 121.045 86.2212C121.742 85.9224 122.352 85.511 122.874 84.9892C123.396 84.4675 123.809 83.8583 124.107 83.1619C124.407 82.4655 124.558 81.7207 124.558 80.9278C124.558 80.1348 124.409 79.3901 124.107 78.6936C123.809 77.9971 123.396 77.3881 122.874 76.8663C122.352 76.3446 121.742 75.9331 121.045 75.6343C120.347 75.3355 119.601 75.1838 118.808 75.1838C118.014 75.1838 117.268 75.3332 116.571 75.6343C115.874 75.9331 115.264 76.3446 114.742 76.8663C114.219 77.3881 113.807 77.9971 113.508 78.6936C113.209 79.3901 113.057 80.1348 113.057 80.9278C113.057 81.7207 113.207 82.4655 113.508 83.1619C113.807 83.8583 114.219 84.4675 114.742 84.9892C115.264 85.511 115.874 85.9224 116.571 86.2212C117.268 86.5223 118.014 86.6717 118.808 86.6717Z" fill="#00C194"></path><path fill-rule="evenodd" clip-rule="evenodd" d="M139.045 91.602C137.962 91.602 136.935 91.4043 135.968 91.0067C134.999 90.6114 134.139 90.0459 133.384 89.3104C132.611 88.5381 132.015 87.667 131.598 86.6993C131.182 85.7316 130.963 84.6973 130.944 83.5963V70.2857H135.851V83.5687C135.851 84.4192 136.171 85.1639 136.808 85.8029C137.448 86.4028 138.203 86.7016 139.073 86.7016C139.499 86.7016 139.906 86.6143 140.293 86.4396C140.679 86.2649 141.017 86.0327 141.31 85.7431C141.6 85.4535 141.823 85.1156 141.977 84.7272C142.131 84.3411 142.209 83.9251 142.209 83.4791V70.2834H147.115V83.4492C147.135 84.5502 146.936 85.596 146.52 86.5821C146.103 87.5682 145.533 88.4278 144.807 89.1633C144.083 89.8988 143.229 90.4827 142.253 90.9171C141.275 91.3515 140.235 91.5791 139.132 91.5997L139.045 91.602Z" fill="#00C194"></path><path fill-rule="evenodd" clip-rule="evenodd" d="M156.381 92.0089C155.704 92.0089 155.03 91.9169 154.362 91.733C153.695 91.5491 153.06 91.2642 152.461 90.878C151.417 90.2022 150.602 89.3265 150.022 88.2531C149.443 87.1797 149.152 86.0051 149.152 84.7294H154.059C154.059 85.3087 154.185 85.7592 154.436 86.0787C154.687 86.3982 154.91 86.6142 155.103 86.7314C155.451 86.9636 155.829 87.0901 156.236 87.1084C156.643 87.1268 157.039 87.051 157.426 86.8763C157.697 86.759 157.913 86.6142 158.079 86.4418C158.245 86.2672 158.369 86.0994 158.457 85.9339C158.544 85.7684 158.597 85.6098 158.616 85.4558C158.634 85.3018 158.645 85.1754 158.645 85.0789C158.645 84.9823 158.636 84.8559 158.616 84.7019C158.597 84.5479 158.541 84.3824 158.457 84.2077C158.369 84.033 158.243 83.8652 158.079 83.6998C157.916 83.5342 157.697 83.3849 157.426 83.2493C157.211 83.1527 156.986 83.0654 156.742 82.9872C156.5 82.909 156.243 82.824 155.974 82.7252C155.49 82.5712 154.986 82.3965 154.464 82.2034C153.941 82.0103 153.419 81.7483 152.897 81.4196C152.22 80.9944 151.647 80.4634 151.185 79.8245C150.719 79.1855 150.386 78.5006 150.184 77.765C149.981 77.0294 149.912 76.271 149.981 75.4895C150.047 74.7057 150.267 73.9564 150.635 73.2415C150.982 72.5842 151.419 72.0142 151.942 71.5314C152.464 71.0488 153.044 70.6672 153.684 70.3868C154.323 70.1064 155.009 69.9363 155.746 69.8788C156.482 69.8214 157.226 69.888 157.983 70.0811C158.719 70.2558 159.381 70.5316 159.975 70.9086C160.576 71.2855 161.089 71.7406 161.52 72.2716C161.955 72.8026 162.288 73.3978 162.516 74.0552C162.749 74.7126 162.863 75.3998 162.863 76.1146H157.98C157.98 75.671 157.84 75.3608 157.559 75.1861C157.278 75.0114 157.032 74.8965 156.818 74.839C156.779 74.839 156.687 74.8252 156.542 74.7954C156.397 74.7654 156.231 74.7654 156.047 74.7954C155.863 74.8252 155.674 74.8918 155.481 74.9976C155.287 75.1034 155.134 75.2734 155.016 75.5056C154.862 75.8158 154.832 76.1377 154.929 76.4778C155.025 76.8158 155.219 77.0823 155.509 77.2754C155.78 77.4294 156.08 77.5696 156.409 77.6961C156.737 77.8225 157.085 77.942 157.454 78.0592C157.782 78.1558 158.116 78.2615 158.455 78.3787C158.792 78.4936 159.131 78.6293 159.48 78.7855C160.749 79.3648 161.745 80.2152 162.468 81.3369C163.188 82.4586 163.552 83.7043 163.552 85.0789C163.552 86.4326 163.188 87.6693 162.468 88.791C161.748 89.9126 160.749 90.763 159.48 91.3422C158.981 91.5744 158.468 91.7445 157.945 91.8502C157.426 91.956 156.903 92.0089 156.381 92.0089Z" fill="#00C194"></path><path fill-rule="evenodd" clip-rule="evenodd" d="M179 75.2159H170.23V78.4361H177.346V83.3365H170.23V86.7016H179V91.602H165.323V70.3454L179 70.3155V75.2159Z" fill="#00C194"></path><path fill-rule="evenodd" clip-rule="evenodd" d="M94.168 46.7558H99.2746V51.8539H94.168V46.7558ZM101.652 32.0845C101.753 34.0796 102.632 39.2719 109.064 39.2719C109.699 39.2719 110.217 39.7868 110.217 40.4234C110.217 41.0578 109.702 41.575 109.064 41.575C105.371 41.575 103.077 40.2718 101.652 38.5893V40.4258C101.652 41.0625 101.136 41.5774 100.499 41.5774C99.8637 41.5774 99.3459 41.0625 99.3459 40.4258V38.5916C97.9214 40.2741 95.627 41.5774 91.9358 41.5774C91.3007 41.5774 90.7829 41.0625 90.7829 40.4258C90.7829 39.7891 91.2984 39.2742 91.9358 39.2742C98.3656 39.2742 99.2446 34.0796 99.3459 32.0868V31.9466C99.3367 31.6409 99.3413 31.4179 99.3459 31.2984V30.0366C97.9214 31.719 95.627 33.0223 91.9358 33.0223C91.3007 33.0223 90.7829 32.5074 90.7829 31.8707C90.7829 31.2363 91.2984 30.7192 91.9358 30.7192C98.3656 30.7192 99.2446 25.5246 99.3459 23.5318V23.3893C99.3367 23.0835 99.3413 22.8583 99.3459 22.741V21.4815C97.9214 23.164 95.627 24.4673 91.9358 24.4673C91.3007 24.4673 90.7829 23.9524 90.7829 23.3157C90.7829 22.6813 91.2984 22.1642 91.9358 22.1642C98.3656 22.1642 99.2446 16.9695 99.3459 14.9767V14.8365C99.3367 14.5308 99.3413 14.3078 99.3459 14.1883V14.1516C99.3459 13.5172 99.8614 13 100.499 13C101.136 13 101.652 13.5149 101.652 14.1516V14.1883C101.656 14.3056 101.661 14.5308 101.652 14.8365V14.9767C101.753 16.9718 102.632 22.1642 109.064 22.1642C109.699 22.1642 110.217 22.679 110.217 23.3157C110.217 23.9501 109.702 24.4673 109.064 24.4673C105.371 24.4673 103.077 23.164 101.652 21.4815V22.7434C101.656 22.8606 101.661 23.0858 101.652 23.3915V23.5318C101.753 25.5269 102.632 30.7192 109.064 30.7192C109.699 30.7192 110.217 31.2341 110.217 31.8707C110.217 32.5051 109.702 33.0223 109.064 33.0223C105.371 33.0223 103.077 31.719 101.652 30.0366V31.2984C101.656 31.4156 101.661 31.6409 101.652 31.9466V32.0845ZM144.628 40.8946C144.729 42.8898 145.608 48.0821 152.041 48.0821C152.676 48.0821 153.194 48.597 153.194 49.2337C153.194 49.868 152.678 50.3852 152.041 50.3852C148.347 50.3852 146.052 49.0819 144.628 47.3994V58.9426C144.628 59.577 144.113 60.0941 143.475 60.0941C142.84 60.0941 142.323 59.5792 142.323 58.9426V47.3994C140.898 49.0819 138.603 50.3852 134.912 50.3852C134.277 50.3852 133.759 49.8703 133.759 49.2337C133.759 48.5993 134.275 48.0821 134.912 48.0821C141.342 48.0821 142.221 42.8874 142.323 40.8946V40.7545C142.313 40.4487 142.318 40.2258 142.323 40.1063V38.8444C140.898 40.5269 138.603 41.8302 134.912 41.8302C134.277 41.8302 133.759 41.3153 133.759 40.6786C133.759 40.0442 134.275 39.527 134.912 39.527C141.342 39.527 142.221 34.3324 142.323 32.3396V32.1994C142.313 31.8937 142.318 31.6708 142.323 31.5513V30.2894C140.898 31.9718 138.603 33.2751 134.912 33.2751C134.277 33.2751 133.759 32.7602 133.759 32.1236C133.759 31.4869 134.275 30.972 134.912 30.972C141.342 30.972 142.221 25.7774 142.323 23.7846V23.6444C142.313 23.3387 142.318 23.1134 142.323 22.9962V22.9594C142.323 22.325 142.837 21.8078 143.475 21.8078C144.113 21.8078 144.628 22.3227 144.628 22.9594V22.9962C144.633 23.1134 144.638 23.3387 144.628 23.6444V23.7846C144.729 25.7797 145.608 30.972 152.041 30.972C152.676 30.972 153.194 31.4869 153.194 32.1236C153.194 32.7579 152.678 33.2751 152.041 33.2751C148.347 33.2751 146.052 31.9718 144.628 30.2894V31.5513C144.633 31.6685 144.638 31.8937 144.628 32.1994V32.3396C144.729 34.3347 145.608 39.527 152.041 39.527C152.676 39.527 153.194 40.0419 153.194 40.6786C153.194 41.313 152.678 41.8302 152.041 41.8302C148.347 41.8302 146.052 40.5269 144.628 38.8444V40.1063C144.633 40.2235 144.638 40.4487 144.628 40.7545V40.8946ZM122.635 32.0845C122.736 34.0796 123.617 39.2719 130.047 39.2719C130.682 39.2719 131.2 39.7868 131.2 40.4234C131.2 41.0578 130.685 41.575 130.047 41.575C126.354 41.575 124.06 40.2718 122.635 38.5893V58.9448C122.635 59.5792 122.119 60.0964 121.482 60.0964C120.847 60.0964 120.329 59.5815 120.329 58.9448V38.5893C118.905 40.2718 116.61 41.575 112.919 41.575C112.284 41.575 111.766 41.0602 111.766 40.4234C111.766 39.7868 112.281 39.2719 112.919 39.2719C119.349 39.2719 120.228 34.0773 120.329 32.0845V31.9443C120.319 31.6386 120.324 31.4156 120.329 31.2961V30.0342C118.905 31.7167 116.61 33.02 112.919 33.02C112.284 33.02 111.766 32.5051 111.766 31.8684C111.766 31.2341 112.281 30.7169 112.919 30.7169C119.349 30.7169 120.228 25.5222 120.329 23.5294V23.3893C120.319 23.0835 120.324 22.8583 120.329 22.741V21.4815C118.905 23.164 116.61 24.4673 112.919 24.4673C112.284 24.4673 111.766 23.9524 111.766 23.3157C111.766 22.6813 112.281 22.1642 112.919 22.1642C119.349 22.1642 120.228 16.9695 120.329 14.9767V14.8365C120.319 14.5308 120.324 14.3078 120.329 14.1883V14.1516C120.329 13.5172 120.845 13 121.482 13C122.119 13 122.635 13.5149 122.635 14.1516V14.1883C122.639 14.3056 122.644 14.5308 122.635 14.8365V14.9767C122.736 16.9718 123.617 22.1642 130.047 22.1642C130.682 22.1642 131.2 22.679 131.2 23.3157C131.2 23.9501 130.685 24.4673 130.047 24.4673C126.354 24.4673 124.06 23.164 122.635 21.4815V22.7434C122.639 22.8606 122.644 23.0858 122.635 23.3915V23.5318C122.736 25.5269 123.617 30.7192 130.047 30.7192C130.682 30.7192 131.2 31.2341 131.2 31.8707C131.2 32.5051 130.685 33.0223 130.047 33.0223C126.354 33.0223 124.06 31.719 122.635 30.0366V31.2984C122.639 31.4156 122.644 31.6409 122.635 31.9466V32.0845ZM80.6687 32.0845C80.77 34.0796 81.6491 39.2719 88.0811 39.2719C88.7163 39.2719 89.2341 39.7868 89.2341 40.4234C89.2341 41.0578 88.7186 41.575 88.0811 41.575C84.3876 41.575 82.0932 40.2718 80.6687 38.5893V58.9448C80.6687 59.5792 80.1533 60.0964 79.5158 60.0964C78.8806 60.0964 78.3628 59.5815 78.3628 58.9448V38.5893C76.9384 40.2718 74.644 41.575 70.9528 41.575C70.3176 41.575 69.7998 41.0602 69.7998 40.4234C69.7998 39.7868 70.3153 39.2719 70.9528 39.2719C77.3825 39.2719 78.2616 34.0773 78.3628 32.0845V31.9443C78.3537 31.6386 78.3583 31.4156 78.3628 31.2961V30.0342C76.9384 31.7167 74.644 33.02 70.9528 33.02C70.3176 33.02 69.7998 32.5051 69.7998 31.8684C69.7998 31.2341 70.3153 30.7169 70.9528 30.7169C77.3825 30.7169 78.2616 25.5222 78.3628 23.5294V23.3893C78.3537 23.0835 78.3583 22.8583 78.3628 22.741V21.4815C76.9384 23.164 74.644 24.4673 70.9528 24.4673C70.3176 24.4673 69.7998 23.9524 69.7998 23.3157C69.7998 22.6813 70.3153 22.1642 70.9528 22.1642C77.3825 22.1642 78.2616 16.9695 78.3628 14.9767V14.8365C78.3537 14.5308 78.3583 14.3078 78.3628 14.1883V14.1516C78.3628 13.5172 78.8784 13 79.5158 13C80.151 13 80.6687 13.5149 80.6687 14.1516V14.1883C80.6734 14.3056 80.678 14.5308 80.6687 14.8365V14.9767C80.77 16.9718 81.6491 22.1642 88.0811 22.1642C88.7163 22.1642 89.2341 22.679 89.2341 23.3157C89.2341 23.9501 88.7186 24.4673 88.0811 24.4673C84.3876 24.4673 82.0932 23.164 80.6687 21.4815V22.7434C80.6734 22.8606 80.678 23.0858 80.6687 23.3915V23.5318C80.77 25.5269 81.6491 30.7192 88.0811 30.7192C88.7163 30.7192 89.2341 31.2341 89.2341 31.8707C89.2341 32.5051 88.7186 33.0223 88.0811 33.0223C84.3876 33.0223 82.0932 31.719 80.6687 30.0366V31.2984C80.6734 31.4156 80.678 31.6409 80.6687 31.9466V32.0845ZM58.6754 40.8946C58.7767 42.8898 59.6581 48.0821 66.0878 48.0821C66.723 48.0821 67.2408 48.597 67.2408 49.2337C67.2408 49.868 66.7253 50.3852 66.0878 50.3852C62.3943 50.3852 60.0999 49.0819 58.6754 47.3994V58.9426C58.6754 59.577 58.16 60.0941 57.5225 60.0941C56.8874 60.0941 56.3695 59.5792 56.3695 58.9426V47.3994C54.945 49.0819 52.6507 50.3852 48.9594 50.3852C48.3243 50.3852 47.8065 49.8703 47.8065 49.2337C47.8065 48.5993 48.322 48.0821 48.9594 48.0821C55.3892 48.0821 56.2683 42.8874 56.3695 40.8946V40.7545C56.3604 40.4487 56.365 40.2258 56.3695 40.1063V38.8444C54.945 40.5269 52.6507 41.8302 48.9594 41.8302C48.3243 41.8302 47.8065 41.3153 47.8065 40.6786C47.8065 40.0442 48.322 39.527 48.9594 39.527C55.3892 39.527 56.2683 34.3324 56.3695 32.3396V32.1994C56.3604 31.8937 56.365 31.6708 56.3695 31.5513V30.2894C54.945 31.9718 52.6507 33.2751 48.9594 33.2751C48.3243 33.2751 47.8065 32.7602 47.8065 32.1236C47.8065 31.4869 48.322 30.972 48.9594 30.972C55.3892 30.972 56.2683 25.7774 56.3695 23.7846V23.6444C56.3604 23.3387 56.365 23.1134 56.3695 22.9962V22.9594C56.3695 22.325 56.8851 21.8078 57.5225 21.8078C58.1576 21.8078 58.6754 22.3227 58.6754 22.9594V22.9962C58.6801 23.1134 58.6847 23.3387 58.6754 23.6444V23.7846C58.7767 25.7797 59.6581 30.972 66.0878 30.972C66.723 30.972 67.2408 31.4869 67.2408 32.1236C67.2408 32.7579 66.7253 33.2751 66.0878 33.2751C62.3943 33.2751 60.0999 31.9718 58.6754 30.2894V31.5513C58.6801 31.6685 58.6847 31.8937 58.6754 32.1994V32.3396C58.7767 34.3347 59.6581 39.527 66.0878 39.527C66.723 39.527 67.2408 40.0419 67.2408 40.6786C67.2408 41.313 66.7253 41.8302 66.0878 41.8302C62.3943 41.8302 60.0999 40.5269 58.6754 38.8444V40.1063C58.6801 40.2235 58.6847 40.4487 58.6754 40.7545V40.8946ZM101.726 46.7558H106.829V51.8539H101.726V46.7558ZM94.168 53.8445H99.2746V58.9426H94.168V53.8445ZM101.726 53.8445H106.829V58.9426H101.726V53.8445Z" fill="#00C194"></path></svg>