<svg xmlns="http://www.w3.org/2000/svg" width="200" height="117" viewBox="0 0 200 117" fill="none"><g clip-path="url(#clip0)"><path fill-rule="evenodd" clip-rule="evenodd" d="M21.2988 84.9288C21.0737 84.9636 20.8463 84.9891 20.6213 85.0076C20.3962 85.0239 20.1596 85.0424 19.9183 85.0587V89.8816H15.5102V70.8219H19.916C21.0111 70.8404 22.0365 71.0399 22.9924 71.4227C23.9483 71.8054 24.7881 72.3181 25.5096 72.9561C26.2312 73.5988 26.795 74.3457 27.2057 75.1994C27.614 76.0461 27.8181 76.9601 27.8181 77.9321C27.8181 78.9529 27.6001 79.904 27.1662 80.7833C26.7323 81.6601 26.1222 82.4164 25.3403 83.0613L29.5652 89.8839H24.3752L21.2988 84.9288ZM19.916 80.6278C20.3847 80.6116 20.8324 80.5281 21.2593 80.3796C21.6862 80.2311 22.0597 80.0363 22.3799 79.7927C22.7024 79.5491 22.953 79.266 23.1362 78.9459C23.3195 78.6235 23.41 78.2801 23.41 77.916C23.41 77.5517 23.3195 77.213 23.1362 76.8998C22.953 76.5867 22.7024 76.3083 22.3799 76.0647C22.0574 75.8211 21.6839 75.6263 21.2593 75.4778C20.8324 75.3293 20.387 75.2481 19.916 75.2296V80.6278Z" fill="#00C194"></path><path fill-rule="evenodd" clip-rule="evenodd" d="M45.8613 75.1507H37.9847V78.0458H44.3742V82.4512H37.9847V85.4763H45.8613V89.8816H33.5789V70.7708L45.8613 70.7453V75.1507Z" fill="#00C194"></path><path fill-rule="evenodd" clip-rule="evenodd" d="M61.4521 89.8816L60.6958 87.5618H54.6728L53.8911 89.8816H49.2231L55.7424 70.743H59.9139L66.0946 89.8816H61.4521ZM56.1832 83.1564H59.2851L57.7725 78.5145L56.1832 83.1564Z" fill="#00C194"></path><path fill-rule="evenodd" clip-rule="evenodd" d="M81.1634 89.8817H69.7672V70.7198H74.1753V85.4763H81.1634V89.8817Z" fill="#00C194"></path><path fill-rule="evenodd" clip-rule="evenodd" d="M101.761 75.1507H93.8866V78.0458H100.274V82.4512H93.8866V85.4763H101.761V89.8816H89.4785V70.7708L101.761 70.7453V75.1507Z" fill="#00C194"></path><path fill-rule="evenodd" clip-rule="evenodd" d="M112.085 90.2482C111.478 90.2482 110.872 90.1647 110.273 89.9999C109.675 89.8352 109.104 89.5777 108.565 89.2297C107.626 88.6219 106.897 87.8355 106.376 86.8705C105.854 85.9054 105.594 84.8499 105.594 83.7015H109.999C109.999 84.2235 110.113 84.6272 110.338 84.9148C110.563 85.2025 110.765 85.3974 110.937 85.5017C111.25 85.7106 111.589 85.8243 111.953 85.8405C112.317 85.8567 112.674 85.7894 113.023 85.6317C113.266 85.5273 113.461 85.3974 113.61 85.2397C113.758 85.0819 113.869 84.9311 113.949 84.7826C114.027 84.6342 114.074 84.4927 114.092 84.3535C114.108 84.2143 114.118 84.1006 114.118 84.0148C114.118 83.9266 114.108 83.8152 114.092 83.6761C114.076 83.5369 114.027 83.3884 113.949 83.233C113.869 83.0776 113.758 82.9244 113.61 82.776C113.461 82.6275 113.266 82.4929 113.023 82.3723C112.832 82.2841 112.628 82.2076 112.41 82.138C112.192 82.0684 111.962 81.9896 111.718 81.9037C111.285 81.7645 110.833 81.6091 110.364 81.4351C109.895 81.2611 109.424 81.0268 108.955 80.7322C108.347 80.3494 107.835 79.8715 107.417 79.2985C107 78.7256 106.701 78.1085 106.517 77.4473C106.334 76.7862 106.274 76.1042 106.334 75.4012C106.394 74.6983 106.591 74.0232 106.92 73.3806C107.234 72.7891 107.624 72.2764 108.095 71.8426C108.564 71.4088 109.085 71.0655 109.659 70.8126C110.232 70.5597 110.848 70.4089 111.51 70.3556C112.171 70.3045 112.839 70.3648 113.517 70.5388C114.178 70.6943 114.772 70.9425 115.308 71.2812C115.846 71.6199 116.307 72.0282 116.695 72.5061C117.088 72.984 117.387 73.5175 117.591 74.109C117.8 74.7006 117.904 75.3177 117.904 75.9603H113.519C113.519 75.5613 113.393 75.2829 113.141 75.1252C112.888 74.9697 112.667 74.8653 112.475 74.8119C112.44 74.8119 112.357 74.798 112.227 74.7726C112.097 74.747 111.948 74.747 111.784 74.7726C111.619 74.798 111.449 74.8584 111.275 74.9558C111.102 75.0509 110.962 75.204 110.858 75.4128C110.719 75.6912 110.693 75.9812 110.779 76.2874C110.867 76.5913 111.039 76.8303 111.301 77.0042C111.545 77.1434 111.814 77.2687 112.109 77.3824C112.403 77.496 112.717 77.605 113.048 77.7071C113.342 77.793 113.644 77.8904 113.949 77.9948C114.252 78.0992 114.556 78.2198 114.869 78.359C116.008 78.8809 116.904 79.6442 117.551 80.6533C118.199 81.6624 118.526 82.7829 118.526 84.0171C118.526 85.2327 118.201 86.3462 117.551 87.3553C116.904 88.3645 116.008 89.1277 114.869 89.6497C114.422 89.8584 113.96 90.0092 113.491 90.1066C113.023 90.1994 112.554 90.2482 112.085 90.2482Z" fill="#00C194"></path><path fill-rule="evenodd" clip-rule="evenodd" d="M133.752 70.6664V75.0741H130.075V89.8816H125.669V75.0741H122.017V70.6664H133.752Z" fill="#00C194"></path><path fill-rule="evenodd" clip-rule="evenodd" d="M148.951 89.8816L148.195 87.5618H142.172L141.39 89.8816H136.722L143.242 70.743H147.413L153.593 89.8816H148.951ZM143.685 83.1564H146.787L145.274 78.5145L143.685 83.1564Z" fill="#00C194"></path><path fill-rule="evenodd" clip-rule="evenodd" d="M168.247 70.6664V75.0741H164.57V89.8816H160.162V75.0741H156.512V70.6664H168.247Z" fill="#00C194"></path><path fill-rule="evenodd" clip-rule="evenodd" d="M184.49 75.1507H176.616V78.0458H183.003V82.4512H176.616V85.4763H184.49V89.8816H172.208V70.7708L184.49 70.7453V75.1507Z" fill="#00C194"></path><path fill-rule="evenodd" clip-rule="evenodd" d="M37.2933 101.251C37.2933 101.611 37.226 101.947 37.0915 102.262C36.9569 102.578 36.7736 102.856 36.5369 103.096C36.3003 103.335 36.0266 103.525 35.7133 103.664C35.4001 103.803 35.0637 103.874 34.7064 103.882V104.881H33.2633V98.6111H34.7064C35.066 98.6158 35.4001 98.6901 35.7133 98.8338C36.0266 98.9754 36.3003 99.1679 36.5369 99.4069C36.7736 99.6459 36.9592 99.9245 37.0915 100.24C37.2283 100.556 37.2933 100.892 37.2933 101.251ZM34.7064 102.437C34.8665 102.432 35.015 102.395 35.1542 102.33C35.2934 102.265 35.414 102.176 35.5184 102.072C35.6205 101.968 35.7017 101.843 35.762 101.699C35.8223 101.557 35.8525 101.404 35.8525 101.244C35.8525 101.084 35.8223 100.933 35.762 100.789C35.7017 100.646 35.6205 100.523 35.5184 100.416C35.4163 100.311 35.2957 100.224 35.1542 100.158C35.015 100.094 34.8641 100.056 34.7064 100.052V102.437Z" fill="#00C194"></path><path fill-rule="evenodd" clip-rule="evenodd" d="M43.511 103.258C43.4368 103.269 43.3626 103.279 43.2884 103.283C43.214 103.288 43.1375 103.295 43.0586 103.299V104.88H41.6155V98.6344H43.0586C43.4182 98.639 43.7524 98.7063 44.0678 98.8316C44.381 98.9568 44.6548 99.1241 44.8915 99.3347C45.1282 99.5462 45.3137 99.7896 45.4459 100.071C45.5805 100.348 45.6478 100.648 45.6478 100.966C45.6478 101.3 45.5759 101.613 45.4344 101.9C45.2928 102.188 45.0933 102.437 44.8358 102.648L46.2208 104.881H44.5203L43.511 103.258ZM43.0586 101.847C43.2117 101.843 43.3579 101.815 43.4994 101.766C43.6386 101.717 43.7616 101.654 43.866 101.574C43.9704 101.495 44.0539 101.402 44.1143 101.295C44.1745 101.191 44.2047 101.078 44.2047 100.959C44.2047 100.839 44.1745 100.729 44.1143 100.624C44.0539 100.523 43.9727 100.433 43.866 100.351C43.7616 100.272 43.6386 100.207 43.4994 100.158C43.3603 100.109 43.214 100.082 43.0586 100.078V101.847Z" fill="#00C194"></path><path fill-rule="evenodd" clip-rule="evenodd" d="M53.021 98.6019C53.4548 98.6019 53.8585 98.6854 54.2413 98.8501C54.6218 99.0148 54.9536 99.2401 55.239 99.5204C55.5244 99.8033 55.7471 100.135 55.9118 100.516C56.0765 100.896 56.16 101.305 56.16 101.739C56.16 102.172 56.0765 102.578 55.9118 102.961C55.7471 103.341 55.5221 103.673 55.239 103.956C54.9536 104.236 54.6218 104.462 54.2413 104.627C53.8609 104.791 53.4548 104.874 53.021 104.874C52.5872 104.874 52.1834 104.791 51.8006 104.627C51.4202 104.462 51.0884 104.236 50.8076 103.956C50.5269 103.673 50.3042 103.341 50.1394 102.961C49.9748 102.58 49.8912 102.172 49.8912 101.739C49.8912 101.305 49.9748 100.899 50.1394 100.516C50.3042 100.133 50.5269 99.8033 50.8076 99.5204C51.0907 99.2401 51.4202 99.0148 51.8006 98.8501C52.1834 98.6854 52.5895 98.6019 53.021 98.6019ZM53.0256 103.429C53.26 103.429 53.478 103.385 53.6822 103.298C53.8864 103.209 54.0674 103.089 54.2205 102.933C54.3736 102.78 54.4942 102.599 54.5824 102.395C54.6705 102.191 54.7147 101.97 54.7147 101.736C54.7147 101.501 54.6705 101.284 54.5824 101.078C54.4942 100.873 54.3736 100.692 54.2205 100.539C54.0674 100.386 53.8864 100.265 53.6822 100.177C53.478 100.089 53.2576 100.045 53.0233 100.045C52.789 100.045 52.5709 100.089 52.3667 100.177C52.1625 100.265 51.9816 100.386 51.8285 100.539C51.6754 100.692 51.5547 100.873 51.4642 101.078C51.3761 101.281 51.332 101.501 51.332 101.736C51.332 101.97 51.3761 102.188 51.4642 102.395C51.5524 102.599 51.673 102.78 51.8285 102.933C51.9816 103.086 52.1625 103.206 52.3667 103.298C52.5732 103.385 52.7913 103.429 53.0256 103.429Z" fill="#00C194"></path><path fill-rule="evenodd" clip-rule="evenodd" d="M64.0947 101.251C64.0947 101.611 64.0275 101.947 63.8929 102.262C63.7583 102.578 63.575 102.856 63.3383 103.096C63.1017 103.335 62.828 103.525 62.5147 103.664C62.2015 103.803 61.8651 103.874 61.5055 103.882V104.881H60.0624V98.6111H61.5055C61.8651 98.6158 62.1992 98.6901 62.5124 98.8338C62.8256 98.9754 63.0994 99.1679 63.336 99.4069C63.5727 99.6459 63.7583 99.9245 63.8905 100.24C64.0275 100.556 64.0947 100.892 64.0947 101.251ZM61.5078 102.437C61.6679 102.432 61.8164 102.395 61.9556 102.33C62.0948 102.265 62.2154 102.176 62.3175 102.072C62.4196 101.968 62.5008 101.843 62.5611 101.699C62.6215 101.557 62.6516 101.404 62.6516 101.244C62.6516 101.084 62.6215 100.933 62.5611 100.789C62.5008 100.646 62.4196 100.523 62.3175 100.416C62.2154 100.311 62.0948 100.224 61.9556 100.158C61.8164 100.094 61.6656 100.056 61.5078 100.052V102.437Z" fill="#00C194"></path><path fill-rule="evenodd" clip-rule="evenodd" d="M72.3448 100.054H69.7649V101.003H71.8576V102.445H69.7649V103.437H72.3448V104.881H68.3218V98.6204L72.3448 98.6111V100.054Z" fill="#00C194"></path><path fill-rule="evenodd" clip-rule="evenodd" d="M78.4512 103.258C78.377 103.269 78.3028 103.279 78.2285 103.283C78.1543 103.288 78.0777 103.295 77.9989 103.299V104.88H76.5557V98.6344H77.9989C78.3585 98.639 78.6925 98.7063 79.0058 98.8316C79.319 98.9568 79.5927 99.1241 79.8294 99.3347C80.066 99.5462 80.2516 99.7896 80.3839 100.071C80.5184 100.348 80.5857 100.648 80.5857 100.966C80.5857 101.3 80.5138 101.613 80.3723 101.9C80.2308 102.188 80.0312 102.437 79.7737 102.648L81.1588 104.881H79.4581L78.4512 103.258ZM77.9989 101.847C78.152 101.843 78.2981 101.815 78.4397 101.766C78.5788 101.717 78.7018 101.654 78.8062 101.574C78.9106 101.495 78.9941 101.402 79.0545 101.295C79.1148 101.191 79.1449 101.078 79.1449 100.959C79.1449 100.839 79.1148 100.729 79.0545 100.624C78.9941 100.523 78.9129 100.433 78.8062 100.351C78.7018 100.272 78.5788 100.207 78.4397 100.158C78.3004 100.109 78.1543 100.082 77.9989 100.078V101.847Z" fill="#00C194"></path><path fill-rule="evenodd" clip-rule="evenodd" d="M88.8544 98.5856V100.029H87.6502V104.881H86.2048V100.029H85.01V98.5856H88.8544Z" fill="#00C194"></path><path fill-rule="evenodd" clip-rule="evenodd" d="M93.9098 104.881L94.636 103.105L92.4923 98.5602H94.0885L95.3784 101.284L96.4805 98.5602H98.0442L95.4736 104.881H93.9098Z" fill="#00C194"></path><path fill-rule="evenodd" clip-rule="evenodd" d="M105.68 105C105.48 105 105.283 104.972 105.086 104.919C104.888 104.866 104.703 104.78 104.526 104.666C104.218 104.466 103.979 104.209 103.81 103.893C103.638 103.578 103.555 103.232 103.555 102.856H104.998C104.998 103.028 105.035 103.16 105.109 103.253C105.183 103.346 105.248 103.411 105.306 103.445C105.408 103.513 105.519 103.55 105.64 103.557C105.761 103.562 105.876 103.541 105.99 103.49C106.069 103.455 106.134 103.414 106.183 103.362C106.232 103.311 106.269 103.26 106.294 103.213C106.319 103.165 106.336 103.119 106.341 103.072C106.345 103.026 106.35 102.989 106.35 102.96C106.35 102.933 106.348 102.896 106.341 102.85C106.336 102.803 106.319 102.754 106.294 102.703C106.269 102.653 106.232 102.601 106.183 102.555C106.134 102.507 106.071 102.462 105.99 102.422C105.928 102.395 105.861 102.369 105.788 102.346C105.717 102.323 105.643 102.298 105.561 102.269C105.419 102.223 105.271 102.172 105.118 102.116C104.965 102.059 104.81 101.982 104.656 101.887C104.457 101.762 104.29 101.604 104.153 101.415C104.016 101.228 103.918 101.026 103.858 100.81C103.798 100.594 103.78 100.37 103.798 100.14C103.818 99.9099 103.881 99.6872 103.991 99.4791C104.093 99.2865 104.22 99.1171 104.375 98.9753C104.529 98.8338 104.7 98.7201 104.888 98.639C105.076 98.5555 105.278 98.5067 105.494 98.4905C105.71 98.4742 105.93 98.4928 106.153 98.5509C106.369 98.6018 106.563 98.6831 106.739 98.7944C106.916 98.9058 107.067 99.0406 107.195 99.1954C107.322 99.351 107.422 99.5273 107.487 99.7199C107.557 99.9125 107.589 100.117 107.589 100.325H106.153C106.153 100.195 106.111 100.102 106.03 100.052C105.946 100.001 105.875 99.9658 105.812 99.9494C105.8 99.9494 105.772 99.9451 105.731 99.9357C105.688 99.9262 105.64 99.9262 105.584 99.9357C105.531 99.9451 105.475 99.964 105.418 99.9959C105.359 100.026 105.315 100.078 105.281 100.145C105.234 100.235 105.227 100.33 105.255 100.43C105.283 100.53 105.341 100.609 105.426 100.664C105.506 100.71 105.594 100.75 105.691 100.787C105.788 100.824 105.891 100.859 106 100.893C106.097 100.922 106.194 100.955 106.294 100.986C106.394 101.022 106.494 101.061 106.596 101.108C106.97 101.279 107.262 101.53 107.476 101.859C107.686 102.188 107.793 102.557 107.793 102.96C107.793 103.359 107.686 103.724 107.476 104.053C107.264 104.383 106.97 104.634 106.596 104.805C106.45 104.873 106.299 104.923 106.144 104.954C105.986 104.984 105.832 105 105.68 105Z" fill="#00C194"></path><path fill-rule="evenodd" clip-rule="evenodd" d="M114.574 98.6019C115.008 98.6019 115.412 98.6854 115.795 98.8501C116.175 99.0148 116.507 99.2401 116.793 99.5204C117.078 99.8033 117.301 100.135 117.465 100.516C117.63 100.896 117.714 101.305 117.714 101.739C117.714 102.172 117.63 102.578 117.465 102.961C117.301 103.341 117.076 103.673 116.793 103.956C116.507 104.236 116.175 104.462 115.795 104.627C115.414 104.791 115.008 104.874 114.574 104.874C114.141 104.874 113.737 104.791 113.355 104.627C112.973 104.462 112.642 104.236 112.361 103.956C112.08 103.673 111.858 103.341 111.693 102.961C111.529 102.58 111.445 102.172 111.445 101.739C111.445 101.305 111.529 100.899 111.693 100.516C111.858 100.133 112.08 99.8033 112.361 99.5204C112.644 99.2401 112.973 99.0148 113.355 98.8501C113.735 98.6854 114.141 98.6019 114.574 98.6019ZM114.58 103.429C114.813 103.429 115.031 103.385 115.238 103.298C115.443 103.209 115.624 103.089 115.776 102.933C115.93 102.78 116.05 102.599 116.138 102.395C116.226 102.191 116.27 101.97 116.27 101.736C116.27 101.501 116.226 101.284 116.138 101.078C116.05 100.873 115.93 100.692 115.776 100.539C115.624 100.386 115.443 100.265 115.238 100.177C115.034 100.089 114.813 100.045 114.58 100.045C114.345 100.045 114.127 100.089 113.92 100.177C113.716 100.265 113.536 100.386 113.382 100.539C113.229 100.692 113.108 100.873 113.02 101.078C112.932 101.281 112.888 101.501 112.888 101.736C112.888 101.97 112.932 102.188 113.02 102.395C113.108 102.599 113.229 102.78 113.382 102.933C113.536 103.086 113.716 103.206 113.92 103.298C114.127 103.385 114.345 103.429 114.58 103.429Z" fill="#00C194"></path><path fill-rule="evenodd" clip-rule="evenodd" d="M125.349 104.881H121.616V98.6019H123.059V103.437H125.349V104.881Z" fill="#00C194"></path><path fill-rule="evenodd" clip-rule="evenodd" d="M131.787 104.881C131.469 104.881 131.166 104.824 130.883 104.708C130.597 104.592 130.344 104.425 130.121 104.209C129.894 103.982 129.718 103.724 129.597 103.441C129.474 103.156 129.411 102.852 129.404 102.527V98.6065H130.847V102.518C130.847 102.768 130.941 102.989 131.128 103.176C131.316 103.353 131.539 103.441 131.794 103.441C131.919 103.441 132.04 103.415 132.154 103.365C132.267 103.314 132.367 103.244 132.453 103.16C132.539 103.075 132.604 102.975 132.65 102.861C132.697 102.747 132.717 102.624 132.717 102.495V98.6019H134.161V102.481C134.165 102.806 134.107 103.112 133.986 103.404C133.864 103.694 133.697 103.947 133.483 104.165C133.27 104.381 133.019 104.555 132.731 104.682C132.444 104.81 132.137 104.877 131.813 104.884H131.787V104.881Z" fill="#00C194"></path><path fill-rule="evenodd" clip-rule="evenodd" d="M142.088 98.5856V100.029H140.884V104.881H139.441V100.029H138.244V98.5856H142.088Z" fill="#00C194"></path><path fill-rule="evenodd" clip-rule="evenodd" d="M147.614 104.881H146.169V98.6019H147.614V104.881Z" fill="#00C194"></path><path fill-rule="evenodd" clip-rule="evenodd" d="M154.637 98.6019C155.071 98.6019 155.475 98.6854 155.858 98.8501C156.238 99.0148 156.57 99.2401 156.856 99.5204C157.141 99.8033 157.363 100.135 157.528 100.516C157.693 100.896 157.776 101.305 157.776 101.739C157.776 102.172 157.693 102.578 157.528 102.961C157.363 103.341 157.138 103.673 156.856 103.956C156.57 104.236 156.238 104.462 155.858 104.627C155.477 104.791 155.071 104.874 154.637 104.874C154.204 104.874 153.8 104.791 153.417 104.627C153.036 104.462 152.705 104.236 152.424 103.956C152.141 103.673 151.921 103.341 151.756 102.961C151.591 102.58 151.508 102.172 151.508 101.739C151.508 101.305 151.591 100.899 151.756 100.516C151.921 100.133 152.143 99.8033 152.424 99.5204C152.707 99.2401 153.039 99.0148 153.417 98.8501C153.8 98.6854 154.206 98.6019 154.637 98.6019ZM154.643 103.429C154.876 103.429 155.094 103.385 155.299 103.298C155.503 103.209 155.684 103.089 155.837 102.933C155.99 102.78 156.111 102.599 156.199 102.395C156.287 102.191 156.331 101.97 156.331 101.736C156.331 101.501 156.287 101.284 156.199 101.078C156.111 100.873 155.99 100.692 155.837 100.539C155.684 100.386 155.503 100.265 155.299 100.177C155.094 100.089 154.874 100.045 154.643 100.045C154.408 100.045 154.19 100.089 153.983 100.177C153.779 100.265 153.598 100.386 153.445 100.539C153.292 100.692 153.172 100.873 153.081 101.078C152.992 101.281 152.948 101.501 152.948 101.736C152.948 101.97 152.992 102.188 153.081 102.395C153.169 102.599 153.29 102.78 153.445 102.933C153.598 103.086 153.779 103.206 153.983 103.298C154.19 103.385 154.408 103.429 154.643 103.429Z" fill="#00C194"></path><path fill-rule="evenodd" clip-rule="evenodd" d="M165.293 98.6111H166.737V104.881H165.173L163.122 101.225V104.881H161.679V98.6274H163.252L165.293 102.274V98.6111Z" fill="#00C194"></path><path fill-rule="evenodd" clip-rule="evenodd" d="M43.8683 56.7405H41.5459V57.5919H43.4298V58.8933H41.5459V59.7841H43.8683V61.0832H40.2467V55.4484L43.8683 55.4391V56.7405Z" fill="#00C194"></path><path fill-rule="evenodd" clip-rule="evenodd" d="M50.2485 61.1923C50.0699 61.1923 49.8912 61.1691 49.7149 61.1203C49.5385 61.0716 49.3692 60.995 49.2114 60.893C48.9354 60.7144 48.7196 60.4824 48.5665 60.197C48.4133 59.9117 48.3368 59.6008 48.3368 59.2622H49.636C49.636 59.4153 49.6685 59.5359 49.7358 59.6194C49.803 59.7029 49.8611 59.7609 49.9121 59.7934C50.0049 59.856 50.1047 59.8885 50.2113 59.8932C50.3181 59.8978 50.4248 59.8769 50.5269 59.8305C50.5988 59.8003 50.6568 59.7609 50.701 59.7145C50.745 59.6681 50.7775 59.6241 50.8007 59.5799C50.8239 59.5359 50.8378 59.4941 50.8424 59.4524C50.8471 59.4106 50.8494 59.3781 50.8494 59.3526C50.8494 59.3271 50.8471 59.2947 50.8424 59.2529C50.8378 59.2111 50.8239 59.1694 50.8007 59.123C50.7775 59.0765 50.745 59.0325 50.701 58.9884C50.6568 58.9444 50.5988 58.9049 50.5269 58.8701C50.4712 58.8445 50.4109 58.8213 50.3459 58.8005C50.281 58.7796 50.2137 58.7564 50.1418 58.7309C50.0142 58.6892 49.8796 58.6428 49.7428 58.5917C49.6035 58.5407 49.4666 58.471 49.3275 58.3852C49.1488 58.2716 48.9956 58.1324 48.8727 57.9631C48.7498 57.7937 48.6616 57.6128 48.6082 57.4179C48.5548 57.223 48.5363 57.0211 48.5548 56.8147C48.5735 56.6083 48.6314 56.4088 48.7289 56.2185C48.8217 56.0446 48.9377 55.8938 49.0745 55.7638C49.2138 55.6362 49.3669 55.5342 49.5363 55.4599C49.7056 55.3857 49.8866 55.3416 50.0814 55.3254C50.2764 55.3092 50.4735 55.3277 50.6731 55.3787C50.868 55.4252 51.0443 55.497 51.202 55.5968C51.3621 55.6966 51.4967 55.8172 51.6104 55.9587C51.7264 56.1002 51.8146 56.258 51.8749 56.4319C51.9375 56.6059 51.9677 56.7892 51.9677 56.9771H50.6754C50.6754 56.8588 50.6383 56.7776 50.564 56.7312C50.4898 56.6848 50.4248 56.6547 50.3691 56.6384C50.3599 56.6384 50.3344 56.6338 50.2972 56.6268C50.2578 56.6199 50.216 56.6199 50.1673 56.6268C50.1186 56.6338 50.0675 56.6524 50.0165 56.6801C49.9655 56.708 49.9237 56.7521 49.8936 56.8147C49.8517 56.896 49.8449 56.9818 49.8704 57.0722C49.8959 57.1627 49.9469 57.2323 50.0235 57.2833C50.0954 57.3251 50.1743 57.3622 50.2624 57.3946C50.3506 57.4271 50.4411 57.4596 50.5385 57.4898C50.6266 57.5153 50.7148 57.5431 50.803 57.5733C50.8935 57.6035 50.9817 57.6406 51.0744 57.68C51.4108 57.8332 51.6754 58.0605 51.8656 58.3574C52.0558 58.6544 52.1533 58.9861 52.1533 59.3503C52.1533 59.7099 52.0581 60.0369 51.8656 60.3339C51.6754 60.6308 51.4108 60.8559 51.0744 61.0113C50.9422 61.0716 50.8076 61.118 50.6685 61.1458C50.5246 61.1783 50.3854 61.1923 50.2485 61.1923Z" fill="#00C194"></path><path fill-rule="evenodd" clip-rule="evenodd" d="M59.9719 55.4159V56.7173H58.8885V61.0833H57.5892V56.7173H56.5127V55.4159H59.9719Z" fill="#00C194"></path><path fill-rule="evenodd" clip-rule="evenodd" d="M65.684 55.4159C66.0574 55.4368 66.4101 55.5273 66.7419 55.685C67.0736 55.845 67.359 56.0516 67.6027 56.3067C67.8462 56.5619 68.0388 56.8612 68.1803 57.1975C68.3219 57.5362 68.3914 57.8981 68.3914 58.2809C68.3914 58.6614 68.3218 59.0163 68.1849 59.3457C68.0458 59.6774 67.8555 59.9674 67.6119 60.218C67.3683 60.4685 67.083 60.6703 66.7534 60.8211C66.4263 60.9719 66.0691 61.0577 65.684 61.0786H64.3847V55.4043H65.684V55.4159ZM65.684 59.7772C65.8835 59.7563 66.0691 59.7053 66.2407 59.6194C66.4125 59.536 66.5609 59.4268 66.6862 59.297C66.8115 59.1671 66.9112 59.014 66.9832 58.8399C67.0551 58.666 67.0898 58.4804 67.0898 58.2855C67.0898 58.0861 67.0551 57.8958 66.9832 57.7126C66.9112 57.5316 66.8115 57.3692 66.6839 57.2277C66.5563 57.0862 66.4078 56.9702 66.2384 56.8821C66.0691 56.7915 65.8858 56.7382 65.684 56.7173V59.7772Z" fill="#00C194"></path><path fill-rule="evenodd" clip-rule="evenodd" d="M131.407 59.7841V61.0833H127.632V59.682C128.006 59.457 128.346 59.2273 128.651 58.9954C128.957 58.7657 129.216 58.5407 129.43 58.3296C129.646 58.1161 129.813 57.9236 129.929 57.7473C130.047 57.5733 130.105 57.4318 130.105 57.3251C130.105 57.1604 130.049 57.0212 129.936 56.9075C129.822 56.7938 129.685 56.7382 129.521 56.7382C129.356 56.7382 129.219 56.7961 129.105 56.9098C128.991 57.0235 128.936 57.1627 128.936 57.3297H127.63C127.63 57.0676 127.681 56.824 127.781 56.5943C127.88 56.367 128.017 56.1675 128.189 55.9935C128.36 55.8218 128.56 55.685 128.789 55.5852C129.017 55.4854 129.263 55.4344 129.525 55.4344C129.787 55.4344 130.031 55.4854 130.259 55.5852C130.485 55.685 130.683 55.8218 130.854 55.9935C131.024 56.1652 131.159 56.3647 131.26 56.5943C131.36 56.8217 131.409 57.0676 131.409 57.3297C131.409 58.0721 130.854 58.891 129.748 59.7818L131.407 59.7841Z" fill="#00C194"></path><path fill-rule="evenodd" clip-rule="evenodd" d="M138.65 55.4321C139.039 55.4321 139.404 55.5063 139.747 55.6548C140.09 55.8033 140.39 56.0051 140.646 56.258C140.903 56.5109 141.103 56.8101 141.251 57.1534C141.399 57.4968 141.473 57.8633 141.473 58.253C141.473 58.6428 141.399 59.0093 141.251 59.3526C141.103 59.6959 140.901 59.9952 140.646 60.2481C140.39 60.501 140.089 60.7028 139.747 60.8513C139.404 60.9997 139.039 61.074 138.65 61.074C138.26 61.074 137.896 60.9997 137.552 60.8513C137.212 60.7028 136.913 60.501 136.657 60.2481C136.404 59.9952 136.202 59.6959 136.054 59.3526C135.906 59.0093 135.831 58.6428 135.831 58.253C135.831 57.8633 135.906 57.4968 136.054 57.1534C136.202 56.8101 136.402 56.5109 136.657 56.258C136.91 56.0051 137.209 55.8033 137.552 55.6548C137.896 55.5063 138.26 55.4321 138.65 55.4321ZM138.655 59.7772C138.865 59.7772 139.063 59.7377 139.246 59.6589C139.432 59.58 139.592 59.4709 139.731 59.3317C139.871 59.1925 139.979 59.0325 140.059 58.8469C140.137 58.6613 140.177 58.4641 140.177 58.2553C140.177 58.0442 140.137 57.8471 140.059 57.6638C139.979 57.4782 139.871 57.3181 139.731 57.1789C139.592 57.0397 139.432 56.9307 139.246 56.8519C139.061 56.773 138.864 56.7335 138.655 56.7335C138.444 56.7335 138.246 56.773 138.063 56.8519C137.877 56.9307 137.717 57.0397 137.578 57.1789C137.438 57.3181 137.33 57.4782 137.251 57.6638C137.172 57.8494 137.132 58.0466 137.132 58.2553C137.132 58.4664 137.172 58.6637 137.251 58.8469C137.33 59.0325 137.438 59.1925 137.578 59.3317C137.717 59.4709 137.877 59.58 138.063 59.6589C138.246 59.7377 138.444 59.7772 138.655 59.7772Z" fill="#00C194"></path><path fill-rule="evenodd" clip-rule="evenodd" d="M149.679 59.7841V61.0833H145.905V59.682C146.278 59.457 146.619 59.2273 146.923 58.9954C147.23 58.7657 147.489 58.5407 147.703 58.3296C147.919 58.1161 148.086 57.9236 148.201 57.7473C148.32 57.5733 148.378 57.4318 148.378 57.3251C148.378 57.1604 148.322 57.0212 148.208 56.9075C148.095 56.7938 147.958 56.7382 147.794 56.7382C147.629 56.7382 147.492 56.7961 147.378 56.9098C147.264 57.0235 147.209 57.1627 147.209 57.3297H145.902C145.902 57.0676 145.954 56.824 146.053 56.5943C146.153 56.367 146.29 56.1675 146.462 55.9935C146.633 55.8218 146.833 55.685 147.063 55.5852C147.29 55.4854 147.536 55.4344 147.798 55.4344C148.06 55.4344 148.304 55.4854 148.531 55.5852C148.758 55.685 148.956 55.8218 149.127 55.9935C149.296 56.1652 149.432 56.3647 149.533 56.5943C149.633 56.8217 149.682 57.0676 149.682 57.3297C149.682 58.0721 149.127 58.891 148.02 59.7818L149.679 59.7841Z" fill="#00C194"></path><path fill-rule="evenodd" clip-rule="evenodd" d="M156.923 55.4321C157.313 55.4321 157.677 55.5063 158.02 55.6548C158.363 55.8033 158.663 56.0051 158.918 56.258C159.176 56.5109 159.375 56.8101 159.524 57.1534C159.672 57.4968 159.746 57.8633 159.746 58.253C159.746 58.6428 159.672 59.0093 159.524 59.3526C159.375 59.6959 159.173 59.9952 158.918 60.2481C158.663 60.501 158.361 60.7028 158.02 60.8513C157.677 60.9997 157.313 61.074 156.923 61.074C156.533 61.074 156.168 60.9997 155.825 60.8513C155.484 60.7028 155.185 60.501 154.93 60.2481C154.677 59.9952 154.475 59.6959 154.327 59.3526C154.178 59.0093 154.104 58.6428 154.104 58.253C154.104 57.8633 154.178 57.4968 154.327 57.1534C154.475 56.8101 154.674 56.5109 154.93 56.258C155.183 56.0051 155.482 55.8033 155.825 55.6548C156.168 55.5063 156.533 55.4321 156.923 55.4321ZM156.927 59.7772C157.138 59.7772 157.336 59.7377 157.519 59.6589C157.705 59.58 157.864 59.4709 158.004 59.3317C158.143 59.1925 158.252 59.0325 158.331 58.8469C158.41 58.6613 158.45 58.4641 158.45 58.2553C158.45 58.0442 158.41 57.8471 158.331 57.6638C158.252 57.4782 158.143 57.3181 158.004 57.1789C157.864 57.0397 157.705 56.9307 157.519 56.8519C157.336 56.773 157.136 56.7335 156.927 56.7335C156.716 56.7335 156.519 56.773 156.336 56.8519C156.152 56.9307 155.99 57.0397 155.851 57.1789C155.712 57.3181 155.603 57.4782 155.524 57.6638C155.445 57.8494 155.405 58.0466 155.405 58.2553C155.405 58.4664 155.445 58.6637 155.524 58.8469C155.603 59.0325 155.712 59.1925 155.851 59.3317C155.99 59.4709 156.15 59.58 156.336 59.6589C156.519 59.7377 156.716 59.7772 156.927 59.7772Z" fill="#00C194"></path><path fill-rule="evenodd" clip-rule="evenodd" d="M81.0938 57.4828H82.9475V50.4004H81.0938V57.4828Z" fill="#00C194"></path><path fill-rule="evenodd" clip-rule="evenodd" d="M84.3604 57.4829H86.2165V42.9468H84.3604V57.4829Z" fill="#00C194"></path><path fill-rule="evenodd" clip-rule="evenodd" d="M87.6294 57.4829H89.4855V35.5813H87.6294V57.4829Z" fill="#00C194"></path><path fill-rule="evenodd" clip-rule="evenodd" d="M90.8984 57.4828H92.7522V27.9861H90.8984V57.4828Z" fill="#00C194"></path><path fill-rule="evenodd" clip-rule="evenodd" d="M94.1674 57.4829H96.0211V20.5233H94.1674V57.4829Z" fill="#00C194"></path><path fill-rule="evenodd" clip-rule="evenodd" d="M97.4363 57.4829H99.29V13H97.4363V57.4829Z" fill="#00C194"></path><path fill-rule="evenodd" clip-rule="evenodd" d="M118.904 57.4828H117.051V50.4004H118.904V57.4828Z" fill="#00C194"></path><path fill-rule="evenodd" clip-rule="evenodd" d="M115.635 57.4829H113.781V42.9468H115.635V57.4829Z" fill="#00C194"></path><path fill-rule="evenodd" clip-rule="evenodd" d="M112.366 57.4829H110.512V35.5813H112.366V57.4829Z" fill="#00C194"></path><path fill-rule="evenodd" clip-rule="evenodd" d="M109.097 57.4828H107.243V27.9861H109.097V57.4828Z" fill="#00C194"></path><path fill-rule="evenodd" clip-rule="evenodd" d="M105.828 57.4829H103.974V20.5233H105.828V57.4829Z" fill="#00C194"></path><path fill-rule="evenodd" clip-rule="evenodd" d="M102.559 57.4829H100.705V13H102.559V57.4829Z" fill="#00C194"></path><path fill-rule="evenodd" clip-rule="evenodd" d="M122.345 61.1923V59.3387H77.6531V61.1923H122.345Z" fill="#00C194"></path></g><defs><clipPath><rect width="168.98" height="92" fill="white" transform="translate(15.5102 13)"></rect></clipPath></defs></svg>