<svg xmlns="http://www.w3.org/2000/svg" width="200" height="117" viewBox="0 0 200 117" fill="none"><g clip-path="url(#clip0)"><path fill-rule="evenodd" clip-rule="evenodd" d="M45.5924 103.992L46.2166 102.47L44.373 98.5724H45.7464L46.8565 100.91L47.8046 98.5724H49.1487L46.9365 103.992H45.5924Z" fill="#00C194"></path><path fill-rule="evenodd" clip-rule="evenodd" d="M55.3486 98.6094C55.7212 98.6094 56.0704 98.6796 56.3982 98.8215C56.7259 98.9634 57.0108 99.1539 57.2565 99.3976C57.5023 99.6382 57.6935 99.9243 57.836 100.25C57.9783 100.577 58.0486 100.928 58.0486 101.299C58.0486 101.67 57.9783 102.019 57.836 102.347C57.6935 102.674 57.5023 102.957 57.2565 103.201C57.0108 103.442 56.7259 103.634 56.3982 103.776C56.0704 103.918 55.7212 103.988 55.3486 103.988C54.9759 103.988 54.6267 103.918 54.299 103.776C53.9713 103.634 53.6865 103.444 53.4445 103.201C53.2027 102.96 53.0115 102.674 52.869 102.347C52.7266 102.02 52.6564 101.67 52.6564 101.299C52.6564 100.928 52.7266 100.58 52.869 100.25C53.0115 99.9243 53.2027 99.6405 53.4445 99.3976C53.6865 99.1562 53.9732 98.9634 54.299 98.8215C54.6267 98.6819 54.9759 98.6094 55.3486 98.6094ZM55.3525 102.748C55.5534 102.748 55.7426 102.711 55.9182 102.635C56.0938 102.559 56.2479 102.456 56.3806 102.323C56.5132 102.192 56.6167 102.038 56.6927 101.863C56.7688 101.688 56.8059 101.499 56.8059 101.299C56.8059 101.099 56.7688 100.91 56.6927 100.735C56.6167 100.56 56.5132 100.406 56.3806 100.274C56.2479 100.142 56.0938 100.039 55.9182 99.9628C55.7426 99.8873 55.5534 99.8502 55.3525 99.8502C55.1516 99.8502 54.9623 99.8873 54.7868 99.9628C54.6112 100.039 54.4571 100.142 54.3244 100.274C54.1917 100.406 54.0883 100.56 54.0122 100.735C53.9362 100.91 53.8991 101.099 53.8991 101.299C53.8991 101.499 53.9362 101.688 54.0122 101.863C54.0883 102.038 54.1917 102.192 54.3244 102.323C54.4571 102.456 54.6112 102.559 54.7868 102.635C54.9623 102.711 55.1516 102.748 55.3525 102.748Z" fill="#00C194"></path><path fill-rule="evenodd" clip-rule="evenodd" d="M63.6144 103.992C63.3393 103.992 63.0799 103.941 62.836 103.843C62.5902 103.743 62.3737 103.6 62.1825 103.415C61.9874 103.22 61.8353 103.001 61.7299 102.755C61.6246 102.511 61.5699 102.25 61.564 101.972V98.6094H62.8048V101.964C62.8048 102.18 62.8848 102.367 63.0467 102.528C63.2087 102.68 63.3999 102.755 63.6203 102.755C63.7275 102.755 63.831 102.734 63.9285 102.689C64.026 102.644 64.1119 102.586 64.186 102.515C64.2602 102.441 64.3168 102.355 64.3557 102.258C64.3947 102.161 64.4142 102.055 64.4142 101.942V98.6094H65.655V101.935C65.6609 102.213 65.6102 102.478 65.5048 102.726C65.3995 102.975 65.2551 103.193 65.0717 103.378C64.8883 103.563 64.6718 103.71 64.426 103.821C64.1783 103.93 63.9149 103.988 63.6358 103.994H63.6144V103.992Z" fill="#00C194"></path><path fill-rule="evenodd" clip-rule="evenodd" d="M71.1701 102.602C71.1057 102.612 71.0433 102.62 70.9789 102.623C70.9145 102.629 70.8482 102.633 70.7799 102.639V103.994H69.5392V98.6387H70.7799C71.0882 98.6426 71.3769 98.6989 71.6461 98.8084C71.9153 98.9148 72.1514 99.059 72.3542 99.2395C72.5571 99.4207 72.7171 99.6304 72.8322 99.8695C72.9473 100.107 73.0059 100.364 73.0059 100.638C73.0059 100.924 72.9454 101.192 72.8225 101.439C72.6996 101.686 72.5279 101.898 72.3074 102.079L73.4975 103.994H72.0363L71.1701 102.602ZM70.7799 101.393C70.9126 101.386 71.0374 101.365 71.1584 101.322C71.2793 101.282 71.3827 101.225 71.4744 101.157C71.5642 101.089 71.6364 101.009 71.6871 100.92C71.7378 100.83 71.7651 100.733 71.7651 100.63C71.7651 100.527 71.7397 100.432 71.6871 100.345C71.6344 100.257 71.5642 100.179 71.4744 100.109C71.3847 100.041 71.2793 99.9867 71.1584 99.9436C71.0374 99.9027 70.9126 99.8795 70.7799 99.8734V101.393Z" fill="#00C194"></path><path fill-rule="evenodd" clip-rule="evenodd" d="M81.5253 98.5963V99.8325H80.4894V103.992H79.2468V99.8325H78.2186V98.5963H81.5253Z" fill="#00C194"></path><path fill-rule="evenodd" clip-rule="evenodd" d="M88.2792 103.992L88.0666 103.341H86.3693L86.1489 103.992H84.834L86.6697 98.6171H87.8462L89.5883 103.992H88.2792ZM86.7966 102.104H87.6706L87.2453 100.801L86.7966 102.104Z" fill="#00C194"></path><path fill-rule="evenodd" clip-rule="evenodd" d="M97.4814 100.982V103.992H96.2328V103.86C96.0963 103.908 95.9539 103.944 95.8095 103.967C95.6651 103.988 95.5208 104 95.3803 104C95.033 104 94.6917 103.934 94.36 103.802C94.0264 103.669 93.728 103.473 93.4646 103.209C93.1993 102.944 93.0022 102.649 92.8734 102.318C92.7427 101.99 92.6784 101.651 92.6784 101.303C92.6784 100.957 92.7427 100.617 92.8734 100.286C93.0042 99.9536 93.2012 99.6559 93.4646 99.3929C93.7299 99.1292 94.0284 98.9325 94.36 98.7999C94.6917 98.668 95.033 98.6017 95.3803 98.6017C95.7276 98.6017 96.069 98.668 96.4007 98.7999C96.7342 98.9325 97.0327 99.1292 97.2961 99.3929L96.4143 100.272C96.2719 100.13 96.11 100.025 95.9285 99.9536C95.7471 99.8834 95.5637 99.8464 95.3784 99.8464C95.1931 99.8464 95.0077 99.8811 94.8282 99.9536C94.6468 100.023 94.4849 100.13 94.3425 100.272C94.2 100.414 94.0928 100.576 94.0186 100.756C93.9445 100.938 93.9074 101.12 93.9074 101.305C93.9074 101.49 93.9445 101.674 94.0186 101.853C94.0928 102.034 94.2 102.195 94.3425 102.337C94.4693 102.464 94.6136 102.563 94.7717 102.635C94.9316 102.705 95.0955 102.748 95.2633 102.759C95.433 102.771 95.6008 102.755 95.7666 102.713C95.9324 102.668 96.0865 102.596 96.229 102.493V102.222H95.1482V100.986H97.4814V100.982Z" fill="#00C194"></path><path fill-rule="evenodd" clip-rule="evenodd" d="M104.421 103.992H101.21V98.6094H102.45V102.755H104.421V103.992Z" fill="#00C194"></path><path fill-rule="evenodd" clip-rule="evenodd" d="M109.309 103.992H108.067V98.6094H109.309V103.992Z" fill="#00C194"></path><path fill-rule="evenodd" clip-rule="evenodd" d="M116.291 98.6171H117.535V103.992H116.188L114.427 100.857V103.992H113.184V98.631H114.536L116.291 101.76V98.6171Z" fill="#00C194"></path><path fill-rule="evenodd" clip-rule="evenodd" d="M124.737 99.8541H122.519V100.667H124.318V101.905H122.519V102.755H124.737V103.992H121.276V98.6248L124.737 98.6171V99.8541Z" fill="#00C194"></path><path fill-rule="evenodd" clip-rule="evenodd" d="M132.439 98.6171H133.682V103.992H132.439V101.964H130.882V103.992H129.64V98.6171H130.882V100.727H132.439V98.6171Z" fill="#00C194"></path><path fill-rule="evenodd" clip-rule="evenodd" d="M140.826 99.8541H138.608V100.667H140.406V101.905H138.608V102.755H140.826V103.992H137.365V98.6248L140.826 98.6171V99.8541Z" fill="#00C194"></path><path fill-rule="evenodd" clip-rule="evenodd" d="M146.236 102.602C146.171 102.612 146.109 102.62 146.045 102.623C145.98 102.629 145.914 102.633 145.846 102.639V103.994H144.605V98.6387H145.846C146.153 98.6426 146.443 98.6989 146.712 98.8084C146.981 98.9148 147.217 99.059 147.42 99.2395C147.623 99.4207 147.782 99.6304 147.898 99.8695C148.013 100.107 148.071 100.364 148.071 100.638C148.071 100.924 148.01 101.192 147.888 101.439C147.765 101.686 147.593 101.898 147.373 102.079L148.563 103.994H147.102L146.236 102.602ZM145.847 101.393C145.98 101.386 146.105 101.365 146.226 101.322C146.347 101.282 146.452 101.225 146.542 101.157C146.632 101.089 146.704 101.009 146.754 100.92C146.805 100.83 146.833 100.733 146.833 100.63C146.833 100.527 146.807 100.432 146.754 100.345C146.702 100.257 146.632 100.179 146.542 100.109C146.452 100.041 146.347 99.9867 146.226 99.9436C146.105 99.9027 145.98 99.8795 145.847 99.8734V101.393Z" fill="#00C194"></path><path fill-rule="evenodd" clip-rule="evenodd" d="M155.629 99.8541H153.411V100.667H155.21V101.905H153.411V102.755H155.629V103.992H152.168V98.6248L155.629 98.6171V99.8541Z" fill="#00C194"></path><path fill-rule="evenodd" clip-rule="evenodd" d="M39.5817 74.6584H43.7429V92.6674H39.5817V85.8708H34.3631V92.6674H30.2039V74.6584H34.3631V81.725H39.5817V74.6584Z" fill="#00C194"></path><path fill-rule="evenodd" clip-rule="evenodd" d="M57.1571 78.8042H49.7243V81.5285H55.7544V85.6744H49.7243V88.5212H57.1571V92.6674H45.563V74.6817L57.1571 74.6584V78.8042Z" fill="#00C194"></path><path fill-rule="evenodd" clip-rule="evenodd" d="M73.8955 74.5106L68.5793 83.2943L74.3637 92.6674H69.4651L66.1662 87.3176L62.918 92.6674H58.0681L63.7042 83.3195L58.2905 74.5106H63.1638L66.1427 79.3196L69.0222 74.5106H73.8955Z" fill="#00C194"></path><path fill-rule="evenodd" clip-rule="evenodd" d="M85.9576 92.6674L85.2436 90.4834H79.5569L78.8175 92.6674H74.4105L80.5635 74.6584H84.5023L90.3354 92.6674H85.9576ZM80.9849 86.3375H83.9132L82.4871 81.97L80.9849 86.3375Z" fill="#00C194"></path><path fill-rule="evenodd" clip-rule="evenodd" d="M104.713 74.6584H108.875V92.6674H104.713V85.8708H99.4947V92.6674H95.3354V74.6584H99.4947V81.725H104.713V74.6584Z" fill="#00C194"></path><path fill-rule="evenodd" clip-rule="evenodd" d="M118.756 74.6331C120.003 74.6331 121.173 74.8704 122.271 75.3448C123.366 75.8193 124.328 76.461 125.147 77.2719C125.968 78.0808 126.612 79.0337 127.088 80.1304C127.564 81.2272 127.802 82.3958 127.802 83.6384C127.802 84.881 127.564 86.0516 127.088 87.1464C126.612 88.2431 125.968 89.196 125.147 90.005C124.325 90.8143 123.366 91.4574 122.271 91.9302C121.171 92.4045 120.003 92.642 118.756 92.642C117.509 92.642 116.338 92.4045 115.24 91.9302C114.146 91.4559 113.19 90.8143 112.377 90.005C111.565 89.196 110.925 88.2431 110.449 87.1464C109.973 86.0497 109.735 84.881 109.735 83.6384C109.735 82.3958 109.973 81.2253 110.449 80.1304C110.925 79.0356 111.565 78.0808 112.377 77.2719C113.188 76.4629 114.144 75.8193 115.24 75.3448C116.341 74.8704 117.509 74.6331 118.756 74.6331ZM118.769 88.4959C119.443 88.4959 120.074 88.3695 120.666 88.1148C121.257 87.862 121.773 87.514 122.217 87.0725C122.659 86.6311 123.009 86.1158 123.262 85.5266C123.516 84.9374 123.644 84.3074 123.644 83.6364C123.644 82.9656 123.518 82.3355 123.262 81.7463C123.009 81.1572 122.659 80.6418 122.217 80.2004C121.773 79.759 121.257 79.411 120.666 79.1582C120.074 78.9054 119.443 78.777 118.769 78.777C118.096 78.777 117.464 78.9034 116.873 79.1582C116.282 79.411 115.765 79.759 115.322 80.2004C114.879 80.6418 114.53 81.1572 114.276 81.7463C114.022 82.3355 113.894 82.9656 113.894 83.6364C113.894 84.3074 114.021 84.9374 114.276 85.5266C114.53 86.1158 114.879 86.6311 115.322 87.0725C115.765 87.514 116.282 87.862 116.873 88.1148C117.464 88.3695 118.096 88.4959 118.769 88.4959Z" fill="#00C194"></path><path fill-rule="evenodd" clip-rule="evenodd" d="M135.925 92.6674C135.006 92.6674 134.136 92.5001 133.315 92.1631C132.493 91.8291 131.764 91.3502 131.124 90.7287C130.469 90.0749 129.963 89.338 129.611 88.5193C129.257 87.7006 129.071 86.8256 129.056 85.8941V74.6331H133.215V85.8708C133.215 86.5902 133.487 87.2203 134.027 87.7609C134.57 88.2684 135.209 88.5212 135.947 88.5212C136.308 88.5212 136.653 88.4473 136.98 88.2996C137.308 88.1517 137.595 87.9554 137.843 87.7104C138.089 87.4653 138.278 87.1795 138.409 86.8508C138.539 86.5241 138.605 86.1722 138.605 85.7949V74.6311H142.769V85.7697C142.785 86.7011 142.617 87.5859 142.263 88.4201C141.91 89.2543 141.427 89.9816 140.812 90.6037C140.198 91.2261 139.474 91.7204 138.647 92.0875C137.817 92.4553 136.936 92.6474 136.001 92.6651H135.925V92.6674Z" fill="#00C194"></path><path fill-rule="evenodd" clip-rule="evenodd" d="M150.621 93.0113C150.047 93.0113 149.476 92.9334 148.911 92.7777C148.344 92.6227 147.806 92.3813 147.299 92.0543C146.413 91.4829 145.722 90.7417 145.231 89.8338C144.739 88.9257 144.491 87.932 144.491 86.8528H148.651C148.651 87.3428 148.758 87.7239 148.971 87.9942C149.184 88.2645 149.372 88.4473 149.537 88.5465C149.831 88.7429 150.151 88.8499 150.496 88.8654C150.842 88.8809 151.177 88.8168 151.505 88.669C151.735 88.5718 151.918 88.4473 152.059 88.3015C152.198 88.1537 152.305 88.0117 152.379 87.8717C152.453 87.7317 152.498 87.5975 152.514 87.4673C152.529 87.337 152.539 87.23 152.539 87.1483C152.539 87.0667 152.531 86.9597 152.514 86.8294C152.498 86.6992 152.451 86.5591 152.379 86.4114C152.305 86.2635 152.198 86.1216 152.059 85.9816C151.918 85.8416 151.735 85.7152 151.505 85.6005C151.325 85.5188 151.132 85.4449 150.927 85.3788C150.723 85.3127 150.504 85.2388 150.276 85.1571C149.866 85.0268 149.439 84.879 148.996 84.7157C148.553 84.5524 148.11 84.3306 147.667 84.0526C147.094 83.6929 146.608 83.2437 146.216 82.7031C145.822 82.1624 145.539 81.583 145.368 80.9607C145.196 80.3384 145.137 79.6967 145.196 79.0356C145.253 78.3725 145.438 77.7385 145.75 77.1338C146.045 76.5777 146.415 76.0954 146.858 75.687C147.301 75.2787 147.792 74.9559 148.334 74.7187C148.877 74.4814 149.458 74.3375 150.083 74.2889C150.707 74.2403 151.337 74.2967 151.979 74.4601C152.603 74.6078 153.165 74.8412 153.668 75.1601C154.177 75.479 154.612 75.864 154.977 76.3132C155.346 76.7624 155.629 77.266 155.822 77.8222C156.019 78.3783 156.117 78.9598 156.117 79.5646H151.977C151.977 79.1892 151.858 78.9267 151.62 78.7789C151.382 78.6311 151.173 78.5339 150.992 78.4853C150.959 78.4853 150.88 78.4736 150.758 78.4483C150.635 78.423 150.495 78.423 150.34 78.4483C150.184 78.4736 150.024 78.53 149.86 78.6195C149.696 78.7089 149.565 78.8528 149.466 79.0492C149.335 79.3118 149.31 79.584 149.392 79.8718C149.474 80.1576 149.638 80.3832 149.884 80.5465C150.114 80.6768 150.367 80.7954 150.647 80.9024C150.926 81.0094 151.22 81.1105 151.532 81.2096C151.811 81.2913 152.094 81.3808 152.381 81.48C152.667 81.5771 152.954 81.6919 153.251 81.8241C154.326 82.3141 155.171 83.0337 155.783 83.9826C156.394 84.9315 156.702 85.9855 156.702 87.1483C156.702 88.2937 156.394 89.3399 155.783 90.2891C155.172 91.2376 154.326 91.9571 153.251 92.4476C152.828 92.6435 152.393 92.7877 151.95 92.8772C151.506 92.9643 151.064 93.0113 150.621 93.0113Z" fill="#00C194"></path><path fill-rule="evenodd" clip-rule="evenodd" d="M169.796 78.8042H162.362V81.5285H168.393V85.6744H162.362V88.5212H169.796V92.6674H158.202V74.6817L169.796 74.6584V78.8042Z" fill="#00C194"></path><path fill-rule="evenodd" clip-rule="evenodd" d="M122.201 25.7778C122.204 34.293 122.204 42.8102 122.201 51.3255C114.801 55.588 107.401 59.8466 99.9981 64.1033C92.5985 59.8446 85.1949 55.5861 77.7953 51.3255V25.7778C85.1968 21.5191 92.6004 17.2625 99.9981 13L122.201 25.7778ZM100.304 19.9304L116.331 29.1555V47.9478L99.9981 57.3478L83.6654 47.9478V29.1555C89.1103 26.0228 94.5552 22.8901 99.9981 19.7554L100.304 19.9304ZM99.9981 21.1594L84.8886 29.8536V47.2497L99.9981 55.9438L115.108 47.2497V29.8536L99.9981 21.1594ZM100.304 16.5527L119.267 27.4657V49.6396C112.845 53.3362 106.422 57.0328 100 60.7275L80.7314 49.6376V27.4657C87.1555 23.771 93.5778 20.0763 99.9981 16.3777L100.304 16.5527ZM118.044 28.1657L99.9981 17.7817L81.9545 28.1657V48.9376L99.9981 59.3215L118.044 48.9376V28.1657ZM120.977 26.4739L99.9981 14.402L79.0185 26.4739V50.6274L99.9981 62.7013L120.977 50.6274V26.4739Z" fill="#00C194"></path><path fill-rule="evenodd" clip-rule="evenodd" d="M95.8213 34.5361H99.1924V37.8963H95.8213V34.5361ZM100.81 39.207H104.181V42.5672H100.81V39.207ZM95.8213 39.207H99.1924V42.5672H95.8213V39.207ZM100.81 34.5361H104.181V37.8963H100.81V34.5361Z" fill="#00C194"></path></g><defs><clipPath><rect width="139.592" height="91" fill="white" transform="translate(30.2039 13)"></rect></clipPath></defs></svg>