<svg xmlns="http://www.w3.org/2000/svg" width="200" height="117" viewBox="0 0 200 117" fill="none"><g clip-path="url(#clip0)"><path fill-rule="evenodd" clip-rule="evenodd" d="M109.538 67.166H106.538V48.5961L109.538 45.2577V67.166ZM83.5075 68.0057H83.9265V39.6376L89.1944 33.7743L90.6263 35.3678V68.0076H95.3019V39.3159C94.0246 37.8907 92.7453 36.4675 91.4642 35.0442V15.6384L102.002 23.2522V35.5548C100.722 36.8023 99.4433 38.0516 98.164 39.3009V68.0076H102.84V35.9083L109.539 29.3736V44.0009C108.26 45.4242 106.981 46.8475 105.702 48.2726C105.702 54.5697 105.698 60.867 105.702 67.1641V68.0057H110.377V44.3263L111.809 42.7329L117.077 48.5961V68.0057H117.915V48.2744C115.882 46.0077 113.844 43.7447 111.809 41.4798L110.377 43.0714V27.3874L102.84 34.7375V22.8239C98.7691 19.8801 94.6968 16.9401 90.6263 14V34.1128L89.1944 32.5213C87.1591 34.7861 85.122 37.0492 83.0886 39.3159V68.0076H83.5075V68.0057ZM91.4642 36.2991L94.4641 39.6376V67.166H91.4642V36.2991ZM102 36.7274V67.166H99V39.6525L102 36.7274Z" fill="#00C194"></path><path fill-rule="evenodd" clip-rule="evenodd" d="M43.6664 85.7621C43.4839 85.7901 43.3014 85.8106 43.1189 85.8256C42.9364 85.8387 42.7484 85.8537 42.551 85.8687V89.7741H39V74.3403H42.5529C43.4355 74.3553 44.2622 74.5161 45.0332 74.8266C45.8041 75.1371 46.48 75.5523 47.061 76.0684C47.642 76.5884 48.0982 77.1943 48.4278 77.8845C48.7573 78.5709 48.9212 79.3097 48.9212 80.097C48.9212 80.9236 48.7462 81.6942 48.3961 82.4049C48.046 83.1156 47.5544 83.7272 46.925 84.249L50.3308 89.7741H46.1467L43.6664 85.7621ZM42.5529 82.2777C42.9309 82.2628 43.2921 82.1973 43.6347 82.0776C43.9774 81.9579 44.279 81.7989 44.5378 81.6026C44.7967 81.4062 44.9996 81.1761 45.1467 80.9162C45.2938 80.6562 45.3683 80.3775 45.3683 80.0821C45.3683 79.7865 45.2938 79.5116 45.1467 79.2592C44.9996 79.0067 44.7967 78.7803 44.5378 78.584C44.279 78.3876 43.9774 78.2286 43.6347 78.1089C43.2921 77.9892 42.9309 77.9219 42.5529 77.9088V82.2777Z" fill="#00C194"></path><path fill-rule="evenodd" clip-rule="evenodd" d="M61.9986 77.8452H55.6489V80.1887H60.7994V83.7571H55.6489V86.2053H61.9986V89.7741H52.096V74.2973L61.9986 74.2768V77.8452Z" fill="#00C194"></path><path fill-rule="evenodd" clip-rule="evenodd" d="M73.0985 89.7741L72.4896 87.8944H67.6333L67.002 89.7741H63.2387L68.4936 74.2768H71.8565L76.8394 89.7741H73.0985ZM68.8511 84.3257H71.3519L70.1322 80.5683L68.8511 84.3257Z" fill="#00C194"></path><path fill-rule="evenodd" clip-rule="evenodd" d="M87.5185 89.774H78.3328V74.2543H81.8857V86.2052H87.5185V89.774Z" fill="#00C194"></path><path fill-rule="evenodd" clip-rule="evenodd" d="M102.655 77.8452H96.3056V80.1887H101.456V83.7571H96.3056V86.2053H102.655V89.7741H92.7528V74.2973L102.655 74.2768V77.8452Z" fill="#00C194"></path><path fill-rule="evenodd" clip-rule="evenodd" d="M109.508 90.0694C109.018 90.0694 108.53 90.0022 108.046 89.8693C107.562 89.7364 107.104 89.5289 106.67 89.2462C105.914 88.7545 105.324 88.1166 104.905 87.3349C104.484 86.5531 104.274 85.6984 104.274 84.7689H107.826C107.826 85.1916 107.918 85.5189 108.1 85.7508C108.283 85.9827 108.443 86.1417 108.584 86.2259C108.836 86.3942 109.109 86.4858 109.404 86.5008C109.698 86.5158 109.985 86.4577 110.266 86.3325C110.461 86.2483 110.62 86.1417 110.739 86.0164C110.858 85.8892 110.949 85.7658 111.012 85.6461C111.076 85.5264 111.115 85.4104 111.128 85.2982C111.143 85.186 111.148 85.0944 111.148 85.0233C111.148 84.9522 111.141 84.8605 111.128 84.7483C111.113 84.6361 111.076 84.5164 111.012 84.3893C110.949 84.2621 110.858 84.1386 110.739 84.019C110.62 83.8992 110.461 83.7908 110.266 83.6917C110.111 83.6206 109.947 83.557 109.772 83.5009C109.597 83.4448 109.411 83.3812 109.215 83.3101C108.865 83.1979 108.5 83.0707 108.122 82.9304C107.744 82.7902 107.366 82.5994 106.987 82.36C106.497 82.0496 106.083 81.6624 105.746 81.1986C105.409 80.7348 105.169 80.2335 105.022 79.6987C104.875 79.1638 104.827 78.6121 104.875 78.0416C104.923 77.4712 105.082 76.9269 105.348 76.4051C105.599 75.9263 105.916 75.5111 106.294 75.1595C106.672 74.8079 107.093 74.5293 107.555 74.3253C108.016 74.1215 108.513 73.9981 109.048 73.9551C109.58 73.912 110.12 73.9625 110.666 74.1028C111.199 74.23 111.679 74.4301 112.109 74.705C112.543 74.98 112.916 75.311 113.226 75.6982C113.541 76.0853 113.783 76.5173 113.949 76.9961C114.116 77.4749 114.2 77.9742 114.2 78.4961H110.666C110.666 78.1725 110.564 77.948 110.361 77.8209C110.158 77.6937 109.979 77.6095 109.824 77.5684C109.796 77.5684 109.729 77.5572 109.625 77.5366C109.521 77.5161 109.402 77.5161 109.268 77.5366C109.135 77.5572 108.998 77.6077 108.858 77.6844C108.718 77.761 108.607 77.8845 108.521 78.0546C108.409 78.2791 108.387 78.5147 108.458 78.7616C108.528 79.0085 108.668 79.2011 108.878 79.3414C109.074 79.4536 109.292 79.5565 109.53 79.6482C109.769 79.7398 110.02 79.8277 110.286 79.9119C110.525 79.9829 110.767 80.0596 111.011 80.1438C111.256 80.2279 111.5 80.327 111.754 80.4392C112.672 80.8619 113.394 81.481 113.915 82.2965C114.437 83.1138 114.7 84.0208 114.7 85.0196C114.7 86.0052 114.437 86.9048 113.915 87.7221C113.394 88.5396 112.672 89.1583 111.754 89.5792C111.392 89.7475 111.022 89.8708 110.644 89.9498C110.266 90.0302 109.886 90.0694 109.508 90.0694Z" fill="#00C194"></path><path fill-rule="evenodd" clip-rule="evenodd" d="M125.505 74.2132V77.7816H122.543V89.7741H118.99V77.7816H116.046V74.2132H125.505Z" fill="#00C194"></path><path fill-rule="evenodd" clip-rule="evenodd" d="M136.29 89.7741L135.681 87.8944H130.825L130.194 89.7741H126.43L131.685 74.2768H135.048L140.029 89.7741H136.29ZM132.045 84.3257H134.545L133.326 80.5683L132.045 84.3257Z" fill="#00C194"></path><path fill-rule="evenodd" clip-rule="evenodd" d="M150.375 74.2132V77.7816H147.411V89.7741H143.859V77.7816H140.915V74.2132H150.375Z" fill="#00C194"></path><path fill-rule="evenodd" clip-rule="evenodd" d="M162 77.8452H155.652V80.1887H160.802V83.7571H155.652V86.2053H162V89.7741H152.1V74.2973L162 74.2768V77.8452Z" fill="#00C194"></path><path fill-rule="evenodd" clip-rule="evenodd" d="M41.3946 102.585L42.0743 100.919L40.0707 96.6527H41.5622L42.7689 99.2108L43.7967 96.6527H45.2585L42.8564 102.585H41.3946Z" fill="#00C194"></path><path fill-rule="evenodd" clip-rule="evenodd" d="M51.9937 96.694C52.3977 96.694 52.7776 96.7701 53.1332 96.9258C53.4889 97.0809 53.7999 97.2906 54.0661 97.5541C54.3324 97.8177 54.5409 98.13 54.6955 98.4873C54.8501 98.8447 54.9264 99.2278 54.9264 99.6339C54.9264 100.04 54.8501 100.421 54.6955 100.78C54.5409 101.138 54.3324 101.45 54.0661 101.714C53.7999 101.977 53.4889 102.188 53.1332 102.342C52.7776 102.497 52.3977 102.574 51.9937 102.574C51.5895 102.574 51.2097 102.497 50.854 102.342C50.4984 102.187 50.1892 101.977 49.9248 101.714C49.6623 101.448 49.4538 101.138 49.2992 100.78C49.1446 100.423 49.0683 100.04 49.0683 99.6339C49.0683 99.2278 49.1446 98.8447 49.2992 98.4873C49.4538 98.13 49.6604 97.8177 49.9248 97.5541C50.1874 97.2906 50.4984 97.0787 50.854 96.9258C51.2115 96.7701 51.5895 96.694 51.9937 96.694ZM51.9973 101.223C52.2152 101.223 52.42 101.182 52.6118 101.1C52.8036 101.017 52.9713 100.904 53.1146 100.76C53.258 100.616 53.3716 100.447 53.4535 100.255C53.5354 100.062 53.5764 99.8561 53.5764 99.6376C53.5764 99.419 53.5354 99.2131 53.4535 99.0204C53.3716 98.8277 53.258 98.6593 53.1146 98.5154C52.9713 98.3714 52.8036 98.257 52.6118 98.175C52.42 98.0923 52.2152 98.0517 51.9973 98.0517C51.7795 98.0517 51.5747 98.0923 51.3829 98.175C51.1911 98.257 51.0235 98.3714 50.8801 98.5154C50.7367 98.6593 50.6231 98.8277 50.5412 99.0204C50.4593 99.2131 50.4183 99.419 50.4183 99.6376C50.4183 99.8561 50.4593 100.062 50.5412 100.255C50.6231 100.447 50.7367 100.616 50.8801 100.76C51.0235 100.904 51.1911 101.017 51.3829 101.1C51.5747 101.182 51.7795 101.223 51.9973 101.223Z" fill="#00C194"></path><path fill-rule="evenodd" clip-rule="evenodd" d="M60.9726 102.585C60.6747 102.585 60.3916 102.531 60.1272 102.42C59.8609 102.31 59.6244 102.155 59.4159 101.951C59.2036 101.738 59.0397 101.497 58.9243 101.229C58.8107 100.961 58.7492 100.676 58.7455 100.371V96.6903H60.0937V100.361C60.0937 100.597 60.1812 100.803 60.3563 100.978C60.5313 101.145 60.7398 101.227 60.9782 101.227C61.0955 101.227 61.2072 101.203 61.3134 101.154C61.4195 101.106 61.5126 101.042 61.5927 100.961C61.6727 100.882 61.7341 100.788 61.777 100.681C61.8198 100.574 61.8404 100.459 61.8404 100.337V96.6903H63.1885V100.329C63.1941 100.634 63.14 100.922 63.0246 101.195C62.911 101.468 62.7528 101.706 62.5535 101.908C62.3542 102.112 62.1196 102.272 61.8515 102.392C61.5834 102.512 61.2966 102.576 60.9931 102.581L60.9726 102.585Z" fill="#00C194"></path><path fill-rule="evenodd" clip-rule="evenodd" d="M69.1825 101.062C69.1136 101.074 69.0447 101.082 68.9758 101.087C68.907 101.093 68.8344 101.098 68.7598 101.104V102.587H67.4117V96.7272H68.7598C69.095 96.7331 69.4097 96.7944 69.7021 96.9125C69.9944 97.0307 70.2514 97.1872 70.473 97.3836C70.6945 97.5822 70.8658 97.8118 70.9925 98.0739C71.1172 98.3337 71.1806 98.6143 71.1806 98.914C71.1806 99.2278 71.1135 99.5194 70.9813 99.7911C70.8491 100.06 70.6629 100.294 70.4227 100.49L71.715 102.588H70.1266L69.1825 101.062ZM68.758 99.7402C68.9014 99.735 69.0392 99.7106 69.1695 99.6634C69.2998 99.6191 69.4134 99.5593 69.5121 99.484C69.6108 99.4094 69.6872 99.323 69.743 99.2241C69.7989 99.1252 69.8268 99.0204 69.8268 98.9081C69.8268 98.7959 69.7989 98.6911 69.743 98.5958C69.6872 98.5006 69.6108 98.4142 69.5121 98.3396C69.4134 98.2651 69.2998 98.2045 69.1695 98.1602C69.0392 98.1152 68.9014 98.0886 68.758 98.0835V99.7402Z" fill="#00C194"></path><path fill-rule="evenodd" clip-rule="evenodd" d="M80.4314 96.677V98.0325H79.3067V102.585H77.9567V98.0325H76.8394V96.677H80.4314Z" fill="#00C194"></path><path fill-rule="evenodd" clip-rule="evenodd" d="M87.7699 102.585L87.539 101.872H85.6955L85.4553 102.585H84.0271L86.0232 96.7014H87.3006L89.1925 102.585H87.7699ZM86.1573 100.517H87.107L86.6433 99.0898L86.1573 100.517Z" fill="#00C194"></path><path fill-rule="evenodd" clip-rule="evenodd" d="M97.7655 102.587H96.4081V102.443C96.2591 102.497 96.1064 102.535 95.9481 102.559C95.7918 102.583 95.6353 102.594 95.4808 102.594C95.1027 102.594 94.734 102.521 94.3709 102.377C94.0097 102.233 93.6838 102.016 93.3971 101.728C93.1104 101.44 92.8962 101.115 92.7547 100.754C92.6131 100.393 92.5424 100.023 92.5424 99.6435C92.5424 99.2633 92.6131 98.8912 92.7547 98.5287C92.8962 98.1654 93.1104 97.8384 93.3971 97.5504C93.6838 97.2625 94.0097 97.0454 94.3709 96.9015C94.7322 96.7575 95.1027 96.6844 95.4808 96.6844C95.8588 96.6844 96.2275 96.7575 96.5906 96.9015C96.9518 97.0454 97.2777 97.2625 97.5644 97.5504L96.6073 98.5117C96.4528 98.3566 96.2777 98.2407 96.0803 98.1639C95.8829 98.0872 95.6837 98.048 95.4826 98.048C95.2796 98.048 95.0804 98.0872 94.8849 98.1639C94.6875 98.2407 94.5125 98.3581 94.3579 98.5117C94.2034 98.6667 94.086 98.8424 94.006 99.041C93.9259 99.2389 93.8868 99.439 93.8868 99.6413C93.8868 99.845 93.9259 100.045 94.006 100.241C94.086 100.44 94.2034 100.616 94.3579 100.771C94.4957 100.91 94.6521 101.017 94.8253 101.096C94.9984 101.173 95.1773 101.22 95.3597 101.233C95.5441 101.246 95.7247 101.229 95.9072 101.181C96.0878 101.132 96.2554 101.051 96.4099 100.939V100.642H95.2369V99.2876H97.7655V102.587Z" fill="#00C194"></path><path fill-rule="evenodd" clip-rule="evenodd" d="M105.305 102.585H101.816V96.694H103.166V101.231H105.305V102.585Z" fill="#00C194"></path><path fill-rule="evenodd" clip-rule="evenodd" d="M110.616 102.585H109.268V96.694H110.616V102.585Z" fill="#00C194"></path><path fill-rule="evenodd" clip-rule="evenodd" d="M118.202 96.7014H119.55V102.585H118.09L116.174 99.1547V102.585H114.826V96.7184H116.293L118.202 100.14V96.7014Z" fill="#00C194"></path><path fill-rule="evenodd" clip-rule="evenodd" d="M127.377 98.0569H124.965V98.9458H126.922V100.301H124.965V101.231H127.377V102.585H123.617V96.7088L127.377 96.7014V98.0569Z" fill="#00C194"></path><path fill-rule="evenodd" clip-rule="evenodd" d="M135.744 96.7014H137.093V102.585H135.744V100.365H134.052V102.585H132.704V96.7014H134.052V99.0108H135.744V96.7014Z" fill="#00C194"></path><path fill-rule="evenodd" clip-rule="evenodd" d="M144.854 98.0569H142.444V98.9458H144.4V100.301H142.444V101.231H144.854V102.585H141.096V96.7088L144.854 96.7014V98.0569Z" fill="#00C194"></path><path fill-rule="evenodd" clip-rule="evenodd" d="M150.733 101.062C150.663 101.074 150.595 101.082 150.524 101.087C150.455 101.093 150.383 101.098 150.308 101.104V102.587H148.96V96.7272H150.308C150.643 96.7331 150.958 96.7944 151.25 96.9125C151.543 97.0307 151.8 97.1872 152.021 97.3836C152.242 97.5822 152.414 97.8118 152.541 98.0739C152.665 98.3337 152.729 98.6143 152.729 98.914C152.729 99.2278 152.662 99.5194 152.53 99.7911C152.397 100.06 152.211 100.294 151.971 100.49L153.263 102.588H151.675L150.733 101.062ZM150.31 99.7402C150.453 99.735 150.591 99.7106 150.722 99.6634C150.852 99.6191 150.965 99.5593 151.064 99.484C151.163 99.4094 151.239 99.323 151.295 99.2241C151.351 99.1252 151.379 99.0204 151.379 98.9081C151.379 98.7959 151.351 98.6911 151.295 98.5958C151.239 98.5006 151.163 98.4142 151.064 98.3396C150.965 98.2651 150.852 98.2045 150.722 98.1602C150.591 98.1152 150.453 98.0886 150.31 98.0835V99.7402Z" fill="#00C194"></path><path fill-rule="evenodd" clip-rule="evenodd" d="M160.936 98.0569H158.525V98.9458H160.483V100.301H158.525V101.231H160.936V102.585H157.177V96.7088L160.936 96.7014V98.0569Z" fill="#00C194"></path><path fill-rule="evenodd" clip-rule="evenodd" d="M58.3992 63.9548H56.295V64.7309H58.0025V65.9148H56.295V66.7265H58.3992V67.9085H55.1182V62.7802L58.3992 62.7728V63.9548Z" fill="#00C194"></path><path fill-rule="evenodd" clip-rule="evenodd" d="M60.9279 68.0057C60.7659 68.0057 60.6039 67.9833 60.4438 67.9384C60.2837 67.8935 60.131 67.8262 59.9876 67.7327C59.7362 67.5699 59.5426 67.3586 59.4028 67.0987C59.2632 66.8406 59.1943 66.5563 59.1943 66.2477H60.3712C60.3712 66.3879 60.401 66.4965 60.4624 66.5731C60.522 66.6498 60.576 66.7022 60.6225 66.7302C60.7064 66.7863 60.7976 66.8162 60.8944 66.8218C60.9912 66.8256 61.0881 66.8088 61.1793 66.7658C61.2445 66.7377 61.2966 66.7022 61.3357 66.661C61.3748 66.6199 61.4047 66.5787 61.427 66.5394C61.4474 66.5002 61.4605 66.4609 61.4661 66.4235C61.4698 66.3861 61.4735 66.3562 61.4735 66.3318C61.4735 66.3094 61.4717 66.2776 61.4661 66.2402C61.4623 66.2028 61.4493 66.1635 61.427 66.1205C61.4065 66.0793 61.3767 66.0382 61.3357 65.9989C61.2966 65.9597 61.2445 65.9223 61.1793 65.8905C61.129 65.868 61.0731 65.8456 61.0155 65.8269C60.9577 65.8082 60.8963 65.7876 60.8311 65.7633C60.7156 65.7259 60.5946 65.6847 60.468 65.638C60.3432 65.5913 60.2166 65.5276 60.0919 65.4491C59.9298 65.3462 59.792 65.2191 59.6803 65.0638C59.5686 64.9105 59.4885 64.744 59.4401 64.5664C59.3917 64.3887 59.3749 64.2053 59.3917 64.0165C59.4084 63.8276 59.4606 63.6462 59.5481 63.4741C59.6319 63.3151 59.7362 63.1786 59.861 63.0608C59.9857 62.9448 60.1254 62.8513 60.2781 62.784C60.4307 62.7167 60.5965 62.6755 60.7734 62.6624C60.9503 62.6493 61.129 62.6642 61.3096 62.7111C61.4866 62.7522 61.6448 62.8195 61.7882 62.9111C61.9316 63.0028 62.0545 63.1113 62.1588 63.2403C62.2631 63.3694 62.3431 63.5115 62.3971 63.6705C62.453 63.8294 62.4809 63.994 62.4809 64.168H61.3096C61.3096 64.0614 61.2761 63.9865 61.2091 63.9435C61.1421 63.9024 61.0825 63.8743 61.0322 63.8594C61.0229 63.8594 61.0005 63.8556 60.9652 63.8482C60.9298 63.8407 60.8907 63.8407 60.846 63.8482C60.8013 63.8556 60.7566 63.8706 60.71 63.8968C60.6635 63.923 60.6263 63.9641 60.5983 64.0183C60.5611 64.0931 60.5537 64.1717 60.5778 64.2522C60.6002 64.3344 60.6468 64.398 60.7175 64.4448C60.7827 64.4822 60.8553 64.5159 60.9335 64.5458C61.0117 64.5757 61.0955 64.6056 61.1849 64.6337C61.2631 64.6561 61.3432 64.6823 61.4251 64.7103C61.507 64.7384 61.5871 64.7702 61.6709 64.8076C61.9744 64.9478 62.2146 65.1536 62.3878 65.4229C62.561 65.6941 62.6485 65.9952 62.6485 66.3262C62.6485 66.6536 62.561 66.9509 62.3878 67.2221C62.2146 67.4933 61.9763 67.6971 61.6709 67.8374C61.5517 67.8935 61.4288 67.9347 61.3022 67.959C61.1793 67.9945 61.0527 68.0057 60.9279 68.0057Z" fill="#00C194"></path><path fill-rule="evenodd" clip-rule="evenodd" d="M66.4862 62.7522V63.9342H65.5049V67.9085H64.3262V63.9342H63.3524V62.7522H66.4862Z" fill="#00C194"></path><path fill-rule="evenodd" clip-rule="evenodd" d="M68.4097 62.7522C68.7487 62.7708 69.0689 62.8532 69.3669 62.9972C69.6667 63.1412 69.9273 63.3301 70.1471 63.5638C70.3668 63.7976 70.5418 64.067 70.6704 64.3756C70.7988 64.6841 70.8621 65.0115 70.8621 65.363C70.8621 65.7091 70.7988 66.0307 70.674 66.3318C70.5493 66.633 70.3761 66.8967 70.1546 67.1267C69.9348 67.3549 69.6741 67.5382 69.378 67.6765C69.0801 67.815 68.758 67.8917 68.4097 67.9103H67.2329V62.7466H68.4097V62.7522ZM68.4097 66.719C68.5904 66.7003 68.7598 66.6516 68.9144 66.575C69.0708 66.4983 69.2049 66.3991 69.3185 66.2813C69.432 66.1616 69.5214 66.0233 69.5866 65.8643C69.6517 65.7053 69.6834 65.537 69.6834 65.3612C69.6834 65.1798 69.6517 65.0059 69.5866 64.8394C69.5214 64.6729 69.4302 64.5271 69.3147 64.398C69.1993 64.269 69.0633 64.1642 68.9106 64.0838C68.758 64.0015 68.5904 63.9528 68.4097 63.9342V66.719Z" fill="#00C194"></path><path fill-rule="evenodd" clip-rule="evenodd" d="M130.835 62.7578H132.011V67.9085H130.835V64.6337L130.486 65.0676L129.571 64.3195L130.835 62.7578Z" fill="#00C194"></path><path fill-rule="evenodd" clip-rule="evenodd" d="M134.672 66.474C134.439 66.4516 134.221 66.3861 134.016 66.2813C133.812 66.1766 133.635 66.042 133.484 65.8793C133.333 65.7165 133.214 65.5276 133.128 65.3125C133.043 65.0975 133 64.8693 133 64.6262C133 64.37 133.049 64.1287 133.147 63.9024C133.244 63.6761 133.376 63.4797 133.544 63.3113C133.711 63.1431 133.907 63.0103 134.132 62.913C134.357 62.8157 134.598 62.7652 134.852 62.7652C135.108 62.7652 135.348 62.8139 135.57 62.913C135.793 63.0103 135.987 63.1431 136.155 63.3113C136.322 63.4797 136.454 63.6761 136.551 63.9024C136.648 64.1287 136.698 64.37 136.698 64.6262C136.698 64.9011 136.64 65.1667 136.523 65.4248L135.27 67.9085H133.953L134.672 66.474ZM134.852 63.9472C134.76 63.9472 134.672 63.9641 134.592 63.9996C134.51 64.0352 134.439 64.0838 134.376 64.1474C134.312 64.2109 134.265 64.282 134.229 64.3644C134.193 64.4466 134.177 64.5327 134.177 64.6262C134.177 64.7197 134.193 64.8076 134.229 64.888C134.265 64.9703 134.312 65.0414 134.376 65.1012C134.439 65.161 134.51 65.2097 134.592 65.2452C134.674 65.2808 134.76 65.2976 134.852 65.2976C135.039 65.2976 135.197 65.2321 135.326 65.1012C135.456 64.9703 135.521 64.8113 135.521 64.6262C135.521 64.5327 135.504 64.4448 135.469 64.3644C135.433 64.282 135.387 64.2109 135.326 64.1474C135.266 64.0838 135.196 64.0352 135.113 63.9996C135.034 63.966 134.946 63.9472 134.852 63.9472Z" fill="#00C194"></path><path fill-rule="evenodd" clip-rule="evenodd" d="M139.262 66.474C139.029 66.4516 138.811 66.3861 138.606 66.2813C138.402 66.1766 138.225 66.042 138.074 65.8793C137.923 65.7165 137.804 65.5276 137.718 65.3125C137.633 65.0975 137.59 64.8693 137.59 64.6262C137.59 64.37 137.639 64.1287 137.737 63.9024C137.834 63.6761 137.966 63.4797 138.134 63.3113C138.302 63.1431 138.497 63.0103 138.722 62.913C138.947 62.8157 139.188 62.7652 139.442 62.7652C139.698 62.7652 139.938 62.8139 140.16 62.913C140.383 63.0103 140.577 63.1431 140.745 63.3113C140.912 63.4797 141.044 63.6761 141.141 63.9024C141.238 64.1287 141.288 64.37 141.288 64.6262C141.288 64.9011 141.231 65.1667 141.113 65.4248L139.86 67.9085H138.543L139.262 66.474ZM139.445 63.9472C139.352 63.9472 139.264 63.9641 139.184 63.9996C139.102 64.0352 139.031 64.0838 138.968 64.1474C138.905 64.2109 138.856 64.282 138.821 64.3644C138.785 64.4466 138.768 64.5327 138.768 64.6262C138.768 64.7197 138.785 64.8076 138.821 64.888C138.856 64.9703 138.905 65.0414 138.968 65.1012C139.031 65.161 139.102 65.2097 139.184 65.2452C139.266 65.2808 139.352 65.2976 139.445 65.2976C139.631 65.2976 139.789 65.2321 139.917 65.1012C140.048 64.9703 140.113 64.8113 140.113 64.6262C140.113 64.5327 140.096 64.4448 140.061 64.3644C140.026 64.282 139.979 64.2109 139.917 64.1474C139.858 64.0838 139.787 64.0352 139.705 63.9996C139.624 63.966 139.537 63.9472 139.445 63.9472Z" fill="#00C194"></path><path fill-rule="evenodd" clip-rule="evenodd" d="M143.854 66.474C143.621 66.4516 143.403 66.3861 143.199 66.2813C142.994 66.1766 142.817 66.042 142.666 65.8793C142.515 65.7165 142.396 65.5276 142.31 65.3125C142.225 65.0975 142.182 64.8693 142.182 64.6262C142.182 64.37 142.23 64.1287 142.329 63.9024C142.426 63.6761 142.558 63.4797 142.726 63.3113C142.893 63.1431 143.089 63.0103 143.314 62.913C143.539 62.8157 143.78 62.7652 144.035 62.7652C144.289 62.7652 144.53 62.8139 144.751 62.913C144.975 63.0103 145.17 63.1431 145.336 63.3113C145.504 63.4797 145.636 63.6761 145.733 63.9024C145.83 64.1287 145.88 64.37 145.88 64.6262C145.88 64.9011 145.822 65.1667 145.705 65.4248L144.451 67.9085H143.135L143.854 66.474ZM144.035 63.9472C143.942 63.9472 143.854 63.9641 143.774 63.9996C143.692 64.0352 143.621 64.0838 143.558 64.1474C143.495 64.2109 143.446 64.282 143.411 64.3644C143.375 64.4466 143.358 64.5327 143.358 64.6262C143.358 64.7197 143.375 64.8076 143.411 64.888C143.446 64.9684 143.495 65.0414 143.558 65.1012C143.621 65.161 143.692 65.2097 143.774 65.2452C143.856 65.2808 143.942 65.2976 144.035 65.2976C144.221 65.2976 144.379 65.2321 144.507 65.1012C144.638 64.9703 144.703 64.8113 144.703 64.6262C144.703 64.5327 144.686 64.4448 144.651 64.3644C144.616 64.282 144.569 64.2109 144.507 64.1474C144.448 64.0838 144.377 64.0352 144.295 63.9996C144.215 63.966 144.127 63.9472 144.035 63.9472Z" fill="#00C194"></path></g><defs><clipPath><rect width="123" height="88.5944" fill="white" transform="translate(39 14)"></rect></clipPath></defs></svg>