<svg xmlns="http://www.w3.org/2000/svg" width="327" height="429" viewBox="0 0 327 429" fill="none"><mask style="mask-type:alpha" maskUnits="userSpaceOnUse" x="0" y="0" width="327" height="429"><rect width="327" height="429" fill="white"></rect></mask><g mask="url(#mask0_436_16)"><path fill-rule="evenodd" clip-rule="evenodd" d="M317.06 7.49385C299.644 20.7899 286.729 40.0476 280.959 61.2187C276.938 76.0245 276.578 91.3519 276.221 106.559C276.086 112.302 275.952 118.028 275.62 123.702C275.188 134.373 274.044 145.029 270.915 155.362C267.783 165.837 262.675 175.564 256.235 184.344C228.789 221.907 182.779 238.654 140.101 252.497C138.618 252.98 137.134 253.463 135.649 253.945C114.833 260.713 93.8625 267.531 74.0174 276.898C51.9642 287.412 30.5524 301.334 16.407 321.628C4.89684 338.297 -0.939928 359.255 3.62723 379.292C7.60536 396.842 18.6791 411.778 30.136 425.378C31.143 426.565 32.1507 427.717 33.1584 428.87C33.5124 429.274 33.8664 429.679 34.2203 430.085C34.874 430.835 35.5275 431.591 36.1807 432.361L39.7359 428.968C32.6493 420.761 25.6353 412.485 19.7764 403.384C9.43688 387.331 4.26021 369.262 8.84612 350.33C14.2941 327.526 30.6711 309.399 49.7874 296.421C76.2347 278.437 106.693 268.618 137.078 258.822C151.365 254.216 165.636 249.615 179.465 244.173C218.188 228.977 257.967 203.9 273.59 163.621C280.604 145.522 280.956 126.2 281.304 107.075C281.333 105.512 281.361 103.95 281.393 102.39C281.835 80.8981 283.972 60.0068 294.606 40.9857C300.68 30.1892 308.735 20.7025 318.31 12.9635C319.092 12.3318 319.883 11.7119 320.685 11.1038L317.133 7.42459L317.06 7.49385Z" fill="#C4E4DD"></path></g></svg>