<svg xmlns="http://www.w3.org/2000/svg" width="719" height="196" viewBox="0 0 719 196" fill="none"><path d="M0.734183 146.924L0.928817 148.556L0.734183 146.924Z" fill="#BAE4DB"></path><path d="M97.4151 190.963C165.716 207.595 235.076 176.111 281.249 146.808C304.98 131.736 327.75 114.433 349.901 97.7548C378.407 76.1899 408.062 53.7998 439.791 35.9921C470.747 18.6892 550.308 -17.9976 619.212 16.4911C658.765 36.3748 689.67 77.9644 710.958 140.133C712.903 145.971 714.864 151.946 716.689 157.937L718.057 157.775C716.232 151.785 714.255 145.674 712.294 139.7C690.957 77.1231 659.883 35.2777 619.903 15.3064C550.403 -19.5258 470.448 17.3454 439.234 34.8166C407.369 52.6404 377.85 75.0143 349.208 96.5954C327.194 113.258 304.423 130.561 280.693 145.633C234.777 174.767 165.811 206.067 97.9532 189.659" fill="#BAE4DB"></path></svg>