<svg xmlns="http://www.w3.org/2000/svg" width="388" height="417" viewBox="0 0 388 417" fill="none"><path d="M196.5 412.8V45.3L237.8 22.8L279 45.3V112.8H309V199M87.7 412.8V176.5L196.5 135.2M1.5 412.8V217.8L54 191.5V56.5L144 90.3V153.4M-21 412.8H384M237.7 22.8V4M335.2 360.3V386.6M335.2 337.8V315.3M335.2 292.8V270.3M335.2 247.8V225.3M305.2 360.3V386.6M305.2 337.8V315.3M305.2 292.8V270.3M305.2 247.8V225.3M252.7 360.3V386.6M252.7 337.8V315.3M252.7 292.8V270.3M222.7 360.3V386.6M222.7 337.8V315.3M222.7 292.8V270.3M252.7 229V255.3M252.7 206.5V184M252.7 161.5V139M252.7 116.5V94M222.7 229V255.3M222.7 206.5V184M222.7 161.5V139M222.7 116.5V94M252.7 60.3V75.3M279 146.5V161.5M222.7 60.3V75.3M170.2 360.3V386.6M170.2 337.8V315.3M170.2 292.8V270.3M170.2 247.8V225.3M144 360.3V386.6M144 337.8V315.3M144 292.8V270.3M144 247.8V225.3M114 360.3V386.6M114 337.8V315.3M114 292.8V270.3M170.2 202.8V184M144 202.8V184M114 202.8V184M117.7 124V105.2M87.7 124V105.2M114 247.8V225.3M61.5 360.3V386.6M61.5 337.8V315.3M61.5 292.8V270.3M61.5 247.8V225.3M31.5 360.3V386.6M31.5 337.8V315.3M31.5 292.8V270.3M31.5 247.8V225.3M361.5 412.8V199H275.2V412.8H361.5Z" stroke="#1F4363" stroke-width="8" stroke-miterlimit="10" stroke-linecap="round" stroke-linejoin="round"></path></svg>