<svg xmlns="http://www.w3.org/2000/svg" width="155" height="92" viewBox="0 0 155 92" fill="none"><path d="M47.0123 91.9998C47.8793 91.9998 48.5821 91.296 48.5821 90.4278C48.5821 89.5597 47.8793 88.8559 47.0123 88.8559C46.1453 88.8559 45.4424 89.5597 45.4424 90.4278C45.4424 91.296 46.1453 91.9998 47.0123 91.9998Z" fill="#ACACAC"></path><path d="M47.0123 74.212C47.8793 74.212 48.5821 73.5082 48.5821 72.64C48.5821 71.7719 47.8793 71.0681 47.0123 71.0681C46.1453 71.0681 45.4424 71.7719 45.4424 72.64C45.4424 73.5082 46.1453 74.212 47.0123 74.212Z" fill="#ACACAC"></path><path d="M47.0123 56.4242C47.8793 56.4242 48.5821 55.7204 48.5821 54.8523C48.5821 53.9841 47.8793 53.2803 47.0123 53.2803C46.1453 53.2803 45.4424 53.9841 45.4424 54.8523C45.4424 55.7204 46.1453 56.4242 47.0123 56.4242Z" fill="#ACACAC"></path><path d="M47.0123 38.7192C47.8793 38.7192 48.5821 38.0154 48.5821 37.1472C48.5821 36.2791 47.8793 35.5753 47.0123 35.5753C46.1453 35.5753 45.4424 36.2791 45.4424 37.1472C45.4424 38.0154 46.1453 38.7192 47.0123 38.7192Z" fill="#ACACAC"></path><path d="M62.2148 91.9998C63.0818 91.9998 63.7846 91.296 63.7846 90.4278C63.7846 89.5597 63.0818 88.8559 62.2148 88.8559C61.3478 88.8559 60.645 89.5597 60.645 90.4278C60.645 91.296 61.3478 91.9998 62.2148 91.9998Z" fill="#ACACAC"></path><path d="M62.2148 74.212C63.0818 74.212 63.7846 73.5082 63.7846 72.64C63.7846 71.7719 63.0818 71.0681 62.2148 71.0681C61.3478 71.0681 60.645 71.7719 60.645 72.64C60.645 73.5082 61.3478 74.212 62.2148 74.212Z" fill="#ACACAC"></path><path d="M62.2148 56.4242C63.0818 56.4242 63.7846 55.7204 63.7846 54.8523C63.7846 53.9841 63.0818 53.2803 62.2148 53.2803C61.3478 53.2803 60.645 53.9841 60.645 54.8523C60.645 55.7204 61.3478 56.4242 62.2148 56.4242Z" fill="#ACACAC"></path><path d="M62.2148 38.7192C63.0818 38.7192 63.7846 38.0154 63.7846 37.1472C63.7846 36.2791 63.0818 35.5753 62.2148 35.5753C61.3478 35.5753 60.645 36.2791 60.645 37.1472C60.645 38.0154 61.3478 38.7192 62.2148 38.7192Z" fill="#ACACAC"></path><path d="M77.4174 91.9998C78.2844 91.9998 78.9872 91.296 78.9872 90.4278C78.9872 89.5597 78.2844 88.8559 77.4174 88.8559C76.5504 88.8559 75.8475 89.5597 75.8475 90.4278C75.8475 91.296 76.5504 91.9998 77.4174 91.9998Z" fill="#ACACAC"></path><path d="M77.4174 74.212C78.2844 74.212 78.9872 73.5082 78.9872 72.64C78.9872 71.7719 78.2844 71.0681 77.4174 71.0681C76.5504 71.0681 75.8475 71.7719 75.8475 72.64C75.8475 73.5082 76.5504 74.212 77.4174 74.212Z" fill="#ACACAC"></path><path d="M77.4174 56.4242C78.2844 56.4242 78.9872 55.7204 78.9872 54.8523C78.9872 53.9841 78.2844 53.2803 77.4174 53.2803C76.5504 53.2803 75.8475 53.9841 75.8475 54.8523C75.8475 55.7204 76.5504 56.4242 77.4174 56.4242Z" fill="#ACACAC"></path><path d="M77.4174 38.7192C78.2844 38.7192 78.9872 38.0154 78.9872 37.1472C78.9872 36.2791 78.2844 35.5753 77.4174 35.5753C76.5504 35.5753 75.8475 36.2791 75.8475 37.1472C75.8475 38.0154 76.5504 38.7192 77.4174 38.7192Z" fill="#ACACAC"></path><path d="M47.0123 20.9314C47.8793 20.9314 48.5821 20.2276 48.5821 19.3595C48.5821 18.4913 47.8793 17.7875 47.0123 17.7875C46.1453 17.7875 45.4424 18.4913 45.4424 19.3595C45.4424 20.2276 46.1453 20.9314 47.0123 20.9314Z" fill="#ACACAC"></path><path d="M47.0123 3.14364C47.8793 3.14364 48.5821 2.43986 48.5821 1.5717C48.5821 0.703538 47.8793 -0.000244141 47.0123 -0.000244141C46.1453 -0.000244141 45.4424 0.703538 45.4424 1.5717C45.4424 2.43986 46.1453 3.14364 47.0123 3.14364Z" fill="#ACACAC"></path><path d="M62.2148 20.9314C63.0818 20.9314 63.7846 20.2276 63.7846 19.3595C63.7846 18.4913 63.0818 17.7875 62.2148 17.7875C61.3478 17.7875 60.645 18.4913 60.645 19.3595C60.645 20.2276 61.3478 20.9314 62.2148 20.9314Z" fill="#ACACAC"></path><path d="M62.2148 3.14364C63.0818 3.14364 63.7846 2.43986 63.7846 1.5717C63.7846 0.703538 63.0818 -0.000244141 62.2148 -0.000244141C61.3478 -0.000244141 60.645 0.703538 60.645 1.5717C60.645 2.43986 61.3478 3.14364 62.2148 3.14364Z" fill="#ACACAC"></path><path d="M77.4174 20.9314C78.2844 20.9314 78.9872 20.2276 78.9872 19.3595C78.9872 18.4913 78.2844 17.7875 77.4174 17.7875C76.5504 17.7875 75.8475 18.4913 75.8475 19.3595C75.8475 20.2276 76.5504 20.9314 77.4174 20.9314Z" fill="#ACACAC"></path><path d="M77.4174 3.14364C78.2844 3.14364 78.9872 2.43986 78.9872 1.5717C78.9872 0.703538 78.2844 -0.000244141 77.4174 -0.000244141C76.5504 -0.000244141 75.8475 0.703538 75.8475 1.5717C75.8475 2.43986 76.5504 3.14364 77.4174 3.14364Z" fill="#ACACAC"></path><path d="M1.56983 91.9998C2.43682 91.9998 3.13966 91.296 3.13966 90.4278C3.13966 89.5597 2.43682 88.8559 1.56983 88.8559C0.702837 88.8559 0 89.5597 0 90.4278C0 91.296 0.702837 91.9998 1.56983 91.9998Z" fill="#ACACAC"></path><path d="M1.56983 74.212C2.43682 74.212 3.13966 73.5082 3.13966 72.64C3.13966 71.7719 2.43682 71.0681 1.56983 71.0681C0.702837 71.0681 0 71.7719 0 72.64C0 73.5082 0.702837 74.212 1.56983 74.212Z" fill="#ACACAC"></path><path d="M1.56983 56.4242C2.43682 56.4242 3.13966 55.7204 3.13966 54.8523C3.13966 53.9841 2.43682 53.2803 1.56983 53.2803C0.702837 53.2803 0 53.9841 0 54.8523C0 55.7204 0.702837 56.4242 1.56983 56.4242Z" fill="#ACACAC"></path><path d="M1.56983 38.7192C2.43682 38.7192 3.13966 38.0154 3.13966 37.1472C3.13966 36.2791 2.43682 35.5753 1.56983 35.5753C0.702837 35.5753 0 36.2791 0 37.1472C0 38.0154 0.702837 38.7192 1.56983 38.7192Z" fill="#ACACAC"></path><path d="M16.7724 91.9998C17.6394 91.9998 18.3422 91.296 18.3422 90.4278C18.3422 89.5597 17.6394 88.8559 16.7724 88.8559C15.9054 88.8559 15.2026 89.5597 15.2026 90.4278C15.2026 91.296 15.9054 91.9998 16.7724 91.9998Z" fill="#ACACAC"></path><path d="M16.7724 74.212C17.6394 74.212 18.3422 73.5082 18.3422 72.64C18.3422 71.7719 17.6394 71.0681 16.7724 71.0681C15.9054 71.0681 15.2026 71.7719 15.2026 72.64C15.2026 73.5082 15.9054 74.212 16.7724 74.212Z" fill="#ACACAC"></path><path d="M16.7724 56.4242C17.6394 56.4242 18.3422 55.7204 18.3422 54.8523C18.3422 53.9841 17.6394 53.2803 16.7724 53.2803C15.9054 53.2803 15.2026 53.9841 15.2026 54.8523C15.2026 55.7204 15.9054 56.4242 16.7724 56.4242Z" fill="#ACACAC"></path><path d="M16.7724 38.7192C17.6394 38.7192 18.3422 38.0154 18.3422 37.1472C18.3422 36.2791 17.6394 35.5753 16.7724 35.5753C15.9054 35.5753 15.2026 36.2791 15.2026 37.1472C15.2026 38.0154 15.9054 38.7192 16.7724 38.7192Z" fill="#ACACAC"></path><path d="M31.9749 91.9998C32.8419 91.9998 33.5448 91.296 33.5448 90.4278C33.5448 89.5597 32.8419 88.8559 31.9749 88.8559C31.108 88.8559 30.4051 89.5597 30.4051 90.4278C30.4051 91.296 31.108 91.9998 31.9749 91.9998Z" fill="#ACACAC"></path><path d="M31.9749 74.212C32.8419 74.212 33.5448 73.5082 33.5448 72.64C33.5448 71.7719 32.8419 71.0681 31.9749 71.0681C31.108 71.0681 30.4051 71.7719 30.4051 72.64C30.4051 73.5082 31.108 74.212 31.9749 74.212Z" fill="#ACACAC"></path><path d="M31.9749 56.4242C32.8419 56.4242 33.5448 55.7204 33.5448 54.8523C33.5448 53.9841 32.8419 53.2803 31.9749 53.2803C31.108 53.2803 30.4051 53.9841 30.4051 54.8523C30.4051 55.7204 31.108 56.4242 31.9749 56.4242Z" fill="#ACACAC"></path><path d="M31.9749 38.7192C32.8419 38.7192 33.5448 38.0154 33.5448 37.1472C33.5448 36.2791 32.8419 35.5753 31.9749 35.5753C31.108 35.5753 30.4051 36.2791 30.4051 37.1472C30.4051 38.0154 31.108 38.7192 31.9749 38.7192Z" fill="#ACACAC"></path><path d="M1.56983 20.9314C2.43682 20.9314 3.13966 20.2276 3.13966 19.3595C3.13966 18.4913 2.43682 17.7875 1.56983 17.7875C0.702837 17.7875 0 18.4913 0 19.3595C0 20.2276 0.702837 20.9314 1.56983 20.9314Z" fill="#ACACAC"></path><path d="M1.56983 3.14364C2.43682 3.14364 3.13966 2.43986 3.13966 1.5717C3.13966 0.703538 2.43682 -0.000244141 1.56983 -0.000244141C0.702837 -0.000244141 0 0.703538 0 1.5717C0 2.43986 0.702837 3.14364 1.56983 3.14364Z" fill="#ACACAC"></path><path d="M16.7724 20.9314C17.6394 20.9314 18.3422 20.2276 18.3422 19.3595C18.3422 18.4913 17.6394 17.7875 16.7724 17.7875C15.9054 17.7875 15.2026 18.4913 15.2026 19.3595C15.2026 20.2276 15.9054 20.9314 16.7724 20.9314Z" fill="#ACACAC"></path><path d="M16.7724 3.14364C17.6394 3.14364 18.3422 2.43986 18.3422 1.5717C18.3422 0.703538 17.6394 -0.000244141 16.7724 -0.000244141C15.9054 -0.000244141 15.2026 0.703538 15.2026 1.5717C15.2026 2.43986 15.9054 3.14364 16.7724 3.14364Z" fill="#ACACAC"></path><path d="M31.9749 20.9314C32.8419 20.9314 33.5448 20.2276 33.5448 19.3595C33.5448 18.4913 32.8419 17.7875 31.9749 17.7875C31.108 17.7875 30.4051 18.4913 30.4051 19.3595C30.4051 20.2276 31.108 20.9314 31.9749 20.9314Z" fill="#ACACAC"></path><path d="M31.9749 3.14364C32.8419 3.14364 33.5448 2.43986 33.5448 1.5717C33.5448 0.703538 32.8419 -0.000244141 31.9749 -0.000244141C31.108 -0.000244141 30.4051 0.703538 30.4051 1.5717C30.4051 2.43986 31.108 3.14364 31.9749 3.14364Z" fill="#ACACAC"></path><path d="M123.025 91.9998C123.892 91.9998 124.595 91.296 124.595 90.4278C124.595 89.5597 123.892 88.8559 123.025 88.8559C122.158 88.8559 121.455 89.5597 121.455 90.4278C121.455 91.296 122.158 91.9998 123.025 91.9998Z" fill="#ACACAC"></path><path d="M123.025 74.212C123.892 74.212 124.595 73.5082 124.595 72.64C124.595 71.7719 123.892 71.0681 123.025 71.0681C122.158 71.0681 121.455 71.7719 121.455 72.64C121.455 73.5082 122.158 74.212 123.025 74.212Z" fill="#ACACAC"></path><path d="M123.025 56.4242C123.892 56.4242 124.595 55.7204 124.595 54.8523C124.595 53.9841 123.892 53.2803 123.025 53.2803C122.158 53.2803 121.455 53.9841 121.455 54.8523C121.455 55.7204 122.158 56.4242 123.025 56.4242Z" fill="#ACACAC"></path><path d="M123.025 38.7192C123.892 38.7192 124.595 38.0154 124.595 37.1472C124.595 36.2791 123.892 35.5753 123.025 35.5753C122.158 35.5753 121.455 36.2791 121.455 37.1472C121.455 38.0154 122.158 38.7192 123.025 38.7192Z" fill="#ACACAC"></path><path d="M138.228 91.9998C139.095 91.9998 139.797 91.296 139.797 90.4278C139.797 89.5597 139.095 88.8559 138.228 88.8559C137.361 88.8559 136.658 89.5597 136.658 90.4278C136.658 91.296 137.361 91.9998 138.228 91.9998Z" fill="#ACACAC"></path><path d="M138.228 74.212C139.095 74.212 139.797 73.5082 139.797 72.64C139.797 71.7719 139.095 71.0681 138.228 71.0681C137.361 71.0681 136.658 71.7719 136.658 72.64C136.658 73.5082 137.361 74.212 138.228 74.212Z" fill="#ACACAC"></path><path d="M138.228 56.4242C139.095 56.4242 139.797 55.7204 139.797 54.8523C139.797 53.9841 139.095 53.2803 138.228 53.2803C137.361 53.2803 136.658 53.9841 136.658 54.8523C136.658 55.7204 137.361 56.4242 138.228 56.4242Z" fill="#ACACAC"></path><path d="M138.228 38.7192C139.095 38.7192 139.797 38.0154 139.797 37.1472C139.797 36.2791 139.095 35.5753 138.228 35.5753C137.361 35.5753 136.658 36.2791 136.658 37.1472C136.658 38.0154 137.361 38.7192 138.228 38.7192Z" fill="#ACACAC"></path><path d="M153.43 91.9998C154.297 91.9998 155 91.296 155 90.4278C155 89.5597 154.297 88.8559 153.43 88.8559C152.563 88.8559 151.86 89.5597 151.86 90.4278C151.86 91.296 152.563 91.9998 153.43 91.9998Z" fill="#ACACAC"></path><path d="M153.43 74.212C154.297 74.212 155 73.5082 155 72.64C155 71.7719 154.297 71.0681 153.43 71.0681C152.563 71.0681 151.86 71.7719 151.86 72.64C151.86 73.5082 152.563 74.212 153.43 74.212Z" fill="#ACACAC"></path><path d="M153.43 56.4242C154.297 56.4242 155 55.7204 155 54.8523C155 53.9841 154.297 53.2803 153.43 53.2803C152.563 53.2803 151.86 53.9841 151.86 54.8523C151.86 55.7204 152.563 56.4242 153.43 56.4242Z" fill="#ACACAC"></path><path d="M153.43 38.7192C154.297 38.7192 155 38.0154 155 37.1472C155 36.2791 154.297 35.5753 153.43 35.5753C152.563 35.5753 151.86 36.2791 151.86 37.1472C151.86 38.0154 152.563 38.7192 153.43 38.7192Z" fill="#ACACAC"></path><path d="M123.025 20.9314C123.892 20.9314 124.595 20.2276 124.595 19.3595C124.595 18.4913 123.892 17.7875 123.025 17.7875C122.158 17.7875 121.455 18.4913 121.455 19.3595C121.455 20.2276 122.158 20.9314 123.025 20.9314Z" fill="#ACACAC"></path><path d="M123.025 3.14364C123.892 3.14364 124.595 2.43986 124.595 1.5717C124.595 0.703538 123.892 -0.000244141 123.025 -0.000244141C122.158 -0.000244141 121.455 0.703538 121.455 1.5717C121.455 2.43986 122.158 3.14364 123.025 3.14364Z" fill="#ACACAC"></path><path d="M138.228 20.9314C139.095 20.9314 139.797 20.2276 139.797 19.3595C139.797 18.4913 139.095 17.7875 138.228 17.7875C137.361 17.7875 136.658 18.4913 136.658 19.3595C136.658 20.2276 137.361 20.9314 138.228 20.9314Z" fill="#ACACAC"></path><path d="M138.228 3.14364C139.095 3.14364 139.797 2.43986 139.797 1.5717C139.797 0.703538 139.095 -0.000244141 138.228 -0.000244141C137.361 -0.000244141 136.658 0.703538 136.658 1.5717C136.658 2.43986 137.361 3.14364 138.228 3.14364Z" fill="#ACACAC"></path><path d="M153.43 20.9314C154.297 20.9314 155 20.2276 155 19.3595C155 18.4913 154.297 17.7875 153.43 17.7875C152.563 17.7875 151.86 18.4913 151.86 19.3595C151.86 20.2276 152.563 20.9314 153.43 20.9314Z" fill="#ACACAC"></path><path d="M153.43 3.14364C154.297 3.14364 155 2.43986 155 1.5717C155 0.703538 154.297 -0.000244141 153.43 -0.000244141C152.563 -0.000244141 151.86 0.703538 151.86 1.5717C151.86 2.43986 152.563 3.14364 153.43 3.14364Z" fill="#ACACAC"></path><path d="M77.5826 91.9998C78.4496 91.9998 79.1525 91.296 79.1525 90.4278C79.1525 89.5597 78.4496 88.8559 77.5826 88.8559C76.7156 88.8559 76.0128 89.5597 76.0128 90.4278C76.0128 91.296 76.7156 91.9998 77.5826 91.9998Z" fill="#ACACAC"></path><path d="M77.5826 74.212C78.4496 74.212 79.1525 73.5082 79.1525 72.64C79.1525 71.7719 78.4496 71.0681 77.5826 71.0681C76.7156 71.0681 76.0128 71.7719 76.0128 72.64C76.0128 73.5082 76.7156 74.212 77.5826 74.212Z" fill="#ACACAC"></path><path d="M77.5826 56.4242C78.4496 56.4242 79.1525 55.7204 79.1525 54.8523C79.1525 53.9841 78.4496 53.2803 77.5826 53.2803C76.7156 53.2803 76.0128 53.9841 76.0128 54.8523C76.0128 55.7204 76.7156 56.4242 77.5826 56.4242Z" fill="#ACACAC"></path><path d="M77.5826 38.7192C78.4496 38.7192 79.1525 38.0154 79.1525 37.1472C79.1525 36.2791 78.4496 35.5753 77.5826 35.5753C76.7156 35.5753 76.0128 36.2791 76.0128 37.1472C76.0128 38.0154 76.7156 38.7192 77.5826 38.7192Z" fill="#ACACAC"></path><path d="M92.7852 91.9998C93.6522 91.9998 94.355 91.296 94.355 90.4278C94.355 89.5597 93.6522 88.8559 92.7852 88.8559C91.9182 88.8559 91.2154 89.5597 91.2154 90.4278C91.2154 91.296 91.9182 91.9998 92.7852 91.9998Z" fill="#ACACAC"></path><path d="M92.7852 74.212C93.6522 74.212 94.355 73.5082 94.355 72.64C94.355 71.7719 93.6522 71.0681 92.7852 71.0681C91.9182 71.0681 91.2154 71.7719 91.2154 72.64C91.2154 73.5082 91.9182 74.212 92.7852 74.212Z" fill="#ACACAC"></path><path d="M92.7852 56.4242C93.6522 56.4242 94.355 55.7204 94.355 54.8523C94.355 53.9841 93.6522 53.2803 92.7852 53.2803C91.9182 53.2803 91.2154 53.9841 91.2154 54.8523C91.2154 55.7204 91.9182 56.4242 92.7852 56.4242Z" fill="#ACACAC"></path><path d="M92.7852 38.7192C93.6522 38.7192 94.355 38.0154 94.355 37.1472C94.355 36.2791 93.6522 35.5753 92.7852 35.5753C91.9182 35.5753 91.2154 36.2791 91.2154 37.1472C91.2154 38.0154 91.9182 38.7192 92.7852 38.7192Z" fill="#ACACAC"></path><path d="M107.988 91.9998C108.855 91.9998 109.558 91.296 109.558 90.4278C109.558 89.5597 108.855 88.8559 107.988 88.8559C107.121 88.8559 106.418 89.5597 106.418 90.4278C106.418 91.296 107.121 91.9998 107.988 91.9998Z" fill="#ACACAC"></path><path d="M107.988 74.212C108.855 74.212 109.558 73.5082 109.558 72.64C109.558 71.7719 108.855 71.0681 107.988 71.0681C107.121 71.0681 106.418 71.7719 106.418 72.64C106.418 73.5082 107.121 74.212 107.988 74.212Z" fill="#ACACAC"></path><path d="M107.988 56.4242C108.855 56.4242 109.558 55.7204 109.558 54.8523C109.558 53.9841 108.855 53.2803 107.988 53.2803C107.121 53.2803 106.418 53.9841 106.418 54.8523C106.418 55.7204 107.121 56.4242 107.988 56.4242Z" fill="#ACACAC"></path><path d="M107.988 38.7192C108.855 38.7192 109.558 38.0154 109.558 37.1472C109.558 36.2791 108.855 35.5753 107.988 35.5753C107.121 35.5753 106.418 36.2791 106.418 37.1472C106.418 38.0154 107.121 38.7192 107.988 38.7192Z" fill="#ACACAC"></path><path d="M77.5826 20.9314C78.4496 20.9314 79.1525 20.2276 79.1525 19.3595C79.1525 18.4913 78.4496 17.7875 77.5826 17.7875C76.7156 17.7875 76.0128 18.4913 76.0128 19.3595C76.0128 20.2276 76.7156 20.9314 77.5826 20.9314Z" fill="#ACACAC"></path><path d="M77.5826 3.14364C78.4496 3.14364 79.1525 2.43986 79.1525 1.5717C79.1525 0.703538 78.4496 -0.000244141 77.5826 -0.000244141C76.7156 -0.000244141 76.0128 0.703538 76.0128 1.5717C76.0128 2.43986 76.7156 3.14364 77.5826 3.14364Z" fill="#ACACAC"></path><path d="M92.7852 20.9314C93.6522 20.9314 94.355 20.2276 94.355 19.3595C94.355 18.4913 93.6522 17.7875 92.7852 17.7875C91.9182 17.7875 91.2154 18.4913 91.2154 19.3595C91.2154 20.2276 91.9182 20.9314 92.7852 20.9314Z" fill="#ACACAC"></path><path d="M92.7852 3.14364C93.6522 3.14364 94.355 2.43986 94.355 1.5717C94.355 0.703538 93.6522 -0.000244141 92.7852 -0.000244141C91.9182 -0.000244141 91.2154 0.703538 91.2154 1.5717C91.2154 2.43986 91.9182 3.14364 92.7852 3.14364Z" fill="#ACACAC"></path><path d="M107.988 20.9314C108.855 20.9314 109.558 20.2276 109.558 19.3595C109.558 18.4913 108.855 17.7875 107.988 17.7875C107.121 17.7875 106.418 18.4913 106.418 19.3595C106.418 20.2276 107.121 20.9314 107.988 20.9314Z" fill="#ACACAC"></path><path d="M107.988 3.14364C108.855 3.14364 109.558 2.43986 109.558 1.5717C109.558 0.703538 108.855 -0.000244141 107.988 -0.000244141C107.121 -0.000244141 106.418 0.703538 106.418 1.5717C106.418 2.43986 107.121 3.14364 107.988 3.14364Z" fill="#ACACAC"></path></svg>