<svg xmlns="http://www.w3.org/2000/svg" width="59" height="63" viewBox="0 0 59 63" fill="none"><path d="M40.2 48.65H28.9C28.4 48.65 28 48.25 28 47.75C28 47.25 28.4 46.85 28.9 46.85H40.2C40.7 46.85 41.1 47.25 41.1 47.75C41.1 48.25 40.7 48.65 40.2 48.65Z" fill="#00C194"></path><path d="M9.9 47.75C9.4 47.75 9 47.35 9 46.85V44.65C9 44.15 9.4 43.75 9.9 43.75C10.4 43.75 10.8 44.15 10.8 44.65V46.85C10.8 47.35 10.4 47.75 9.9 47.75Z" fill="#00C194"></path><path d="M9.9 59.55C9.4 59.55 9 59.15 9 58.65V46.85C9 46.35 9.4 45.95 9.9 45.95C10.4 45.95 10.8 46.35 10.8 46.85V58.75C10.8 59.15 10.4 59.55 9.9 59.55Z" fill="#00C194"></path><path d="M9.9 62.75H1.1C0.5 62.75 0 62.25 0 61.65V39.25C0 38.65 0.5 38.15 1.1 38.15H9.9C10.4 38.15 10.8 38.55 10.8 39.05V43.25L19.6 40.15C21.4 39.45 23.4 39.35 25.3 39.85L36.7 41.35C39.9 41.95 40.3 45.05 40 46.65V46.75L52.5 39.05C53.1 38.65 53.8 38.45 54.5 38.25C55.8 37.95 57.1 38.45 57.9 39.35C58.8 40.35 59.1 41.65 58.7 42.95C58.4 44.15 57.8 45.15 57 46.15C56.4 46.85 55.7 47.45 55.1 48.05C54.9 48.25 54.7 48.45 54.5 48.65C53.9 49.15 53.3 49.65 52.7 50.05L41.6 58.05C40.2 59.05 38.5 59.65 36.7 59.65H10.8V61.95C10.8 62.35 10.4 62.75 9.9 62.75ZM1.9 60.95H9V58.65C9 58.15 9.4 57.75 9.9 57.75H36.7C38.1 57.75 39.4 57.35 40.5 56.55L51.6 48.55C52.1 48.15 52.7 47.75 53.2 47.25C53.4 47.05 53.6 46.85 53.8 46.65C54.4 46.15 55 45.55 55.5 44.95C56.1 44.25 56.6 43.35 56.8 42.45C57 41.85 56.8 41.15 56.4 40.65C56 40.15 55.3 39.95 54.7 40.05C54.2 40.15 53.8 40.35 53.3 40.55L41 48.15C40.3 48.55 39.5 48.55 38.8 48.05C38.2 47.55 37.9 46.85 38 46.05C38 45.85 38.4 43.45 36.2 42.95L24.8 41.45H24.7C23.1 41.05 21.5 41.15 20 41.75L9.9 45.35C9.6 45.45 9.3 45.45 9 45.25C8.8 45.05 8.6 44.75 8.6 44.45V40.05H1.9V60.95Z" fill="#00C194"></path><path d="M5.40002 48.55C3.70002 48.55 2.40002 47.15 2.40002 45.55C2.40002 43.95 3.80002 42.55 5.40002 42.55C7.10002 42.55 8.40002 43.95 8.40002 45.55C8.40002 47.15 7.10002 48.55 5.40002 48.55ZM5.40002 44.35C4.80002 44.35 4.20003 44.85 4.20003 45.55C4.20003 46.25 4.70002 46.75 5.40002 46.75C6.00002 46.75 6.60003 46.25 6.60003 45.55C6.60003 44.85 6.00002 44.35 5.40002 44.35Z" fill="#00C194"></path><path d="M14.9 14.45C14.6 14.45 14.3 14.25 14.1 14.05C13.8 13.65 14 13.05 14.4 12.75L24.3 6.65C24.7 6.35 25.3 6.55 25.6 6.95C25.9 7.35 25.7 7.95 25.3 8.25L15.4 14.35C15.2 14.45 15.1 14.45 14.9 14.45Z" fill="#00C194"></path><path d="M44.7 14.45C44.5 14.45 44.4 14.45 44.2 14.35L34.3 8.25C33.9 8.05 33.7 7.45 34 6.95C34.3 6.55 34.8 6.35 35.3 6.65L45.2 12.75C45.6 13.05 45.8 13.55 45.5 14.05C45.3 14.35 45 14.45 44.7 14.45Z" fill="#00C194"></path><path d="M44.7 36.65H14.9C14.4 36.65 14 36.25 14 35.75V14.45H9.49999C9.09999 14.45 8.69999 14.15 8.59999 13.75C8.49999 13.35 8.69999 12.95 8.99999 12.75L29.3 0.15C29.6 -0.05 30 -0.05 30.3 0.15L37.4 4.55V3.45C37.4 2.95 37.8 2.55 38.3 2.55H43.4C43.9 2.55 44.3 2.95 44.3 3.45V8.95L50.5 12.75C50.9 12.95 51 13.35 50.9 13.75C50.8 14.15 50.4 14.45 50 14.45H45.6V35.75C45.6 36.25 45.2 36.65 44.7 36.65ZM15.8 34.85H43.8V13.55C43.8 13.05 44.2 12.65 44.7 12.65H46.8L43 10.25C42.7 10.05 42.6 9.75 42.6 9.45V4.35H39.3V6.25C39.3 6.55 39.1 6.95 38.8 7.05C38.5 7.25 38.1 7.25 37.9 7.05L29.9 2.05L12.9 12.55H15C15.5 12.55 15.9 12.95 15.9 13.45V34.85H15.8Z" fill="#00C194"></path><path d="M34.3 36.65H25.3C24.8 36.65 24.4 36.25 24.4 35.75V22.15C24.4 21.65 24.8 21.25 25.3 21.25H34.3C34.8 21.25 35.2 21.65 35.2 22.15V35.75C35.2 36.25 34.8 36.65 34.3 36.65ZM26.3 34.85H33.4V23.05H26.3V34.85Z" fill="#00C194"></path></svg>