<svg xmlns="http://www.w3.org/2000/svg" width="312" height="295" viewBox="0 0 312 295" fill="none"><path d="M85.0667 315H226.933M85.0667 315V37.8043H226.933V315M85.0667 315H4V162.926L85.0667 112.174M226.933 315H308V91.8913H226.933V315ZM155.955 315V240.63M98.5778 37.8043V4H213.422V37.8043H98.5778ZM166.133 75.0342C166.133 71.3383 169.196 68.2733 172.889 68.2733H193.156C196.849 68.2733 199.911 71.3383 199.911 75.0342V95.3168C199.911 99.0128 196.849 102.078 193.156 102.078H172.889C169.196 102.078 166.133 99.0128 166.133 95.3168V75.0342ZM166.133 132.457C166.133 128.761 169.196 125.696 172.889 125.696H193.156C196.849 125.696 199.911 128.761 199.911 132.457V152.739C199.911 156.435 196.849 159.5 193.156 159.5H172.889C169.196 159.5 166.133 156.435 166.133 152.739V132.457ZM166.133 189.969C166.133 186.273 169.196 183.208 172.889 183.208H193.156C196.849 183.208 199.911 186.273 199.911 189.969V210.252C199.911 213.948 196.849 217.012 193.156 217.012H172.889C169.196 217.012 166.133 213.948 166.133 210.252V189.969ZM112.089 315V247.391C112.089 243.695 115.151 240.63 118.844 240.63H193.156C196.849 240.63 199.911 243.695 199.911 247.391V315H112.089ZM226.933 125.696H274.222C277.915 125.696 280.978 128.761 280.978 132.457V152.739C280.978 156.435 277.915 159.5 274.222 159.5H226.933V125.696ZM226.933 183.208H274.222C277.915 183.208 280.978 186.273 280.978 189.969V210.252C280.978 213.948 277.915 217.012 274.222 217.012H226.933V183.208ZM226.933 240.63H274.222C277.915 240.63 280.978 243.695 280.978 247.391V267.674C280.978 271.37 277.915 274.435 274.222 274.435H226.933V240.63ZM145.867 95.3168C145.867 99.0128 142.804 102.078 139.111 102.078H118.844C115.151 102.078 112.089 99.0128 112.089 95.3168V75.0342C112.089 71.3383 115.151 68.2733 118.844 68.2733H139.111C142.804 68.2733 145.867 71.3383 145.867 75.0342V95.3168ZM145.867 152.739C145.867 156.435 142.804 159.5 139.111 159.5H118.844C115.151 159.5 112.089 156.435 112.089 152.739V132.457C112.089 128.761 115.151 125.696 118.844 125.696H139.111C142.804 125.696 145.867 128.761 145.867 132.457V152.739ZM61.3772 210.252C61.3772 213.948 58.3147 217.012 54.6216 217.012H34.355C30.6619 217.012 27.5994 213.948 27.5994 210.252V189.969C27.5994 186.273 30.6619 183.208 34.355 183.208H54.6216C58.3147 183.208 61.3772 186.273 61.3772 189.969V210.252ZM61.3772 267.674C61.3772 271.37 58.3147 274.435 54.6216 274.435H34.355C30.6619 274.435 27.5994 271.37 27.5994 267.674V247.391C27.5994 243.695 30.6619 240.63 34.355 240.63H54.6216C58.3147 240.63 61.3772 243.695 61.3772 247.391V267.674ZM145.867 210.252C145.867 213.948 142.804 217.012 139.111 217.012H118.844C115.151 217.012 112.089 213.948 112.089 210.252V189.969C112.089 186.273 115.151 183.208 118.844 183.208H139.111C142.804 183.208 145.867 186.273 145.867 189.969V210.252Z" stroke="#D0E7E1" stroke-width="8" stroke-miterlimit="10" stroke-linecap="round" stroke-linejoin="round"></path></svg>