<svg xmlns="http://www.w3.org/2000/svg" width="80" height="79" viewBox="0 0 80 79" fill="none"><rect x="1" y="1" width="78" height="76.0247" rx="13" stroke="#00C194" stroke-width="2"></rect><path d="M30.25 34C31.6092 34 32.9128 33.4732 33.8739 32.5355C34.835 31.5979 35.375 30.3261 35.375 29C35.375 27.6739 34.835 26.4021 33.8739 25.4645C32.9128 24.5268 31.6092 24 30.25 24C28.8908 24 27.5872 24.5268 26.6261 25.4645C25.665 26.4021 25.125 27.6739 25.125 29C25.125 30.3261 25.665 31.5979 26.6261 32.5355C27.5872 33.4732 28.8908 34 30.25 34ZM30.25 38C29.0386 38 27.839 37.7672 26.7197 37.3149C25.6005 36.8626 24.5836 36.1997 23.7269 35.364C22.8703 34.5282 22.1908 33.5361 21.7272 32.4442C21.2636 31.3522 21.025 30.1819 21.025 29C21.025 27.8181 21.2636 26.6478 21.7272 25.5558C22.1908 24.4639 22.8703 23.4718 23.7269 22.636C24.5836 21.8003 25.6005 21.1374 26.7197 20.6851C27.839 20.2328 29.0386 20 30.25 20C32.6966 20 35.043 20.9482 36.7731 22.636C38.5031 24.3239 39.475 26.6131 39.475 29C39.475 31.3869 38.5031 33.6761 36.7731 35.364C35.043 37.0518 32.6966 38 30.25 38V38ZM51.775 42C52.8624 42 53.9052 41.5786 54.6741 40.8284C55.443 40.0783 55.875 39.0609 55.875 38C55.875 36.9391 55.443 35.9217 54.6741 35.1716C53.9052 34.4214 52.8624 34 51.775 34C50.6876 34 49.6448 34.4214 48.8759 35.1716C48.107 35.9217 47.675 36.9391 47.675 38C47.675 39.0609 48.107 40.0783 48.8759 40.8284C49.6448 41.5786 50.6876 42 51.775 42V42ZM51.775 46C49.6002 46 47.5145 45.1571 45.9767 43.6569C44.4389 42.1566 43.575 40.1217 43.575 38C43.575 35.8783 44.4389 33.8434 45.9767 32.3431C47.5145 30.8429 49.6002 30 51.775 30C53.9498 30 56.0355 30.8429 57.5733 32.3431C59.1111 33.8434 59.975 35.8783 59.975 38C59.975 40.1217 59.1111 42.1566 57.5733 43.6569C56.0355 45.1571 53.9498 46 51.775 46ZM56.9 58V57C56.9 55.6739 56.36 54.4021 55.3989 53.4645C54.4378 52.5268 53.1342 52 51.775 52C50.4158 52 49.1122 52.5268 48.1511 53.4645C47.19 54.4021 46.65 55.6739 46.65 57V58H42.55V57C42.55 55.8181 42.7886 54.6478 43.2522 53.5558C43.7158 52.4639 44.3953 51.4718 45.2519 50.636C46.1086 49.8003 47.1255 49.1374 48.2447 48.6851C49.364 48.2328 50.5636 48 51.775 48C52.9864 48 54.186 48.2328 55.3053 48.6851C56.4245 49.1374 57.4414 49.8003 58.2981 50.636C59.1547 51.4718 59.8342 52.4639 60.2978 53.5558C60.7614 54.6478 61 55.8181 61 57V58H56.9ZM36.4 58V50C36.4 48.4087 35.7521 46.8826 34.5987 45.7574C33.4454 44.6321 31.8811 44 30.25 44C28.6189 44 27.0546 44.6321 25.9013 45.7574C24.7479 46.8826 24.1 48.4087 24.1 50V58H20V50C20 47.3478 21.0799 44.8043 23.0022 42.9289C24.9244 41.0536 27.5315 40 30.25 40C32.9685 40 35.5756 41.0536 37.4978 42.9289C39.4201 44.8043 40.5 47.3478 40.5 50V58H36.4Z" fill="#15C39A"></path></svg>