<svg width="51" height="40" viewBox="0 0 51 40" fill="none" xmlns="http://www.w3.org/2000/svg">
<path d="M5.5 39C7.98528 39 10 36.9853 10 34.5C10 32.0147 7.98528 30 5.5 30C3.01472 30 1 32.0147 1 34.5C1 36.9853 3.01472 39 5.5 39Z" fill="#F5F7FB" stroke="#13B18C" stroke-width="2"/>
<path d="M45.5 39C47.9853 39 50 36.9853 50 34.5C50 32.0147 47.9853 30 45.5 30C43.0147 30 41 32.0147 41 34.5C41 36.9853 43.0147 39 45.5 39Z" fill="#F5F7FB" stroke="#13B18C" stroke-width="2"/>
<path d="M7 30L26 2L45 30" stroke="#13B18C" stroke-width="2"/>
</svg>
