<svg width="148" height="39" viewBox="0 0 148 39" fill="none" xmlns="http://www.w3.org/2000/svg">
<g clip-path="url(#clip0)">
<path d="M11.5 38H7L6.5 22.5C4.33333 16.6667 4.3 5.99999 21.5 9.99999C38.7 14 35 28.6667 31 35.5L30 38H13.5H11.5Z" fill="white"/>
<path d="M20.92 23.29C20.92 23.69 21.25 24.03 21.66 24.03H23.05C23.45 24.03 23.79 23.7 23.79 23.29V21.9C23.79 21.5 23.46 21.16 23.05 21.16H21.66C21.26 21.16 20.92 21.49 20.92 21.9V23.29Z" fill="#15C39A"/>
<path d="M18.39 24.01C18.79 24.01 19.13 23.68 19.13 23.27V21.88C19.13 21.48 18.8 21.14 18.39 21.14H17C16.6 21.14 16.26 21.47 16.26 21.88V23.27C16.26 23.67 16.59 24.01 17 24.01H18.39Z" fill="#15C39A"/>
<path d="M21.65 25.8C21.25 25.8 20.91 26.13 20.91 26.54V27.91C20.91 28.31 21.24 28.65 21.65 28.65H23.04C23.44 28.65 23.78 28.32 23.78 27.91V26.54C23.78 26.14 23.45 25.8 23.04 25.8H21.65Z" fill="#15C39A"/>
<path d="M19.12 26.54C19.12 26.14 18.79 25.8 18.38 25.8H17C16.6 25.8 16.26 26.13 16.26 26.54V27.91C16.26 28.31 16.59 28.65 17 28.65H18.39C18.79 28.65 19.13 28.32 19.13 27.91V26.54H19.12Z" fill="#15C39A"/>
<path d="M39.6684 17.1884L21.0111 0.368591C20.4515 -0.122864 19.5521 -0.122864 19.0025 0.368591L13.4063 5.43359V3.72854C13.4063 3.16688 12.9566 2.71554 12.397 2.71554H10.5183C9.95864 2.71554 9.50894 3.16688 9.50894 3.72854V8.92392L0.335178 17.1784C-0.224441 17.6698 -0.0645498 18.081 0.674948 18.081H2.42376C3.16326 18.081 3.78284 18.6928 3.78284 19.4451V36.6259C3.78284 37.3681 4.39242 37.99 5.14191 37.99H7.96V24.0286C7.96 17.3489 13.3463 11.9228 20.0118 11.9228C26.6573 11.9228 32.0636 17.3288 32.0636 24.0286C32.0636 30.7084 26.6773 36.1144 20.0118 36.1345C17.5335 36.1345 15.265 35.1516 15.265 35.1516L10.858 38H34.8717C35.6112 38 36.2308 37.3882 36.2308 36.636V19.435C36.2308 18.6928 36.8404 18.071 37.5899 18.071H39.3387C40.0682 18.0911 40.2181 17.6698 39.6684 17.1884Z" fill="#15C39A"/>
<path d="M47.23 14.99H60.59V11.64H47.23V14.99ZM58.23 4.8V23H61.95V4.8H58.23ZM46.01 4.8V23H49.73V4.8H46.01ZM66.04 17.02C66.04 18.25 66.33 19.34 66.9 20.3C67.49 21.24 68.28 21.96 69.27 22.48C70.28 23 71.41 23.26 72.68 23.26C73.95 23.26 75.07 23 76.06 22.48C77.07 21.96 77.85 21.23 78.43 20.3C79.02 19.35 79.31 18.25 79.31 17.02C79.31 15.77 79.02 14.68 78.43 13.74C77.86 12.8 77.07 12.08 76.06 11.56C75.07 11.04 73.95 10.78 72.68 10.78C71.41 10.78 70.28 11.04 69.27 11.56C68.28 12.08 67.49 12.81 66.9 13.74C66.33 14.68 66.04 15.77 66.04 17.02ZM69.48 17.02C69.48 16.34 69.62 15.75 69.9 15.23C70.19 14.71 70.58 14.31 71.07 14.03C71.56 13.75 72.09 13.61 72.68 13.61C73.27 13.61 73.81 13.75 74.29 14.03C74.78 14.31 75.16 14.71 75.43 15.23C75.72 15.75 75.87 16.35 75.87 17.02C75.87 17.7 75.72 18.29 75.43 18.81C75.15 19.31 74.77 19.71 74.29 20.01C73.8 20.29 73.27 20.43 72.68 20.43C72.09 20.43 71.55 20.29 71.07 20.01C70.58 19.72 70.19 19.32 69.9 18.81C69.62 18.29 69.48 17.7 69.48 17.02ZM100.81 15.36C100.81 14.39 100.67 13.57 100.39 12.89C100.13 12.2 99.72 11.68 99.17 11.33C98.61 10.97 97.9 10.78 97.01 10.78C96.2 10.78 95.47 10.95 94.83 11.3C94.21 11.65 93.68 12.16 93.24 12.83C92.98 12.15 92.56 11.64 91.99 11.3C91.42 10.95 90.69 10.78 89.81 10.78C89.01 10.78 88.33 10.95 87.76 11.3C87.19 11.65 86.73 12.15 86.38 12.81V11.04H83.13V23H86.38V15.72C86.38 15.2 86.47 14.76 86.64 14.39C86.81 14.01 87.06 13.73 87.37 13.56C87.68 13.37 88.05 13.27 88.46 13.27C89.08 13.27 89.53 13.48 89.81 13.89C90.09 14.29 90.23 14.9 90.23 15.71V23H93.58V15.72C93.58 15.2 93.67 14.76 93.84 14.39C94.01 14.01 94.26 13.73 94.57 13.56C94.88 13.37 95.25 13.27 95.66 13.27C96.28 13.27 96.73 13.48 97.01 13.89C97.29 14.29 97.43 14.9 97.43 15.71V23H100.81V15.36ZM105.43 2.72V23H108.81V2.72H105.43ZM113.28 6.41C113.28 6.95 113.48 7.4 113.88 7.76C114.28 8.12 114.76 8.31 115.31 8.31C115.86 8.31 116.33 8.13 116.71 7.76C117.11 7.4 117.31 6.95 117.31 6.41C117.31 5.86 117.11 5.4 116.71 5.06C116.33 4.7 115.86 4.51 115.31 4.51C114.76 4.51 114.28 4.69 113.88 5.06C113.48 5.41 113.28 5.86 113.28 6.41ZM113.64 11.04V23H116.92V11.04H113.64ZM122.39 18.87L120.75 20.98C121.2 21.41 121.7 21.82 122.26 22.2C122.83 22.56 123.46 22.86 124.16 23.08C124.87 23.31 125.65 23.42 126.5 23.42C127.87 23.42 128.94 23.09 129.72 22.43C130.5 21.75 130.89 20.82 130.89 19.62C130.89 18.89 130.73 18.3 130.4 17.85C130.07 17.4 129.63 17.03 129.07 16.73C128.53 16.42 127.94 16.14 127.3 15.9C126.78 15.67 126.31 15.48 125.9 15.33C125.5 15.17 125.19 15 124.96 14.81C124.75 14.6 124.65 14.37 124.65 14.11C124.65 13.82 124.75 13.6 124.96 13.46C125.18 13.3 125.49 13.23 125.87 13.23C126.44 13.23 127.02 13.38 127.61 13.67C128.22 13.96 128.74 14.35 129.17 14.81L130.65 12.73C130.27 12.35 129.83 12.02 129.32 11.74C128.82 11.45 128.27 11.21 127.68 11.04C127.09 10.87 126.46 10.78 125.78 10.78C124.98 10.78 124.25 10.91 123.6 11.17C122.96 11.41 122.45 11.79 122.07 12.29C121.69 12.78 121.5 13.37 121.5 14.08C121.5 14.83 121.66 15.44 121.99 15.93C122.34 16.4 122.77 16.78 123.29 17.07C123.81 17.35 124.35 17.59 124.9 17.8C125.49 17.99 125.97 18.17 126.36 18.35C126.74 18.52 127.03 18.72 127.22 18.95C127.43 19.16 127.53 19.42 127.53 19.73C127.53 20.08 127.41 20.35 127.17 20.56C126.93 20.75 126.58 20.85 126.13 20.85C125.78 20.85 125.41 20.78 125.01 20.64C124.63 20.5 124.22 20.29 123.79 20.02C123.36 19.72 122.89 19.33 122.39 18.87ZM132.98 11.04V13.87H140.36V11.04H132.98ZM135.04 6.88V23H138.29V6.88H135.04ZM143.3 6.41C143.3 6.95 143.5 7.4 143.9 7.76C144.3 8.12 144.78 8.31 145.33 8.31C145.88 8.31 146.35 8.13 146.73 7.76C147.13 7.4 147.33 6.95 147.33 6.41C147.33 5.86 147.13 5.4 146.73 5.06C146.35 4.7 145.88 4.51 145.33 4.51C144.77 4.51 144.3 4.69 143.9 5.06C143.5 5.41 143.3 5.86 143.3 6.41ZM143.67 11.04V23H146.95V11.04H143.67Z" fill="#006F54"/>
<path d="M48.19 36H50.04L50.82 32.81C50.97 32.17 51.1 31.52 51.23 30.79H51.29C51.44 31.52 51.56 32.15 51.71 32.79L52.5 36H54.42L56.17 29.13H54.66L53.83 32.7C53.7 33.36 53.59 34 53.47 34.67H53.41C53.26 34 53.12 33.35 52.95 32.7L52.04 29.13H50.57L49.67 32.7C49.5 33.34 49.36 34 49.24 34.67H49.18C49.05 34 48.96 33.35 48.82 32.7L47.99 29.13H46.37L48.19 36ZM60.77 35.41C61.33 35.89 61.93 36.17 62.53 36.17C64.06 36.17 65.47 34.81 65.47 32.46C65.47 30.33 64.48 28.96 62.77 28.96C62.01 28.96 61.27 29.37 60.7 29.86H60.64L60.53 29.13H59.2V38.72H60.81V36.56L60.77 35.41ZM60.82 34.26V31.05C61.35 30.53 61.83 30.28 62.33 30.28C63.37 30.28 63.81 31.09 63.81 32.46C63.81 34.01 63.11 34.83 62.2 34.83C61.8 34.84 61.32 34.68 60.82 34.26ZM73.34 36H74.95V31.8C75.37 30.76 76.03 30.39 76.57 30.39C76.86 30.39 77.05 30.43 77.28 30.5L77.56 29.1C77.35 29 77.13 28.96 76.78 28.96C76.05 28.96 75.32 29.45 74.83 30.35H74.77L74.66 29.13H73.33V36H73.34ZM79.66 32.57C79.66 34.84 81.14 36.17 83.05 36.17C83.92 36.17 84.74 35.86 85.4 35.43L84.85 34.42C84.35 34.74 83.84 34.92 83.25 34.92C82.14 34.92 81.36 34.22 81.22 32.97H85.59C85.63 32.8 85.66 32.52 85.66 32.21C85.66 30.29 84.68 28.95 82.82 28.95C81.21 28.96 79.66 30.33 79.66 32.57ZM81.21 31.95C81.35 30.8 82.05 30.2 82.86 30.2C83.8 30.2 84.26 30.86 84.26 31.95H81.21ZM88.42 34.15C88.42 35.35 89.26 36.17 90.46 36.17C91.27 36.17 91.97 35.76 92.59 35.25H92.63L92.76 36H94.08V31.93C94.08 30.01 93.24 28.96 91.52 28.96C90.43 28.96 89.46 29.38 88.71 29.86L89.3 30.94C89.9 30.58 90.55 30.27 91.23 30.27C92.15 30.27 92.46 30.89 92.48 31.61C89.65 31.91 88.42 32.68 88.42 34.15ZM89.99 34.03C89.99 33.34 90.61 32.85 92.47 32.62V34.16C91.97 34.64 91.53 34.92 90.97 34.92C90.4 34.91 89.99 34.64 89.99 34.03ZM97.72 34.24C97.72 35.43 98.14 36.17 99.29 36.17C99.67 36.17 99.95 36.11 100.14 36.03L99.93 34.83C99.8 34.86 99.75 34.86 99.68 34.86C99.51 34.86 99.33 34.72 99.33 34.33V26.13H97.72V34.24ZM102.76 32.57C102.76 34.84 104.24 36.17 106.15 36.17C107.02 36.17 107.84 35.86 108.5 35.43L107.95 34.42C107.45 34.74 106.94 34.92 106.35 34.92C105.24 34.92 104.46 34.22 104.32 32.97H108.69C108.73 32.8 108.76 32.52 108.76 32.21C108.76 30.29 107.78 28.95 105.92 28.95C104.31 28.96 102.76 30.33 102.76 32.57ZM104.31 31.95C104.45 30.8 105.15 30.2 105.96 30.2C106.9 30.2 107.36 30.86 107.36 31.95H104.31ZM111.3 35.22C111.97 35.77 112.97 36.17 113.9 36.17C115.64 36.17 116.57 35.22 116.57 34.04C116.57 32.75 115.53 32.3 114.6 31.95C113.86 31.68 113.17 31.47 113.17 30.93C113.17 30.5 113.49 30.17 114.18 30.17C114.73 30.17 115.22 30.41 115.69 30.76L116.43 29.78C115.87 29.35 115.1 28.95 114.15 28.95C112.61 28.95 111.64 29.8 111.64 31.01C111.64 32.16 112.66 32.68 113.57 33.01C114.3 33.29 115.04 33.54 115.04 34.12C115.04 34.6 114.69 34.95 113.95 34.95C113.25 34.95 112.66 34.66 112.05 34.18L111.3 35.22ZM119.93 33.68C119.93 35.16 120.52 36.17 122.11 36.17C122.66 36.17 123.13 36.04 123.51 35.92L123.23 34.73C123.03 34.81 122.75 34.88 122.52 34.88C121.86 34.88 121.55 34.49 121.55 33.68V30.4H123.3V29.13H121.55V27.25H120.21L120.01 29.13L118.95 29.2V30.4H119.93V33.68ZM125.93 34.15C125.93 35.35 126.77 36.17 127.97 36.17C128.78 36.17 129.48 35.76 130.1 35.25H130.14L130.27 36.01H131.59V31.94C131.59 30.02 130.75 28.97 129.03 28.97C127.94 28.97 126.97 29.39 126.22 29.87L126.81 30.95C127.41 30.59 128.06 30.28 128.74 30.28C129.66 30.28 129.97 30.9 129.99 31.62C127.16 31.91 125.93 32.68 125.93 34.15ZM127.5 34.03C127.5 33.34 128.12 32.85 129.98 32.62V34.16C129.48 34.64 129.04 34.92 128.48 34.92C127.9 34.91 127.5 34.64 127.5 34.03ZM135.47 33.68C135.47 35.16 136.06 36.17 137.65 36.17C138.2 36.17 138.67 36.04 139.05 35.92L138.77 34.73C138.57 34.81 138.29 34.88 138.06 34.88C137.4 34.88 137.09 34.49 137.09 33.68V30.4H138.84V29.13H137.09V27.25H135.75L135.55 29.13L134.49 29.2V30.4H135.47V33.68ZM141.39 32.57C141.39 34.84 142.87 36.17 144.78 36.17C145.65 36.17 146.47 35.86 147.13 35.43L146.58 34.42C146.08 34.74 145.57 34.92 144.98 34.92C143.87 34.92 143.09 34.22 142.95 32.97H147.32C147.36 32.8 147.39 32.52 147.39 32.21C147.39 30.29 146.41 28.95 144.55 28.95C142.94 28.96 141.39 30.33 141.39 32.57ZM142.94 31.95C143.08 30.8 143.78 30.2 144.59 30.2C145.53 30.2 145.99 30.86 145.99 31.95H142.94Z" fill="#63A696"/>
</g>
<defs>
<clipPath id="clip0">
<rect width="148" height="39" fill="white"/>
</clipPath>
</defs>
</svg>
