<svg xmlns="http://www.w3.org/2000/svg" width="60" height="57" viewBox="0 0 60 57" fill="none"><path d="M58.9 56.1H0.9C0.4 56.1 0 55.7 0 55.2V48.2C0 47.7 0.4 47.3 0.9 47.3H58.8C59.3 47.3 59.7 47.7 59.7 48.2V55.2C59.8 55.7 59.4 56.1 58.9 56.1ZM1.9 54.3H58V49.2H1.9V54.3Z" fill="#00C194"></path><path d="M44.1 49.1H15.7C15.2 49.1 14.8 48.7 14.8 48.2V0.9C14.8 0.4 15.2 0 15.7 0H44.2C44.7 0 45.1 0.4 45.1 0.9V48.2C45.1 48.7 44.6 49.1 44.1 49.1ZM16.6 47.3H43.2V1.9H16.6V47.3Z" fill="#00C194"></path><path d="M55.1 49.1H44.1C43.6 49.1 43.2 48.7 43.2 48.2V12.7C43.2 12.2 43.6 11.8 44.1 11.8H55.1C55.6 11.8 56 12.2 56 12.7V48.2C56 48.7 55.6 49.1 55.1 49.1ZM45.1 47.3H54.2V13.7H45.1V47.3Z" fill="#00C194"></path><path d="M15.7 49.1H4.69999C4.19999 49.1 3.79999 48.7 3.79999 48.2V12.7C3.79999 12.2 4.19999 11.8 4.69999 11.8H15.7C16.2 11.8 16.6 12.2 16.6 12.7V48.2C16.6 48.7 16.2 49.1 15.7 49.1ZM5.59999 47.3H14.7V13.7H5.59999V47.3Z" fill="#00C194"></path><path d="M26.5 13.1H20.6C20.1 13.1 19.7 12.7 19.7 12.2V6.1C19.7 5.6 20.1 5.2 20.6 5.2H26.5C27 5.2 27.4 5.6 27.4 6.1V12.2C27.4 12.7 27 13.1 26.5 13.1ZM21.5 11.2H25.5V7H21.5V11.2Z" fill="#00C194"></path><path d="M39.2 13.1H33.3C32.8 13.1 32.4 12.7 32.4 12.2V6.1C32.4 5.6 32.8 5.2 33.3 5.2H39.2C39.7 5.2 40.1 5.6 40.1 6.1V12.2C40.1 12.7 39.7 13.1 39.2 13.1ZM34.3 11.2H38.3V7H34.3V11.2Z" fill="#00C194"></path><path d="M26.5 23.1H20.6C20.1 23.1 19.7 22.7 19.7 22.2V16.1C19.7 15.6 20.1 15.2 20.6 15.2H26.5C27 15.2 27.4 15.6 27.4 16.1V22.2C27.4 22.7 27 23.1 26.5 23.1ZM21.5 21.2H25.5V17H21.5V21.2Z" fill="#00C194"></path><path d="M39.2 23.1H33.3C32.8 23.1 32.4 22.7 32.4 22.2V16.1C32.4 15.6 32.8 15.2 33.3 15.2H39.2C39.7 15.2 40.1 15.6 40.1 16.1V22.2C40.1 22.7 39.7 23.1 39.2 23.1ZM34.3 21.2H38.3V17H34.3V21.2Z" fill="#00C194"></path><path d="M26.5 33.1H20.6C20.1 33.1 19.7 32.7 19.7 32.2V26.1C19.7 25.6 20.1 25.2 20.6 25.2H26.5C27 25.2 27.4 25.6 27.4 26.1V32.2C27.4 32.7 27 33.1 26.5 33.1ZM21.5 31.2H25.5V27H21.5V31.2Z" fill="#00C194"></path><path d="M39.2 33.1H33.3C32.8 33.1 32.4 32.7 32.4 32.2V26.1C32.4 25.6 32.8 25.2 33.3 25.2H39.2C39.7 25.2 40.1 25.6 40.1 26.1V32.2C40.1 32.7 39.7 33.1 39.2 33.1ZM34.3 31.2H38.3V27H34.3V31.2Z" fill="#00C194"></path><path d="M26.5 43.1H20.6C20.1 43.1 19.7 42.7 19.7 42.2V36.1C19.7 35.6 20.1 35.2 20.6 35.2H26.5C27 35.2 27.4 35.6 27.4 36.1V42.2C27.4 42.6 27 43.1 26.5 43.1ZM21.5 41.2H25.5V37H21.5V41.2Z" fill="#00C194"></path><path d="M39.2 43.1H33.3C32.8 43.1 32.4 42.7 32.4 42.2V36.1C32.4 35.6 32.8 35.2 33.3 35.2H39.2C39.7 35.2 40.1 35.6 40.1 36.1V42.2C40.1 42.6 39.7 43.1 39.2 43.1ZM34.3 41.2H38.3V37H34.3V41.2Z" fill="#00C194"></path><path d="M12 24.1H8.29999C7.79999 24.1 7.39999 23.7 7.39999 23.2V17.1C7.39999 16.6 7.79999 16.2 8.29999 16.2H12C12.5 16.2 12.9 16.6 12.9 17.1V23.2C12.9 23.7 12.5 24.1 12 24.1ZM9.29999 22.2H11.1V18H9.29999V22.2Z" fill="#00C194"></path><path d="M12 34.3H8.29999C7.79999 34.3 7.39999 33.9 7.39999 33.4V27.3C7.39999 26.8 7.79999 26.4 8.29999 26.4H12C12.5 26.4 12.9 26.8 12.9 27.3V33.4C12.9 33.9 12.5 34.3 12 34.3ZM9.29999 32.5H11.1V28.3H9.29999V32.5Z" fill="#00C194"></path><path d="M12 44.6H8.29999C7.79999 44.6 7.39999 44.2 7.39999 43.7V37.6C7.39999 37.1 7.79999 36.7 8.29999 36.7H12C12.5 36.7 12.9 37.1 12.9 37.6V43.7C12.9 44.1 12.5 44.6 12 44.6ZM9.29999 42.7H11.1V38.5H9.29999V42.7Z" fill="#00C194"></path><path d="M51.4 24.1H47.7C47.2 24.1 46.8 23.7 46.8 23.2V17.1C46.8 16.6 47.2 16.2 47.7 16.2H51.4C51.9 16.2 52.3 16.6 52.3 17.1V23.2C52.4 23.7 52 24.1 51.4 24.1ZM48.7 22.2H50.5V18H48.7V22.2Z" fill="#00C194"></path><path d="M51.4 34.3H47.7C47.2 34.3 46.8 33.9 46.8 33.4V27.3C46.8 26.8 47.2 26.4 47.7 26.4H51.4C51.9 26.4 52.3 26.8 52.3 27.3V33.4C52.4 33.9 52 34.3 51.4 34.3ZM48.7 32.5H50.5V28.3H48.7V32.5Z" fill="#00C194"></path><path d="M51.4 44.6H47.7C47.2 44.6 46.8 44.2 46.8 43.7V37.6C46.8 37.1 47.2 36.7 47.7 36.7H51.4C51.9 36.7 52.3 37.1 52.3 37.6V43.7C52.4 44.1 52 44.6 51.4 44.6ZM48.7 42.7H50.5V38.5H48.7V42.7Z" fill="#00C194"></path></svg>