<svg xmlns="http://www.w3.org/2000/svg" width="80" height="68" viewBox="0 0 80 68" fill="none"><path d="M4.85376 66V27.9012L37.8221 13.52M78 66H2M12.7391 48.7576H29.9368M12.7391 54.48H29.9368M12.7391 60.2024H29.9368M75.1462 66V16.3812L69.4387 14.1976V3.43059C69.4387 2.60235 68.7628 2 68.0119 2H57.9486C57.1225 2 56.5217 2.67765 56.5217 3.43059V9.15294L37.8221 2V66H75.1462ZM64.4071 22.8565C64.4071 22.0282 63.7312 21.4259 62.9802 21.4259H51.4901C50.664 21.4259 50.0632 22.1035 50.0632 22.8565V30.0847C50.0632 30.9129 50.7391 31.5153 51.4901 31.5153H62.9802C63.8063 31.5153 64.4071 30.8376 64.4071 30.0847V22.8565ZM64.4071 40.8518C64.4071 40.0235 63.7312 39.4212 62.9802 39.4212H51.4901C50.664 39.4212 50.0632 40.0988 50.0632 40.8518V48.08C50.0632 48.9082 50.7391 49.5106 51.4901 49.5106H62.9802C63.8063 49.5106 64.4071 48.8329 64.4071 48.08V40.8518ZM29.9368 66V41.5294H12.7391V66H29.9368Z" stroke="#00C194" stroke-width="2.0377" stroke-miterlimit="10" stroke-linecap="round" stroke-linejoin="round"></path></svg>