<svg xmlns="http://www.w3.org/2000/svg" width="70" height="78" viewBox="0 0 70 78" fill="none"><path d="M27.0677 76.8H68.7906V2H27.0677V76.8ZM27.0677 76.8H2V25.2692H27.0677M44.5727 13.6769C44.5727 12.7461 43.8079 11.9846 42.8732 11.9846H37.8596C36.9249 11.9846 36.1601 12.7461 36.1601 13.6769V18.6692C36.1601 19.6 36.9249 20.3615 37.8596 20.3615H42.8732C43.8079 20.3615 44.5727 19.6 44.5727 18.6692V13.6769ZM44.5727 27.8077C44.5727 26.8769 43.8079 26.1154 42.8732 26.1154H37.8596C36.9249 26.1154 36.1601 26.8769 36.1601 27.8077V32.8C36.1601 33.7308 36.9249 34.4923 37.8596 34.4923H42.8732C43.8079 34.4923 44.5727 33.7308 44.5727 32.8V27.8077ZM44.5727 41.9385C44.5727 41.0077 43.8079 40.2461 42.8732 40.2461H37.8596C36.9249 40.2461 36.1601 41.0077 36.1601 41.9385V46.9308C36.1601 47.8615 36.9249 48.6231 37.8596 48.6231H42.8732C43.8079 48.6231 44.5727 47.8615 44.5727 46.9308V41.9385ZM44.5727 56.0692C44.5727 55.1384 43.8079 54.3769 42.8732 54.3769H37.8596C36.9249 54.3769 36.1601 55.1384 36.1601 56.0692V61.0615C36.1601 61.9923 36.9249 62.7538 37.8596 62.7538H42.8732C43.8079 62.7538 44.5727 61.9923 44.5727 61.0615V56.0692ZM10.3276 46.9308C10.3276 47.8615 11.0924 48.6231 12.0271 48.6231H17.0406C17.9754 48.6231 18.7402 47.8615 18.7402 46.9308V41.9385C18.7402 41.0077 17.9754 40.2461 17.0406 40.2461H12.0271C11.0924 40.2461 10.3276 41.0077 10.3276 41.9385V46.9308ZM10.3276 61.0615C10.3276 61.9923 11.0924 62.7538 12.0271 62.7538H17.0406C17.9754 62.7538 18.7402 61.9923 18.7402 61.0615V56.0692C18.7402 55.1384 17.9754 54.3769 17.0406 54.3769H12.0271C11.0924 54.3769 10.3276 55.1384 10.3276 56.0692V61.0615ZM51.2857 18.6692C51.2857 19.6 52.0505 20.3615 52.9852 20.3615H57.9988C58.9335 20.3615 59.6983 19.6 59.6983 18.6692V13.6769C59.6983 12.7461 58.9335 11.9846 57.9988 11.9846H52.9852C52.0505 11.9846 51.2857 12.7461 51.2857 13.6769V18.6692ZM51.2857 32.8C51.2857 33.7308 52.0505 34.4923 52.9852 34.4923H57.9988C58.9335 34.4923 59.6983 33.7308 59.6983 32.8V27.8077C59.6983 26.8769 58.9335 26.1154 57.9988 26.1154H52.9852C52.0505 26.1154 51.2857 26.8769 51.2857 27.8077V32.8ZM51.2857 46.9308C51.2857 47.8615 52.0505 48.6231 52.9852 48.6231H57.9988C58.9335 48.6231 59.6983 47.8615 59.6983 46.9308V41.9385C59.6983 41.0077 58.9335 40.2461 57.9988 40.2461H52.9852C52.0505 40.2461 51.2857 41.0077 51.2857 41.9385V46.9308ZM51.2857 61.0615C51.2857 61.9923 52.0505 62.7538 52.9852 62.7538H57.9988C58.9335 62.7538 59.6983 61.9923 59.6983 61.0615V56.0692C59.6983 55.1384 58.9335 54.3769 57.9988 54.3769H52.9852C52.0505 54.3769 51.2857 55.1384 51.2857 56.0692V61.0615Z" stroke="#00C194" stroke-width="2.0956" stroke-miterlimit="10" stroke-linecap="round" stroke-linejoin="round"></path></svg>