<svg xmlns="http://www.w3.org/2000/svg" width="96" height="79" viewBox="0 0 96 79" fill="none"><path d="M27.0677 76.8H68.7906V2H27.0677V76.8ZM27.0677 76.8H2V25.2692H27.0677M44.5727 13.6769C44.5727 12.7461 43.8079 11.9846 42.8732 11.9846H37.8596C36.9249 11.9846 36.1601 12.7461 36.1601 13.6769V18.6692C36.1601 19.6 36.9249 20.3615 37.8596 20.3615H42.8732C43.8079 20.3615 44.5727 19.6 44.5727 18.6692V13.6769ZM44.5727 27.8077C44.5727 26.8769 43.8079 26.1154 42.8732 26.1154H37.8596C36.9249 26.1154 36.1601 26.8769 36.1601 27.8077V32.8C36.1601 33.7308 36.9249 34.4923 37.8596 34.4923H42.8732C43.8079 34.4923 44.5727 33.7308 44.5727 32.8V27.8077ZM44.5727 41.9385C44.5727 41.0077 43.8079 40.2461 42.8732 40.2461H37.8596C36.9249 40.2461 36.1601 41.0077 36.1601 41.9385V46.9308C36.1601 47.8615 36.9249 48.6231 37.8596 48.6231H42.8732C43.8079 48.6231 44.5727 47.8615 44.5727 46.9308V41.9385ZM44.5727 56.0692C44.5727 55.1384 43.8079 54.3769 42.8732 54.3769H37.8596C36.9249 54.3769 36.1601 55.1384 36.1601 56.0692V61.0615C36.1601 61.9923 36.9249 62.7538 37.8596 62.7538H42.8732C43.8079 62.7538 44.5727 61.9923 44.5727 61.0615V56.0692ZM10.3276 46.9308C10.3276 47.8615 11.0924 48.6231 12.0271 48.6231H17.0406C17.9754 48.6231 18.7402 47.8615 18.7402 46.9308V41.9385C18.7402 41.0077 17.9754 40.2461 17.0406 40.2461H12.0271C11.0924 40.2461 10.3276 41.0077 10.3276 41.9385V46.9308ZM10.3276 61.0615C10.3276 61.9923 11.0924 62.7538 12.0271 62.7538H17.0406C17.9754 62.7538 18.7402 61.9923 18.7402 61.0615V56.0692C18.7402 55.1384 17.9754 54.3769 17.0406 54.3769H12.0271C11.0924 54.3769 10.3276 55.1384 10.3276 56.0692V61.0615ZM51.2857 18.6692C51.2857 19.6 52.0505 20.3615 52.9852 20.3615H57.9988C58.9335 20.3615 59.6983 19.6 59.6983 18.6692V13.6769C59.6983 12.7461 58.9335 11.9846 57.9988 11.9846H52.9852C52.0505 11.9846 51.2857 12.7461 51.2857 13.6769V18.6692ZM51.2857 32.8C51.2857 33.7308 52.0505 34.4923 52.9852 34.4923H57.9988C58.9335 34.4923 59.6983 33.7308 59.6983 32.8V27.8077C59.6983 26.8769 58.9335 26.1154 57.9988 26.1154H52.9852C52.0505 26.1154 51.2857 26.8769 51.2857 27.8077V32.8ZM51.2857 46.9308C51.2857 47.8615 52.0505 48.6231 52.9852 48.6231H57.9988C58.9335 48.6231 59.6983 47.8615 59.6983 46.9308V41.9385C59.6983 41.0077 58.9335 40.2461 57.9988 40.2461H52.9852C52.0505 40.2461 51.2857 41.0077 51.2857 41.9385V46.9308ZM51.2857 61.0615C51.2857 61.9923 52.0505 62.7538 52.9852 62.7538H57.9988C58.9335 62.7538 59.6983 61.9923 59.6983 61.0615V56.0692C59.6983 55.1384 58.9335 54.3769 57.9988 54.3769H52.9852C52.0505 54.3769 51.2857 55.1384 51.2857 56.0692V61.0615Z" stroke="#00C194" stroke-width="2.0956" stroke-miterlimit="10" stroke-linecap="round" stroke-linejoin="round"></path><path d="M68.8537 77H27V2H68.8537V77ZM68.8537 77H94V25.3315H68.8537M51.2939 13.7081C51.2939 12.7749 52.0611 12.0113 52.9987 12.0113H58.028C58.9656 12.0113 59.7328 12.7749 59.7328 13.7081V18.7138C59.7328 19.6471 58.9656 20.4106 58.028 20.4106H52.9987C52.0611 20.4106 51.2939 19.6471 51.2939 18.7138V13.7081ZM51.2939 27.8767C51.2939 26.9434 52.0611 26.1799 52.9987 26.1799H58.028C58.9656 26.1799 59.7328 26.9434 59.7328 27.8767V32.8823C59.7328 33.8156 58.9656 34.5792 58.028 34.5792H52.9987C52.0611 34.5792 51.2939 33.8156 51.2939 32.8823V27.8767ZM51.2939 42.0452C51.2939 41.112 52.0611 40.3484 52.9987 40.3484H58.028C58.9656 40.3484 59.7328 41.112 59.7328 42.0452V47.0509C59.7328 47.9842 58.9656 48.7477 58.028 48.7477H52.9987C52.0611 48.7477 51.2939 47.9842 51.2939 47.0509V42.0452ZM51.2939 56.2138C51.2939 55.2805 52.0611 54.517 52.9987 54.517H58.028C58.9656 54.517 59.7328 55.2805 59.7328 56.2138V61.2194C59.7328 62.1527 58.9656 62.9163 58.028 62.9163H52.9987C52.0611 62.9163 51.2939 62.1527 51.2939 61.2194V56.2138ZM85.6463 47.0509C85.6463 47.9842 84.8791 48.7477 83.9415 48.7477H78.9122C77.9746 48.7477 77.2074 47.9842 77.2074 47.0509V42.0452C77.2074 41.112 77.9746 40.3484 78.9122 40.3484H83.9415C84.8791 40.3484 85.6463 41.112 85.6463 42.0452V47.0509ZM85.6463 61.2194C85.6463 62.1527 84.8791 62.9163 83.9415 62.9163H78.9122C77.9746 62.9163 77.2074 62.1527 77.2074 61.2194V56.2138C77.2074 55.2805 77.9746 54.517 78.9122 54.517H83.9415C84.8791 54.517 85.6463 55.2805 85.6463 56.2138V61.2194ZM44.5598 18.7138C44.5598 19.6471 43.7926 20.4106 42.855 20.4106H37.8257C36.888 20.4106 36.1209 19.6471 36.1209 18.7138V13.7081C36.1209 12.7749 36.888 12.0113 37.8257 12.0113H42.855C43.7926 12.0113 44.5598 12.7749 44.5598 13.7081V18.7138ZM44.5598 32.8823C44.5598 33.8156 43.7926 34.5792 42.855 34.5792H37.8257C36.888 34.5792 36.1209 33.8156 36.1209 32.8823V27.8767C36.1209 26.9434 36.888 26.1799 37.8257 26.1799H42.855C43.7926 26.1799 44.5598 26.9434 44.5598 27.8767V32.8823ZM44.5598 47.0509C44.5598 47.9842 43.7926 48.7477 42.855 48.7477H37.8257C36.888 48.7477 36.1209 47.9842 36.1209 47.0509V42.0452C36.1209 41.112 36.888 40.3484 37.8257 40.3484H42.855C43.7926 40.3484 44.5598 41.112 44.5598 42.0452V47.0509ZM44.5598 61.2194C44.5598 62.1527 43.7926 62.9163 42.855 62.9163H37.8257C36.888 62.9163 36.1209 62.1527 36.1209 61.2194V56.2138C36.1209 55.2805 36.888 54.517 37.8257 54.517H42.855C43.7926 54.517 44.5598 55.2805 44.5598 56.2138V61.2194Z" stroke="#00C194" stroke-width="2.0956" stroke-miterlimit="10" stroke-linecap="round" stroke-linejoin="round"></path></svg>