<svg xmlns="http://www.w3.org/2000/svg" width="99" height="67" viewBox="0 0 99 67" fill="none"><path d="M2 29.4692L20.8179 2L35.1589 21.2583M35.1589 21.2583L49.5 2L63.8411 21.2583L78.1821 2L97 29.3946M35.1589 21.2583V65M6.55272 22.7512V65M63.7652 21.2583V65M92.3714 65V22.7512M2 65H96.9241M6.55272 37.6054H92.4473M43.4297 24.2441H55.4944M43.4297 30.8874H55.4944M14.8235 24.2441H26.8882M14.8235 30.8874H26.8882M72.0359 24.2441H84.1006M72.0359 30.8874H84.1006M55.4944 65V47.2346C55.4944 46.4135 54.8115 45.7417 53.9768 45.7417H44.9473C44.1126 45.7417 43.4297 46.4135 43.4297 47.2346V65H55.4944ZM26.8882 65V47.2346C26.8882 46.4135 26.2053 45.7417 25.3706 45.7417H16.3411C15.5064 45.7417 14.8235 46.4135 14.8235 47.2346V65H26.8882ZM84.1006 65V47.2346C84.1006 46.4135 83.4177 45.7417 82.5831 45.7417H73.5535C72.7189 45.7417 72.0359 46.4135 72.0359 47.2346V65H84.1006Z" stroke="#00C194" stroke-width="2.1176" stroke-miterlimit="10" stroke-linecap="round" stroke-linejoin="round"></path></svg>