<svg xmlns="http://www.w3.org/2000/svg" width="57" height="80" viewBox="0 0 57 80" fill="none"><path d="M55 78H2M5.58003 78V2H51.42V78H5.58003Z" stroke="#00C194" stroke-width="2.4528" stroke-miterlimit="10" stroke-linecap="round" stroke-linejoin="round"></path><path d="M43 49.9785H31.337M34.2527 77.9219V61.4525C34.2527 60.6719 33.6223 60.0475 32.8342 60.0475H24.1658C23.3777 60.0475 22.7473 60.6719 22.7473 61.4525V78L34.2527 77.9219ZM25.5842 10.483C25.5842 9.70249 24.9538 9.07805 24.1658 9.07805H15.4973C14.7092 9.07805 14.0788 9.70249 14.0788 10.483V19.069C14.0788 19.8495 14.7092 20.474 15.4973 20.474H24.1658C24.9538 20.474 25.5842 19.8495 25.5842 19.069V10.483ZM19.7527 9V20.474V9ZM25.5842 14.776H14H25.5842ZM25.5842 27.655C25.5842 26.8744 24.9538 26.25 24.1658 26.25H15.4973C14.7092 26.25 14.0788 26.8744 14.0788 27.655V36.241C14.0788 37.0215 14.7092 37.6459 15.4973 37.6459H24.1658C24.9538 37.6459 25.5842 37.0215 25.5842 36.241V27.655ZM19.7527 26.25V37.724V26.25ZM25.5842 32.7285H14H25.5842ZM25.5842 44.905C25.5842 44.1244 24.9538 43.5 24.1658 43.5H15.4973C14.7092 43.5 14.0788 44.1244 14.0788 44.905V53.4909C14.0788 54.2715 14.7092 54.8959 15.4973 54.8959H24.1658C24.9538 54.8959 25.5842 54.2715 25.5842 53.4909V44.905ZM19.7527 43.5V54.974V43.5ZM25.5842 49.9785H14H25.5842ZM31.337 19.069C31.337 19.8495 31.9674 20.474 32.7554 20.474H41.4239C42.212 20.474 42.8424 19.8495 42.8424 19.069V10.483C42.8424 9.70249 42.212 9.07805 41.4239 9.07805H32.7554C31.9674 9.07805 31.337 9.70249 31.337 10.483V19.069ZM37.1685 9V20.474V9ZM43 14.776H31.337H43ZM31.337 36.319C31.337 37.0995 31.9674 37.724 32.7554 37.724H41.4239C42.212 37.724 42.8424 37.0995 42.8424 36.319V27.733C42.8424 26.9525 42.212 26.3281 41.4239 26.3281H32.7554C31.9674 26.3281 31.337 26.9525 31.337 27.733V36.319ZM37.1685 26.25V37.724V26.25ZM43 32.7285H31.337H43ZM31.337 53.569C31.337 54.3495 31.9674 54.974 32.7554 54.974H41.4239C42.212 54.974 42.8424 54.3495 42.8424 53.569V44.983C42.8424 44.2025 42.212 43.5781 41.4239 43.5781H32.7554C31.9674 43.5781 31.337 44.2025 31.337 44.983V53.569ZM37.1685 43.5V54.974V43.5Z" stroke="#00C194" stroke-width="1.9623" stroke-miterlimit="10" stroke-linecap="round" stroke-linejoin="round"></path></svg>