<svg xmlns="http://www.w3.org/2000/svg" width="75" height="76" viewBox="0 0 75 76" fill="none"><path d="M34.8293 75V8.48943L27.3735 4.46526L19.9177 8.48943V20.6737H14.5762V36.3233M54.4146 75V32.2991L34.8293 24.8097M69.9939 75V39.6767L60.5351 34.8701V10.5015L44.2881 16.6495V28.0514M74 75H1M27.3735 4.35347V1M9.79116 65.4985V70.3051M9.79116 61.4743V57.4502M9.79116 53.3142V49.29M9.79116 45.1541V41.1299M15.2439 65.4985V70.3051M15.2439 61.4743V57.4502M15.2439 53.3142V49.29M15.2439 45.1541V41.1299M24.7027 65.4985V70.3051M24.7027 61.4743V57.4502M24.7027 53.3142V49.29M30.0442 65.4985V70.3051M30.0442 61.4743V57.4502M30.0442 53.3142V49.29M24.7027 41.8006V46.6073M24.7027 37.6647V33.6405M24.7027 29.5045V25.4804M24.7027 21.3444V17.3202M30.0442 41.8006V46.6073M30.0442 37.6647V33.6405M30.0442 29.5045V25.4804M30.0442 21.3444V17.3202M24.7027 11.1722V13.855M19.9177 26.8218V29.5045M30.0442 11.1722V13.855M39.503 65.4985V70.3051M39.503 61.4743V57.4502M39.503 53.3142V49.29M39.503 45.1541V41.1299M44.2881 65.4985V70.3051M44.2881 61.4743V57.4502M44.2881 53.3142V49.29M44.2881 45.1541V41.1299M49.7408 65.4985V70.3051M49.7408 61.4743V57.4502M49.7408 53.3142V49.29M39.503 36.994V33.6405M44.2881 36.994V33.6405M49.7408 36.994V33.6405M49.0732 22.7976V19.4441M54.4146 22.7976V19.4441M49.7408 45.1541V41.1299M59.1997 65.4985V70.3051M59.1997 61.4743V57.4502M59.1997 53.3142V49.29M59.1997 45.1541V41.1299M64.5412 65.4985V70.3051M64.5412 61.4743V57.4502M64.5412 53.3142V49.29M64.5412 45.1541V41.1299M5.11738 75V36.3233H20.6966V75H5.11738Z" stroke="#15C39A" stroke-width="1.2963" stroke-miterlimit="10" stroke-linecap="round" stroke-linejoin="round"></path></svg>