<svg xmlns="http://www.w3.org/2000/svg" width="53" height="52" viewBox="0 0 53 52" fill="none"><path d="M13.3109 22.388C13.2906 22.1604 13.4044 21.9436 13.6022 21.8311L50.3645 0.906766C50.8536 0.614099 51.1043 0.872892 50.8062 1.36203L29.6298 37.8614C29.516 38.0565 29.3006 38.169 29.0757 38.1487L15.0859 36.9008C14.8054 36.8764 14.5846 36.6542 14.5588 36.3737L13.3109 22.388Z" fill="#00C194"></path><path d="M50.2523 0.79292L48.2009 1.38503C48.2294 1.51239 48.228 1.64924 48.186 1.7888L34.4307 47.0912L35.726 49.4637C35.9726 49.9163 36.6433 49.8472 36.7923 49.354L51.2333 1.7888C51.4162 1.1845 50.858 0.618132 50.2523 0.79292Z" fill="#00C194"></path><path d="M50.3643 0.906766L46.8672 2.89717L26.5811 37.8614C26.5689 37.8831 26.554 37.9034 26.5391 37.9224L29.0742 38.1487C29.2991 38.169 29.5159 38.0565 29.6283 37.8614L50.8061 1.36203C51.1055 0.872892 50.8535 0.614099 50.3643 0.906766Z" fill="#56F0CC"></path><path d="M51.5815 0.463666C51.1804 0.0571841 50.5897 -0.0972791 50.0409 0.0612489L12.1568 10.9929C11.7516 11.1094 11.5186 11.5322 11.6365 11.936C11.753 12.3397 12.1757 12.5741 12.5795 12.4562L44.9328 3.11935L13.3776 21.0818C13.3762 21.0818 13.3762 21.0818 13.3749 21.0804L2.7711 15.2881L9.76124 13.2706C10.165 13.154 10.3981 12.7313 10.2815 12.3262C10.165 11.9224 9.74227 11.688 9.3385 11.8059L1.92562 13.9453C1.3999 14.0971 1.02187 14.5456 0.962256 15.0889C0.902639 15.6322 1.17363 16.1525 1.65328 16.414L12.5456 22.3636C12.5456 22.3934 12.5484 22.4232 12.5511 22.453L13.799 36.4387C13.8559 37.0877 14.3694 37.5999 15.0171 37.6581L29.0068 38.906C29.0353 38.9088 29.0637 38.9088 29.0922 38.9101L35.0566 49.8269C35.2937 50.2618 35.7463 50.526 36.2341 50.526C36.2801 50.526 36.3262 50.5233 36.3736 50.5192C36.9129 50.4637 37.3641 50.0924 37.5213 49.5735L51.9636 2.00965C52.1289 1.46226 51.9826 0.870149 51.5815 0.463666ZM36.1894 48.7199L30.3807 38.0877L36.8086 27.0097C37.0199 26.6452 36.8953 26.1791 36.5322 25.9677C36.1677 25.7563 35.7016 25.881 35.4902 26.2441L29.0299 37.379L16.2948 36.2436L30.0772 22.4611C30.3753 22.163 30.3753 21.6807 30.0772 21.3826C29.7791 21.0845 29.2968 21.0845 28.9987 21.3826L15.2162 35.1651L14.0808 22.4354L49.3445 2.36465L36.8181 23.9543C36.6067 24.3188 36.7313 24.7849 37.0945 24.9962C37.2151 25.0667 37.3465 25.0992 37.4766 25.0992C37.7394 25.0992 37.9941 24.9637 38.1364 24.7198L49.3336 5.42004L36.1894 48.7199Z" fill="#009874"></path><path d="M9.86668 41.5943C9.56995 41.2962 9.08623 41.2962 8.7895 41.5943L0.223565 50.1602C-0.0745217 50.4583 -0.0745217 50.9407 0.223565 51.2374C0.372609 51.3865 0.56772 51.461 0.762832 51.461C0.957943 51.461 1.15305 51.3865 1.3021 51.2374L9.86803 42.6715C10.1648 42.3747 10.1648 41.8924 9.86668 41.5943Z" fill="#1EDFB2"></path><path d="M0.762832 44.1388C0.957943 44.1388 1.15305 44.0643 1.3021 43.9153L9.86803 35.3493C10.1661 35.0513 10.1661 34.5689 9.86803 34.2708C9.5713 33.9727 9.08759 33.9727 8.79086 34.2708L0.223565 42.8367C-0.0745217 43.1348 -0.0745217 43.6172 0.223565 43.9153C0.372609 44.0643 0.56772 44.1388 0.762832 44.1388Z" fill="#00C194"></path><path d="M16.1127 41.5943L7.54677 50.1602C7.25004 50.4583 7.25004 50.9407 7.54677 51.2374C7.69581 51.3865 7.89092 51.461 8.08603 51.461C8.28115 51.461 8.47626 51.3865 8.6253 51.2374L17.1912 42.6715C17.488 42.3734 17.488 41.891 17.1912 41.5929C16.8918 41.2976 16.4094 41.2976 16.1127 41.5943Z" fill="#00C194"></path></svg>