<svg xmlns="http://www.w3.org/2000/svg" width="51" height="51" viewBox="0 0 51 51" fill="none"><path d="M46.3727 21.0463L43.1208 19.69L31.5306 14.861L31.0957 24.2913L49.6245 27.3793V22.3999L46.3727 21.0463Z" fill="#00C194"></path><path d="M18.9077 14.9043L7.31622 19.7333L4.06436 21.0896L0.8125 22.4445V27.4239L19.3413 24.336L18.9077 14.9043Z" fill="#00C194"></path><path d="M30.367 39.3272L29.9795 44.5938V44.5952L37.3964 46.0775V43.6386L30.3684 39.3123L30.367 39.3272Z" fill="#00C194"></path><path d="M20.0349 39.3123L13.0068 43.6386V46.0775L20.4238 44.5938V44.5925L20.0363 39.3258L20.0349 39.3123Z" fill="#00C194"></path><path d="M24.3891 35.5089L23.5762 45.2645H26.828L26.0151 35.5089H24.3891Z" fill="#00C194"></path><path d="M23.5761 7.05515L21.9502 11.9329C23.5761 10.849 26.828 10.849 28.4539 11.9329L26.828 7.05515C25.744 5.9712 24.6601 5.9712 23.5761 7.05515Z" fill="#00C194"></path><path d="M49.9391 21.8538L47.1872 20.7062V17.827C47.1872 17.3785 46.824 17.014 46.3742 17.014H43.1223C42.6739 17.014 42.3094 17.3785 42.3094 17.827V18.6738L32.3357 14.5182L32.3479 14.2594C32.4617 11.6945 31.9996 9.13637 30.9956 6.77335L28.8237 1.68284C28.783 1.58799 28.7247 1.50127 28.6502 1.42811C27.7356 0.514877 26.4959 0 25.2019 0C23.9079 0 22.6682 0.514877 21.7536 1.42946C21.6804 1.50263 21.6221 1.58935 21.5801 1.68419L19.4082 6.7747C18.4042 9.13772 17.9421 11.6958 18.0559 14.2608L18.0695 14.5344L8.12964 18.6738V17.827C8.12964 17.3785 7.76517 17.014 7.31668 17.014H4.06482C3.61634 17.014 3.25186 17.3785 3.25186 17.827V20.7062L0.499973 21.8538C0.196466 21.9798 0 22.2752 0 22.6031V27.5825C0 28.031 0.364479 28.3955 0.812964 28.3955C0.857678 28.3955 0.902391 28.3914 0.947104 28.3847L18.5735 25.4471L19.2009 39.0751L12.582 43.1508C12.3408 43.2985 12.1945 43.5613 12.1945 43.8432V46.2821C12.1945 46.7305 12.5589 47.095 13.0074 47.095C13.0603 47.095 13.1145 47.0896 13.1673 47.0788L19.8526 45.7428C20.1561 46.6493 20.6032 47.5015 21.1764 48.2657L21.2997 48.4296C22.221 49.6586 23.6668 50.3808 25.2019 50.3808C26.737 50.3808 28.1828 49.6586 29.1041 48.4296L29.2274 48.2657C29.8006 47.5015 30.2477 46.6493 30.5512 45.7428L37.2365 47.0788C37.2893 47.0896 37.3422 47.095 37.3964 47.095C37.8449 47.095 38.2093 46.7305 38.2093 46.2821V43.8432C38.2093 43.5613 38.063 43.2985 37.8218 43.1508L31.2029 39.0751L31.8303 25.4431L49.4906 28.386C49.5353 28.3928 49.58 28.3968 49.6247 28.3968C50.0732 28.3968 50.4377 28.0324 50.4377 27.5839V22.6045C50.439 22.2752 50.2412 21.9798 49.9391 21.8538ZM4.87779 18.6399H6.50372V19.3513L4.87779 20.0287V18.6399ZM1.62593 26.6246V23.1451L18.1494 16.2606L18.4977 23.8117L1.62593 26.6246ZM13.8204 45.2889V44.2957L19.2862 40.93L19.396 43.3093C19.4095 43.5952 19.438 43.877 19.4773 44.1575L13.8204 45.2889ZM30.7219 14.1849L29.3832 43.2348C29.3182 44.7022 28.8101 46.1141 27.928 47.2888L27.8047 47.4527C27.191 48.2711 26.2276 48.7535 25.2033 48.7535C24.1789 48.7535 23.2156 48.2711 22.6018 47.4527L22.4785 47.2888C21.595 46.1154 21.0883 44.7022 21.0233 43.2348L19.6846 14.1849C19.5802 11.8639 19.9976 9.54962 20.9067 7.41153L23.0123 2.47548C24.2534 1.34275 26.1544 1.34275 27.3955 2.47548L29.5011 7.41153C30.4089 9.54962 30.8263 11.8652 30.7219 14.1849ZM36.5834 44.2971V45.2902L30.9265 44.1589C30.9658 43.8784 30.9943 43.5952 31.0078 43.3107L31.1176 40.9314L36.5834 44.2971ZM43.934 18.6399H45.5599V20.0287L43.934 19.3513V18.6399ZM48.8117 26.6246L31.9061 23.8063L32.2544 16.2484L48.8117 23.1465V26.6246Z" fill="#009874"></path><path d="M26.8249 35.6457C26.7897 35.2243 26.4374 34.9005 26.0147 34.9005H24.3887C23.966 34.9005 23.6137 35.2243 23.5785 35.6457L22.7655 45.4013C22.7465 45.6276 22.8238 45.8511 22.9782 46.0192C23.1327 46.1872 23.3481 46.282 23.5758 46.282H26.8276C27.0553 46.282 27.2721 46.1872 27.4252 46.0192C27.5796 45.8525 27.6555 45.6276 27.6379 45.4013L26.8249 35.6457ZM24.4592 44.6547L25.1367 36.5251H25.2667L25.9442 44.6547H24.4592Z" fill="#009874"></path><path d="M27.5982 7.00225C27.5589 6.88302 27.4912 6.77327 27.4018 6.6852C26.0035 5.2869 24.3992 5.2869 23.0009 6.6852C22.9115 6.77462 22.8437 6.88302 22.8044 7.00225L21.1785 11.88C21.0688 12.2093 21.1799 12.5724 21.4563 12.7838C21.7327 12.9938 22.1121 13.006 22.4007 12.8136C23.7624 11.9071 26.6416 11.9071 28.002 12.8136C28.2906 13.006 28.67 12.9938 28.9464 12.7838C29.2228 12.5724 29.3339 12.2106 29.2242 11.88L27.5982 7.00225ZM25.2013 10.5088C24.5537 10.5061 23.9074 10.5793 23.2773 10.7256L24.284 7.70682C24.9412 7.1093 25.4628 7.1093 26.12 7.70682L27.1267 10.7256C26.4953 10.5793 25.849 10.5061 25.2013 10.5088Z" fill="#009874"></path></svg>