<svg xmlns="http://www.w3.org/2000/svg" width="34" height="53" viewBox="0 0 34 53" fill="none"><path d="M22.6532 22.8851C22.6532 26.1736 19.9894 28.8374 16.705 28.8374C13.4206 28.8374 10.7568 26.1722 10.7568 22.8851C10.7568 19.598 13.4206 16.9329 16.705 16.9329C19.9894 16.9329 22.6532 19.598 22.6532 22.8851Z" fill="#00C194"></path><path d="M20.5895 35.772H12.8203V39.5563H20.5895V35.772Z" fill="#00C194"></path><path d="M33.0213 34.2449L26.9132 29.4457L27.3712 26.6423C27.8712 23.8132 27.8956 19.9367 27.4308 17.2106C26.8834 14.0048 25.7304 10.9806 24.0001 8.22463C22.2468 5.43075 19.9895 3.05283 17.2891 1.15455C16.9381 0.907955 16.4707 0.907955 16.1211 1.15455C13.4207 3.05147 11.1634 5.42939 9.4101 8.22328C7.68119 10.9792 6.52678 14.0035 5.97939 17.2092C5.51464 19.9354 5.53903 23.8132 6.03901 26.641L6.49698 29.4444L0.388903 34.2449C0.0420379 34.5173 -0.0893914 34.9807 0.062362 35.3939L4.31146 46.9732C4.4483 47.3458 4.78975 47.6046 5.18539 47.6372C5.21249 47.6399 5.23959 47.6399 5.26669 47.6399C5.63252 47.6399 5.97261 47.442 6.15282 47.1196L9.81387 40.5738H23.5963L27.2574 47.1196C27.4376 47.442 27.7777 47.6399 28.1435 47.6399C28.1706 47.6399 28.1977 47.6385 28.2248 47.6372C28.6204 47.606 28.9619 47.3458 29.0987 46.9732L33.3478 35.3939C33.4996 34.9807 33.3682 34.5173 33.0213 34.2449ZM16.7051 3.24116C19.079 5.02833 21.0721 7.27618 22.5761 9.81534H10.8341C12.3381 7.27753 14.3312 5.02968 16.7051 3.24116ZM7.98199 17.5507C8.31937 15.5711 8.92367 13.6525 9.76238 11.8477H23.6465C24.4852 13.6525 25.0895 15.5711 25.4269 17.5507C25.8564 20.0736 25.8333 23.6696 25.3686 26.2941C25.3672 26.2982 25.3672 26.3023 25.3659 26.3077L23.3673 38.5414H10.0429L8.04432 26.3077C8.04432 26.3023 8.04296 26.2982 8.04161 26.2941C7.57686 23.6696 7.55247 20.0749 7.98199 17.5507ZM5.45774 44.1983L2.22485 35.3871L6.87094 31.7356L8.12697 39.4249L5.45774 44.1983ZM27.9525 44.1983L25.2832 39.4249L26.5393 31.7356L31.1853 35.3871L27.9525 44.1983Z" fill="#009874"></path><path d="M16.7054 41.9966C14.2218 41.9966 12.2002 44.0182 12.2002 46.5045C12.2002 48.7347 15.3491 52.053 15.9791 52.6965C16.1702 52.8903 16.4317 53.0001 16.704 53.0001C16.9764 53.0001 17.2379 52.8903 17.4289 52.6965C18.0603 52.0543 21.2078 48.7347 21.2078 46.5045C21.2106 44.0182 19.189 41.9966 16.7054 41.9966ZM16.7054 50.4866C15.5279 49.1466 14.234 47.3527 14.234 46.5031C14.234 45.1387 15.3423 44.0276 16.7067 44.0276C18.0698 44.0276 19.1795 45.1373 19.1795 46.5031C19.1781 47.3513 17.8828 49.1453 16.7054 50.4866Z" fill="#00C194"></path></svg>