<svg xmlns="http://www.w3.org/2000/svg" width="151" height="150" viewBox="0 0 151 150" fill="none"><path d="M28.0916 133.473C28.6748 133.956 29.3552 134.439 29.9384 134.923L135.695 29.8647C135.209 29.1881 134.723 28.6082 134.237 28.0284L28.0916 133.473Z" fill="#C2E9E0"></path><path d="M53.9475 146.907C54.8223 147.197 55.6971 147.39 56.5719 147.584L148.526 56.1534C148.331 55.2835 148.04 54.4137 147.845 53.5438L53.9475 146.907Z" fill="#C2E9E0"></path><path d="M35.7706 138.885C36.451 139.272 37.1314 139.755 37.909 140.142L140.944 37.6933C140.555 37.0168 140.166 36.2436 139.68 35.567L35.7706 138.885Z" fill="#C2E9E0"></path><path d="M44.3244 143.428C45.102 143.814 45.8796 144.104 46.6573 144.394L145.221 46.4884C144.929 45.7152 144.54 44.942 144.249 44.1688L44.3244 143.428Z" fill="#C2E9E0"></path><path d="M64.7369 149.323C65.709 149.42 66.7782 149.613 67.7502 149.71L150.567 67.3647C150.47 66.3982 150.372 65.335 150.178 64.3686L64.7369 149.323Z" fill="#C2E9E0"></path><path d="M22.065 128.061C22.3566 128.351 22.6482 128.64 22.9398 128.93L129.668 22.8093C129.377 22.5193 129.085 22.2294 128.793 21.9394C128.502 21.6495 128.21 21.3595 127.919 21.0696L21.2874 127.191C21.4818 127.481 21.7734 127.771 22.065 128.061Z" fill="#C2E9E0"></path><path d="M77.0817 150C78.2481 150 79.4145 149.903 80.581 149.807L150.664 80.1224C150.761 78.9626 150.761 77.8028 150.858 76.643L77.0817 150Z" fill="#C2E9E0"></path><path d="M149.012 91.5271L91.9537 148.26C93.5089 147.874 94.967 147.487 96.5222 147.101L147.845 96.0696C148.331 94.5232 148.72 93.0735 149.012 91.5271Z" fill="#C2E9E0"></path><path d="M0.194405 69.8776C0.0972026 71.0374 0 72.1972 0 73.357L73.7768 0C72.6104 0 71.4439 0.0966495 70.2775 0.193299L0.194405 69.8776Z" fill="#C2E9E0"></path><path d="M0.388811 82.732C0.486013 83.6985 0.583216 84.7616 0.777621 85.7281L86.2187 0.773196C85.2467 0.676546 84.1775 0.483247 83.2054 0.386598L0.388811 82.732Z" fill="#C2E9E0"></path><path d="M113.727 139.659C119.073 136.469 124.128 132.603 128.793 128.061C133.362 123.518 137.25 118.492 140.458 113.08L113.727 139.659Z" fill="#C2E9E0"></path><path d="M3.01328 54.0271C2.62447 55.4768 2.23566 57.0232 1.84685 58.5696L58.8076 1.83634C57.2523 2.22294 55.7943 2.60954 54.2391 2.99613L3.01328 54.0271Z" fill="#C2E9E0"></path><path d="M37.1314 10.3415C31.7853 13.5309 26.7307 17.3969 22.065 21.9394C17.3993 26.482 13.6084 31.5077 10.4007 36.9201L37.1314 10.3415Z" fill="#C2E9E0"></path><path d="M10.0119 112.307C10.4007 112.983 10.7895 113.756 11.2755 114.433L115.088 11.1147C114.407 10.7281 113.727 10.2448 112.949 9.85825L10.0119 112.307Z" fill="#C2E9E0"></path><path d="M15.1636 120.232C15.6496 120.909 16.1356 121.488 16.6216 122.068L122.767 16.5271C122.184 16.0438 121.503 15.5606 120.92 15.0773L15.1636 120.232Z" fill="#C2E9E0"></path><path d="M2.33286 93.75C2.52727 94.6198 2.81888 95.4897 3.01328 96.3595L96.911 3.09278C96.0362 2.80284 95.1614 2.60954 94.2865 2.41624L2.33286 93.75Z" fill="#C2E9E0"></path><path d="M5.63775 103.608C5.92936 104.381 6.31817 105.155 6.60978 105.928L106.534 6.66881C105.756 6.28222 104.979 5.99227 104.201 5.70232L5.63775 103.608Z" fill="#C2E9E0"></path></svg>