<svg xmlns="http://www.w3.org/2000/svg" width="408" height="296" viewBox="0 0 408 296" fill="none"><path d="M405.29 186.288H362.766V295.529H360.738V184.268H407.318V295.529H405.29V186.288Z" fill="#C4E4DD"></path><path d="M368.175 278.691H370.203V284.416H368.175V278.691Z" fill="#C4E4DD"></path><path d="M374.259 278.691H376.287V284.416H374.259V278.691Z" fill="#C4E4DD"></path><path d="M380.344 278.691H382.372V284.416H380.344V278.691Z" fill="#C4E4DD"></path><path d="M392.445 278.691H394.473V284.416H392.445V278.691Z" fill="#C4E4DD"></path><path d="M398.529 278.691H400.557V284.416H398.529V278.691Z" fill="#C4E4DD"></path><path d="M374.259 269.936H376.287V275.661H374.259V269.936Z" fill="#C4E4DD"></path><path d="M380.344 269.936H382.372V275.661H380.344V269.936Z" fill="#C4E4DD"></path><path d="M386.36 269.936H388.389V275.661H386.36V269.936Z" fill="#C4E4DD"></path><path d="M392.445 269.936H394.473V275.661H392.445V269.936Z" fill="#C4E4DD"></path><path d="M398.529 269.936H400.557V275.661H398.529V269.936Z" fill="#C4E4DD"></path><path d="M368.175 261.248H370.203V266.972H368.175V261.248Z" fill="#C4E4DD"></path><path d="M374.259 261.248H376.287V266.972H374.259V261.248Z" fill="#C4E4DD"></path><path d="M380.344 261.248H382.372V266.972H380.344V261.248Z" fill="#C4E4DD"></path><path d="M386.36 261.248H388.389V266.972H386.36V261.248Z" fill="#C4E4DD"></path><path d="M368.175 252.492H370.203V258.217H368.175V252.492Z" fill="#C4E4DD"></path><path d="M374.259 252.492H376.287V258.217H374.259V252.492Z" fill="#C4E4DD"></path><path d="M380.344 252.492H382.372V258.217H380.344V252.492Z" fill="#C4E4DD"></path><path d="M386.36 252.492H388.389V258.217H386.36V252.492Z" fill="#C4E4DD"></path><path d="M392.445 252.492H394.473V258.217H392.445V252.492Z" fill="#C4E4DD"></path><path d="M398.529 252.492H400.557V258.217H398.529V252.492Z" fill="#C4E4DD"></path><path d="M368.175 243.737H370.203V249.462H368.175V243.737Z" fill="#C4E4DD"></path><path d="M374.259 243.737H376.287V249.462H374.259V243.737Z" fill="#C4E4DD"></path><path d="M380.344 243.737H382.372V249.462H380.344V243.737Z" fill="#C4E4DD"></path><path d="M386.36 243.737H388.389V249.462H386.36V243.737Z" fill="#C4E4DD"></path><path d="M392.445 243.737H394.473V249.462H392.445V243.737Z" fill="#C4E4DD"></path><path d="M398.529 243.737H400.557V249.462H398.529V243.737Z" fill="#C4E4DD"></path><path d="M368.175 234.982H370.203V240.706H368.175V234.982Z" fill="#C4E4DD"></path><path d="M380.344 234.982H382.372V240.706H380.344V234.982Z" fill="#C4E4DD"></path><path d="M386.36 234.982H388.389V240.706H386.36V234.982Z" fill="#C4E4DD"></path><path d="M392.445 234.982H394.473V240.706H392.445V234.982Z" fill="#C4E4DD"></path><path d="M368.175 226.294H370.203V232.018H368.175V226.294Z" fill="#C4E4DD"></path><path d="M374.259 226.294H376.287V232.018H374.259V226.294Z" fill="#C4E4DD"></path><path d="M380.344 226.294H382.372V232.018H380.344V226.294Z" fill="#C4E4DD"></path><path d="M386.36 226.294H388.389V232.018H386.36V226.294Z" fill="#C4E4DD"></path><path d="M392.445 226.294H394.473V232.018H392.445V226.294Z" fill="#C4E4DD"></path><path d="M368.175 217.538H370.203V223.263H368.175V217.538Z" fill="#C4E4DD"></path><path d="M374.259 217.538H376.287V223.263H374.259V217.538Z" fill="#C4E4DD"></path><path d="M380.344 217.538H382.372V223.263H380.344V217.538Z" fill="#C4E4DD"></path><path d="M386.36 217.538H388.389V223.263H386.36V217.538Z" fill="#C4E4DD"></path><path d="M392.445 217.538H394.473V223.263H392.445V217.538Z" fill="#C4E4DD"></path><path d="M398.529 217.538H400.557V223.263H398.529V217.538Z" fill="#C4E4DD"></path><path d="M368.175 208.783H370.203V214.507H368.175V208.783Z" fill="#C4E4DD"></path><path d="M374.259 208.783H376.287V214.507H374.259V208.783Z" fill="#C4E4DD"></path><path d="M380.344 208.783H382.372V214.507H380.344V208.783Z" fill="#C4E4DD"></path><path d="M386.36 208.783H388.389V214.507H386.36V208.783Z" fill="#C4E4DD"></path><path d="M398.529 208.783H400.557V214.507H398.529V208.783Z" fill="#C4E4DD"></path><path d="M368.175 200.027H370.203V205.752H368.175V200.027Z" fill="#C4E4DD"></path><path d="M380.344 200.027H382.372V205.752H380.344V200.027Z" fill="#C4E4DD"></path><path d="M386.36 200.027H388.389V205.752H386.36V200.027Z" fill="#C4E4DD"></path><path d="M392.445 200.027H394.473V205.752H392.445V200.027Z" fill="#C4E4DD"></path><path d="M398.529 200.027H400.557V205.752H398.529V200.027Z" fill="#C4E4DD"></path><path d="M368.175 191.272H370.203V196.997H368.175V191.272Z" fill="#C4E4DD"></path><path d="M374.259 191.272H376.287V196.997H374.259V191.272Z" fill="#C4E4DD"></path><path d="M386.36 191.272H388.389V196.997H386.36V191.272Z" fill="#C4E4DD"></path><path d="M392.445 191.272H394.473V196.997H392.445V191.272Z" fill="#C4E4DD"></path><path d="M398.529 191.272H400.557V196.997H398.529V191.272Z" fill="#C4E4DD"></path><path d="M362.766 180.967H360.738V142.174L319.161 125.606V248.249H317.133V116.177L312.807 111.598V247.98H310.778V93.4808H304.288V225.283H302.26V91.4603H312.807V108.634L319.161 115.369V123.451L362.766 140.827V180.967Z" fill="#C4E4DD"></path><path d="M339.308 273.438V271.418H356.479V279.028H339.51V277.008H354.451V273.438H339.308Z" fill="#C4E4DD"></path><path d="M339.308 261.989V259.968H356.479V267.646H339.51V265.625H354.451V261.989H339.308Z" fill="#C4E4DD"></path><path d="M325.313 250.607V248.586H356.479V256.197H339.51V254.176H354.451V250.607H325.313Z" fill="#C4E4DD"></path><path d="M356.479 244.747H324.299V237.137H356.479V244.747ZM354.451 239.157H326.328V242.727H354.451V239.157Z" fill="#C4E4DD"></path><path d="M356.479 233.298H324.299V225.687H356.479V233.298ZM354.451 227.708H326.328V231.277H354.451V227.708Z" fill="#C4E4DD"></path><path d="M356.479 221.916H324.299V214.305H356.479V221.916ZM354.451 216.326H326.328V219.895H354.451V216.326Z" fill="#C4E4DD"></path><path d="M356.479 210.466H324.299V202.856H356.479V210.466ZM354.451 204.876H326.328V208.446H354.451V204.876Z" fill="#C4E4DD"></path><path d="M356.479 199.017H324.299V191.407H356.479V199.017ZM354.451 193.427H326.328V196.997H354.451V193.427Z" fill="#C4E4DD"></path><path d="M356.479 187.635H324.299V180.025H356.479V187.635ZM354.451 181.978H326.328V185.547H354.451V181.978Z" fill="#C4E4DD"></path><path d="M356.479 176.186H324.299V168.575H356.479V176.186ZM354.451 170.596H326.328V174.165H354.451V170.596Z" fill="#C4E4DD"></path><path d="M356.479 164.736H324.299V157.126H356.479V164.736ZM354.451 159.146H326.328V162.716H354.451V159.146Z" fill="#C4E4DD"></path><path d="M324.299 145.676H356.479V153.287H324.299V145.676ZM326.328 151.334H354.451V147.764H326.328V151.334Z" fill="#C4E4DD"></path><path d="M230.194 295.529V236.867H262.576V228.516H304.288V248.249H302.26V230.537H264.604V238.888H232.154V295.529H230.194Z" fill="#C4E4DD"></path><path d="M235.602 284.618H264.266V286.638H235.602V284.618Z" fill="#C4E4DD"></path><path d="M235.602 279.904H264.266V281.924H235.602V279.904Z" fill="#C4E4DD"></path><path d="M235.602 275.189H264.266V277.21H235.602V275.189Z" fill="#C4E4DD"></path><path d="M235.602 270.475H264.266V272.495H235.602V270.475Z" fill="#C4E4DD"></path><path d="M235.602 265.76H264.266V267.781H235.602V265.76Z" fill="#C4E4DD"></path><path d="M235.602 261.046H264.266V263.066H235.602V261.046Z" fill="#C4E4DD"></path><path d="M235.602 256.331H264.266V258.352H235.602V256.331Z" fill="#C4E4DD"></path><path d="M235.602 251.617H264.266V253.637H235.602V251.617Z" fill="#C4E4DD"></path><path d="M235.602 246.97H264.266V248.99H235.602V246.97Z" fill="#C4E4DD"></path><path d="M235.602 242.255H264.266V244.276H235.602V242.255Z" fill="#C4E4DD"></path><path d="M268.12 282.059H270.148V286.571H268.12V282.059Z" fill="#C4E4DD"></path><path d="M272.176 282.059H274.204V286.571H272.176V282.059Z" fill="#C4E4DD"></path><path d="M276.232 282.059H278.261V286.571H276.232V282.059Z" fill="#C4E4DD"></path><path d="M280.289 282.059H282.317V286.571H280.289V282.059Z" fill="#C4E4DD"></path><path d="M284.345 282.059H286.373V286.571H284.345V282.059Z" fill="#C4E4DD"></path><path d="M292.39 282.059H294.418V286.571H292.39V282.059Z" fill="#C4E4DD"></path><path d="M296.446 282.059H298.474V286.571H296.446V282.059Z" fill="#C4E4DD"></path><path d="M272.176 275.324H274.204V279.836H272.176V275.324Z" fill="#C4E4DD"></path><path d="M276.232 275.324H278.261V279.836H276.232V275.324Z" fill="#C4E4DD"></path><path d="M280.289 275.324H282.317V279.836H280.289V275.324Z" fill="#C4E4DD"></path><path d="M288.334 275.324H290.362V279.836H288.334V275.324Z" fill="#C4E4DD"></path><path d="M292.39 275.324H294.418V279.836H292.39V275.324Z" fill="#C4E4DD"></path><path d="M296.446 275.324H298.474V279.836H296.446V275.324Z" fill="#C4E4DD"></path><path d="M268.12 268.656H270.148V273.169H268.12V268.656Z" fill="#C4E4DD"></path><path d="M272.176 268.656H274.204V273.169H272.176V268.656Z" fill="#C4E4DD"></path><path d="M276.232 268.656H278.261V273.169H276.232V268.656Z" fill="#C4E4DD"></path><path d="M280.289 268.656H282.317V273.169H280.289V268.656Z" fill="#C4E4DD"></path><path d="M284.345 268.656H286.373V273.169H284.345V268.656Z" fill="#C4E4DD"></path><path d="M292.39 268.656H294.418V273.169H292.39V268.656Z" fill="#C4E4DD"></path><path d="M296.446 268.656H298.474V273.169H296.446V268.656Z" fill="#C4E4DD"></path><path d="M268.12 261.921H270.148V266.434H268.12V261.921Z" fill="#C4E4DD"></path><path d="M272.176 261.921H274.204V266.434H272.176V261.921Z" fill="#C4E4DD"></path><path d="M276.232 261.921H278.261V266.434H276.232V261.921Z" fill="#C4E4DD"></path><path d="M284.345 261.921H286.373V266.434H284.345V261.921Z" fill="#C4E4DD"></path><path d="M288.334 261.921H290.362V266.434H288.334V261.921Z" fill="#C4E4DD"></path><path d="M292.39 261.921H294.418V266.434H292.39V261.921Z" fill="#C4E4DD"></path><path d="M268.12 255.186H270.148V259.699H268.12V255.186Z" fill="#C4E4DD"></path><path d="M272.176 255.186H274.204V259.699H272.176V255.186Z" fill="#C4E4DD"></path><path d="M276.232 255.186H278.261V259.699H276.232V255.186Z" fill="#C4E4DD"></path><path d="M280.289 255.186H282.317V259.699H280.289V255.186Z" fill="#C4E4DD"></path><path d="M284.345 255.186H286.373V259.699H284.345V255.186Z" fill="#C4E4DD"></path><path d="M288.334 255.186H290.362V259.699H288.334V255.186Z" fill="#C4E4DD"></path><path d="M292.39 255.186H294.418V259.699H292.39V255.186Z" fill="#C4E4DD"></path><path d="M296.446 255.186H298.474V259.699H296.446V255.186Z" fill="#C4E4DD"></path><path d="M268.12 248.451H270.148V252.964H268.12V248.451Z" fill="#C4E4DD"></path><path d="M272.176 248.451H274.204V252.964H272.176V248.451Z" fill="#C4E4DD"></path><path d="M276.232 248.451H278.261V252.964H276.232V248.451Z" fill="#C4E4DD"></path><path d="M280.289 248.451H282.317V252.964H280.289V248.451Z" fill="#C4E4DD"></path><path d="M284.345 248.451H286.373V252.964H284.345V248.451Z" fill="#C4E4DD"></path><path d="M288.334 248.451H290.362V252.964H288.334V248.451Z" fill="#C4E4DD"></path><path d="M292.39 248.451H294.418V252.964H292.39V248.451Z" fill="#C4E4DD"></path><path d="M296.446 248.451H298.474V252.964H296.446V248.451Z" fill="#C4E4DD"></path><path d="M268.12 241.716H270.148V246.229H268.12V241.716Z" fill="#C4E4DD"></path><path d="M272.176 241.716H274.204V246.229H272.176V241.716Z" fill="#C4E4DD"></path><path d="M276.232 241.716H278.261V246.229H276.232V241.716Z" fill="#C4E4DD"></path><path d="M280.289 241.716H282.317V246.229H280.289V241.716Z" fill="#C4E4DD"></path><path d="M284.345 241.716H286.373V246.229H284.345V241.716Z" fill="#C4E4DD"></path><path d="M288.334 241.716H290.362V246.229H288.334V241.716Z" fill="#C4E4DD"></path><path d="M296.446 241.716H298.474V246.229H296.446V241.716Z" fill="#C4E4DD"></path><path d="M268.12 234.982H270.148V239.494H268.12V234.982Z" fill="#C4E4DD"></path><path d="M276.232 234.982H278.261V239.494H276.232V234.982Z" fill="#C4E4DD"></path><path d="M284.345 234.982H286.373V239.494H284.345V234.982Z" fill="#C4E4DD"></path><path d="M288.334 234.982H290.362V239.494H288.334V234.982Z" fill="#C4E4DD"></path><path d="M292.39 234.982H294.418V239.494H292.39V234.982Z" fill="#C4E4DD"></path><path d="M296.446 234.982H298.474V239.494H296.446V234.982Z" fill="#C4E4DD"></path><path d="M288.401 134.901L283.669 133.621V225.283H281.641V133.015L276.909 131.668V225.283H274.88V131.129L270.216 129.782V225.283H268.188V129.243L263.455 127.896V225.283H261.427V127.357L254.802 125.472V150.526H241.957V93.144L221.608 84.9948H206.194V225.149H204.166V79.2701H206.194V82.9743H222.014L243.985 91.797V148.505H252.774V122.778L290.362 133.419V225.283H288.401V134.901Z" fill="#C4E4DD"></path><path d="M241.619 229.661H254.802V231.681H241.619V229.661Z" fill="#C4E4DD"></path><path d="M241.619 224.273H254.802V226.294H241.619V224.273Z" fill="#C4E4DD"></path><path d="M241.619 218.885H254.802V220.906H241.619V218.885Z" fill="#C4E4DD"></path><path d="M241.619 213.497H254.802V215.518H241.619V213.497Z" fill="#C4E4DD"></path><path d="M241.619 208.109H254.802V210.13H241.619V208.109Z" fill="#C4E4DD"></path><path d="M241.619 202.721H254.802V204.742H241.619V202.721Z" fill="#C4E4DD"></path><path d="M241.619 197.333H254.802V199.354H241.619V197.333Z" fill="#C4E4DD"></path><path d="M241.619 191.945H254.802V193.966H241.619V191.945Z" fill="#C4E4DD"></path><path d="M241.619 186.625H254.802V188.645H241.619V186.625Z" fill="#C4E4DD"></path><path d="M241.619 181.237H254.802V183.257H241.619V181.237Z" fill="#C4E4DD"></path><path d="M241.619 175.849H254.802V177.869H241.619V175.849Z" fill="#C4E4DD"></path><path d="M241.619 170.461H254.802V172.481H241.619V170.461Z" fill="#C4E4DD"></path><path d="M241.619 165.073H254.802V167.094H241.619V165.073Z" fill="#C4E4DD"></path><path d="M241.619 159.685H254.802V161.706H241.619V159.685Z" fill="#C4E4DD"></path><path d="M241.619 154.297H254.802V156.318H241.619V154.297Z" fill="#C4E4DD"></path><path d="M159.615 295.529V228.516H224.447V295.529H222.419V230.537H161.643V295.529H159.615Z" fill="#C4E4DD"></path><path d="M218.093 277.614V284.618H166.172V282.598H216.132V277.614H218.093Z" fill="#C4E4DD"></path><path d="M166.172 272.495H216.132V267.511H218.093V274.516H166.172V272.495Z" fill="#C4E4DD"></path><path d="M166.172 262.393H216.132V257.476H218.093V264.413H166.172V262.393Z" fill="#C4E4DD"></path><path d="M166.172 252.29H216.132V247.374H218.093V254.311H166.172V252.29Z" fill="#C4E4DD"></path><path d="M166.172 242.255H216.132V237.271H218.093V244.276H166.172V242.255Z" fill="#C4E4DD"></path><path d="M212.279 217.201H236.549V223.263H234.52V219.222H212.279V217.201Z" fill="#C4E4DD"></path><path d="M236.549 214.507H234.52V210.466H212.279V208.446H236.549V214.507Z" fill="#C4E4DD"></path><path d="M236.549 205.752H234.52V201.711H212.279V199.691H236.549V205.752Z" fill="#C4E4DD"></path><path d="M236.549 196.997H234.52V192.956H212.279V191.003H236.549V196.997Z" fill="#C4E4DD"></path><path d="M236.549 188.309H234.52V184.268H212.279V182.247H236.549V188.309Z" fill="#C4E4DD"></path><path d="M236.549 179.553H234.52V175.512H212.279V173.492H236.549V179.553Z" fill="#C4E4DD"></path><path d="M236.549 170.798H234.52V166.757H212.279V164.736H236.549V170.798Z" fill="#C4E4DD"></path><path d="M236.549 162.042H234.52V158.001H212.279V155.981H236.549V162.042Z" fill="#C4E4DD"></path><path d="M236.549 153.287H234.52V149.313H212.279V147.293H236.549V153.287Z" fill="#C4E4DD"></path><path d="M236.549 144.599H234.52V140.558H212.279V138.537H236.549V144.599Z" fill="#C4E4DD"></path><path d="M236.549 135.843H234.52V131.803H212.279V129.782H236.549V135.843Z" fill="#C4E4DD"></path><path d="M236.549 127.088H234.52V123.047H212.279V121.027H236.549V127.088Z" fill="#C4E4DD"></path><path d="M236.549 118.333H234.52V114.292H212.279V112.339H236.549V118.333Z" fill="#C4E4DD"></path><path d="M236.549 109.645H234.52V105.604H212.279V103.583H236.549V109.645Z" fill="#C4E4DD"></path><path d="M212.279 96.8482V94.8278H236.549V100.889H234.52V96.8482H212.279Z" fill="#C4E4DD"></path><path d="M192.673 225.283H190.645V143.05H125.88V243.939H123.852V141.029H192.673V225.283Z" fill="#C4E4DD"></path><path d="M148.325 281.991H153.665V284.012H148.325V281.991Z" fill="#C4E4DD"></path><path d="M147.648 275.93H153.665V277.95H147.648V275.93Z" fill="#C4E4DD"></path><path d="M147.648 269.868H153.665V271.889H147.648V269.868Z" fill="#C4E4DD"></path><path d="M147.987 257.746H153.665V259.766H147.987V257.746Z" fill="#C4E4DD"></path><path d="M147.648 251.684H153.665V253.705H147.648V251.684Z" fill="#C4E4DD"></path><path d="M132.099 239.629H153.665V241.649H132.099V239.629Z" fill="#C4E4DD"></path><path d="M132.099 233.567H153.665V235.588H132.099V233.567Z" fill="#C4E4DD"></path><path d="M132.099 227.506H153.665V229.526H132.099V227.506Z" fill="#C4E4DD"></path><path d="M132.099 221.444H185.169V223.465H132.099V221.444Z" fill="#C4E4DD"></path><path d="M132.099 215.383H185.169V217.403H132.099V215.383Z" fill="#C4E4DD"></path><path d="M132.099 203.327H185.169V205.348H132.099V203.327Z" fill="#C4E4DD"></path><path d="M132.099 197.266H185.169V199.286H132.099V197.266Z" fill="#C4E4DD"></path><path d="M132.099 191.205H185.169V193.225H132.099V191.205Z" fill="#C4E4DD"></path><path d="M132.099 185.143H185.169V187.164H132.099V185.143Z" fill="#C4E4DD"></path><path d="M132.099 173.02H185.169V175.041H132.099V173.02Z" fill="#C4E4DD"></path><path d="M132.099 166.959H185.169V168.979H132.099V166.959Z" fill="#C4E4DD"></path><path d="M132.099 160.965H185.169V162.985H132.099V160.965Z" fill="#C4E4DD"></path><path d="M132.099 148.842H185.169V150.862H132.099V148.842Z" fill="#C4E4DD"></path><path d="M157.248 107.691L131.829 93.4808H108.37V50.4446H88.0888V69.3697H86.0607V48.4241H110.398V91.4603H132.37L159.276 106.479V139.548H157.248V107.691Z" fill="#C4E4DD"></path><path d="M92.8211 274.852H94.8493V283.608H92.8211V274.852Z" fill="#C4E4DD"></path><path d="M98.9055 274.852H100.934V283.608H98.9055V274.852Z" fill="#C4E4DD"></path><path d="M92.8211 263.672H94.8493V272.428H92.8211V263.672Z" fill="#C4E4DD"></path><path d="M98.9055 263.672H100.934V272.428H98.9055V263.672Z" fill="#C4E4DD"></path><path d="M92.8211 252.492H94.8493V261.248H92.8211V252.492Z" fill="#C4E4DD"></path><path d="M98.9055 252.492H100.934V261.248H98.9055V252.492Z" fill="#C4E4DD"></path><path d="M92.8211 241.312H94.8493V250.068H92.8211V241.312Z" fill="#C4E4DD"></path><path d="M98.9055 241.312H100.934V250.068H98.9055V241.312Z" fill="#C4E4DD"></path><path d="M104.99 241.312H107.018V250.068H104.99V241.312Z" fill="#C4E4DD"></path><path d="M92.8211 230.2H94.8493V238.955H92.8211V230.2Z" fill="#C4E4DD"></path><path d="M98.9055 230.2H100.934V238.955H98.9055V230.2Z" fill="#C4E4DD"></path><path d="M104.99 230.2H107.018V238.955H104.99V230.2Z" fill="#C4E4DD"></path><path d="M111.007 230.2H113.035V238.955H111.007V230.2Z" fill="#C4E4DD"></path><path d="M117.091 230.2H119.119V238.955H117.091V230.2Z" fill="#C4E4DD"></path><path d="M92.8211 219.02H94.8493V227.775H92.8211V219.02Z" fill="#C4E4DD"></path><path d="M98.9055 219.02H100.934V227.775H98.9055V219.02Z" fill="#C4E4DD"></path><path d="M104.99 219.02H107.018V227.775H104.99V219.02Z" fill="#C4E4DD"></path><path d="M111.007 219.02H113.035V227.775H111.007V219.02Z" fill="#C4E4DD"></path><path d="M117.091 219.02H119.119V227.775H117.091V219.02Z" fill="#C4E4DD"></path><path d="M92.8211 207.84H94.8493V216.595H92.8211V207.84Z" fill="#C4E4DD"></path><path d="M98.9055 207.84H100.934V216.595H98.9055V207.84Z" fill="#C4E4DD"></path><path d="M104.99 207.84H107.018V216.595H104.99V207.84Z" fill="#C4E4DD"></path><path d="M111.007 207.84H113.035V216.595H111.007V207.84Z" fill="#C4E4DD"></path><path d="M117.091 207.84H119.119V216.595H117.091V207.84Z" fill="#C4E4DD"></path><path d="M92.8211 196.66H94.8493V205.415H92.8211V196.66Z" fill="#C4E4DD"></path><path d="M98.9055 196.66H100.934V205.415H98.9055V196.66Z" fill="#C4E4DD"></path><path d="M104.99 196.66H107.018V205.415H104.99V196.66Z" fill="#C4E4DD"></path><path d="M111.007 196.66H113.035V205.415H111.007V196.66Z" fill="#C4E4DD"></path><path d="M117.091 196.66H119.119V205.415H117.091V196.66Z" fill="#C4E4DD"></path><path d="M92.8211 185.547H94.8493V194.303H92.8211V185.547Z" fill="#C4E4DD"></path><path d="M98.9055 185.547H100.934V194.303H98.9055V185.547Z" fill="#C4E4DD"></path><path d="M104.99 185.547H107.018V194.303H104.99V185.547Z" fill="#C4E4DD"></path><path d="M111.007 185.547H113.035V194.303H111.007V185.547Z" fill="#C4E4DD"></path><path d="M117.091 185.547H119.119V194.303H117.091V185.547Z" fill="#C4E4DD"></path><path d="M92.8211 174.367H94.8493V183.123H92.8211V174.367Z" fill="#C4E4DD"></path><path d="M98.9055 174.367H100.934V183.123H98.9055V174.367Z" fill="#C4E4DD"></path><path d="M104.99 174.367H107.018V183.123H104.99V174.367Z" fill="#C4E4DD"></path><path d="M111.007 174.367H113.035V183.123H111.007V174.367Z" fill="#C4E4DD"></path><path d="M117.091 174.367H119.119V183.123H117.091V174.367Z" fill="#C4E4DD"></path><path d="M92.8211 163.187H94.8493V171.943H92.8211V163.187Z" fill="#C4E4DD"></path><path d="M98.9055 163.187H100.934V171.943H98.9055V163.187Z" fill="#C4E4DD"></path><path d="M104.99 163.187H107.018V171.943H104.99V163.187Z" fill="#C4E4DD"></path><path d="M111.007 163.187H113.035V171.943H111.007V163.187Z" fill="#C4E4DD"></path><path d="M117.091 163.187H119.119V171.943H117.091V163.187Z" fill="#C4E4DD"></path><path d="M92.8211 152.075H94.8493V160.83H92.8211V152.075Z" fill="#C4E4DD"></path><path d="M98.9055 152.075H100.934V160.83H98.9055V152.075Z" fill="#C4E4DD"></path><path d="M104.99 152.075H107.018V160.83H104.99V152.075Z" fill="#C4E4DD"></path><path d="M111.007 152.075H113.035V160.83H111.007V152.075Z" fill="#C4E4DD"></path><path d="M117.091 152.075H119.119V160.83H117.091V152.075Z" fill="#C4E4DD"></path><path d="M92.8211 140.895H94.8493V149.65H92.8211V140.895Z" fill="#C4E4DD"></path><path d="M98.9055 140.895H100.934V149.65H98.9055V140.895Z" fill="#C4E4DD"></path><path d="M104.99 140.895H107.018V149.65H104.99V140.895Z" fill="#C4E4DD"></path><path d="M111.007 140.895H113.035V149.65H111.007V140.895Z" fill="#C4E4DD"></path><path d="M117.091 140.895H119.119V149.65H117.091V140.895Z" fill="#C4E4DD"></path><path d="M56.1794 295.529V75.2965H100.934V132.274H98.9055V77.317H88.0888V295.529H86.0607V77.317H58.2075V295.529H56.1794Z" fill="#C4E4DD"></path><path d="M82.8833 279.567H80.8551V276.334H62.9399V274.314H82.8833V279.567Z" fill="#C4E4DD"></path><path d="M62.9399 266.299H82.8833V271.485H80.8551V268.319H62.9399V266.299Z" fill="#C4E4DD"></path><path d="M62.9399 258.217H82.8833V263.403H80.8551V260.238H62.9399V258.217Z" fill="#C4E4DD"></path><path d="M62.9399 250.135H82.8833V255.321H80.8551V252.156H62.9399V250.135Z" fill="#C4E4DD"></path><path d="M62.9399 242.053H82.8833V247.306H80.8551V244.074H62.9399V242.053Z" fill="#C4E4DD"></path><path d="M62.9399 233.971H82.8833V239.225H80.8551V235.992H62.9399V233.971Z" fill="#C4E4DD"></path><path d="M62.9399 225.957H82.8833V231.143H80.8551V227.977H62.9399V225.957Z" fill="#C4E4DD"></path><path d="M62.9399 217.875H82.8833V223.061H80.8551V219.895H62.9399V217.875Z" fill="#C4E4DD"></path><path d="M62.9399 209.793H82.8833V214.979H80.8551V211.813H62.9399V209.793Z" fill="#C4E4DD"></path><path d="M62.9399 201.711H82.8833V206.964H80.8551V203.732H62.9399V201.711Z" fill="#C4E4DD"></path><path d="M62.9399 193.629H82.8833V198.882H80.8551V195.65H62.9399V193.629Z" fill="#C4E4DD"></path><path d="M62.9399 185.615H82.8833V190.8H80.8551V187.635H62.9399V185.615Z" fill="#C4E4DD"></path><path d="M62.9399 177.533H82.8833V182.719H80.8551V179.553H62.9399V177.533Z" fill="#C4E4DD"></path><path d="M62.9399 169.451H82.8833V174.637H80.8551V171.471H62.9399V169.451Z" fill="#C4E4DD"></path><path d="M62.9399 161.369H82.8833V166.622H80.8551V163.389H62.9399V161.369Z" fill="#C4E4DD"></path><path d="M62.9399 153.287H82.8833V158.54H80.8551V155.307H62.9399V153.287Z" fill="#C4E4DD"></path><path d="M62.9399 145.272H82.8833V150.458H80.8551V147.293H62.9399V145.272Z" fill="#C4E4DD"></path><path d="M62.9399 137.19H82.8833V142.376H80.8551V139.211H62.9399V137.19Z" fill="#C4E4DD"></path><path d="M62.9399 129.109H82.8833V134.294H80.8551V131.129H62.9399V129.109Z" fill="#C4E4DD"></path><path d="M62.9399 121.027H82.8833V126.28H80.8551V123.047H62.9399V121.027Z" fill="#C4E4DD"></path><path d="M62.9399 113.012H82.8833V118.198H80.8551V114.965H62.9399V113.012Z" fill="#C4E4DD"></path><path d="M62.9399 104.93H82.8833V110.116H80.8551V106.951H62.9399V104.93Z" fill="#C4E4DD"></path><path d="M62.9399 96.8482H82.8833V102.034H80.8551V98.8687H62.9399V96.8482Z" fill="#C4E4DD"></path><path d="M62.9399 88.7663H82.8833V93.9522H80.8551V90.7868H62.9399V88.7663Z" fill="#C4E4DD"></path><path d="M62.9399 80.6844H82.8833V85.9377H80.8551V82.7049H62.9399V80.6844Z" fill="#C4E4DD"></path><path d="M2.02811 162.783L46.5119 138.942V114.426H48.5401V258.015H46.5119V141.231L2.02811 165.073V295.529H-3.17991e-05" fill="#C4E4DD"></path><path d="M7.16604 272.091H9.19418V283.406H7.16604V272.091Z" fill="#C4E4DD"></path><path d="M7.16604 257.476H9.19418V268.791H7.16604V257.476Z" fill="#C4E4DD"></path><path d="M7.16604 242.929H9.19418V254.243H7.16604V242.929Z" fill="#C4E4DD"></path><path d="M7.16604 228.381H9.19418V239.696H7.16604V228.381Z" fill="#C4E4DD"></path><path d="M7.16604 213.767H9.19418V225.081H7.16604V213.767Z" fill="#C4E4DD"></path><path d="M7.16604 199.219H9.19418V210.534H7.16604V199.219Z" fill="#C4E4DD"></path><path d="M7.16604 184.672H9.19418V195.986H7.16604V184.672Z" fill="#C4E4DD"></path><path d="M7.16604 170.057H9.19418V181.372H7.16604V170.057Z" fill="#C4E4DD"></path><path d="M12.5744 272.091H14.6026V283.406H12.5744V272.091Z" fill="#C4E4DD"></path><path d="M12.5744 257.476H14.6026V268.791H12.5744V257.476Z" fill="#C4E4DD"></path><path d="M12.5744 242.929H14.6026V254.243H12.5744V242.929Z" fill="#C4E4DD"></path><path d="M12.5744 228.381H14.6026V239.696H12.5744V228.381Z" fill="#C4E4DD"></path><path d="M12.5744 213.767H14.6026V225.081H12.5744V213.767Z" fill="#C4E4DD"></path><path d="M12.5744 199.219H14.6026V210.534H12.5744V199.219Z" fill="#C4E4DD"></path><path d="M12.5744 184.672H14.6026V195.986H12.5744V184.672Z" fill="#C4E4DD"></path><path d="M12.5744 170.057H14.6026V181.372H12.5744V170.057Z" fill="#C4E4DD"></path><path d="M17.9152 272.091H19.9433V283.406H17.9152V272.091Z" fill="#C4E4DD"></path><path d="M17.9152 257.476H19.9433V268.791H17.9152V257.476Z" fill="#C4E4DD"></path><path d="M17.9152 242.929H19.9433V254.243H17.9152V242.929Z" fill="#C4E4DD"></path><path d="M17.9152 228.381H19.9433V239.696H17.9152V228.381Z" fill="#C4E4DD"></path><path d="M17.9152 199.219H19.9433V210.534H17.9152V199.219Z" fill="#C4E4DD"></path><path d="M17.9152 170.057H19.9433V181.372H17.9152V170.057Z" fill="#C4E4DD"></path><path d="M23.3236 272.091H25.3517V283.406H23.3236V272.091Z" fill="#C4E4DD"></path><path d="M23.3236 257.476H25.3517V268.791H23.3236V257.476Z" fill="#C4E4DD"></path><path d="M23.3236 228.381H25.3517V239.696H23.3236V228.381Z" fill="#C4E4DD"></path><path d="M23.3236 213.767H25.3517V225.081H23.3236V213.767Z" fill="#C4E4DD"></path><path d="M23.3236 199.219H25.3517V210.534H23.3236V199.219Z" fill="#C4E4DD"></path><path d="M23.3236 184.672H25.3517V195.986H23.3236V184.672Z" fill="#C4E4DD"></path><path d="M23.3236 170.057H25.3517V181.372H23.3236V170.057Z" fill="#C4E4DD"></path><path d="M28.7319 272.091H30.7601V283.406H28.7319V272.091Z" fill="#C4E4DD"></path><path d="M28.7319 257.476H30.7601V268.791H28.7319V257.476Z" fill="#C4E4DD"></path><path d="M28.7319 242.929H30.7601V254.243H28.7319V242.929Z" fill="#C4E4DD"></path><path d="M28.7319 228.381H30.7601V239.696H28.7319V228.381Z" fill="#C4E4DD"></path><path d="M28.7319 213.767H30.7601V225.081H28.7319V213.767Z" fill="#C4E4DD"></path><path d="M28.7319 199.219H30.7601V210.534H28.7319V199.219Z" fill="#C4E4DD"></path><path d="M28.7319 184.672H30.7601V195.986H28.7319V184.672Z" fill="#C4E4DD"></path><path d="M34.1403 257.476H36.1684V268.791H34.1403V257.476Z" fill="#C4E4DD"></path><path d="M34.1403 228.381H36.1684V239.696H34.1403V228.381Z" fill="#C4E4DD"></path><path d="M34.1403 213.767H36.1684V225.081H34.1403V213.767Z" fill="#C4E4DD"></path><path d="M34.1403 184.672H36.1684V195.986H34.1403V184.672Z" fill="#C4E4DD"></path><path d="M34.1403 170.057H36.1684V181.372H34.1403V170.057Z" fill="#C4E4DD"></path><path d="M39.5487 242.929H41.5768V254.243H39.5487V242.929Z" fill="#C4E4DD"></path><path d="M39.5487 228.381H41.5768V239.696H39.5487V228.381Z" fill="#C4E4DD"></path><path d="M39.5487 213.767H41.5768V225.081H39.5487V213.767Z" fill="#C4E4DD"></path><path d="M39.5487 199.219H41.5768V210.534H39.5487V199.219Z" fill="#C4E4DD"></path><path d="M39.5487 184.672H41.5768V195.986H39.5487V184.672Z" fill="#C4E4DD"></path><path d="M39.5487 170.057H41.5768V181.372H39.5487V170.057Z" fill="#C4E4DD"></path><path d="M39.5487 155.509H41.5768V166.824H39.5487V155.509Z" fill="#C4E4DD"></path><path d="M117.7 295.798V283.608C111.412 283.069 106.477 277.883 106.477 271.485C106.477 268.117 107.829 264.952 110.263 262.662C108.979 260.911 108.235 258.756 108.235 256.533C108.235 250.809 112.9 246.162 118.646 246.162C123.784 246.162 128.043 249.866 128.922 254.782C130.477 253.503 132.505 252.762 134.668 252.762C139.671 252.762 143.795 256.803 143.795 261.854C143.795 263.74 143.187 265.558 142.105 267.107C144.201 269.128 145.35 271.822 145.35 274.718C145.35 280.24 141.091 284.753 135.682 285.291V295.663H133.654V285.291C130.612 285.022 127.976 283.406 126.218 281.116C124.325 282.597 122.094 283.473 119.728 283.608V295.798H117.7ZM133.654 283.204V279.567L129.395 275.324L130.815 273.909L133.654 276.738V271.283H135.682V273.101L138.86 269.936L140.28 271.35L135.615 275.997V283.271C139.874 282.8 143.254 279.163 143.254 274.718C143.254 272.091 142.105 269.666 140.009 267.983L139.198 267.309L139.874 266.501C141.023 265.221 141.699 263.538 141.699 261.787C141.699 257.88 138.522 254.715 134.601 254.715C130.68 254.715 127.502 257.88 127.502 261.787C127.502 263.538 128.111 265.154 129.328 266.501L130.071 267.309L129.26 267.983C127.232 269.599 126.015 272.091 126.015 274.718C126.015 279.095 129.395 282.732 133.654 283.204ZM125.136 279.365C124.46 277.95 123.987 276.334 123.987 274.65C123.987 271.754 125.136 269.06 127.232 267.04C126.15 265.491 125.542 263.672 125.542 261.787C125.542 259.968 126.083 258.217 127.029 256.803C127.029 256.735 127.029 256.601 127.029 256.533C127.029 251.954 123.243 248.182 118.646 248.182C114.049 248.182 110.263 251.954 110.263 256.533C110.263 258.554 111.007 260.574 112.426 262.123L113.103 262.932L112.291 263.605C109.857 265.558 108.438 268.454 108.438 271.552C108.438 276.805 112.494 281.183 117.632 281.655V277.21L112.629 272.226L114.049 270.811L117.632 274.381V267.646H119.66V270.138L123.649 266.164L125.069 267.579L119.66 272.967V281.655C121.688 281.385 123.581 280.644 125.136 279.365Z" fill="#C4E4DD"></path><path d="M114.117 256.533H112.088C112.088 255.456 112.359 254.446 112.832 253.503L114.657 254.446C114.252 255.119 114.117 255.792 114.117 256.533Z" fill="#C4E4DD"></path><path d="M114.319 251.617C115.536 250.539 117.091 250 118.714 250V252.021C117.564 252.021 116.55 252.425 115.671 253.166L114.319 251.617Z" fill="#C4E4DD"></path><path d="M129.463 259.093L131.288 260.036C131.018 260.574 130.883 261.18 130.883 261.787H128.854C128.787 260.911 129.057 259.968 129.463 259.093Z" fill="#C4E4DD"></path><path d="M134.668 255.995V258.015C133.722 258.015 132.843 258.352 132.167 258.958L130.815 257.409C131.897 256.533 133.249 255.995 134.668 255.995Z" fill="#C4E4DD"></path><path d="M311.184 284.887C305.505 284.349 300.976 279.567 300.976 273.775C300.976 270.744 302.193 267.848 304.424 265.76C303.274 264.144 302.598 262.191 302.598 260.238C302.598 254.984 306.925 250.674 312.198 250.674C316.863 250.674 320.784 254.041 321.595 258.419C323.015 257.342 324.773 256.668 326.733 256.668C331.33 256.668 335.116 260.44 335.116 265.019C335.116 266.703 334.575 268.387 333.629 269.801C335.522 271.62 336.536 274.111 336.536 276.738C336.536 281.789 332.682 285.965 327.747 286.436V295.798H325.719V286.436C323.015 286.167 320.581 284.753 319.026 282.732C317.336 284.012 315.376 284.82 313.212 285.022V296H311.184V284.887ZM325.719 284.349V281.183L321.866 277.344L323.285 275.93L325.719 278.354V273.573H327.747V274.987L330.519 272.226L331.939 273.64L327.747 277.816V284.281C331.533 283.81 334.508 280.51 334.508 276.603C334.508 274.246 333.426 272.024 331.601 270.542L330.789 269.868L331.465 269.06C332.48 267.915 333.088 266.434 333.088 264.885C333.088 261.382 330.249 258.554 326.733 258.554C323.218 258.554 320.378 261.382 320.378 264.885C320.378 266.434 320.919 267.915 322.001 269.06L322.744 269.868L321.933 270.542C320.108 272.024 319.026 274.246 319.026 276.603C318.959 280.577 321.933 283.81 325.719 284.349ZM317.945 280.914C317.336 279.634 316.93 278.22 316.93 276.671C316.93 274.044 318.012 271.552 319.837 269.734C318.891 268.319 318.35 266.703 318.35 264.952C318.35 263.268 318.891 261.719 319.702 260.372C319.702 260.305 319.702 260.238 319.702 260.17C319.702 255.995 316.322 252.627 312.131 252.627C307.939 252.627 304.559 255.995 304.559 260.17C304.559 261.989 305.235 263.807 306.452 265.154L307.128 265.962L306.317 266.636C304.153 268.387 302.869 271.013 302.869 273.775C302.869 278.489 306.452 282.395 311.049 282.867V278.961L306.519 274.448L307.939 273.034L311.049 276.132V270.205H313.077V272.293L316.592 268.791L318.012 270.205L313.077 275.122V282.867C314.97 282.665 316.592 281.991 317.945 280.914Z" fill="#C4E4DD"></path><path d="M308.142 260.17H306.114C306.114 259.16 306.384 258.217 306.79 257.342L308.615 258.284C308.277 258.891 308.142 259.497 308.142 260.17Z" fill="#C4E4DD"></path><path d="M308.142 255.59C309.291 254.58 310.711 254.041 312.198 254.041V256.062C311.184 256.062 310.238 256.399 309.494 257.072L308.142 255.59Z" fill="#C4E4DD"></path><path d="M321.933 262.46L323.759 263.403C323.488 263.874 323.353 264.413 323.353 264.952H321.325C321.325 264.076 321.528 263.201 321.933 262.46Z" fill="#C4E4DD"></path><path d="M326.733 259.564V261.585C325.922 261.585 325.111 261.854 324.502 262.393L323.15 260.911C324.164 260.035 325.449 259.564 326.733 259.564Z" fill="#C4E4DD"></path><path d="M49.6894 269.936C50.771 269.936 51.7175 270.34 52.4611 271.081C53.2048 271.822 53.6104 272.832 53.6104 273.842C53.6104 274.92 53.2048 275.863 52.4611 276.603C51.7175 277.344 50.7034 277.748 49.6894 277.748C48.6077 277.748 47.6612 277.344 46.9176 276.603C46.1739 275.863 45.7683 274.852 45.7683 273.842C45.7683 272.765 46.1739 271.822 46.9176 271.081C47.6612 270.34 48.6753 269.936 49.6894 269.936ZM48.3373 275.189C49.0809 275.93 50.2978 275.93 51.0415 275.189C51.3795 274.852 51.5823 274.381 51.5823 273.842C51.5823 273.303 51.3795 272.832 51.0415 272.495C50.7034 272.158 50.2302 271.956 49.6894 271.956C49.1485 271.956 48.6753 272.158 48.3373 272.495C47.9993 272.832 47.7965 273.303 47.7965 273.842C47.7965 274.381 47.9993 274.852 48.3373 275.189Z" fill="#C4E4DD"></path><path d="M38.7374 295.394V284.887C38.7374 283.608 39.5487 282.53 40.698 282.059V266.568C40.698 263.807 42.9289 261.585 45.7007 261.585C48.4725 261.585 50.7034 263.807 50.7034 266.568V266.77C51.9203 266.972 53.0696 267.511 53.9485 268.454L52.5288 269.868C50.9739 268.319 48.4049 268.319 46.85 269.868L45.4303 268.454C46.3768 267.511 47.526 266.972 48.6753 266.77V266.568C48.6753 264.952 47.3232 263.605 45.7007 263.605C44.0782 263.605 42.7261 264.952 42.7261 266.568V282.059C43.8754 282.463 44.6866 283.54 44.6866 284.887V295.394H42.6585V284.887C42.6585 284.349 42.2529 283.944 41.712 283.944C41.1712 283.944 40.7656 284.349 40.7656 284.887V295.394H38.7374Z" fill="#C4E4DD"></path><path d="M214.239 62.5675C217.89 62.5675 220.932 65.2614 221.405 68.7636H225.529C226.07 68.7636 226.543 69.235 226.543 69.7738C226.543 70.3126 226.07 70.7841 225.529 70.7841H220.459C219.918 70.7841 219.445 70.3126 219.445 69.7738C219.445 66.8778 217.078 64.5879 214.239 64.5879C213.022 64.5879 211.805 64.992 210.859 65.8002C210.453 66.137 209.777 66.137 209.439 65.6655C209.101 65.2614 209.101 64.5879 209.574 64.2512C210.183 63.7124 210.926 63.3083 211.67 63.0389C210.318 58.2571 205.924 54.8896 200.921 54.8896C196.391 54.8896 192.335 57.5836 190.577 61.6919C190.375 62.2307 189.766 62.4328 189.225 62.2307C188.684 62.0287 188.482 61.4225 188.684 60.8837C188.887 60.3449 189.158 59.8735 189.428 59.402C189.023 59.3347 188.684 59.3347 188.279 59.3347C183.952 59.3347 180.437 62.8369 180.437 67.1472C180.437 67.686 179.963 68.1575 179.423 68.1575C178.882 68.1575 178.409 67.686 178.409 67.1472C178.409 66.7431 178.476 66.2717 178.476 65.8676C176.042 65.8676 174.082 67.8881 174.082 70.3126C174.082 70.8514 173.609 71.3229 173.068 71.3229H168.133C167.592 71.3229 167.119 70.8514 167.119 70.3126C167.119 69.7738 167.592 69.3024 168.133 69.3024H172.189C172.662 66.2043 175.366 63.8471 178.544 63.8471C178.679 63.8471 178.882 63.8471 179.017 63.8471C180.369 60.0755 184.02 57.3142 188.279 57.3142C189.09 57.3142 189.901 57.4489 190.713 57.651C193.214 54.6876 196.865 52.9365 200.921 52.9365C206.87 52.9365 212.143 56.9775 213.698 62.6348C213.901 62.5675 214.104 62.5675 214.239 62.5675Z" fill="#C4E4DD"></path><path d="M285.562 32.395H279.139C278.599 32.395 278.125 31.9235 278.125 31.3848C278.125 27.6132 275.016 24.5151 271.23 24.5151C269.607 24.5151 267.985 25.1213 266.768 26.1315C266.362 26.4683 265.686 26.4683 265.348 25.9968C265.01 25.5927 265.01 24.9192 265.483 24.5825C266.362 23.8416 267.309 23.3028 268.323 22.9661C266.633 16.7026 260.886 12.1902 254.261 12.1902C248.379 12.1902 243.174 15.6924 240.875 21.013C240.672 21.5518 240.064 21.7538 239.523 21.5518C238.982 21.3497 238.78 20.7436 238.982 20.2048C239.32 19.3966 239.726 18.6557 240.132 17.9823C239.523 17.8476 238.847 17.7802 238.239 17.7802C232.627 17.7802 228.03 22.36 228.03 27.9499C228.03 28.4887 227.557 28.9602 227.016 28.9602C226.475 28.9602 226.002 28.4887 226.002 27.9499C226.002 27.2765 226.07 26.6703 226.137 26.0642C226.07 26.0642 225.935 26.0642 225.867 26.0642C222.622 26.0642 219.985 28.6908 219.985 31.9236C219.985 32.4623 219.512 32.9338 218.971 32.9338H212.684C212.143 32.9338 211.67 32.4623 211.67 31.9236C211.67 31.3848 212.143 30.9133 212.684 30.9133H218.025C218.498 27.0071 221.878 24.0437 225.867 24.0437C226.137 24.0437 226.408 24.0437 226.611 24.111C228.233 19.2619 232.83 15.7597 238.239 15.7597C239.32 15.7597 240.402 15.8944 241.416 16.1638C244.526 12.3923 249.191 10.1024 254.261 10.1024C261.833 10.1024 268.39 15.2209 270.283 22.4273C270.621 22.4273 270.892 22.36 271.23 22.36C275.827 22.36 279.613 25.7948 280.086 30.2398H285.562C286.103 30.2398 286.576 30.7113 286.576 31.2501C286.576 31.9909 286.103 32.395 285.562 32.395Z" fill="#C4E4DD"></path><path d="M386.834 109.375H381.899C381.358 109.375 380.884 108.904 380.884 108.365C380.884 105.604 378.586 103.314 375.814 103.314C374.597 103.314 373.448 103.718 372.569 104.526C372.163 104.863 371.487 104.863 371.149 104.391C370.811 103.987 370.811 103.314 371.285 102.977C371.893 102.438 372.569 102.034 373.38 101.765C372.028 97.1176 367.769 93.8849 362.902 93.8849C358.507 93.8849 354.519 96.5115 352.829 100.552C352.626 101.091 352.017 101.293 351.476 101.091C350.936 100.889 350.733 100.283 350.936 99.7443C351.138 99.2728 351.409 98.734 351.679 98.3299C351.341 98.2626 350.936 98.2626 350.598 98.2626C346.406 98.2626 342.958 101.697 342.958 105.873C342.958 106.412 342.485 106.883 341.944 106.883C341.403 106.883 340.93 106.412 340.93 105.873C340.93 105.469 340.998 105.065 340.998 104.661C338.632 104.661 336.739 106.614 336.739 108.971C336.739 109.51 336.265 109.981 335.725 109.981H330.857C330.316 109.981 329.843 109.51 329.843 108.971C329.843 108.432 330.316 107.961 330.857 107.961H334.778C335.251 104.93 337.888 102.64 340.998 102.64C341.133 102.64 341.268 102.64 341.403 102.64C342.755 98.9361 346.271 96.2421 350.462 96.2421C351.274 96.2421 352.017 96.3768 352.829 96.5115C355.262 93.6155 358.845 91.8644 362.766 91.8644C368.58 91.8644 373.718 95.7706 375.273 101.361C375.476 101.361 375.611 101.361 375.814 101.361C379.397 101.361 382.372 103.987 382.845 107.422H386.834C387.375 107.422 387.848 107.894 387.848 108.432C387.848 108.904 387.375 109.375 386.834 109.375Z" fill="#C4E4DD"></path><path d="M82.2072 23.4375H75.3791C74.8383 23.4375 74.3651 22.9661 74.3651 22.4273C74.3651 18.3863 71.0524 15.0862 66.9962 15.0862C65.2384 15.0862 63.5483 15.6924 62.1962 16.8373C61.7906 17.1741 61.1146 17.1741 60.7765 16.7026C60.4385 16.2985 60.4385 15.625 60.9117 15.2883C61.7906 14.5474 62.8723 13.9413 63.954 13.5372C62.1962 6.80228 56.0442 2.02048 49.0133 2.02048C42.7937 2.02048 37.1825 5.72469 34.7488 11.4494C34.546 11.9882 33.9375 12.1902 33.3967 11.9882C32.8558 11.7861 32.653 11.18 32.8558 10.6412C33.1938 9.76564 33.6671 8.95745 34.1403 8.21661C33.4643 8.08191 32.7206 8.01456 31.977 8.01456C25.9601 8.01456 21.025 12.9311 21.025 18.9251C21.025 19.4639 20.5518 19.9354 20.0109 19.9354C19.4701 19.9354 18.9969 19.4639 18.9969 18.9251C18.9969 18.1843 19.0645 17.5108 19.1997 16.8373C19.0645 16.8373 18.9293 16.8373 18.794 16.8373C15.2786 16.8373 12.4392 19.666 12.4392 23.1681C12.4392 23.7069 11.966 24.1784 11.4252 24.1784H4.73229C4.19146 24.1784 3.71822 23.7069 3.71822 23.1681C3.71822 22.6294 4.19146 22.1579 4.73229 22.1579H10.4787C10.9519 18.0496 14.535 14.8168 18.794 14.8168C19.0645 14.8168 19.4025 14.8168 19.6729 14.8842C21.363 9.76564 26.2306 6.06143 31.977 6.06143C33.1262 6.06143 34.2755 6.19613 35.3572 6.53288C38.6698 2.42457 43.605 0 49.0133 0C56.9907 0 64.0216 5.45529 65.9821 13.1331C66.3201 13.0658 66.6581 13.0658 67.0638 13.0658C71.9313 13.0658 75.92 16.77 76.4608 21.4171H82.3424C82.8832 21.4171 83.3565 21.8885 83.3565 22.4273C83.2213 23.0334 82.748 23.4375 82.2072 23.4375Z" fill="#C4E4DD"></path><path d="M153.733 135.978L131.829 124.663H108.235V122.643H132.302L153.733 133.688V135.978Z" fill="#C4E4DD"></path><path d="M108.235 130.119H132.302L144.403 136.315V138.605L131.829 132.139H108.235V130.119Z" fill="#C4E4DD"></path><path d="M108.235 101.899V99.879H132.302L153.733 110.857V113.147L131.829 101.899H108.235Z" fill="#C4E4DD"></path><path d="M153.733 120.959L131.829 109.712H108.235V107.691H132.302L153.733 118.737V120.959Z" fill="#C4E4DD"></path><path d="M153.733 128.098L131.829 116.851H108.235V114.83H132.302L153.733 125.808V128.098Z" fill="#C4E4DD"></path></svg>