<svg xmlns="http://www.w3.org/2000/svg" width="70" height="27" viewBox="0 0 70 27" fill="none"><path d="M67.9962 4.20825L69.3949 2.3632C64.8762 -0.892765 59.1739 -0.784232 54.6552 2.6888C50.8896 5.61917 46.1557 5.61917 42.2825 2.6888C37.6561 -0.784232 31.7388 -0.784232 27.1124 2.6888C23.3468 5.61917 18.6129 5.61917 14.7397 2.6888C10.3285 -0.784232 4.51874 -0.892765 0 2.3632L1.39866 4.20825C3.22767 2.90586 5.16427 2.25467 7.20846 2.25467C9.36024 2.25467 11.512 3.01439 13.341 4.42531C15.6004 6.16183 18.1825 7.03008 20.8723 7.03008C23.562 7.03008 26.1441 6.16183 28.4035 4.42531C32.1691 1.49494 36.903 1.49494 40.7762 4.42531C45.4026 7.89834 51.3199 7.89834 55.9463 4.42531C59.7119 1.60348 64.2306 1.49494 67.9962 4.20825Z" fill="#0E2E50"></path><path d="M1.39866 14.1932C5.16427 11.5884 9.68301 11.697 13.341 14.5188C17.9674 17.9918 23.8848 17.9918 28.5111 14.5188C30.4477 13.1079 32.5995 12.3482 34.6437 12.3482C36.7954 12.3482 38.9472 13.1079 40.7762 14.5188C43.0356 16.2553 45.6177 17.1236 48.3075 17.1236C50.9972 17.1236 53.5793 16.2553 55.8387 14.5188C59.4967 11.697 64.0154 11.5884 67.7811 14.1932L69.1797 12.3482C64.661 9.09219 58.8512 9.20073 54.44 12.6738C50.6744 15.6041 45.9405 15.6041 42.0673 12.6738C37.441 9.20073 31.5236 9.20073 26.8972 12.6738C23.1316 15.6041 18.3977 15.6041 14.5245 12.6738C10.3285 9.20073 4.51874 9.09219 0 12.3482L1.39866 14.1932Z" fill="#0E2E50"></path><path d="M40.8838 24.3952C43.1432 26.1317 45.7253 27 48.415 27C51.1048 27 53.6869 26.1317 55.9463 24.3952C59.6043 21.5734 64.123 21.4649 67.8886 24.0696L69.2873 22.2246C64.7686 18.9686 59.0664 19.0772 54.5476 22.5502C50.782 25.4806 46.0481 25.4806 42.1749 22.5502C37.5486 19.0772 31.6312 19.0772 27.0048 22.5502C23.2392 25.4806 18.3977 25.4806 14.6321 22.5502C10.3285 19.1857 4.51874 19.0772 0 22.2246L1.39866 24.0696C5.16427 21.4649 9.68301 21.5734 13.341 24.3952C17.9674 27.8683 23.8848 27.8683 28.5111 24.3952C30.4477 22.9843 32.5995 22.2246 34.6437 22.2246C36.7954 22.2246 38.9472 22.9843 40.8838 24.3952Z" fill="#0E2E50"></path></svg>