<svg xmlns="http://www.w3.org/2000/svg" width="191" height="178" viewBox="0 0 191 178" fill="none"><path d="M35.3009 2.2C35.9119 2.2 36.4072 1.70751 36.4072 1.1C36.4072 0.492487 35.9119 0 35.3009 0C34.6899 0 34.1946 0.492487 34.1946 1.1C34.1946 1.70751 34.6899 2.2 35.3009 2.2Z" fill="#5AA893"></path><path d="M35.3009 22.1C35.9119 22.1 36.4072 21.6075 36.4072 21C36.4072 20.3925 35.9119 19.9 35.3009 19.9C34.6899 19.9 34.1946 20.3925 34.1946 21C34.1946 21.6075 34.6899 22.1 35.3009 22.1Z" fill="#5AA893"></path><path d="M35.3009 42.1C35.9119 42.1 36.4072 41.6075 36.4072 41C36.4072 40.3925 35.9119 39.9 35.3009 39.9C34.6899 39.9 34.1946 40.3925 34.1946 41C34.1946 41.6075 34.6899 42.1 35.3009 42.1Z" fill="#5AA893"></path><path d="M35.3009 62.1C35.9119 62.1 36.4072 61.6075 36.4072 61C36.4072 60.3925 35.9119 59.9 35.3009 59.9C34.6899 59.9 34.1946 60.3925 34.1946 61C34.1946 61.6075 34.6899 62.1 35.3009 62.1Z" fill="#5AA893"></path><path d="M35.3009 82C35.9119 82 36.4072 81.5075 36.4072 80.9C36.4072 80.2925 35.9119 79.8 35.3009 79.8C34.6899 79.8 34.1946 80.2925 34.1946 80.9C34.1946 81.5075 34.6899 82 35.3009 82Z" fill="#5AA893"></path><path d="M18.2036 2.2C18.8146 2.2 19.3099 1.70751 19.3099 1.1C19.3099 0.492487 18.8146 0 18.2036 0C17.5926 0 17.0973 0.492487 17.0973 1.1C17.0973 1.70751 17.5926 2.2 18.2036 2.2Z" fill="#5AA893"></path><path d="M18.2036 22.1C18.8146 22.1 19.3099 21.6075 19.3099 21C19.3099 20.3925 18.8146 19.9 18.2036 19.9C17.5926 19.9 17.0973 20.3925 17.0973 21C17.0973 21.6075 17.5926 22.1 18.2036 22.1Z" fill="#5AA893"></path><path d="M18.2036 42.1C18.8146 42.1 19.3099 41.6075 19.3099 41C19.3099 40.3925 18.8146 39.9 18.2036 39.9C17.5926 39.9 17.0973 40.3925 17.0973 41C17.0973 41.6075 17.5926 42.1 18.2036 42.1Z" fill="#5AA893"></path><path d="M18.2036 62.1C18.8146 62.1 19.3099 61.6075 19.3099 61C19.3099 60.3925 18.8146 59.9 18.2036 59.9C17.5926 59.9 17.0973 60.3925 17.0973 61C17.0973 61.6075 17.5926 62.1 18.2036 62.1Z" fill="#5AA893"></path><path d="M18.2036 82C18.8146 82 19.3099 81.5075 19.3099 80.9C19.3099 80.2925 18.8146 79.8 18.2036 79.8C17.5926 79.8 17.0973 80.2925 17.0973 80.9C17.0973 81.5075 17.5926 82 18.2036 82Z" fill="#5AA893"></path><path d="M1.1063 2.2C1.71729 2.2 2.21259 1.70751 2.21259 1.1C2.21259 0.492487 1.71729 0 1.1063 0C0.495305 0 0 0.492487 0 1.1C0 1.70751 0.495305 2.2 1.1063 2.2Z" fill="#5AA893"></path><path d="M1.1063 22.1C1.71729 22.1 2.21259 21.6075 2.21259 21C2.21259 20.3925 1.71729 19.9 1.1063 19.9C0.495305 19.9 0 20.3925 0 21C0 21.6075 0.495305 22.1 1.1063 22.1Z" fill="#5AA893"></path><path d="M1.1063 42.1C1.71729 42.1 2.21259 41.6075 2.21259 41C2.21259 40.3925 1.71729 39.9 1.1063 39.9C0.495305 39.9 0 40.3925 0 41C0 41.6075 0.495305 42.1 1.1063 42.1Z" fill="#5AA893"></path><path d="M1.1063 62.1C1.71729 62.1 2.21259 61.6075 2.21259 61C2.21259 60.3925 1.71729 59.9 1.1063 59.9C0.495305 59.9 0 60.3925 0 61C0 61.6075 0.495305 62.1 1.1063 62.1Z" fill="#5AA893"></path><path d="M1.1063 82C1.71729 82 2.21259 81.5075 2.21259 80.9C2.21259 80.2925 1.71729 79.8 1.1063 79.8C0.495305 79.8 0 80.2925 0 80.9C0 81.5075 0.495305 82 1.1063 82Z" fill="#5AA893"></path><path d="M86.5928 2.2C87.2037 2.2 87.6991 1.70751 87.6991 1.1C87.6991 0.492487 87.2037 0 86.5928 0C85.9818 0 85.4865 0.492487 85.4865 1.1C85.4865 1.70751 85.9818 2.2 86.5928 2.2Z" fill="#5AA893"></path><path d="M86.5928 22.1C87.2037 22.1 87.6991 21.6075 87.6991 21C87.6991 20.3925 87.2037 19.9 86.5928 19.9C85.9818 19.9 85.4865 20.3925 85.4865 21C85.4865 21.6075 85.9818 22.1 86.5928 22.1Z" fill="#5AA893"></path><path d="M86.5928 42.1C87.2037 42.1 87.6991 41.6075 87.6991 41C87.6991 40.3925 87.2037 39.9 86.5928 39.9C85.9818 39.9 85.4865 40.3925 85.4865 41C85.4865 41.6075 85.9818 42.1 86.5928 42.1Z" fill="#5AA893"></path><path d="M86.5928 62.1C87.2037 62.1 87.6991 61.6075 87.6991 61C87.6991 60.3925 87.2037 59.9 86.5928 59.9C85.9818 59.9 85.4865 60.3925 85.4865 61C85.4865 61.6075 85.9818 62.1 86.5928 62.1Z" fill="#5AA893"></path><path d="M86.5928 82C87.2037 82 87.6991 81.5075 87.6991 80.9C87.6991 80.2925 87.2037 79.8 86.5928 79.8C85.9818 79.8 85.4865 80.2925 85.4865 80.9C85.4865 81.5075 85.9818 82 86.5928 82Z" fill="#5AA893"></path><path d="M69.4955 2.2C70.1065 2.2 70.6018 1.70751 70.6018 1.1C70.6018 0.492487 70.1065 0 69.4955 0C68.8845 0 68.3892 0.492487 68.3892 1.1C68.3892 1.70751 68.8845 2.2 69.4955 2.2Z" fill="#5AA893"></path><path d="M69.4955 22.1C70.1065 22.1 70.6018 21.6075 70.6018 21C70.6018 20.3925 70.1065 19.9 69.4955 19.9C68.8845 19.9 68.3892 20.3925 68.3892 21C68.3892 21.6075 68.8845 22.1 69.4955 22.1Z" fill="#5AA893"></path><path d="M69.4955 42.1C70.1065 42.1 70.6018 41.6075 70.6018 41C70.6018 40.3925 70.1065 39.9 69.4955 39.9C68.8845 39.9 68.3892 40.3925 68.3892 41C68.3892 41.6075 68.8845 42.1 69.4955 42.1Z" fill="#5AA893"></path><path d="M69.4955 62.1C70.1065 62.1 70.6018 61.6075 70.6018 61C70.6018 60.3925 70.1065 59.9 69.4955 59.9C68.8845 59.9 68.3892 60.3925 68.3892 61C68.3892 61.6075 68.8845 62.1 69.4955 62.1Z" fill="#5AA893"></path><path d="M69.4955 82C70.1065 82 70.6018 81.5075 70.6018 80.9C70.6018 80.2925 70.1065 79.8 69.4955 79.8C68.8845 79.8 68.3892 80.2925 68.3892 80.9C68.3892 81.5075 68.8845 82 69.4955 82Z" fill="#5AA893"></path><path d="M52.3982 2.2C53.0092 2.2 53.5045 1.70751 53.5045 1.1C53.5045 0.492487 53.0092 0 52.3982 0C51.7872 0 51.2919 0.492487 51.2919 1.1C51.2919 1.70751 51.7872 2.2 52.3982 2.2Z" fill="#5AA893"></path><path d="M52.3982 22.1C53.0092 22.1 53.5045 21.6075 53.5045 21C53.5045 20.3925 53.0092 19.9 52.3982 19.9C51.7872 19.9 51.2919 20.3925 51.2919 21C51.2919 21.6075 51.7872 22.1 52.3982 22.1Z" fill="#5AA893"></path><path d="M52.3982 42.1C53.0092 42.1 53.5045 41.6075 53.5045 41C53.5045 40.3925 53.0092 39.9 52.3982 39.9C51.7872 39.9 51.2919 40.3925 51.2919 41C51.2919 41.6075 51.7872 42.1 52.3982 42.1Z" fill="#5AA893"></path><path d="M52.3982 62.1C53.0092 62.1 53.5045 61.6075 53.5045 61C53.5045 60.3925 53.0092 59.9 52.3982 59.9C51.7872 59.9 51.2919 60.3925 51.2919 61C51.2919 61.6075 51.7872 62.1 52.3982 62.1Z" fill="#5AA893"></path><path d="M52.3982 82C53.0092 82 53.5045 81.5075 53.5045 80.9C53.5045 80.2925 53.0092 79.8 52.3982 79.8C51.7872 79.8 51.2919 80.2925 51.2919 80.9C51.2919 81.5075 51.7872 82 52.3982 82Z" fill="#5AA893"></path><path d="M35.3009 98.2C35.9119 98.2 36.4072 97.7075 36.4072 97.1C36.4072 96.4925 35.9119 96 35.3009 96C34.6899 96 34.1946 96.4925 34.1946 97.1C34.1946 97.7075 34.6899 98.2 35.3009 98.2Z" fill="#5AA893"></path><path d="M35.3009 118.1C35.9119 118.1 36.4072 117.608 36.4072 117C36.4072 116.392 35.9119 115.9 35.3009 115.9C34.6899 115.9 34.1946 116.392 34.1946 117C34.1946 117.608 34.6899 118.1 35.3009 118.1Z" fill="#5AA893"></path><path d="M35.3009 138.1C35.9119 138.1 36.4072 137.608 36.4072 137C36.4072 136.392 35.9119 135.9 35.3009 135.9C34.6899 135.9 34.1946 136.392 34.1946 137C34.1946 137.608 34.6899 138.1 35.3009 138.1Z" fill="#5AA893"></path><path d="M35.3009 158.1C35.9119 158.1 36.4072 157.608 36.4072 157C36.4072 156.392 35.9119 155.9 35.3009 155.9C34.6899 155.9 34.1946 156.392 34.1946 157C34.1946 157.608 34.6899 158.1 35.3009 158.1Z" fill="#5AA893"></path><path d="M35.3009 178C35.9119 178 36.4072 177.508 36.4072 176.9C36.4072 176.292 35.9119 175.8 35.3009 175.8C34.6899 175.8 34.1946 176.292 34.1946 176.9C34.1946 177.508 34.6899 178 35.3009 178Z" fill="#5AA893"></path><path d="M18.2036 98.2C18.8146 98.2 19.3099 97.7075 19.3099 97.1C19.3099 96.4925 18.8146 96 18.2036 96C17.5926 96 17.0973 96.4925 17.0973 97.1C17.0973 97.7075 17.5926 98.2 18.2036 98.2Z" fill="#5AA893"></path><path d="M18.2036 118.1C18.8146 118.1 19.3099 117.608 19.3099 117C19.3099 116.392 18.8146 115.9 18.2036 115.9C17.5926 115.9 17.0973 116.392 17.0973 117C17.0973 117.608 17.5926 118.1 18.2036 118.1Z" fill="#5AA893"></path><path d="M18.2036 138.1C18.8146 138.1 19.3099 137.608 19.3099 137C19.3099 136.392 18.8146 135.9 18.2036 135.9C17.5926 135.9 17.0973 136.392 17.0973 137C17.0973 137.608 17.5926 138.1 18.2036 138.1Z" fill="#5AA893"></path><path d="M18.2036 158.1C18.8146 158.1 19.3099 157.608 19.3099 157C19.3099 156.392 18.8146 155.9 18.2036 155.9C17.5926 155.9 17.0973 156.392 17.0973 157C17.0973 157.608 17.5926 158.1 18.2036 158.1Z" fill="#5AA893"></path><path d="M18.2036 178C18.8146 178 19.3099 177.508 19.3099 176.9C19.3099 176.292 18.8146 175.8 18.2036 175.8C17.5926 175.8 17.0973 176.292 17.0973 176.9C17.0973 177.508 17.5926 178 18.2036 178Z" fill="#5AA893"></path><path d="M1.1063 98.2C1.71729 98.2 2.21259 97.7075 2.21259 97.1C2.21259 96.4925 1.71729 96 1.1063 96C0.495305 96 0 96.4925 0 97.1C0 97.7075 0.495305 98.2 1.1063 98.2Z" fill="#5AA893"></path><path d="M1.1063 118.1C1.71729 118.1 2.21259 117.608 2.21259 117C2.21259 116.392 1.71729 115.9 1.1063 115.9C0.495305 115.9 0 116.392 0 117C0 117.608 0.495305 118.1 1.1063 118.1Z" fill="#5AA893"></path><path d="M1.1063 138.1C1.71729 138.1 2.21259 137.608 2.21259 137C2.21259 136.392 1.71729 135.9 1.1063 135.9C0.495305 135.9 0 136.392 0 137C0 137.608 0.495305 138.1 1.1063 138.1Z" fill="#5AA893"></path><path d="M1.1063 158.1C1.71729 158.1 2.21259 157.608 2.21259 157C2.21259 156.392 1.71729 155.9 1.1063 155.9C0.495305 155.9 0 156.392 0 157C0 157.608 0.495305 158.1 1.1063 158.1Z" fill="#5AA893"></path><path d="M1.1063 178C1.71729 178 2.21259 177.508 2.21259 176.9C2.21259 176.292 1.71729 175.8 1.1063 175.8C0.495305 175.8 0 176.292 0 176.9C0 177.508 0.495305 178 1.1063 178Z" fill="#5AA893"></path><path d="M86.5928 98.2C87.2037 98.2 87.6991 97.7075 87.6991 97.1C87.6991 96.4925 87.2037 96 86.5928 96C85.9818 96 85.4865 96.4925 85.4865 97.1C85.4865 97.7075 85.9818 98.2 86.5928 98.2Z" fill="#5AA893"></path><path d="M86.5928 118.1C87.2037 118.1 87.6991 117.608 87.6991 117C87.6991 116.392 87.2037 115.9 86.5928 115.9C85.9818 115.9 85.4865 116.392 85.4865 117C85.4865 117.608 85.9818 118.1 86.5928 118.1Z" fill="#5AA893"></path><path d="M86.5928 138.1C87.2037 138.1 87.6991 137.608 87.6991 137C87.6991 136.392 87.2037 135.9 86.5928 135.9C85.9818 135.9 85.4865 136.392 85.4865 137C85.4865 137.608 85.9818 138.1 86.5928 138.1Z" fill="#5AA893"></path><path d="M86.5928 158.1C87.2037 158.1 87.6991 157.608 87.6991 157C87.6991 156.392 87.2037 155.9 86.5928 155.9C85.9818 155.9 85.4865 156.392 85.4865 157C85.4865 157.608 85.9818 158.1 86.5928 158.1Z" fill="#5AA893"></path><path d="M86.5928 178C87.2037 178 87.6991 177.508 87.6991 176.9C87.6991 176.292 87.2037 175.8 86.5928 175.8C85.9818 175.8 85.4865 176.292 85.4865 176.9C85.4865 177.508 85.9818 178 86.5928 178Z" fill="#5AA893"></path><path d="M69.4955 98.2C70.1065 98.2 70.6018 97.7075 70.6018 97.1C70.6018 96.4925 70.1065 96 69.4955 96C68.8845 96 68.3892 96.4925 68.3892 97.1C68.3892 97.7075 68.8845 98.2 69.4955 98.2Z" fill="#5AA893"></path><path d="M69.4955 118.1C70.1065 118.1 70.6018 117.608 70.6018 117C70.6018 116.392 70.1065 115.9 69.4955 115.9C68.8845 115.9 68.3892 116.392 68.3892 117C68.3892 117.608 68.8845 118.1 69.4955 118.1Z" fill="#5AA893"></path><path d="M69.4955 138.1C70.1065 138.1 70.6018 137.608 70.6018 137C70.6018 136.392 70.1065 135.9 69.4955 135.9C68.8845 135.9 68.3892 136.392 68.3892 137C68.3892 137.608 68.8845 138.1 69.4955 138.1Z" fill="#5AA893"></path><path d="M69.4955 158.1C70.1065 158.1 70.6018 157.608 70.6018 157C70.6018 156.392 70.1065 155.9 69.4955 155.9C68.8845 155.9 68.3892 156.392 68.3892 157C68.3892 157.608 68.8845 158.1 69.4955 158.1Z" fill="#5AA893"></path><path d="M69.4955 178C70.1065 178 70.6018 177.508 70.6018 176.9C70.6018 176.292 70.1065 175.8 69.4955 175.8C68.8845 175.8 68.3892 176.292 68.3892 176.9C68.3892 177.508 68.8845 178 69.4955 178Z" fill="#5AA893"></path><path d="M52.3982 98.2C53.0092 98.2 53.5045 97.7075 53.5045 97.1C53.5045 96.4925 53.0092 96 52.3982 96C51.7872 96 51.2919 96.4925 51.2919 97.1C51.2919 97.7075 51.7872 98.2 52.3982 98.2Z" fill="#5AA893"></path><path d="M52.3982 118.1C53.0092 118.1 53.5045 117.608 53.5045 117C53.5045 116.392 53.0092 115.9 52.3982 115.9C51.7872 115.9 51.2919 116.392 51.2919 117C51.2919 117.608 51.7872 118.1 52.3982 118.1Z" fill="#5AA893"></path><path d="M52.3982 138.1C53.0092 138.1 53.5045 137.608 53.5045 137C53.5045 136.392 53.0092 135.9 52.3982 135.9C51.7872 135.9 51.2919 136.392 51.2919 137C51.2919 137.608 51.7872 138.1 52.3982 138.1Z" fill="#5AA893"></path><path d="M52.3982 158.1C53.0092 158.1 53.5045 157.608 53.5045 157C53.5045 156.392 53.0092 155.9 52.3982 155.9C51.7872 155.9 51.2919 156.392 51.2919 157C51.2919 157.608 51.7872 158.1 52.3982 158.1Z" fill="#5AA893"></path><path d="M52.3982 178C53.0092 178 53.5045 177.508 53.5045 176.9C53.5045 176.292 53.0092 175.8 52.3982 175.8C51.7872 175.8 51.2919 176.292 51.2919 176.9C51.2919 177.508 51.7872 178 52.3982 178Z" fill="#5AA893"></path><path d="M137.885 2.2C138.496 2.2 138.991 1.70751 138.991 1.1C138.991 0.492487 138.496 0 137.885 0C137.274 0 136.778 0.492487 136.778 1.1C136.778 1.70751 137.274 2.2 137.885 2.2Z" fill="#5AA893"></path><path d="M137.885 22.1C138.496 22.1 138.991 21.6075 138.991 21C138.991 20.3925 138.496 19.9 137.885 19.9C137.274 19.9 136.778 20.3925 136.778 21C136.778 21.6075 137.274 22.1 137.885 22.1Z" fill="#5AA893"></path><path d="M137.885 42.1C138.496 42.1 138.991 41.6075 138.991 41C138.991 40.3925 138.496 39.9 137.885 39.9C137.274 39.9 136.778 40.3925 136.778 41C136.778 41.6075 137.274 42.1 137.885 42.1Z" fill="#5AA893"></path><path d="M137.885 62.1C138.496 62.1 138.991 61.6075 138.991 61C138.991 60.3925 138.496 59.9 137.885 59.9C137.274 59.9 136.778 60.3925 136.778 61C136.778 61.6075 137.274 62.1 137.885 62.1Z" fill="#5AA893"></path><path d="M137.885 82C138.496 82 138.991 81.5075 138.991 80.9C138.991 80.2925 138.496 79.8 137.885 79.8C137.274 79.8 136.778 80.2925 136.778 80.9C136.778 81.5075 137.274 82 137.885 82Z" fill="#5AA893"></path><path d="M120.787 2.2C121.398 2.2 121.894 1.70751 121.894 1.1C121.894 0.492487 121.398 0 120.787 0C120.176 0 119.681 0.492487 119.681 1.1C119.681 1.70751 120.176 2.2 120.787 2.2Z" fill="#5AA893"></path><path d="M120.787 22.1C121.398 22.1 121.894 21.6075 121.894 21C121.894 20.3925 121.398 19.9 120.787 19.9C120.176 19.9 119.681 20.3925 119.681 21C119.681 21.6075 120.176 22.1 120.787 22.1Z" fill="#5AA893"></path><path d="M120.787 42.1C121.398 42.1 121.894 41.6075 121.894 41C121.894 40.3925 121.398 39.9 120.787 39.9C120.176 39.9 119.681 40.3925 119.681 41C119.681 41.6075 120.176 42.1 120.787 42.1Z" fill="#5AA893"></path><path d="M120.787 62.1C121.398 62.1 121.894 61.6075 121.894 61C121.894 60.3925 121.398 59.9 120.787 59.9C120.176 59.9 119.681 60.3925 119.681 61C119.681 61.6075 120.176 62.1 120.787 62.1Z" fill="#5AA893"></path><path d="M120.787 82C121.398 82 121.894 81.5075 121.894 80.9C121.894 80.2925 121.398 79.8 120.787 79.8C120.176 79.8 119.681 80.2925 119.681 80.9C119.681 81.5075 120.176 82 120.787 82Z" fill="#5AA893"></path><path d="M103.69 2.2C104.301 2.2 104.796 1.70751 104.796 1.1C104.796 0.492487 104.301 0 103.69 0C103.079 0 102.584 0.492487 102.584 1.1C102.584 1.70751 103.079 2.2 103.69 2.2Z" fill="#5AA893"></path><path d="M103.69 22.1C104.301 22.1 104.796 21.6075 104.796 21C104.796 20.3925 104.301 19.9 103.69 19.9C103.079 19.9 102.584 20.3925 102.584 21C102.584 21.6075 103.079 22.1 103.69 22.1Z" fill="#5AA893"></path><path d="M103.69 42.1C104.301 42.1 104.796 41.6075 104.796 41C104.796 40.3925 104.301 39.9 103.69 39.9C103.079 39.9 102.584 40.3925 102.584 41C102.584 41.6075 103.079 42.1 103.69 42.1Z" fill="#5AA893"></path><path d="M103.69 62.1C104.301 62.1 104.796 61.6075 104.796 61C104.796 60.3925 104.301 59.9 103.69 59.9C103.079 59.9 102.584 60.3925 102.584 61C102.584 61.6075 103.079 62.1 103.69 62.1Z" fill="#5AA893"></path><path d="M103.69 82C104.301 82 104.796 81.5075 104.796 80.9C104.796 80.2925 104.301 79.8 103.69 79.8C103.079 79.8 102.584 80.2925 102.584 80.9C102.584 81.5075 103.079 82 103.69 82Z" fill="#5AA893"></path><path d="M189.177 2.2C189.788 2.2 190.283 1.70751 190.283 1.1C190.283 0.492487 189.788 0 189.177 0C188.566 0 188.07 0.492487 188.07 1.1C188.07 1.70751 188.566 2.2 189.177 2.2Z" fill="#5AA893"></path><path d="M189.177 22.1C189.788 22.1 190.283 21.6075 190.283 21C190.283 20.3925 189.788 19.9 189.177 19.9C188.566 19.9 188.07 20.3925 188.07 21C188.07 21.6075 188.566 22.1 189.177 22.1Z" fill="#5AA893"></path><path d="M189.177 42.1C189.788 42.1 190.283 41.6075 190.283 41C190.283 40.3925 189.788 39.9 189.177 39.9C188.566 39.9 188.07 40.3925 188.07 41C188.07 41.6075 188.566 42.1 189.177 42.1Z" fill="#5AA893"></path><path d="M189.177 62.1C189.788 62.1 190.283 61.6075 190.283 61C190.283 60.3925 189.788 59.9 189.177 59.9C188.566 59.9 188.07 60.3925 188.07 61C188.07 61.6075 188.566 62.1 189.177 62.1Z" fill="#5AA893"></path><path d="M189.177 82C189.788 82 190.283 81.5075 190.283 80.9C190.283 80.2925 189.788 79.8 189.177 79.8C188.566 79.8 188.07 80.2925 188.07 80.9C188.07 81.5075 188.566 82 189.177 82Z" fill="#5AA893"></path><path d="M172.079 2.2C172.69 2.2 173.186 1.70751 173.186 1.1C173.186 0.492487 172.69 0 172.079 0C171.468 0 170.973 0.492487 170.973 1.1C170.973 1.70751 171.468 2.2 172.079 2.2Z" fill="#5AA893"></path><path d="M172.079 22.1C172.69 22.1 173.186 21.6075 173.186 21C173.186 20.3925 172.69 19.9 172.079 19.9C171.468 19.9 170.973 20.3925 170.973 21C170.973 21.6075 171.468 22.1 172.079 22.1Z" fill="#5AA893"></path><path d="M172.079 42.1C172.69 42.1 173.186 41.6075 173.186 41C173.186 40.3925 172.69 39.9 172.079 39.9C171.468 39.9 170.973 40.3925 170.973 41C170.973 41.6075 171.468 42.1 172.079 42.1Z" fill="#5AA893"></path><path d="M172.079 62.1C172.69 62.1 173.186 61.6075 173.186 61C173.186 60.3925 172.69 59.9 172.079 59.9C171.468 59.9 170.973 60.3925 170.973 61C170.973 61.6075 171.468 62.1 172.079 62.1Z" fill="#5AA893"></path><path d="M172.079 82C172.69 82 173.186 81.5075 173.186 80.9C173.186 80.2925 172.69 79.8 172.079 79.8C171.468 79.8 170.973 80.2925 170.973 80.9C170.973 81.5075 171.468 82 172.079 82Z" fill="#5AA893"></path><path d="M154.982 2.2C155.593 2.2 156.088 1.70751 156.088 1.1C156.088 0.492487 155.593 0 154.982 0C154.371 0 153.876 0.492487 153.876 1.1C153.876 1.70751 154.371 2.2 154.982 2.2Z" fill="#5AA893"></path><path d="M154.982 22.1C155.593 22.1 156.088 21.6075 156.088 21C156.088 20.3925 155.593 19.9 154.982 19.9C154.371 19.9 153.876 20.3925 153.876 21C153.876 21.6075 154.371 22.1 154.982 22.1Z" fill="#5AA893"></path><path d="M154.982 42.1C155.593 42.1 156.088 41.6075 156.088 41C156.088 40.3925 155.593 39.9 154.982 39.9C154.371 39.9 153.876 40.3925 153.876 41C153.876 41.6075 154.371 42.1 154.982 42.1Z" fill="#5AA893"></path><path d="M154.982 62.1C155.593 62.1 156.088 61.6075 156.088 61C156.088 60.3925 155.593 59.9 154.982 59.9C154.371 59.9 153.876 60.3925 153.876 61C153.876 61.6075 154.371 62.1 154.982 62.1Z" fill="#5AA893"></path><path d="M154.982 82C155.593 82 156.088 81.5075 156.088 80.9C156.088 80.2925 155.593 79.8 154.982 79.8C154.371 79.8 153.876 80.2925 153.876 80.9C153.876 81.5075 154.371 82 154.982 82Z" fill="#5AA893"></path><path d="M137.885 98.2C138.496 98.2 138.991 97.7075 138.991 97.1C138.991 96.4925 138.496 96 137.885 96C137.274 96 136.778 96.4925 136.778 97.1C136.778 97.7075 137.274 98.2 137.885 98.2Z" fill="#5AA893"></path><path d="M137.885 118.1C138.496 118.1 138.991 117.608 138.991 117C138.991 116.392 138.496 115.9 137.885 115.9C137.274 115.9 136.778 116.392 136.778 117C136.778 117.608 137.274 118.1 137.885 118.1Z" fill="#5AA893"></path><path d="M137.885 138.1C138.496 138.1 138.991 137.608 138.991 137C138.991 136.392 138.496 135.9 137.885 135.9C137.274 135.9 136.778 136.392 136.778 137C136.778 137.608 137.274 138.1 137.885 138.1Z" fill="#5AA893"></path><path d="M137.885 158.1C138.496 158.1 138.991 157.608 138.991 157C138.991 156.392 138.496 155.9 137.885 155.9C137.274 155.9 136.778 156.392 136.778 157C136.778 157.608 137.274 158.1 137.885 158.1Z" fill="#5AA893"></path><path d="M137.885 178C138.496 178 138.991 177.508 138.991 176.9C138.991 176.292 138.496 175.8 137.885 175.8C137.274 175.8 136.778 176.292 136.778 176.9C136.778 177.508 137.274 178 137.885 178Z" fill="#5AA893"></path><path d="M120.787 98.2C121.398 98.2 121.894 97.7075 121.894 97.1C121.894 96.4925 121.398 96 120.787 96C120.176 96 119.681 96.4925 119.681 97.1C119.681 97.7075 120.176 98.2 120.787 98.2Z" fill="#5AA893"></path><path d="M120.787 118.1C121.398 118.1 121.894 117.608 121.894 117C121.894 116.392 121.398 115.9 120.787 115.9C120.176 115.9 119.681 116.392 119.681 117C119.681 117.608 120.176 118.1 120.787 118.1Z" fill="#5AA893"></path><path d="M120.787 138.1C121.398 138.1 121.894 137.608 121.894 137C121.894 136.392 121.398 135.9 120.787 135.9C120.176 135.9 119.681 136.392 119.681 137C119.681 137.608 120.176 138.1 120.787 138.1Z" fill="#5AA893"></path><path d="M120.787 158.1C121.398 158.1 121.894 157.608 121.894 157C121.894 156.392 121.398 155.9 120.787 155.9C120.176 155.9 119.681 156.392 119.681 157C119.681 157.608 120.176 158.1 120.787 158.1Z" fill="#5AA893"></path><path d="M120.787 178C121.398 178 121.894 177.508 121.894 176.9C121.894 176.292 121.398 175.8 120.787 175.8C120.176 175.8 119.681 176.292 119.681 176.9C119.681 177.508 120.176 178 120.787 178Z" fill="#5AA893"></path><path d="M103.69 98.2C104.301 98.2 104.796 97.7075 104.796 97.1C104.796 96.4925 104.301 96 103.69 96C103.079 96 102.584 96.4925 102.584 97.1C102.584 97.7075 103.079 98.2 103.69 98.2Z" fill="#5AA893"></path><path d="M103.69 118.1C104.301 118.1 104.796 117.608 104.796 117C104.796 116.392 104.301 115.9 103.69 115.9C103.079 115.9 102.584 116.392 102.584 117C102.584 117.608 103.079 118.1 103.69 118.1Z" fill="#5AA893"></path><path d="M103.69 138.1C104.301 138.1 104.796 137.608 104.796 137C104.796 136.392 104.301 135.9 103.69 135.9C103.079 135.9 102.584 136.392 102.584 137C102.584 137.608 103.079 138.1 103.69 138.1Z" fill="#5AA893"></path><path d="M103.69 158.1C104.301 158.1 104.796 157.608 104.796 157C104.796 156.392 104.301 155.9 103.69 155.9C103.079 155.9 102.584 156.392 102.584 157C102.584 157.608 103.079 158.1 103.69 158.1Z" fill="#5AA893"></path><path d="M103.69 178C104.301 178 104.796 177.508 104.796 176.9C104.796 176.292 104.301 175.8 103.69 175.8C103.079 175.8 102.584 176.292 102.584 176.9C102.584 177.508 103.079 178 103.69 178Z" fill="#5AA893"></path><path d="M189.177 98.2C189.788 98.2 190.283 97.7075 190.283 97.1C190.283 96.4925 189.788 96 189.177 96C188.566 96 188.07 96.4925 188.07 97.1C188.07 97.7075 188.566 98.2 189.177 98.2Z" fill="#5AA893"></path><path d="M189.177 118.1C189.788 118.1 190.283 117.608 190.283 117C190.283 116.392 189.788 115.9 189.177 115.9C188.566 115.9 188.07 116.392 188.07 117C188.07 117.608 188.566 118.1 189.177 118.1Z" fill="#5AA893"></path><path d="M189.177 138.1C189.788 138.1 190.283 137.608 190.283 137C190.283 136.392 189.788 135.9 189.177 135.9C188.566 135.9 188.07 136.392 188.07 137C188.07 137.608 188.566 138.1 189.177 138.1Z" fill="#5AA893"></path><path d="M189.177 158.1C189.788 158.1 190.283 157.608 190.283 157C190.283 156.392 189.788 155.9 189.177 155.9C188.566 155.9 188.07 156.392 188.07 157C188.07 157.608 188.566 158.1 189.177 158.1Z" fill="#5AA893"></path><path d="M189.177 178C189.788 178 190.283 177.508 190.283 176.9C190.283 176.292 189.788 175.8 189.177 175.8C188.566 175.8 188.07 176.292 188.07 176.9C188.07 177.508 188.566 178 189.177 178Z" fill="#5AA893"></path><path d="M172.079 98.2C172.69 98.2 173.186 97.7075 173.186 97.1C173.186 96.4925 172.69 96 172.079 96C171.468 96 170.973 96.4925 170.973 97.1C170.973 97.7075 171.468 98.2 172.079 98.2Z" fill="#5AA893"></path><path d="M172.079 118.1C172.69 118.1 173.186 117.608 173.186 117C173.186 116.392 172.69 115.9 172.079 115.9C171.468 115.9 170.973 116.392 170.973 117C170.973 117.608 171.468 118.1 172.079 118.1Z" fill="#5AA893"></path><path d="M172.079 138.1C172.69 138.1 173.186 137.608 173.186 137C173.186 136.392 172.69 135.9 172.079 135.9C171.468 135.9 170.973 136.392 170.973 137C170.973 137.608 171.468 138.1 172.079 138.1Z" fill="#5AA893"></path><path d="M172.079 158.1C172.69 158.1 173.186 157.608 173.186 157C173.186 156.392 172.69 155.9 172.079 155.9C171.468 155.9 170.973 156.392 170.973 157C170.973 157.608 171.468 158.1 172.079 158.1Z" fill="#5AA893"></path><path d="M172.079 178C172.69 178 173.186 177.508 173.186 176.9C173.186 176.292 172.69 175.8 172.079 175.8C171.468 175.8 170.973 176.292 170.973 176.9C170.973 177.508 171.468 178 172.079 178Z" fill="#5AA893"></path><path d="M154.982 98.2C155.593 98.2 156.088 97.7075 156.088 97.1C156.088 96.4925 155.593 96 154.982 96C154.371 96 153.876 96.4925 153.876 97.1C153.876 97.7075 154.371 98.2 154.982 98.2Z" fill="#5AA893"></path><path d="M154.982 118.1C155.593 118.1 156.088 117.608 156.088 117C156.088 116.392 155.593 115.9 154.982 115.9C154.371 115.9 153.876 116.392 153.876 117C153.876 117.608 154.371 118.1 154.982 118.1Z" fill="#5AA893"></path><path d="M154.982 138.1C155.593 138.1 156.088 137.608 156.088 137C156.088 136.392 155.593 135.9 154.982 135.9C154.371 135.9 153.876 136.392 153.876 137C153.876 137.608 154.371 138.1 154.982 138.1Z" fill="#5AA893"></path><path d="M154.982 158.1C155.593 158.1 156.088 157.608 156.088 157C156.088 156.392 155.593 155.9 154.982 155.9C154.371 155.9 153.876 156.392 153.876 157C153.876 157.608 154.371 158.1 154.982 158.1Z" fill="#5AA893"></path><path d="M154.982 178C155.593 178 156.088 177.508 156.088 176.9C156.088 176.292 155.593 175.8 154.982 175.8C154.371 175.8 153.876 176.292 153.876 176.9C153.876 177.508 154.371 178 154.982 178Z" fill="#5AA893"></path></svg>